<?xml version="1.0" encoding="utf-8"?>
<!-- Generator: Adobe Illustrator 24.3.0, SVG Export Plug-In . SVG Version: 6.00 Build 0)  -->
<svg version="1.1" id="Layer_1" xmlns="http://www.w3.org/2000/svg" xmlns:xlink="http://www.w3.org/1999/xlink" x="0px" y="0px"
	 viewBox="0 0 100 93.6" style="enable-background:new 0 0 100 93.6;" xml:space="preserve">
<style type="text/css">
	.st0{fill:#FFFFFF;}
</style>
<g>
	<path class="st0" d="M62.1,12.6c9.4,0,17.2,7.1,18.3,16.3c-0.8-0.8-1.8-1.8-3-2.9c-0.4-0.4-1-0.6-1.6-0.6s-1.1,0.3-1.5,0.7
		c-0.4,0.4-0.6,1-0.6,1.6s0.3,1.1,0.7,1.5c2.6,2.5,5.7,5.6,6.5,6.4c0.4,0.7,1.1,1.1,1.9,1.1c0.6,0,1.2-0.3,1.6-0.7l6.8-6.8
		c0.4-0.4,0.6-1,0.6-1.6s-0.2-1.1-0.6-1.6c-0.8-0.8-2.3-0.8-3.1,0l-3.2,3.2c-0.9-11.9-10.7-21-22.8-21c-1.2,0-2.2,1-2.2,2.2
		S60.9,12.6,62.1,12.6z"/>
	<path class="st0" d="M44.2,0L44.2,0H7.4C3.2,0.1,0,3.4,0,7.5V86c0,4.2,3.4,7.6,7.6,7.6h36.3c4.2,0,7.6-3.4,7.6-7.6V7.5
		C51.5,3.5,48.2,0.1,44.2,0z M25.7,87.6c-2.2,0-4.1-1.8-4.1-4.1c0-2.2,1.8-4.1,4.1-4.1c2.2,0,4.1,1.8,4.1,4.1
		C29.8,85.7,28,87.6,25.7,87.6z M46,71.6L46,71.6l-0.1,1c0,0.8-0.6,1.3-1.3,1.3H6.8c-0.8,0-1.3-0.6-1.3-1.3V13
		c0-0.8,0.6-1.3,1.3-1.3h37.8c0.8,0,1.3,0.6,1.3,1.3v58.6H46z"/>
	<path class="st0" d="M92.4,42.2h-33c-1.5,0-2.7,1.2-2.7,2.7s1.2,2.7,2.7,2.7H78v0.2h1c0.8,0,1.3,0.6,1.3,1.3v37.7
		c0,0.8-0.6,1.3-1.3,1.3H59.4c-1.5,0-2.7,1.2-2.7,2.7s1.2,2.7,2.7,2.7h33c4.2,0,7.6-3.4,7.6-7.6V49.7C100,45.6,96.6,42.2,92.4,42.2z
		 M89.9,72c-2.2,0-4.1-1.8-4.1-4.1c0-2.2,1.8-4.1,4.1-4.1s4.1,1.8,4.1,4.1C93.9,70.1,92.1,72,89.9,72z"/>
</g>
</svg>
