<?xml version="1.0" encoding="utf-8"?>
<!-- Generator: Adobe Illustrator 24.3.0, SVG Export Plug-In . SVG Version: 6.00 Build 0)  -->
<svg version="1.1" id="Layer_1" xmlns="http://www.w3.org/2000/svg" xmlns:xlink="http://www.w3.org/1999/xlink" x="0px" y="0px"
	 viewBox="0 0 95.8 125" style="enable-background:new 0 0 95.8 125;" xml:space="preserve">
<style type="text/css">
	.st0{fill:#FFFFFF;}
</style>
<path class="st0" d="M56.8,101.9H38.9c-0.7,0-1.3,0.6-1.3,1.3v2.4c0,0.7,0.6,1.3,1.3,1.3h17.9c0.7,0,1.3-0.6,1.3-1.3v-2.4
	C58.1,102.5,57.5,101.9,56.8,101.9z"/>
<path class="st0" d="M56.8,110.6H38.9c-0.7,0-1.3,0.6-1.3,1.3v2.4c0,0.7,0.6,1.3,1.3,1.3h17.9c0.7,0,1.3-0.6,1.3-1.3v-2.4
	C58.1,111.2,57.5,110.6,56.8,110.6z"/>
<path class="st0" d="M47.8,125c3.1,0,6.7-3.3,6.7-6H41.1C41.1,121.7,44.7,125,47.8,125z"/>
<path class="st0" d="M76.5,12.1L76.5,12.1L76.5,12.1c2.3-4-3.9-7.6-6.2-3.6c-1.2,2.1-9.9,17.2-9.9,17.2l6.2,3.6
	C66.6,29.2,74.4,15.8,76.5,12.1z"/>
<path class="st0" d="M90.4,26L90.4,26L90.4,26c-3.2,1.8-16.6,9.6-16.6,9.6l3.6,6.2c0,0,13.5-7.8,16.6-9.6C98,29.9,94.4,23.7,90.4,26
	z"/>
<path class="st0" d="M51.5,3.5c0-4.6-7.1-4.6-7.1,0c0,1.1,0,19,0,19h7.1C51.5,22.5,51.5,4.5,51.5,3.5z"/>
<path class="st0" d="M19.3,12.1L19.3,12.1c2.1,3.7,9.9,17.1,9.9,17.1l6.2-3.6c0,0-8.7-15.1-9.9-17.2C23.1,4.5,17,8.1,19.3,12.1
	L19.3,12.1z"/>
<path class="st0" d="M5.3,26L5.3,26c-4-2.3-7.6,3.9-3.6,6.2c3.1,1.8,16.6,9.6,16.6,9.6l3.6-6.2C21.9,35.6,8.5,27.8,5.3,26L5.3,26z"
	/>
<path class="st0" d="M47.8,29.6c-13.8,0-25,11.2-25,25c0,4.5,1.3,8.8,3.3,12.5c6.1,11.1,7.8,17.3,8.8,23.3c0.8,5,2,6.2,5.8,6.2
	c1.6,0,4.3,0,7.1,0s5.5,0,7.1,0c3.8,0,5-1.2,5.8-6.2c1-6,2.6-12.2,8.8-23.3c2.1-3.7,3.3-7.9,3.3-12.5C72.8,40.8,61.6,29.6,47.8,29.6
	z M37.5,67.4c-1.4-0.4-2.7-1-3.7-1.9c-0.9-0.8-1.6-1.7-2.1-2.7l-2.8-5.6c-0.5-1-0.1-2,0.9-2.4l5.9-2.2c1.1-0.4,2.2-0.6,3.4-0.5
	c0.9,0,1.9,0.2,2.9,0.6c4.2,1.7,6.5,6,5.4,9.9c-3.6-1.6-10.2-4-11.2-4c2.5,0.8,7.8,4,10.4,5.6C44.8,67,41.1,68.3,37.5,67.4z
	 M47.9,76.5c0.1-1.3,0.2-2.6,0.2-3.9c0-2.4-0.2-4.8-0.7-7c0.2-0.2,0.4-0.5,0.5-0.7c0,0,0.2-0.3,0.4-0.5c0.2,0.1,0.5,0.3,0.7,0.3
	c1.6,3.6,2.7,7.5,3.1,11.8C52.1,76.5,47.9,76.5,47.9,76.5z M64.7,44.5v8.1c0,1.5-0.3,2.9-0.9,4.3c-0.7,1.6-1.8,3.1-3.2,4.3
	c-3.5,3-8.3,3.5-11.9,1.6c0.1-0.5,0.2-1,0.3-1.5c2.3-3.5,6-9,8.2-11.1c-0.9,0.4-5,4.5-8.3,8.2c-0.5-2.5-2.2-4.9-4.6-6.4
	c0.5-1.8,1.4-3.6,2.8-5.1c1-1,2-1.8,3.1-2.4c1.3-0.7,2.8-1.2,4.2-1.3l8.1-0.8C63.9,42.3,65,43.3,64.7,44.5z"/>
</svg>
