<?xml version="1.0" encoding="utf-8"?>
<!-- Generator: Adobe Illustrator 24.3.0, SVG Export Plug-In . SVG Version: 6.00 Build 0)  -->
<svg version="1.1" id="Layer_1" xmlns="http://www.w3.org/2000/svg" xmlns:xlink="http://www.w3.org/1999/xlink" x="0px" y="0px"
	 viewBox="0 0 19.8 19.8" style="enable-background:new 0 0 19.8 19.8;" xml:space="preserve">
<style type="text/css">
	.st0{fill:#FFFFFF;}
</style>
<path class="st0" d="M12.01,10.12c-0.72,0.48-1.17,1.27-1.21,2.14v0.34c0,0.5-0.4,0.9-0.9,0.9c-0.5,0-0.9-0.4-0.9-0.9v-0.34
	c0.03-1.45,0.76-2.79,1.95-3.6c0.81-0.58,0.99-1.7,0.41-2.51c-0.27-0.38-0.68-0.63-1.13-0.72c-0.98-0.18-1.92,0.46-2.1,1.44
	C8.11,6.98,8.1,7.09,8.1,7.2c0,0.5-0.4,0.9-0.9,0.9S6.3,7.7,6.3,7.2c0-1.99,1.61-3.6,3.6-3.6s3.6,1.61,3.6,3.6
	C13.5,8.36,12.94,9.44,12.01,10.12 M9.9,16.2c-0.5,0-0.9-0.4-0.9-0.9s0.4-0.9,0.9-0.9c0.5,0,0.9,0.4,0.9,0.9S10.4,16.2,9.9,16.2
	 M9.9,0C4.43,0,0,4.43,0,9.9s4.43,9.9,9.9,9.9s9.9-4.43,9.9-9.9C19.79,4.44,15.36,0.01,9.9,0"/>
</svg>
