<?xml version="1.0" encoding="utf-8"?>
<!-- Generator: Adobe Illustrator 24.3.0, SVG Export Plug-In . SVG Version: 6.00 Build 0)  -->
<svg version="1.1" id="Layer_1" xmlns="http://www.w3.org/2000/svg" xmlns:xlink="http://www.w3.org/1999/xlink" x="0px" y="0px"
	 viewBox="0 0 94.9 73.3" style="enable-background:new 0 0 94.9 73.3;" xml:space="preserve">
<g id="Layer_2_1_">
</g>
<g id="Layer_1_1_">
	<path d="M72.1,59.7c-6.7-1.5-14-2.4-21.7-2.6V38.5H56c5.7,0,10.3-4.6,10.3-10.3c0-3.4-1.6-6.4-4.2-8.3c0.6-1.2,1-2.5,1-3.9
		c0-4.3-3.3-7.9-7.5-8.3C55.2,3.4,51.7,0,47.3,0s-8,3.4-8.3,7.7c-4.2,0.4-7.5,4-7.5,8.3c0,1.4,0.3,2.7,1,3.9
		c-2.5,1.9-4.2,4.9-4.2,8.3c0,5.7,4.6,10.3,10.3,10.3h5.8V57c-7.7,0.2-15,1.1-21.6,2.6V45.2h4.8c2.4,0,4.6-0.9,6.2-2.4
		c-6.1-2.1-10.5-7.8-10.5-14.6c0-3.5,1.3-7,3.4-9.7c-0.2-0.8-0.2-1.6-0.2-2.4c0-0.4,0-0.8,0.1-1.2c-1.2-2.6-3.8-4.5-6.9-4.5
		c-4,0-7.2,3.1-7.5,6.9c-3.8,0.4-6.8,3.6-6.8,7.5c0,1.3,0.3,2.4,0.9,3.5C4,30,2.5,32.7,2.5,35.8c0,5.2,4.2,9.4,9.4,9.4h4.8v16.1
		c-5.8,1.8-11,4-15.3,6.6c-2.7,1.6-1.2,5.9,1.9,5.4c13.3-1.8,28.3-2.8,44.2-2.8s30.9,1,44.2,2.8c3,0.4,4.5-3.8,1.8-5.4
		c-4.3-2.6-9.5-4.8-15.3-6.6L72.1,59.7z"/>
</g>
<g>
	<path d="M67.7,23.2v32.6c15.9,1.4,27.2,9.1,27.2,9.1V23.2H67.7z M78.6,43.2h-5.5v-5.5h5.5V43.2z M78.6,33.7h-5.5v-5.5h5.5V33.7z
		 M89.5,43.2H84v-5.5h5.5V43.2z M89.5,33.7H84v-5.5h5.5V33.7z"/>
</g>
<g>
	<path d="M30.3,54c0,0-0.2,0.2,0.1,0.3c0,0,0.4,0.1,0.4,0.4c0,0,0,0.3,0.1,0.4c0,0,0.2,0,0,0.5c0,0-0.1,0.5-0.3,0.8
		c0,0-0.1,0.1-0.1,0.3c0,0,0,0,0,0c0,0.2,0,0.3-0.2,0.4c0,0-0.2,0.1-0.2,0.4c0,0,0.1,0.2-0.3,0.4c0,0-0.1,0.1,0,0.1
		c0,0,0.1,0,0.2-0.2c0,0,0.4-0.4,0.5-0.5c0,0,0.4-0.4,0.5-1.1c0,0,0.1-0.4,0.1-0.6c0,0,0,0.5-0.1,0.9c0,0,0.1,0,0.2-0.4
		c0,0-0.1,0.7-0.6,1.2c0,0-0.4,0.6-1.2,0.9c0,0,0.3,0.1,1-0.4c0,0,0.9-0.8,1-1.9c0,0,0.2-0.7,0.8-0.8c0,0,0.6-0.1,0-0.7
		c0,0-0.2-0.2-0.1-0.5c0,0,0.2-0.7-1-0.2c0,0-0.3-0.4-0.6,0C30.6,53.7,30.2,53.7,30.3,54z"/>
	<path d="M30.5,54.8c0-0.3-0.3-0.4-0.3-0.4c-0.3,0-0.2-0.5-0.2-0.5c0-0.3-0.2-0.3-0.2-0.3c-0.3-0.2-0.1-0.6-0.1-0.6
		c-0.3,0-0.4-0.1-0.4-0.1c-0.5-0.2-0.6,0.2-0.6,0.2c-0.3-0.1-0.2,0.2-0.2,0.2c-0.1,0.4-0.3,0-0.3,0l0-0.3l-0.3-0.2l-0.3-0.1L27,53
		c-1.1-0.3-0.8,0.5-0.8,0.5c-0.2,1.1,0.5,1.1,0.5,1.1c0.1,0.3,0.4,0.3,0.4,0.3c0.1,0.7,0.6,1.4,0.6,1.4c0,0.1,0.1,0.3,0.1,0.3l0,0.2
		c0,0.3,0.4,0.4,0.4,0.4c0.2,0.1,0.3,0.4,0.3,0.4c0.1,0.1,0.1,0.3,0.1,0.3c-0.1-0.1-0.3-0.1-0.3-0.1c-0.2-0.5-0.3-0.5-0.3-0.5
		c-0.3-0.1-0.4-0.3-0.4-0.3c-0.1-0.1,0-0.4,0-0.4c-0.1-0.1-0.1-0.3-0.1-0.3c-0.1-0.1-0.2-0.3-0.2-0.3C27,55.5,27,55,27,55h-0.1
		c-0.2-0.2-0.5-0.4-0.5-0.4C26,54.5,26.1,54,26.1,54l-0.4,0.1l-0.2,0.3l-0.3,0.1l-0.2-0.2l-0.2,0.1c-0.2,0.1-0.4,0.5-0.4,0.5
		l0.3,0.2l0,0.3l-0.2,0.1c0,0.3,0.2,1,0.2,1c0.2-0.2,0.7-0.3,0.7-0.3c0.4-0.1,0.9,0.1,0.9,0.1c0.3,0.2,0.8,0.9,0.8,0.9
		c0.1,0.4,0.6,0.5,0.6,0.5c0.3,0.2,0.8,0.3,0.8,0.3c0.2,0.1,0.3,0.3,0.3,0.3l0.1,0.3l0.2,0c0.1-0.2,0.3-0.4,0.3-0.4
		c0-0.2,0.3-0.2,0.3-0.2c-0.1-0.1,0-0.2,0-0.2c0.3-0.2,0.3-0.4,0.3-0.4c0-0.5,0.2-0.5,0.2-0.5c0.3-0.1,0.2-0.6,0.2-0.6
		c0-0.1,0.2-0.4,0.2-0.4C30.9,55.2,30.5,54.8,30.5,54.8z M25.2,55.9c0.8-0.2,0-0.9,0-0.9c0.3,0.1,0.7,0.6,0.7,0.6
		c0.2-0.1,0.6,0.1,0.6,0.1c0.1-0.1-0.2-0.7-0.2-0.7c0.3,0.2,0.7,1.4,0.7,1.4C26.5,55.5,25.2,55.9,25.2,55.9z M28.9,57
		c0.1,0.4,0.1,1.2,0.1,1.2c-0.1,0.4-0.5-1.2-0.5-1.2c-0.5-0.4-0.7-1.3-0.7-1.3c0.1,0.2,0.6,0.6,0.6,0.6l-0.2-0.7l-0.5-0.5l0.4,0.2
		c0-0.4-0.7-1.2-0.7-1.2c0,0,0.1,0,0.1,0.1c0.3,0.2,0.5,0.5,0.5,0.5l0.2-0.4c0.1,0.3,0,0.6,0,0.6l0.4,0.8c0.2,0,0.4-0.6,0.4-0.6
		c-0.1,0.5-0.4,0.9-0.4,0.9l0.2,0.5c0.5-0.1,1.2-1,1.2-1C29.8,56.1,28.9,57,28.9,57z"/>
</g>
<g>
	<path d="M39.1,52.8c0,0-0.2,0.2,0.1,0.3c0,0,0.4,0.1,0.4,0.4c0,0,0,0.3,0.1,0.4c0,0,0.2,0,0,0.5c0,0-0.1,0.5-0.3,0.8
		c0,0-0.1,0.1-0.1,0.3c0,0,0,0,0,0c0,0.2,0,0.3-0.2,0.4c0,0-0.2,0.1-0.2,0.4c0,0,0.1,0.2-0.3,0.4c0,0-0.1,0.1,0,0.1
		c0,0,0.1,0,0.2-0.2c0,0,0.4-0.4,0.5-0.5c0,0,0.4-0.4,0.5-1.1c0,0,0.1-0.4,0.1-0.6c0,0,0,0.5-0.1,0.9c0,0,0.1,0,0.2-0.4
		c0,0-0.1,0.7-0.6,1.2c0,0-0.4,0.6-1.2,0.9c0,0,0.3,0.1,1-0.4c0,0,0.9-0.8,1-1.9c0,0,0.2-0.7,0.8-0.8c0,0,0.6-0.1,0-0.7
		c0,0-0.2-0.2-0.1-0.5c0,0,0.2-0.7-1-0.2c0,0-0.3-0.4-0.6,0C39.4,52.6,39,52.5,39.1,52.8z"/>
	<path d="M39.3,53.7c0-0.3-0.3-0.4-0.3-0.4c-0.3,0-0.2-0.5-0.2-0.5c0-0.3-0.2-0.3-0.2-0.3c-0.3-0.2-0.1-0.6-0.1-0.6
		c-0.3,0-0.4-0.1-0.4-0.1c-0.5-0.2-0.6,0.2-0.6,0.2c-0.3-0.1-0.2,0.2-0.2,0.2c-0.1,0.4-0.3,0-0.3,0l0-0.3l-0.3-0.2l-0.3-0.1
		l-0.5,0.2c-1.1-0.3-0.8,0.5-0.8,0.5c-0.2,1.1,0.5,1.1,0.5,1.1c0.1,0.3,0.4,0.3,0.4,0.3c0.1,0.7,0.6,1.4,0.6,1.4
		c0,0.1,0.1,0.3,0.1,0.3l0,0.2c0,0.3,0.4,0.4,0.4,0.4c0.2,0.1,0.3,0.4,0.3,0.4c0.1,0.1,0.1,0.3,0.1,0.3c-0.1-0.1-0.3-0.1-0.3-0.1
		c-0.2-0.5-0.3-0.5-0.3-0.5c-0.3-0.1-0.4-0.3-0.4-0.3c-0.1-0.1,0-0.4,0-0.4c-0.1-0.1-0.1-0.3-0.1-0.3c-0.1-0.1-0.2-0.3-0.2-0.3
		c-0.3-0.5-0.3-0.9-0.3-0.9h-0.1c-0.2-0.2-0.5-0.4-0.5-0.4c-0.4-0.2-0.3-0.6-0.3-0.6L34.6,53l-0.2,0.3L34,53.4l-0.2-0.2l-0.2,0.1
		c-0.2,0.1-0.4,0.5-0.4,0.5l0.3,0.2l0,0.3l-0.2,0.1c0,0.3,0.2,1,0.2,1c0.2-0.2,0.7-0.3,0.7-0.3c0.4-0.1,0.9,0.1,0.9,0.1
		c0.3,0.2,0.8,0.9,0.8,0.9c0.1,0.4,0.6,0.5,0.6,0.5c0.3,0.2,0.8,0.3,0.8,0.3c0.2,0.1,0.3,0.3,0.3,0.3l0.1,0.3l0.2,0
		c0.1-0.2,0.3-0.4,0.3-0.4c0-0.2,0.3-0.2,0.3-0.2c-0.1-0.1,0-0.2,0-0.2c0.3-0.2,0.3-0.4,0.3-0.4c0-0.5,0.2-0.5,0.2-0.5
		c0.3-0.1,0.2-0.6,0.2-0.6c0-0.1,0.2-0.4,0.2-0.4C39.8,54,39.3,53.7,39.3,53.7z M34,54.7c0.8-0.2,0-0.9,0-0.9
		c0.3,0.1,0.7,0.6,0.7,0.6c0.2-0.1,0.6,0.1,0.6,0.1c0.1-0.1-0.2-0.7-0.2-0.7c0.3,0.2,0.7,1.4,0.7,1.4C35.4,54.4,34,54.7,34,54.7z
		 M37.7,55.8c0.1,0.4,0.1,1.2,0.1,1.2c-0.1,0.4-0.5-1.2-0.5-1.2c-0.5-0.4-0.7-1.3-0.7-1.3c0.1,0.2,0.6,0.6,0.6,0.6L37,54.5L36.5,54
		l0.4,0.2c0-0.4-0.7-1.2-0.7-1.2c0,0,0.1,0,0.1,0.1c0.3,0.2,0.5,0.5,0.5,0.5l0.2-0.4c0.1,0.3,0,0.6,0,0.6l0.4,0.8
		c0.2,0,0.4-0.6,0.4-0.6c-0.1,0.5-0.4,0.9-0.4,0.9l0.2,0.5c0.5-0.1,1.2-1,1.2-1C38.7,55,37.7,55.8,37.7,55.8z"/>
</g>
<g>
	<path d="M59.6,52.9c0,0-0.2,0.2,0.1,0.3c0,0,0.4,0.1,0.4,0.4c0,0,0,0.3,0.1,0.4c0,0,0.2,0,0,0.5c0,0-0.1,0.5-0.3,0.8
		c0,0-0.1,0.1-0.1,0.3c0,0,0,0,0,0c0,0.2,0,0.3-0.2,0.4c0,0-0.2,0.1-0.2,0.4c0,0,0.1,0.2-0.3,0.4c0,0-0.1,0.1,0,0.1
		c0,0,0.1,0,0.2-0.2c0,0,0.4-0.4,0.5-0.5c0,0,0.4-0.4,0.5-1.1c0,0,0.1-0.4,0.1-0.6c0,0,0,0.5-0.1,0.9c0,0,0.1,0,0.2-0.4
		c0,0-0.1,0.7-0.6,1.2c0,0-0.4,0.6-1.2,0.9c0,0,0.3,0.1,1-0.4c0,0,0.9-0.8,1-1.9c0,0,0.2-0.7,0.8-0.8c0,0,0.6-0.1,0-0.7
		c0,0-0.2-0.2-0.1-0.5c0,0,0.2-0.7-1-0.2c0,0-0.3-0.4-0.6,0C59.9,52.7,59.5,52.6,59.6,52.9z"/>
	<path d="M59.8,53.8c0-0.3-0.3-0.4-0.3-0.4c-0.3,0-0.2-0.5-0.2-0.5c0-0.3-0.2-0.3-0.2-0.3C58.8,52.4,59,52,59,52
		c-0.3,0-0.4-0.1-0.4-0.1c-0.5-0.2-0.6,0.2-0.6,0.2c-0.3-0.1-0.2,0.2-0.2,0.2c-0.1,0.4-0.3,0-0.3,0l0-0.3l-0.3-0.2l-0.3-0.1
		l-0.5,0.2c-1.1-0.3-0.8,0.5-0.8,0.5c-0.2,1.1,0.5,1.1,0.5,1.1c0.1,0.3,0.4,0.3,0.4,0.3c0.1,0.7,0.6,1.4,0.6,1.4
		c0,0.1,0.1,0.3,0.1,0.3l0,0.2c0,0.3,0.4,0.4,0.4,0.4c0.2,0.1,0.3,0.4,0.3,0.4c0.1,0.1,0.1,0.3,0.1,0.3c-0.1-0.1-0.3-0.1-0.3-0.1
		c-0.2-0.5-0.3-0.5-0.3-0.5c-0.3-0.1-0.4-0.3-0.4-0.3c-0.1-0.1,0-0.4,0-0.4c-0.1-0.1-0.1-0.3-0.1-0.3c-0.1-0.1-0.2-0.3-0.2-0.3
		c-0.3-0.5-0.3-0.9-0.3-0.9h-0.1c-0.2-0.2-0.5-0.4-0.5-0.4c-0.4-0.2-0.3-0.6-0.3-0.6l-0.4,0.1l-0.2,0.3l-0.3,0.1l-0.2-0.2l-0.2,0.1
		c-0.2,0.1-0.4,0.5-0.4,0.5l0.3,0.2l0,0.3l-0.2,0.1c0,0.3,0.2,1,0.2,1c0.2-0.2,0.7-0.3,0.7-0.3c0.4-0.1,0.9,0.1,0.9,0.1
		c0.3,0.2,0.8,0.9,0.8,0.9c0.1,0.4,0.6,0.5,0.6,0.5c0.3,0.2,0.8,0.3,0.8,0.3c0.2,0.1,0.3,0.3,0.3,0.3l0.1,0.3l0.2,0
		c0.1-0.2,0.3-0.4,0.3-0.4c0-0.2,0.3-0.2,0.3-0.2c-0.1-0.1,0-0.2,0-0.2c0.3-0.2,0.3-0.4,0.3-0.4c0-0.5,0.2-0.5,0.2-0.5
		c0.3-0.1,0.2-0.6,0.2-0.6c0-0.1,0.2-0.4,0.2-0.4C60.3,54.1,59.8,53.8,59.8,53.8z M54.5,54.8c0.8-0.2,0-0.9,0-0.9
		c0.3,0.1,0.7,0.6,0.7,0.6c0.2-0.1,0.6,0.1,0.6,0.1c0.1-0.1-0.2-0.7-0.2-0.7c0.3,0.2,0.7,1.4,0.7,1.4C55.9,54.5,54.5,54.8,54.5,54.8
		z M58.2,55.9c0.1,0.4,0.1,1.2,0.1,1.2c-0.1,0.4-0.5-1.2-0.5-1.2c-0.5-0.4-0.7-1.3-0.7-1.3c0.1,0.2,0.6,0.6,0.6,0.6l-0.2-0.7
		L57,54.1l0.4,0.2c0-0.4-0.7-1.2-0.7-1.2c0,0,0.1,0,0.1,0.1c0.3,0.2,0.5,0.5,0.5,0.5l0.2-0.4c0.1,0.3,0,0.6,0,0.6l0.4,0.8
		c0.2,0,0.4-0.6,0.4-0.6c-0.1,0.5-0.4,0.9-0.4,0.9l0.2,0.5c0.5-0.1,1.2-1,1.2-1C59.2,55.1,58.2,55.9,58.2,55.9z"/>
</g>
</svg>
