<?xml version="1.0" encoding="utf-8"?>
<!-- Generator: Adobe Illustrator 24.3.0, SVG Export Plug-In . SVG Version: 6.00 Build 0)  -->
<svg version="1.1" id="Layer_1" xmlns="http://www.w3.org/2000/svg" xmlns:xlink="http://www.w3.org/1999/xlink" x="0px" y="0px"
	 viewBox="0 0 205.7 50" style="enable-background:new 0 0 205.7 50;" xml:space="preserve">
<style type="text/css">
	.st0{clip-path:url(#SVGID_2_);fill:#5C2D91;}
	.st1{clip-path:url(#SVGID_4_);fill:none;stroke:#5C2D91;stroke-width:0.237;stroke-miterlimit:10;}
	.st2{clip-path:url(#SVGID_6_);fill:#45196E;}
	.st3{clip-path:url(#SVGID_8_);fill:none;stroke:#45196E;stroke-width:0.237;stroke-miterlimit:10;}
	.st4{clip-path:url(#SVGID_10_);fill:#5C2D91;}
	.st5{clip-path:url(#SVGID_12_);fill:none;stroke:#5C2D91;stroke-width:0.237;stroke-miterlimit:10;}
	.st6{clip-path:url(#SVGID_14_);fill:#45196E;}
	.st7{clip-path:url(#SVGID_16_);fill:none;stroke:#45196E;stroke-width:0.237;stroke-miterlimit:10;}
	.st8{clip-path:url(#SVGID_18_);fill:#2BB6C9;}
	.st9{clip-path:url(#SVGID_20_);fill:none;stroke:#2BB6C9;stroke-width:0.237;stroke-miterlimit:10;}
	.st10{clip-path:url(#SVGID_22_);fill:#1E8C9B;}
	.st11{clip-path:url(#SVGID_24_);fill:none;stroke:#1E8C9B;stroke-width:0.237;stroke-miterlimit:10;}
	.st12{clip-path:url(#SVGID_26_);fill:none;stroke:#1E8C9B;stroke-width:0.237;stroke-miterlimit:10;}
	.st13{clip-path:url(#SVGID_28_);fill:none;stroke:#2BB6C9;stroke-width:0.237;stroke-miterlimit:10;}
	.st14{clip-path:url(#SVGID_30_);fill:none;stroke:#000000;stroke-width:0.237;stroke-miterlimit:10;}
	.st15{clip-path:url(#SVGID_32_);fill:#5C2D91;}
	.st16{clip-path:url(#SVGID_34_);fill:none;stroke:#5C2D91;stroke-width:0.237;stroke-miterlimit:10;}
	.st17{clip-path:url(#SVGID_36_);fill:#45196E;}
	.st18{clip-path:url(#SVGID_38_);fill:none;stroke:#45196E;stroke-width:0.237;stroke-miterlimit:10;}
	.st19{clip-path:url(#SVGID_40_);fill:#5C2D91;}
	.st20{clip-path:url(#SVGID_42_);fill:none;stroke:#5C2D91;stroke-width:0.237;stroke-miterlimit:10;}
	.st21{clip-path:url(#SVGID_44_);fill:#45196E;}
	.st22{clip-path:url(#SVGID_46_);fill:none;stroke:#45196E;stroke-width:0.237;stroke-miterlimit:10;}
	.st23{clip-path:url(#SVGID_48_);fill:#2BB6C9;}
	.st24{clip-path:url(#SVGID_50_);fill:none;stroke:#2BB6C9;stroke-width:0.237;stroke-miterlimit:10;}
	.st25{clip-path:url(#SVGID_52_);fill:#1E8C9B;}
	.st26{clip-path:url(#SVGID_54_);fill:none;stroke:#1E8C9B;stroke-width:0.237;stroke-miterlimit:10;}
	.st27{clip-path:url(#SVGID_56_);}
	.st28{clip-path:url(#SVGID_58_);fill:none;stroke:#000000;stroke-width:0.237;stroke-miterlimit:10;}
	.st29{fill:#2BB6C9;}
</style>
<g id="XMLID_1_">
	<g id="XMLID_14_">
		<g>
			<defs>
				<path id="SVGID_1_" d="M8.1,1.2C8.1,1.2,8,1.2,8.1,1.2C5.5,4.7,3.6,8.4,2.3,12.5c-1.5,4.8-2,9.8-1.6,14.8
					c0.2,3.2,0.8,6.4,1.7,9.4c1.3,4.1,3.2,7.8,5.7,11.3H16c0-0.1-0.1-0.2-0.1-0.3c-0.8-1.9-1.6-3.8-2.3-5.8
					c-1.4-4.3-2.3-8.7-2.5-13.2c-0.3-4.3-0.2-8.7,0.5-13c0.6-4,1.6-7.9,3.2-11.7c0.4-1,0.8-1.9,1.2-2.9H8.1V1.2z"/>
			</defs>
			<clipPath id="SVGID_2_">
				<use xlink:href="#SVGID_1_"  style="overflow:visible;"/>
			</clipPath>
			<path id="XMLID_15_" class="st0" d="M16.6-5.7c0,0,0.2,29.9,0.5,30.2S0.2-3,0.2-3L16.6-5.7z"/>
		</g>
		<g>
			<defs>
				<path id="SVGID_3_" d="M8.1,1.2C8.1,1.2,8,1.2,8.1,1.2C5.5,4.7,3.6,8.4,2.3,12.5c-1.5,4.8-2,9.8-1.6,14.8
					c0.2,3.2,0.8,6.4,1.7,9.4c1.3,4.1,3.2,7.8,5.7,11.3H16c0-0.1-0.1-0.2-0.1-0.3c-0.8-1.9-1.6-3.8-2.3-5.8
					c-1.4-4.3-2.3-8.7-2.5-13.2c-0.3-4.3-0.2-8.7,0.5-13c0.6-4,1.6-7.9,3.2-11.7c0.4-1,0.8-1.9,1.2-2.9H8.1V1.2z"/>
			</defs>
			<clipPath id="SVGID_4_">
				<use xlink:href="#SVGID_3_"  style="overflow:visible;"/>
			</clipPath>
			<path id="XMLID_16_" class="st1" d="M16.6-5.7c0,0,0.2,29.9,0.5,30.2S0.2-3,0.2-3L16.6-5.7z"/>
		</g>
		<g>
			<defs>
				<path id="SVGID_5_" d="M8.1,1.2C8.1,1.2,8,1.2,8.1,1.2C5.5,4.7,3.6,8.4,2.3,12.5c-1.5,4.8-2,9.8-1.6,14.8
					c0.2,3.2,0.8,6.4,1.7,9.4c1.3,4.1,3.2,7.8,5.7,11.3H16c0-0.1-0.1-0.2-0.1-0.3c-0.8-1.9-1.6-3.8-2.3-5.8
					c-1.4-4.3-2.3-8.7-2.5-13.2c-0.3-4.3-0.2-8.7,0.5-13c0.6-4,1.6-7.9,3.2-11.7c0.4-1,0.8-1.9,1.2-2.9H8.1V1.2z"/>
			</defs>
			<clipPath id="SVGID_6_">
				<use xlink:href="#SVGID_5_"  style="overflow:visible;"/>
			</clipPath>
			<path id="XMLID_17_" class="st2" d="M17.1,24.5c0,0-16.9-27.3-16.9-27.5c-0.1-0.2-13,11.2-13,11.5C-12.8,8.7,17.1,24.5,17.1,24.5
				"/>
		</g>
		<g>
			<defs>
				<path id="SVGID_7_" d="M8.1,1.2C8.1,1.2,8,1.2,8.1,1.2C5.5,4.7,3.6,8.4,2.3,12.5c-1.5,4.8-2,9.8-1.6,14.8
					c0.2,3.2,0.8,6.4,1.7,9.4c1.3,4.1,3.2,7.8,5.7,11.3H16c0-0.1-0.1-0.2-0.1-0.3c-0.8-1.9-1.6-3.8-2.3-5.8
					c-1.4-4.3-2.3-8.7-2.5-13.2c-0.3-4.3-0.2-8.7,0.5-13c0.6-4,1.6-7.9,3.2-11.7c0.4-1,0.8-1.9,1.2-2.9H8.1V1.2z"/>
			</defs>
			<clipPath id="SVGID_8_">
				<use xlink:href="#SVGID_7_"  style="overflow:visible;"/>
			</clipPath>
			<path id="XMLID_18_" class="st3" d="M17.1,24.5c0,0-16.9-27.3-16.9-27.5c-0.1-0.2-13,11.2-13,11.5C-12.8,8.7,17.1,24.5,17.1,24.5
				z"/>
		</g>
		<g>
			<defs>
				<path id="SVGID_9_" d="M8.1,1.2C8.1,1.2,8,1.2,8.1,1.2C5.5,4.7,3.6,8.4,2.3,12.5c-1.5,4.8-2,9.8-1.6,14.8
					c0.2,3.2,0.8,6.4,1.7,9.4c1.3,4.1,3.2,7.8,5.7,11.3H16c0-0.1-0.1-0.2-0.1-0.3c-0.8-1.9-1.6-3.8-2.3-5.8
					c-1.4-4.3-2.3-8.7-2.5-13.2c-0.3-4.3-0.2-8.7,0.5-13c0.6-4,1.6-7.9,3.2-11.7c0.4-1,0.8-1.9,1.2-2.9H8.1V1.2z"/>
			</defs>
			<clipPath id="SVGID_10_">
				<use xlink:href="#SVGID_9_"  style="overflow:visible;"/>
			</clipPath>
			<path id="XMLID_19_" class="st4" d="M-12.8,8.5l29.9,16l-30.9,0.7L-12.8,8.5z"/>
		</g>
		<g>
			<defs>
				<path id="SVGID_11_" d="M8.1,1.2C8.1,1.2,8,1.2,8.1,1.2C5.5,4.7,3.6,8.4,2.3,12.5c-1.5,4.8-2,9.8-1.6,14.8
					c0.2,3.2,0.8,6.4,1.7,9.4c1.3,4.1,3.2,7.8,5.7,11.3H16c0-0.1-0.1-0.2-0.1-0.3c-0.8-1.9-1.6-3.8-2.3-5.8
					c-1.4-4.3-2.3-8.7-2.5-13.2c-0.3-4.3-0.2-8.7,0.5-13c0.6-4,1.6-7.9,3.2-11.7c0.4-1,0.8-1.9,1.2-2.9H8.1V1.2z"/>
			</defs>
			<clipPath id="SVGID_12_">
				<use xlink:href="#SVGID_11_"  style="overflow:visible;"/>
			</clipPath>
			<path id="XMLID_20_" class="st5" d="M-12.8,8.5l29.9,16l-30.9,0.7L-12.8,8.5z"/>
		</g>
		<g>
			<defs>
				<path id="SVGID_13_" d="M8.1,1.2C8.1,1.2,8,1.2,8.1,1.2C5.5,4.7,3.6,8.4,2.3,12.5c-1.5,4.8-2,9.8-1.6,14.8
					c0.2,3.2,0.8,6.4,1.7,9.4c1.3,4.1,3.2,7.8,5.7,11.3H16c0-0.1-0.1-0.2-0.1-0.3c-0.8-1.9-1.6-3.8-2.3-5.8
					c-1.4-4.3-2.3-8.7-2.5-13.2c-0.3-4.3-0.2-8.7,0.5-13c0.6-4,1.6-7.9,3.2-11.7c0.4-1,0.8-1.9,1.2-2.9H8.1V1.2z"/>
			</defs>
			<clipPath id="SVGID_14_">
				<use xlink:href="#SVGID_13_"  style="overflow:visible;"/>
			</clipPath>
			<path id="XMLID_21_" class="st6" d="M17.1,24.5l-30.9,0.7l3.4,15.3L17.1,24.5z"/>
		</g>
		<g>
			<defs>
				<path id="SVGID_15_" d="M8.1,1.2C8.1,1.2,8,1.2,8.1,1.2C5.5,4.7,3.6,8.4,2.3,12.5c-1.5,4.8-2,9.8-1.6,14.8
					c0.2,3.2,0.8,6.4,1.7,9.4c1.3,4.1,3.2,7.8,5.7,11.3H16c0-0.1-0.1-0.2-0.1-0.3c-0.8-1.9-1.6-3.8-2.3-5.8
					c-1.4-4.3-2.3-8.7-2.5-13.2c-0.3-4.3-0.2-8.7,0.5-13c0.6-4,1.6-7.9,3.2-11.7c0.4-1,0.8-1.9,1.2-2.9H8.1V1.2z"/>
			</defs>
			<clipPath id="SVGID_16_">
				<use xlink:href="#SVGID_15_"  style="overflow:visible;"/>
			</clipPath>
			<path id="XMLID_22_" class="st7" d="M17.1,24.5l-30.9,0.7l3.4,15.3L17.1,24.5z"/>
		</g>
		<g>
			<defs>
				<path id="SVGID_17_" d="M8.1,1.2C8.1,1.2,8,1.2,8.1,1.2C5.5,4.7,3.6,8.4,2.3,12.5c-1.5,4.8-2,9.8-1.6,14.8
					c0.2,3.2,0.8,6.4,1.7,9.4c1.3,4.1,3.2,7.8,5.7,11.3H16c0-0.1-0.1-0.2-0.1-0.3c-0.8-1.9-1.6-3.8-2.3-5.8
					c-1.4-4.3-2.3-8.7-2.5-13.2c-0.3-4.3-0.2-8.7,0.5-13c0.6-4,1.6-7.9,3.2-11.7c0.4-1,0.8-1.9,1.2-2.9H8.1V1.2z"/>
			</defs>
			<clipPath id="SVGID_18_">
				<use xlink:href="#SVGID_17_"  style="overflow:visible;"/>
			</clipPath>
			<path id="XMLID_23_" class="st8" d="M2.2,50.4l-12.6-9.9l27.5-16L2.2,50.4z"/>
		</g>
		<g>
			<defs>
				<path id="SVGID_19_" d="M8.1,1.2C8.1,1.2,8,1.2,8.1,1.2C5.5,4.7,3.6,8.4,2.3,12.5c-1.5,4.8-2,9.8-1.6,14.8
					c0.2,3.2,0.8,6.4,1.7,9.4c1.3,4.1,3.2,7.8,5.7,11.3H16c0-0.1-0.1-0.2-0.1-0.3c-0.8-1.9-1.6-3.8-2.3-5.8
					c-1.4-4.3-2.3-8.7-2.5-13.2c-0.3-4.3-0.2-8.7,0.5-13c0.6-4,1.6-7.9,3.2-11.7c0.4-1,0.8-1.9,1.2-2.9H8.1V1.2z"/>
			</defs>
			<clipPath id="SVGID_20_">
				<use xlink:href="#SVGID_19_"  style="overflow:visible;"/>
			</clipPath>
			<path id="XMLID_24_" class="st9" d="M2.2,50.4l-12.6-9.9l27.5-16L2.2,50.4z"/>
		</g>
		<g>
			<defs>
				<path id="SVGID_21_" d="M8.1,1.2C8.1,1.2,8,1.2,8.1,1.2C5.5,4.7,3.6,8.4,2.3,12.5c-1.5,4.8-2,9.8-1.6,14.8
					c0.2,3.2,0.8,6.4,1.7,9.4c1.3,4.1,3.2,7.8,5.7,11.3H16c0-0.1-0.1-0.2-0.1-0.3c-0.8-1.9-1.6-3.8-2.3-5.8
					c-1.4-4.3-2.3-8.7-2.5-13.2c-0.3-4.3-0.2-8.7,0.5-13c0.6-4,1.6-7.9,3.2-11.7c0.4-1,0.8-1.9,1.2-2.9H8.1V1.2z"/>
			</defs>
			<clipPath id="SVGID_22_">
				<use xlink:href="#SVGID_21_"  style="overflow:visible;"/>
			</clipPath>
			<path id="XMLID_25_" class="st10" d="M17.1,24.5L2.2,50.4l14.4,4.4L17.1,24.5z"/>
		</g>
		<g>
			<defs>
				<path id="SVGID_23_" d="M8.1,1.2C8.1,1.2,8,1.2,8.1,1.2C5.5,4.7,3.6,8.4,2.3,12.5c-1.5,4.8-2,9.8-1.6,14.8
					c0.2,3.2,0.8,6.4,1.7,9.4c1.3,4.1,3.2,7.8,5.7,11.3H16c0-0.1-0.1-0.2-0.1-0.3c-0.8-1.9-1.6-3.8-2.3-5.8
					c-1.4-4.3-2.3-8.7-2.5-13.2c-0.3-4.3-0.2-8.7,0.5-13c0.6-4,1.6-7.9,3.2-11.7c0.4-1,0.8-1.9,1.2-2.9H8.1V1.2z"/>
			</defs>
			<clipPath id="SVGID_24_">
				<use xlink:href="#SVGID_23_"  style="overflow:visible;"/>
			</clipPath>
			<path id="XMLID_26_" class="st11" d="M17.1,24.5L2.2,50.4l14.4,4.4L17.1,24.5z"/>
		</g>
		<g>
			<defs>
				<path id="SVGID_25_" d="M8.1,1.2C8.1,1.2,8,1.2,8.1,1.2C5.5,4.7,3.6,8.4,2.3,12.5c-1.5,4.8-2,9.8-1.6,14.8
					c0.2,3.2,0.8,6.4,1.7,9.4c1.3,4.1,3.2,7.8,5.7,11.3H16c0-0.1-0.1-0.2-0.1-0.3c-0.8-1.9-1.6-3.8-2.3-5.8
					c-1.4-4.3-2.3-8.7-2.5-13.2c-0.3-4.3-0.2-8.7,0.5-13c0.6-4,1.6-7.9,3.2-11.7c0.4-1,0.8-1.9,1.2-2.9H8.1V1.2z"/>
			</defs>
			<clipPath id="SVGID_26_">
				<use xlink:href="#SVGID_25_"  style="overflow:visible;"/>
			</clipPath>
			<path id="XMLID_27_" class="st12" d="M17.1,24.5L31.4,51l-14.8,3.8L17.1,24.5z"/>
		</g>
		<g>
			<defs>
				<path id="SVGID_27_" d="M8.1,1.2C8.1,1.2,8,1.2,8.1,1.2C5.5,4.7,3.6,8.4,2.3,12.5c-1.5,4.8-2,9.8-1.6,14.8
					c0.2,3.2,0.8,6.4,1.7,9.4c1.3,4.1,3.2,7.8,5.7,11.3H16c0-0.1-0.1-0.2-0.1-0.3c-0.8-1.9-1.6-3.8-2.3-5.8
					c-1.4-4.3-2.3-8.7-2.5-13.2c-0.3-4.3-0.2-8.7,0.5-13c0.6-4,1.6-7.9,3.2-11.7c0.4-1,0.8-1.9,1.2-2.9H8.1V1.2z"/>
			</defs>
			<clipPath id="SVGID_28_">
				<use xlink:href="#SVGID_27_"  style="overflow:visible;"/>
			</clipPath>
			<path id="XMLID_28_" class="st13" d="M17.1,24.5L31.4,51l10.4-11.4L17.1,24.5z"/>
		</g>
		<g>
			<defs>
				<path id="SVGID_29_" d="M8.1,1.2C8.1,1.2,8,1.2,8.1,1.2C5.5,4.7,3.6,8.4,2.3,12.5c-1.5,4.8-2,9.8-1.6,14.8
					c0.2,3.2,0.8,6.4,1.7,9.4c1.3,4.1,3.2,7.8,5.7,11.3H16c0-0.1-0.1-0.2-0.1-0.3c-0.8-1.9-1.6-3.8-2.3-5.8
					c-1.4-4.3-2.3-8.7-2.5-13.2c-0.3-4.3-0.2-8.7,0.5-13c0.6-4,1.6-7.9,3.2-11.7c0.4-1,0.8-1.9,1.2-2.9H8.1V1.2z"/>
			</defs>
			<clipPath id="SVGID_30_">
				<use xlink:href="#SVGID_29_"  style="overflow:visible;"/>
			</clipPath>
			<path id="XMLID_29_" class="st14" d="M17.1,24.5L32.3-2.2L16.6-5.7L17.1,24.5z"/>
		</g>
	</g>
	<g id="XMLID_31_">
		<g>
			<defs>
				<path id="SVGID_31_" d="M189.4,1.2c0.4,1,0.8,1.9,1.2,2.9c1.5,3.8,2.6,7.7,3.2,11.7c0.6,4.3,0.7,8.6,0.5,13
					c-0.3,4.5-1.1,8.9-2.5,13.2c-0.7,2-1.5,3.9-2.3,5.8c0,0.1-0.1,0.2-0.1,0.3h7.9c2.5-3.5,4.4-7.2,5.7-11.3
					c0.9-2.9,1.4-5.8,1.7-8.8v-7c-0.2-2.8-0.8-5.6-1.6-8.4c-1.2-4.1-3.1-7.9-5.7-11.3c0,0,0-0.1-0.1-0.1L189.4,1.2L189.4,1.2z"/>
			</defs>
			<clipPath id="SVGID_32_">
				<use xlink:href="#SVGID_31_"  style="overflow:visible;"/>
			</clipPath>
			<path id="XMLID_32_" class="st15" d="M191.6,57.2c0,0-4.6-29.5-4.9-29.8c-0.3-0.3,20.8,24.7,20.8,24.7L191.6,57.2L191.6,57.2z"/>
		</g>
		<g>
			<defs>
				<path id="SVGID_33_" d="M189.4,1.2c0.4,1,0.8,1.9,1.2,2.9c1.5,3.8,2.6,7.7,3.2,11.7c0.6,4.3,0.7,8.6,0.5,13
					c-0.3,4.5-1.1,8.9-2.5,13.2c-0.7,2-1.5,3.9-2.3,5.8c0,0.1-0.1,0.2-0.1,0.3h7.9c2.5-3.5,4.4-7.2,5.7-11.3
					c0.9-2.9,1.4-5.8,1.7-8.8v-7c-0.2-2.8-0.8-5.6-1.6-8.4c-1.2-4.1-3.1-7.9-5.7-11.3c0,0,0-0.1-0.1-0.1L189.4,1.2L189.4,1.2z"/>
			</defs>
			<clipPath id="SVGID_34_">
				<use xlink:href="#SVGID_33_"  style="overflow:visible;"/>
			</clipPath>
			<path id="XMLID_34_" class="st16" d="M191.6,57.2c0,0-4.6-29.5-4.9-29.8c-0.3-0.3,20.8,24.7,20.8,24.7L191.6,57.2L191.6,57.2z"/>
		</g>
		<g>
			<defs>
				<path id="SVGID_35_" d="M189.4,1.2c0.4,1,0.8,1.9,1.2,2.9c1.5,3.8,2.6,7.7,3.2,11.7c0.6,4.3,0.7,8.6,0.5,13
					c-0.3,4.5-1.1,8.9-2.5,13.2c-0.7,2-1.5,3.9-2.3,5.8c0,0.1-0.1,0.2-0.1,0.3h7.9c2.5-3.5,4.4-7.2,5.7-11.3
					c0.9-2.9,1.4-5.8,1.7-8.8v-7c-0.2-2.8-0.8-5.6-1.6-8.4c-1.2-4.1-3.1-7.9-5.7-11.3c0,0,0-0.1-0.1-0.1L189.4,1.2L189.4,1.2z"/>
			</defs>
			<clipPath id="SVGID_36_">
				<use xlink:href="#SVGID_35_"  style="overflow:visible;"/>
			</clipPath>
			<path id="XMLID_35_" class="st17" d="M186.6,27.4c0,0,20.7,24.5,20.8,24.7c0.1,0.2,11.1-13,11.1-13.2S186.6,27.4,186.6,27.4"/>
		</g>
		<g>
			<defs>
				<path id="SVGID_37_" d="M189.4,1.2c0.4,1,0.8,1.9,1.2,2.9c1.5,3.8,2.6,7.7,3.2,11.7c0.6,4.3,0.7,8.6,0.5,13
					c-0.3,4.5-1.1,8.9-2.5,13.2c-0.7,2-1.5,3.9-2.3,5.8c0,0.1-0.1,0.2-0.1,0.3h7.9c2.5-3.5,4.4-7.2,5.7-11.3
					c0.9-2.9,1.4-5.8,1.7-8.8v-7c-0.2-2.8-0.8-5.6-1.6-8.4c-1.2-4.1-3.1-7.9-5.7-11.3c0,0,0-0.1-0.1-0.1L189.4,1.2L189.4,1.2z"/>
			</defs>
			<clipPath id="SVGID_38_">
				<use xlink:href="#SVGID_37_"  style="overflow:visible;"/>
			</clipPath>
			<path id="XMLID_36_" class="st18" d="M186.6,27.4c0,0,20.7,24.5,20.8,24.7c0.1,0.2,11.1-13,11.1-13.2S186.6,27.4,186.6,27.4
				L186.6,27.4z"/>
		</g>
		<g>
			<defs>
				<path id="SVGID_39_" d="M189.4,1.2c0.4,1,0.8,1.9,1.2,2.9c1.5,3.8,2.6,7.7,3.2,11.7c0.6,4.3,0.7,8.6,0.5,13
					c-0.3,4.5-1.1,8.9-2.5,13.2c-0.7,2-1.5,3.9-2.3,5.8c0,0.1-0.1,0.2-0.1,0.3h7.9c2.5-3.5,4.4-7.2,5.7-11.3
					c0.9-2.9,1.4-5.8,1.7-8.8v-7c-0.2-2.8-0.8-5.6-1.6-8.4c-1.2-4.1-3.1-7.9-5.7-11.3c0,0,0-0.1-0.1-0.1L189.4,1.2L189.4,1.2z"/>
			</defs>
			<clipPath id="SVGID_40_">
				<use xlink:href="#SVGID_39_"  style="overflow:visible;"/>
			</clipPath>
			<path id="XMLID_37_" class="st19" d="M218.6,38.9l-32-11.5l30.5-5.2L218.6,38.9z"/>
		</g>
		<g>
			<defs>
				<path id="SVGID_41_" d="M189.4,1.2c0.4,1,0.8,1.9,1.2,2.9c1.5,3.8,2.6,7.7,3.2,11.7c0.6,4.3,0.7,8.6,0.5,13
					c-0.3,4.5-1.1,8.9-2.5,13.2c-0.7,2-1.5,3.9-2.3,5.8c0,0.1-0.1,0.2-0.1,0.3h7.9c2.5-3.5,4.4-7.2,5.7-11.3
					c0.9-2.9,1.4-5.8,1.7-8.8v-7c-0.2-2.8-0.8-5.6-1.6-8.4c-1.2-4.1-3.1-7.9-5.7-11.3c0,0,0-0.1-0.1-0.1L189.4,1.2L189.4,1.2z"/>
			</defs>
			<clipPath id="SVGID_42_">
				<use xlink:href="#SVGID_41_"  style="overflow:visible;"/>
			</clipPath>
			<path id="XMLID_38_" class="st20" d="M218.6,38.9l-32-11.5l30.5-5.2L218.6,38.9z"/>
		</g>
		<g>
			<defs>
				<path id="SVGID_43_" d="M189.4,1.2c0.4,1,0.8,1.9,1.2,2.9c1.5,3.8,2.6,7.7,3.2,11.7c0.6,4.3,0.7,8.6,0.5,13
					c-0.3,4.5-1.1,8.9-2.5,13.2c-0.7,2-1.5,3.9-2.3,5.8c0,0.1-0.1,0.2-0.1,0.3h7.9c2.5-3.5,4.4-7.2,5.7-11.3
					c0.9-2.9,1.4-5.8,1.7-8.8v-7c-0.2-2.8-0.8-5.6-1.6-8.4c-1.2-4.1-3.1-7.9-5.7-11.3c0,0,0-0.1-0.1-0.1L189.4,1.2L189.4,1.2z"/>
			</defs>
			<clipPath id="SVGID_44_">
				<use xlink:href="#SVGID_43_"  style="overflow:visible;"/>
			</clipPath>
			<path id="XMLID_44_" class="st21" d="M186.6,27.4l30.5-5.2l-5.7-14.7L186.6,27.4z"/>
		</g>
		<g>
			<defs>
				<path id="SVGID_45_" d="M189.4,1.2c0.4,1,0.8,1.9,1.2,2.9c1.5,3.8,2.6,7.7,3.2,11.7c0.6,4.3,0.7,8.6,0.5,13
					c-0.3,4.5-1.1,8.9-2.5,13.2c-0.7,2-1.5,3.9-2.3,5.8c0,0.1-0.1,0.2-0.1,0.3h7.9c2.5-3.5,4.4-7.2,5.7-11.3
					c0.9-2.9,1.4-5.8,1.7-8.8v-7c-0.2-2.8-0.8-5.6-1.6-8.4c-1.2-4.1-3.1-7.9-5.7-11.3c0,0,0-0.1-0.1-0.1L189.4,1.2L189.4,1.2z"/>
			</defs>
			<clipPath id="SVGID_46_">
				<use xlink:href="#SVGID_45_"  style="overflow:visible;"/>
			</clipPath>
			<path id="XMLID_46_" class="st22" d="M186.6,27.4l30.5-5.2l-5.7-14.7L186.6,27.4z"/>
		</g>
		<g>
			<defs>
				<path id="SVGID_47_" d="M189.4,1.2c0.4,1,0.8,1.9,1.2,2.9c1.5,3.8,2.6,7.7,3.2,11.7c0.6,4.3,0.7,8.6,0.5,13
					c-0.3,4.5-1.1,8.9-2.5,13.2c-0.7,2-1.5,3.9-2.3,5.8c0,0.1-0.1,0.2-0.1,0.3h7.9c2.5-3.5,4.4-7.2,5.7-11.3
					c0.9-2.9,1.4-5.8,1.7-8.8v-7c-0.2-2.8-0.8-5.6-1.6-8.4c-1.2-4.1-3.1-7.9-5.7-11.3c0,0,0-0.1-0.1-0.1L189.4,1.2L189.4,1.2z"/>
			</defs>
			<clipPath id="SVGID_48_">
				<use xlink:href="#SVGID_47_"  style="overflow:visible;"/>
			</clipPath>
			<path id="XMLID_48_" class="st23" d="M197.6-0.3l13.8,7.8l-24.8,19.9L197.6-0.3z"/>
		</g>
		<g>
			<defs>
				<path id="SVGID_49_" d="M189.4,1.2c0.4,1,0.8,1.9,1.2,2.9c1.5,3.8,2.6,7.7,3.2,11.7c0.6,4.3,0.7,8.6,0.5,13
					c-0.3,4.5-1.1,8.9-2.5,13.2c-0.7,2-1.5,3.9-2.3,5.8c0,0.1-0.1,0.2-0.1,0.3h7.9c2.5-3.5,4.4-7.2,5.7-11.3
					c0.9-2.9,1.4-5.8,1.7-8.8v-7c-0.2-2.8-0.8-5.6-1.6-8.4c-1.2-4.1-3.1-7.9-5.7-11.3c0,0,0-0.1-0.1-0.1L189.4,1.2L189.4,1.2z"/>
			</defs>
			<clipPath id="SVGID_50_">
				<use xlink:href="#SVGID_49_"  style="overflow:visible;"/>
			</clipPath>
			<path id="XMLID_57_" class="st24" d="M197.6-0.3l13.8,7.8l-24.8,19.9L197.6-0.3z"/>
		</g>
		<g>
			<defs>
				<path id="SVGID_51_" d="M189.4,1.2c0.4,1,0.8,1.9,1.2,2.9c1.5,3.8,2.6,7.7,3.2,11.7c0.6,4.3,0.7,8.6,0.5,13
					c-0.3,4.5-1.1,8.9-2.5,13.2c-0.7,2-1.5,3.9-2.3,5.8c0,0.1-0.1,0.2-0.1,0.3h7.9c2.5-3.5,4.4-7.2,5.7-11.3
					c0.9-2.9,1.4-5.8,1.7-8.8v-7c-0.2-2.8-0.8-5.6-1.6-8.4c-1.2-4.1-3.1-7.9-5.7-11.3c0,0,0-0.1-0.1-0.1L189.4,1.2L189.4,1.2z"/>
			</defs>
			<clipPath id="SVGID_52_">
				<use xlink:href="#SVGID_51_"  style="overflow:visible;"/>
			</clipPath>
			<path id="XMLID_61_" class="st25" d="M186.6,27.4l11-27.7l-14.9-2.3L186.6,27.4z"/>
		</g>
		<g>
			<defs>
				<path id="SVGID_53_" d="M189.4,1.2c0.4,1,0.8,1.9,1.2,2.9c1.5,3.8,2.6,7.7,3.2,11.7c0.6,4.3,0.7,8.6,0.5,13
					c-0.3,4.5-1.1,8.9-2.5,13.2c-0.7,2-1.5,3.9-2.3,5.8c0,0.1-0.1,0.2-0.1,0.3h7.9c2.5-3.5,4.4-7.2,5.7-11.3
					c0.9-2.9,1.4-5.8,1.7-8.8v-7c-0.2-2.8-0.8-5.6-1.6-8.4c-1.2-4.1-3.1-7.9-5.7-11.3c0,0,0-0.1-0.1-0.1L189.4,1.2L189.4,1.2z"/>
			</defs>
			<clipPath id="SVGID_54_">
				<use xlink:href="#SVGID_53_"  style="overflow:visible;"/>
			</clipPath>
			<path id="XMLID_64_" class="st26" d="M186.6,27.4l11-27.7l-14.9-2.3L186.6,27.4z"/>
		</g>
		<g>
			<defs>
				<path id="SVGID_55_" d="M189.4,1.2c0.4,1,0.8,1.9,1.2,2.9c1.5,3.8,2.6,7.7,3.2,11.7c0.6,4.3,0.7,8.6,0.5,13
					c-0.3,4.5-1.1,8.9-2.5,13.2c-0.7,2-1.5,3.9-2.3,5.8c0,0.1-0.1,0.2-0.1,0.3h7.9c2.5-3.5,4.4-7.2,5.7-11.3
					c0.9-2.9,1.4-5.8,1.7-8.8v-7c-0.2-2.8-0.8-5.6-1.6-8.4c-1.2-4.1-3.1-7.9-5.7-11.3c0,0,0-0.1-0.1-0.1L189.4,1.2L189.4,1.2z"/>
			</defs>
			<clipPath id="SVGID_56_">
				<use xlink:href="#SVGID_55_"  style="overflow:visible;"/>
			</clipPath>
			<path id="XMLID_65_" class="st27" d="M186.6,27.4l-11,28.7l16,1.1L186.6,27.4z"/>
		</g>
		<g>
			<defs>
				<path id="SVGID_57_" d="M189.4,1.2c0.4,1,0.8,1.9,1.2,2.9c1.5,3.8,2.6,7.7,3.2,11.7c0.6,4.3,0.7,8.6,0.5,13
					c-0.3,4.5-1.1,8.9-2.5,13.2c-0.7,2-1.5,3.9-2.3,5.8c0,0.1-0.1,0.2-0.1,0.3h7.9c2.5-3.5,4.4-7.2,5.7-11.3
					c0.9-2.9,1.4-5.8,1.7-8.8v-7c-0.2-2.8-0.8-5.6-1.6-8.4c-1.2-4.1-3.1-7.9-5.7-11.3c0,0,0-0.1-0.1-0.1L189.4,1.2L189.4,1.2z"/>
			</defs>
			<clipPath id="SVGID_58_">
				<use xlink:href="#SVGID_57_"  style="overflow:visible;"/>
			</clipPath>
			<path id="XMLID_66_" class="st28" d="M186.6,27.4l-11,28.7l16,1.1L186.6,27.4z"/>
		</g>
	</g>
	<g id="XMLID_71_">
		<path id="XMLID_72_" d="M153.7,32.5h-6c-0.2,0-0.3,0-0.5,0.1c-1.2,0.2-1.9,1-1.9,2.1s0.6,1.8,1.8,2.1c1.6,0.4,3.2,0.3,4.8-0.2
			c1.1-0.4,1.8-1.2,1.9-2.4C153.8,33.6,153.7,33.1,153.7,32.5 M146,41.2c-0.9-0.2-1.8-0.4-2.7-0.7c-3.8-1.4-5.3-5.8-3-9
			c1.1-1.5,2.6-2.4,4.4-2.7c0.9-0.2,1.8-0.2,2.7-0.2h6.3c0.3-1.1-0.2-2.2-1.2-2.9c-1.8-1.1-3.7-1.2-5.5-0.4
			c-1.1,0.5-1.7,1.4-1.8,2.7v0.6h-5.7c-0.1-2.3,0.7-4.2,2.5-5.6c1.4-1.2,3.2-1.7,5-2c2.6-0.4,5.2-0.3,7.8,0.5c2.5,0.8,4.4,2.3,5.1,5
			c0.1,0.6,0.2,1.2,0.2,1.8v12.5H154v-2.3c-1.5,1.9-3.4,2.5-5.5,2.7c-0.1,0-0.2,0.1-0.3,0.1H146V41.2z"/>
		<path id="XMLID_75_" d="M55.9,41.2c-0.8-0.1-1.7-0.2-2.5-0.5c-2.2-0.6-4.1-1.6-5.3-3.7c-0.7-1.2-0.9-2.5-0.8-3.8h6v0.9
			c0.1,1.4,0.7,2.2,2.1,2.5c1.5,0.4,2.9,0.3,4.4-0.2c0.9-0.4,1.3-1.2,1.2-2.1c-0.1-0.8-0.8-1.3-1.8-1.4h-5.3c-1.1,0-2.3-0.1-3.4-0.5
			c-2.7-1-3.7-3.3-3.4-5.9c0.4-2.8,2.2-4.5,4.8-5.3c3.2-1,6.4-1.1,9.5,0c2.3,0.8,4,2.3,4.6,4.8c0.2,0.8,0.2,1.5,0.3,2.4h-5.6
			c0-0.4-0.1-0.8-0.1-1.2c-0.1-1.1-0.8-1.8-1.8-2.1c-1.5-0.4-3-0.4-4.5,0c-1,0.3-1.6,1.1-1.5,1.9c0.1,1.1,0.8,1.6,2.1,1.6h5.5
			c1,0,2,0.2,2.9,0.5c2.3,0.8,3.4,2.7,3.4,5.1c-0.1,3.2-2.1,5.3-5,6.1c-1,0.3-2.1,0.4-3.1,0.6c-0.1,0-0.2,0.1-0.4,0.1h-2.3
			L55.9,41.2z"/>
		<path id="XMLID_76_" d="M169.5,41.2c-0.8-0.1-1.7-0.2-2.5-0.5c-2.2-0.6-4.1-1.6-5.3-3.7c-0.6-1.1-0.9-2.5-0.7-3.8h5.9v0.9
			c0.1,1.4,0.7,2.2,2.1,2.5c1.5,0.4,2.9,0.3,4.4-0.2c0.9-0.4,1.3-1.2,1.2-2.1c-0.1-0.8-0.8-1.3-1.8-1.4h-5.3c-1.1,0-2.3-0.1-3.4-0.5
			c-2.7-1-3.7-3.3-3.4-5.9c0.4-2.8,2.2-4.5,4.8-5.3c3.2-1,6.4-1.1,9.5,0c2.3,0.8,4,2.3,4.6,4.8c0.2,0.8,0.2,1.5,0.3,2.4h-5.6
			c0-0.4-0.1-0.8-0.1-1.2c-0.1-1.1-0.7-1.8-1.7-2.1c-1.5-0.5-3.1-0.4-4.6,0c-1,0.3-1.5,1-1.5,1.9c0.1,1.1,0.8,1.6,2.1,1.6h5.5
			c1,0,2,0.2,2.9,0.5c2.3,0.8,3.4,2.7,3.4,5.1c-0.1,3.2-2.1,5.3-5,6.1c-1,0.3-2.1,0.4-3.1,0.6c-0.1,0-0.2,0.1-0.4,0.1h-2.3
			L169.5,41.2z"/>
		<path id="XMLID_77_" d="M94.8,30.7c0,2,0.4,3.5,1.1,4.6c1.7,2.6,5.4,2.6,7.1,0.1c1.6-2.2,1.6-6.4,0.1-8.7
			c-1.8-2.8-5.6-2.7-7.4,0.1C95.1,28,94.8,29.5,94.8,30.7 M98.6,41.2c-0.9-0.2-1.9-0.3-2.8-0.6c-3.8-1.1-6.2-3.6-6.9-7.5
			c-0.6-3.2-0.1-6.2,2-8.9c1.4-1.7,3.2-2.8,5.3-3.3c3-0.7,5.9-0.6,8.7,0.7c3.3,1.5,5,4.1,5.5,7.6c0.3,2.2,0.1,4.3-0.9,6.3
			c-1.4,2.9-3.8,4.6-7,5.2c-0.7,0.1-1.4,0.2-2,0.3h-1.9L98.6,41.2z"/>
		<path id="XMLID_80_" d="M30.7,18.7h15.7V23h-9.2v4.5h9.2v4.3h-9.2v4.6h9.2v4.4H30.7V18.7z"/>
		<path id="XMLID_81_" d="M77,41.2c-1.1-0.2-2.2-0.3-3.2-0.7c-3.7-1.3-5.9-3.9-6.5-7.8c-0.3-2.2-0.2-4.3,0.7-6.3
			c1.3-3,3.6-4.7,6.7-5.5c2.7-0.6,5.3-0.5,7.9,0.5c3.2,1.2,5.4,4.1,5.5,7.4h-5.3c-0.5,0-0.6-0.1-0.7-0.6c-0.5-3.3-4.3-4.9-6.9-2.8
			c-1,0.8-1.5,2-1.7,3.3c-0.4,1.9-0.3,3.9,0.5,5.7c1.1,2.7,4.3,3.6,6.6,1.8c0.9-0.7,1.4-1.8,1.6-2.9c0.1-0.4,0.2-0.5,0.6-0.5h5.4
			c-0.1,1.6-0.6,3-1.5,4.3c-1.6,2.2-3.8,3.3-6.4,3.8C79.9,41,79.4,41,79,41.1h-2L77,41.2z"/>
		<path id="XMLID_82_" d="M138.6,40.8h-6.2v-0.7V28.5c0-2.5-1.7-3.9-4.2-3.7c-2.2,0.2-3.7,1.7-3.7,4.1v11.8h-6.2V16.4h6.2v7.7
			c0.9-1.6,2.3-2.6,4-3.1c2.2-0.6,4.4-0.6,6.5,0.3c2.3,1,3.4,2.9,3.5,5.3c0.1,4.1,0.1,8.3,0.1,12.4L138.6,40.8"/>
		<path id="XMLID_84_" d="M111.2,16.4h6.1v24.4h-6.1V16.4z"/>
		<path id="XMLID_95_" class="st29" d="M43,13.6h2.5V14c0.1,0.6,0.3,0.9,0.9,1.1c0.5,0.1,1.1,0.1,1.6-0.1c0.4-0.1,0.7-0.5,0.6-0.8
			c0-0.4-0.4-0.7-0.9-0.7h-2.4c-0.4,0-0.8-0.1-1.2-0.2c-1.1-0.4-1.5-1.4-1.4-2.4c0.1-1.1,0.8-1.8,1.7-2.1c1.5-0.6,3.1-0.6,4.6,0
			c1.2,0.5,1.8,1.4,1.7,2.7v0.1h-2.3v-0.4c0-0.6-0.2-0.9-0.8-1.1c-0.6-0.2-1.3-0.2-1.9,0c-0.4,0.2-0.6,0.5-0.6,0.9
			c0.1,0.4,0.3,0.6,0.8,0.6h2.2c0.4,0,0.9,0.1,1.3,0.2c1.2,0.4,1.6,1.4,1.4,2.4c-0.1,1-0.6,1.7-1.5,2c-1.7,0.7-3.5,0.8-5.1-0.1
			C43.5,15.8,43,14.8,43,13.6"/>
		<path id="XMLID_96_" class="st29" d="M42.4,16.7h-2.6v-0.3v-4.6c0-0.3,0-0.6-0.1-0.9c-0.3-0.8-0.9-1-1.5-1s-1.1,0.2-1.4,0.7
			c-0.2,0.3-0.3,0.7-0.3,1.1v4.9h-2.6V8.5h2.6v1.3c0.1-0.2,0.2-0.4,0.3-0.5c0.4-0.5,1-0.8,1.7-0.9c0.8-0.2,1.7-0.1,2.5,0.3
			c0.9,0.4,1.3,1.1,1.4,2.1c0.1,0.5,0,0.9,0,1.4C42.4,12.2,42.4,16.7,42.4,16.7z"/>
		<path id="XMLID_97_" class="st29" d="M72.7,8.5h2.6v8.2h-2.6v-1.3c-0.2,0.2-0.3,0.4-0.4,0.6c-0.5,0.5-1.1,0.7-1.7,0.8
			c-0.8,0.1-1.6,0.1-2.3-0.3c-0.9-0.4-1.3-1.2-1.4-2.1v-1.2V8.5h2.6v4.8c0,0.3,0,0.5,0.1,0.8c0.1,0.6,0.5,0.9,1,1.1
			c0.7,0.2,1.5,0,1.9-0.6c0.3-0.3,0.3-0.8,0.3-1.2V8.5H72.7z"/>
		<path id="XMLID_98_" class="st29" d="M84,12.8c0,0.4,0.1,0.9,0.3,1.4c0.3,0.7,0.8,1.1,1.6,1.1s1.4-0.4,1.7-1.1
			c0.5-1,0.5-2.1,0-3.2c-0.3-0.7-0.9-1-1.6-1c-0.8,0-1.3,0.4-1.7,1.1C84.1,11.5,84,12.1,84,12.8 M81.4,12.6c0-1.6,0.7-2.9,2.2-3.7
			c0.9-0.5,2-0.6,3-0.5c0.7,0,1.4,0.2,2.1,0.6c1,0.6,1.6,1.5,1.8,2.7c0.2,0.9,0.1,1.8-0.3,2.7c-0.5,1.2-1.4,1.9-2.6,2.3
			c-1.4,0.4-2.8,0.3-4.2-0.4c-1.1-0.6-1.8-1.6-2-2.9V13V12.6"/>
		<path id="XMLID_101_" class="st29" d="M55.4,16.7h-2.6v-6.4h-1.5V8.5h1.5v-2h2.6v2h1.5v1.8h-1.5V16.7z"/>
		<path id="XMLID_102_" class="st29" d="M64.7,8.5h1.6v1.8h-1.6v6.4h-2.6v-6.4h-1.5V8.5h1.5v-2h2.6V8.5z"/>
		<path id="XMLID_103_" class="st29" d="M81.5,10.3H80v6.4h-2.6v-6.4h-1.5V8.5h1.5v-2H80v2h1.5V10.3z"/>
		<path id="XMLID_104_" class="st29" d="M30.7,8.5h2.6v8.2h-2.6L30.7,8.5z"/>
		<path id="XMLID_105_" class="st29" d="M57.5,8.5h2.6v8.2h-2.6V8.5z"/>
		<path id="XMLID_106_" class="st29" d="M30.7,6.5h2.6v1.4h-2.6L30.7,6.5z"/>
		<path id="XMLID_107_" class="st29" d="M57.5,6.5h2.6v1.4h-2.6V6.5z"/>
	</g>
</g>
</svg>
