<svg id="Layer_1" xmlns="http://www.w3.org/2000/svg" xmlns:xlink="http://www.w3.org/1999/xlink" width="205.7" height="50" viewBox="0 0 205.7 50"><style>.st0{fill:#5c2d91}.st0,.st1,.st2,.st3{clip-path:url(#XMLID_40_)}.st1{stroke:#5c2d91;stroke-width:.237;stroke-miterlimit:10;fill:none}.st2,.st3{fill:#45196e}.st3{fill:none;stroke:#45196e;stroke-width:.237;stroke-miterlimit:10}.st4{fill:#2bb6c9}.st4,.st5,.st6,.st7,.st8{clip-path:url(#XMLID_40_)}.st5{stroke:#2bb6c9;stroke-width:.237;stroke-miterlimit:10;fill:none}.st6,.st7,.st8{fill:#1e8c9b}.st7,.st8{fill:none;stroke:#1e8c9b;stroke-width:.237;stroke-miterlimit:10}.st8{stroke:#000}.st9{fill:#5c2d91}.st10,.st11,.st12,.st9{clip-path:url(#XMLID_41_)}.st10{stroke:#5c2d91;stroke-width:.237;stroke-miterlimit:10;fill:none}.st11,.st12{fill:#45196e}.st12{fill:none;stroke:#45196e;stroke-width:.237;stroke-miterlimit:10}.st13{fill:#2bb6c9}.st13,.st14,.st15{clip-path:url(#XMLID_41_)}.st14{stroke:#2bb6c9;stroke-width:.237;stroke-miterlimit:10;fill:none}.st15{fill:#1e8c9b}.st16{fill:none;stroke:#1e8c9b;stroke-width:.237;stroke-miterlimit:10}.st16,.st17,.st18{clip-path:url(#XMLID_41_)}.st18{fill:none;stroke:#000;stroke-width:.237;stroke-miterlimit:10}.st19{fill:#fff}.st20{fill:#2bb6c9}</style><g id="XMLID_1_"><g id="XMLID_14_"><defs><path id="XMLID_30_" d="M8.1 1.2s-.1 0 0 0C5.5 4.7 3.6 8.4 2.3 12.5.8 17.3.3 22.3.7 27.3c.2 3.2.8 6.4 1.7 9.4 1.3 4.1 3.2 7.8 5.7 11.3H16c0-.1-.1-.2-.1-.3-.8-1.9-1.6-3.8-2.3-5.8-1.4-4.3-2.3-8.7-2.5-13.2-.3-4.3-.2-8.7.5-13 .6-4 1.6-7.9 3.2-11.7.4-1 .8-1.9 1.2-2.9H8.1z"/></defs><clipPath id="XMLID_40_"><use xlink:href="#XMLID_30_" overflow="visible"/></clipPath><path id="XMLID_15_" class="st0" d="M16.6-5.7s.2 29.9.5 30.2C17.4 24.8.2-3 .2-3l16.4-2.7z"/><path id="XMLID_16_" class="st1" d="M16.6-5.7s.2 29.9.5 30.2C17.4 24.8.2-3 .2-3l16.4-2.7z"/><path id="XMLID_17_" class="st2" d="M17.1 24.5S.2-2.8.2-3c-.1-.2-13 11.2-13 11.5 0 .2 29.9 16 29.9 16"/><path id="XMLID_18_" class="st3" d="M17.1 24.5S.2-2.8.2-3c-.1-.2-13 11.2-13 11.5 0 .2 29.9 16 29.9 16z"/><path id="XMLID_19_" class="st0" d="M-12.8 8.5l29.9 16-30.9.7z"/><path id="XMLID_20_" class="st1" d="M-12.8 8.5l29.9 16-30.9.7z"/><path id="XMLID_21_" class="st2" d="M17.1 24.5l-30.9.7 3.4 15.3z"/><path id="XMLID_22_" class="st3" d="M17.1 24.5l-30.9.7 3.4 15.3z"/><path id="XMLID_23_" class="st4" d="M2.2 50.4l-12.6-9.9 27.5-16z"/><path id="XMLID_24_" class="st5" d="M2.2 50.4l-12.6-9.9 27.5-16z"/><path id="XMLID_25_" class="st6" d="M17.1 24.5L2.2 50.4l14.4 4.4z"/><path id="XMLID_26_" class="st7" d="M17.1 24.5L2.2 50.4l14.4 4.4z"/><path id="XMLID_27_" class="st7" d="M17.1 24.5L31.4 51l-14.8 3.8z"/><path id="XMLID_28_" class="st5" d="M17.1 24.5L31.4 51l10.4-11.4z"/><path id="XMLID_29_" class="st8" d="M17.1 24.5L32.3-2.2 16.6-5.7z"/></g><g id="XMLID_31_"><defs><path id="XMLID_69_" d="M189.4 1.2c.4 1 .8 1.9 1.2 2.9 1.5 3.8 2.6 7.7 3.2 11.7.6 4.3.7 8.6.5 13-.3 4.5-1.1 8.9-2.5 13.2-.7 2-1.5 3.9-2.3 5.8 0 .1-.1.2-.1.3h7.9c2.5-3.5 4.4-7.2 5.7-11.3.9-2.9 1.4-5.8 1.7-8.8v-7c-.2-2.8-.8-5.6-1.6-8.4-1.2-4.1-3.1-7.9-5.7-11.3 0 0 0-.1-.1-.1h-7.9z"/></defs><clipPath id="XMLID_41_"><use xlink:href="#XMLID_69_" overflow="visible"/></clipPath><path id="XMLID_32_" class="st9" d="M191.6 57.2s-4.6-29.5-4.9-29.8c-.3-.3 20.8 24.7 20.8 24.7l-15.9 5.1z"/><path id="XMLID_34_" class="st10" d="M191.6 57.2s-4.6-29.5-4.9-29.8c-.3-.3 20.8 24.7 20.8 24.7l-15.9 5.1z"/><path id="XMLID_35_" class="st11" d="M186.6 27.4s20.7 24.5 20.8 24.7c.1.2 11.1-13 11.1-13.2 0-.2-31.9-11.5-31.9-11.5"/><path id="XMLID_36_" class="st12" d="M186.6 27.4s20.7 24.5 20.8 24.7c.1.2 11.1-13 11.1-13.2 0-.2-31.9-11.5-31.9-11.5z"/><path id="XMLID_37_" class="st9" d="M218.6 38.9l-32-11.5 30.5-5.2z"/><path id="XMLID_38_" class="st10" d="M218.6 38.9l-32-11.5 30.5-5.2z"/><path id="XMLID_44_" class="st11" d="M186.6 27.4l30.5-5.2-5.7-14.7z"/><path id="XMLID_46_" class="st12" d="M186.6 27.4l30.5-5.2-5.7-14.7z"/><path id="XMLID_48_" class="st13" d="M197.6-.3l13.8 7.8-24.8 19.9z"/><path id="XMLID_57_" class="st14" d="M197.6-.3l13.8 7.8-24.8 19.9z"/><path id="XMLID_61_" class="st15" d="M186.6 27.4l11-27.7-14.9-2.3z"/><path id="XMLID_64_" class="st16" d="M186.6 27.4l11-27.7-14.9-2.3z"/><path id="XMLID_65_" class="st17" d="M186.6 27.4l-11 28.7 16 1.1z"/><path id="XMLID_66_" class="st18" d="M186.6 27.4l-11 28.7 16 1.1z"/></g><g id="XMLID_71_"><path id="XMLID_72_" class="st19" d="M153.7 32.5h-6c-.2 0-.3 0-.5.1-1.2.2-1.9 1-1.9 2.1s.6 1.8 1.8 2.1c1.6.4 3.2.3 4.8-.2 1.1-.4 1.8-1.2 1.9-2.4 0-.6-.1-1.1-.1-1.7m-7.7 8.7c-.9-.2-1.8-.4-2.7-.7-3.8-1.4-5.3-5.8-3-9 1.1-1.5 2.6-2.4 4.4-2.7.9-.2 1.8-.2 2.7-.2h6.3c.3-1.1-.2-2.2-1.2-2.9-1.8-1.1-3.7-1.2-5.5-.4-1.1.5-1.7 1.4-1.8 2.7v.6h-5.7c-.1-2.3.7-4.2 2.5-5.6 1.4-1.2 3.2-1.7 5-2 2.6-.4 5.2-.3 7.8.5 2.5.8 4.4 2.3 5.1 5 .1.6.2 1.2.2 1.8v12.5H154v-2.3c-1.5 1.9-3.4 2.5-5.5 2.7-.1 0-.2.1-.3.1H146z"/><path id="XMLID_75_" class="st19" d="M55.9 41.2c-.8-.1-1.7-.2-2.5-.5-2.2-.6-4.1-1.6-5.3-3.7-.7-1.2-.9-2.5-.8-3.8h6v.9c.1 1.4.7 2.2 2.1 2.5 1.5.4 2.9.3 4.4-.2.9-.4 1.3-1.2 1.2-2.1-.1-.8-.8-1.3-1.8-1.4h-5.3c-1.1 0-2.3-.1-3.4-.5-2.7-1-3.7-3.3-3.4-5.9.4-2.8 2.2-4.5 4.8-5.3 3.2-1 6.4-1.1 9.5 0 2.3.8 4 2.3 4.6 4.8.2.8.2 1.5.3 2.4h-5.6c0-.4-.1-.8-.1-1.2-.1-1.1-.8-1.8-1.8-2.1-1.5-.4-3-.4-4.5 0-1 .3-1.6 1.1-1.5 1.9.1 1.1.8 1.6 2.1 1.6h5.5c1 0 2 .2 2.9.5 2.3.8 3.4 2.7 3.4 5.1-.1 3.2-2.1 5.3-5 6.1-1 .3-2.1.4-3.1.6-.1 0-.2.1-.4.1h-2.3z"/><path id="XMLID_76_" class="st19" d="M169.5 41.2c-.8-.1-1.7-.2-2.5-.5-2.2-.6-4.1-1.6-5.3-3.7-.6-1.1-.9-2.5-.7-3.8h5.9v.9c.1 1.4.7 2.2 2.1 2.5 1.5.4 2.9.3 4.4-.2.9-.4 1.3-1.2 1.2-2.1-.1-.8-.8-1.3-1.8-1.4h-5.3c-1.1 0-2.3-.1-3.4-.5-2.7-1-3.7-3.3-3.4-5.9.4-2.8 2.2-4.5 4.8-5.3 3.2-1 6.4-1.1 9.5 0 2.3.8 4 2.3 4.6 4.8.2.8.2 1.5.3 2.4h-5.6c0-.4-.1-.8-.1-1.2-.1-1.1-.7-1.8-1.7-2.1-1.5-.5-3.1-.4-4.6 0-1 .3-1.5 1-1.5 1.9.1 1.1.8 1.6 2.1 1.6h5.5c1 0 2 .2 2.9.5 2.3.8 3.4 2.7 3.4 5.1-.1 3.2-2.1 5.3-5 6.1-1 .3-2.1.4-3.1.6-.1 0-.2.1-.4.1h-2.3z"/><path id="XMLID_77_" class="st19" d="M94.8 30.7c0 2 .4 3.5 1.1 4.6 1.7 2.6 5.4 2.6 7.1.1 1.6-2.2 1.6-6.4.1-8.7-1.8-2.8-5.6-2.7-7.4.1-.6 1.2-.9 2.7-.9 3.9m3.8 10.5c-.9-.2-1.9-.3-2.8-.6-3.8-1.1-6.2-3.6-6.9-7.5-.6-3.2-.1-6.2 2-8.9 1.4-1.7 3.2-2.8 5.3-3.3 3-.7 5.9-.6 8.7.7 3.3 1.5 5 4.1 5.5 7.6.3 2.2.1 4.3-.9 6.3-1.4 2.9-3.8 4.6-7 5.2-.7.1-1.4.2-2 .3h-1.9z"/><path id="XMLID_80_" class="st19" d="M30.7 18.7H46.4V23h-9.2v4.5h9.2v4.3h-9.2v4.6h9.2v4.4H30.7V18.7z"/><path id="XMLID_81_" class="st19" d="M77 41.2c-1.1-.2-2.2-.3-3.2-.7-3.7-1.3-5.9-3.9-6.5-7.8-.3-2.2-.2-4.3.7-6.3 1.3-3 3.6-4.7 6.7-5.5 2.7-.6 5.3-.5 7.9.5 3.2 1.2 5.4 4.1 5.5 7.4h-5.3c-.5 0-.6-.1-.7-.6-.5-3.3-4.3-4.9-6.9-2.8-1 .8-1.5 2-1.7 3.3-.4 1.9-.3 3.9.5 5.7 1.1 2.7 4.3 3.6 6.6 1.8.9-.7 1.4-1.8 1.6-2.9.1-.4.2-.5.6-.5h5.4c-.1 1.6-.6 3-1.5 4.3-1.6 2.2-3.8 3.3-6.4 3.8-.4.1-.9.1-1.3.2h-2z"/><path id="XMLID_82_" class="st19" d="M138.6 40.8h-6.2v-.7-11.6c0-2.5-1.7-3.9-4.2-3.7-2.2.2-3.7 1.7-3.7 4.1V40.7h-6.2V16.4h6.2v7.7c.9-1.6 2.3-2.6 4-3.1 2.2-.6 4.4-.6 6.5.3 2.3 1 3.4 2.9 3.5 5.3.1 4.1.1 8.3.1 12.4v1.8"/><path id="XMLID_84_" class="st19" d="M111.2 16.4h6.1v24.4h-6.1z"/><path id="XMLID_95_" class="st20" d="M43 13.6h2.5v.4c.1.6.3.9.9 1.1.5.1 1.1.1 1.6-.1.4-.1.7-.5.6-.8 0-.4-.4-.7-.9-.7h-2.4c-.4 0-.8-.1-1.2-.2-1.1-.4-1.5-1.4-1.4-2.4.1-1.1.8-1.8 1.7-2.1 1.5-.6 3.1-.6 4.6 0 1.2.5 1.8 1.4 1.7 2.7v.1h-2.3v-.4c0-.6-.2-.9-.8-1.1-.6-.2-1.3-.2-1.9 0-.4.2-.6.5-.6.9.1.4.3.6.8.6h2.2c.4 0 .9.1 1.3.2 1.2.4 1.6 1.4 1.4 2.4-.1 1-.6 1.7-1.5 2-1.7.7-3.5.8-5.1-.1-.7-.3-1.2-1.3-1.2-2.5"/><path id="XMLID_96_" class="st20" d="M42.4 16.7h-2.6v-.3-4.6c0-.3 0-.6-.1-.9-.3-.8-.9-1-1.5-1s-1.1.2-1.4.7c-.2.3-.3.7-.3 1.1V16.6h-2.6V8.5h2.6v1.3c.1-.2.2-.4.3-.5.4-.5 1-.8 1.7-.9.8-.2 1.7-.1 2.5.3.9.4 1.3 1.1 1.4 2.1.1.5 0 .9 0 1.4v4.5z"/><path id="XMLID_97_" class="st20" d="M72.7 8.5h2.6v8.2h-2.6v-1.3c-.2.2-.3.4-.4.6-.5.5-1.1.7-1.7.8-.8.1-1.6.1-2.3-.3-.9-.4-1.3-1.2-1.4-2.1v-1.2-4.7h2.6v4.8c0 .3 0 .5.1.8.1.6.5.9 1 1.1.7.2 1.5 0 1.9-.6.3-.3.3-.8.3-1.2V8.5z"/><path id="XMLID_98_" class="st20" d="M84 12.8c0 .4.1.9.3 1.4.3.7.8 1.1 1.6 1.1s1.4-.4 1.7-1.1c.5-1 .5-2.1 0-3.2-.3-.7-.9-1-1.6-1-.8 0-1.3.4-1.7 1.1-.2.4-.3 1-.3 1.7m-2.6-.2c0-1.6.7-2.9 2.2-3.7.9-.5 2-.6 3-.5.7 0 1.4.2 2.1.6 1 .6 1.6 1.5 1.8 2.7.2.9.1 1.8-.3 2.7-.5 1.2-1.4 1.9-2.6 2.3-1.4.4-2.8.3-4.2-.4-1.1-.6-1.8-1.6-2-2.9V13v-.4"/><path id="XMLID_101_" class="st20" d="M55.4 16.7h-2.6v-6.4h-1.5V8.5h1.5v-2h2.6v2h1.5v1.8h-1.5z"/><path id="XMLID_102_" class="st20" d="M64.7 8.5h1.6v1.8h-1.6v6.4h-2.6v-6.4h-1.5V8.5h1.5v-2h2.6z"/><path id="XMLID_103_" class="st20" d="M81.5 10.3H80v6.4h-2.6v-6.4h-1.5V8.5h1.5v-2H80v2h1.5z"/><path id="XMLID_104_" class="st20" d="M30.7 8.5h2.6v8.2h-2.6z"/><path id="XMLID_105_" class="st20" d="M57.5 8.5h2.6v8.2h-2.6z"/><path id="XMLID_106_" class="st20" d="M30.7 6.5h2.6v1.4h-2.6z"/><path id="XMLID_107_" class="st20" d="M57.5 6.5h2.6v1.4h-2.6z"/></g></g></svg>