<svg id="b4f86dad-6d4b-4f47-8fdf-9ec43e33a6e7" data-name="logo" xmlns="http://www.w3.org/2000/svg" viewBox="219.12 219.12 1283.63 641.75"><path d="M518.9,858V714.93h90.94V736.8H543V775h61.11v21.86H543v39.24h67.85V858Z" fill="#4695fe"/><path d="M681.77,860.85q-16.14,0-28.71-5.83a45.88,45.88,0,0,1-19.72-16.86q-7.15-11-7.15-27v-5.31h23.7v5.31q0,14.31,8.69,21.46t23.19,7.15q14.72,0,22.18-6.13a19.26,19.26,0,0,0,7.46-15.53q0-6.54-3.58-10.53a26.16,26.16,0,0,0-10.22-6.54,113,113,0,0,0-15.84-4.59l-6.54-1.64a118.19,118.19,0,0,1-24.32-8.17,40,40,0,0,1-15.83-12.88q-5.62-8-5.62-20.84,0-12.68,6.23-21.87A39.64,39.64,0,0,1,653.16,717q11.24-4.9,26.16-4.91a67.72,67.72,0,0,1,27,5.11,41.27,41.27,0,0,1,18.59,15.33q6.75,10.22,6.75,25.34v6.95H707.93v-6.95q0-8.79-3.47-14.2a20.3,20.3,0,0,0-9.91-8,41.3,41.3,0,0,0-15.23-2.56q-12.68,0-19.31,5.11t-6.64,14.1a16.13,16.13,0,0,0,3,9.92,22,22,0,0,0,8.89,6.64,72.49,72.49,0,0,0,14.71,4.49l6.54,1.64a126.23,126.23,0,0,1,25.24,8,43,43,0,0,1,17.17,13.18q6.23,8.28,6.23,21.15,0,13.08-6.54,22.79a43.77,43.77,0,0,1-18.49,15.22Q698.13,860.85,681.77,860.85Z" fill="#4695fe"/><path d="M810.52,860.85q-26.16,0-41.59-14.82T753.5,803.42V769.5q0-27.79,15.43-42.61t41.59-14.82q26.16,0,40.26,14.31t14.1,39.24v1.22H841.17V765q0-13.89-7.46-22.68t-23.19-8.79q-15.33,0-24.12,9.51t-8.78,26.05v34.74q0,16.35,8.78,26t24.12,9.6q15.74,0,23.19-8.89t7.46-22.58v-3.48h23.71v2.87q0,24.93-14.1,39.23T810.52,860.85Z" fill="#4695fe"/><path d="M942.94,860.85q-26.57,0-42.3-14.82T884.9,803.42V769.5q0-27.79,15.74-42.61t42.3-14.82q26.56,0,42.31,14.82T1001,769.5v33.92q0,27.8-15.73,42.61T942.94,860.85Zm0-21.46q16.14,0,25-9.5t8.89-25.65V768.68q0-16.14-8.89-25.64t-25-9.51Q927,733.53,918,743t-9,25.64v35.56q0,16.15,9,25.65T942.94,839.39Z" fill="#4695fe"/><path d="M1026.12,858V714.93h24.11V836.12h67.44V858Z" fill="#4695fe"/><path d="M1137.08,858V714.93h24.12v60.5h57.22v-60.5h24.12V858h-24.12v-60.9H1161.2V858Z" fill="#4695fe"/><path d="M1260.93,858l39.64-143.06h41.9L1382.11,858h-24.93l-8.58-32.9h-54.16l-8.58,32.9Zm39.44-55h42.3l-19.41-73h-3.48Z" fill="#4695fe"/><path d="M1449.35,860.85q-16.14,0-28.71-5.83a45.91,45.91,0,0,1-19.73-16.86q-7.15-11-7.15-27v-5.31h23.71v5.31q0,14.31,8.68,21.46t23.2,7.15q14.72,0,22.17-6.13a19.26,19.26,0,0,0,7.46-15.53q0-6.54-3.57-10.53a26.23,26.23,0,0,0-10.22-6.54,113,113,0,0,0-15.84-4.59l-6.54-1.64a118,118,0,0,1-24.32-8.17,40.06,40.06,0,0,1-15.84-12.88q-5.62-8-5.62-20.84,0-12.68,6.24-21.87a39.59,39.59,0,0,1,17.47-14.1q11.23-4.9,26.16-4.91a67.63,67.63,0,0,1,27,5.11,41.35,41.35,0,0,1,18.6,15.33q6.75,10.22,6.74,25.34v6.95h-23.7v-6.95q0-8.79-3.48-14.2a20.3,20.3,0,0,0-9.91-8,41.24,41.24,0,0,0-15.22-2.56q-12.68,0-19.32,5.11t-6.64,14.1a16.14,16.14,0,0,0,3,9.92,21.89,21.89,0,0,0,8.89,6.64,72.49,72.49,0,0,0,14.71,4.49l6.54,1.64a126.44,126.44,0,0,1,25.24,8,42.91,42.91,0,0,1,17.16,13.18q6.24,8.28,6.24,21.15,0,13.08-6.54,22.79a43.8,43.8,0,0,1-18.5,15.22Q1465.7,860.85,1449.35,860.85Z" fill="#4695fe"/><path d="M875.76,672.18V581.6h15.65v90.58Z" fill="#6633c6"/><path d="M912.51,672.18V581.6H942.4l21.09,80h2.2v-80h15.4v90.58H951.2l-21-80.1H928v80.1Z" fill="#6633c6"/><path d="M1033.5,674a43.1,43.1,0,0,1-18.31-3.68,29.13,29.13,0,0,1-12.49-10.68q-4.53-7-4.53-17.08v-3.37h15.53v3.37q0,8.93,5.37,13.33t14.43,4.4q9.2,0,13.79-3.82a12,12,0,0,0,4.59-9.64,9.61,9.61,0,0,0-2.2-6.53,15.23,15.23,0,0,0-6.41-4.08,76.62,76.62,0,0,0-10-2.85l-3.88-.9a76.17,76.17,0,0,1-15.46-5.18,25.08,25.08,0,0,1-10.1-8.22q-3.56-5.12-3.56-13.26a24.32,24.32,0,0,1,4-14,25.11,25.11,0,0,1,11.07-8.93,41.43,41.43,0,0,1,16.69-3.1,42,42,0,0,1,17.08,3.3,27.12,27.12,0,0,1,11.84,9.7q4.34,6.4,4.34,16.11v4.27h-15.53V608.9a16.18,16.18,0,0,0-2.14-8.8,12.65,12.65,0,0,0-6.14-5,25.19,25.19,0,0,0-9.45-1.62q-8,0-12.1,3.17a10.47,10.47,0,0,0-4.08,8.74,10,10,0,0,0,1.88,6.15,13.52,13.52,0,0,0,5.5,4.14,46.06,46.06,0,0,0,9.19,2.78l3.88.91a77.57,77.57,0,0,1,16.31,5.11,27.49,27.49,0,0,1,10.93,8.41q3.94,5.24,4,13.52a25.07,25.07,0,0,1-4.21,14.37,28,28,0,0,1-11.77,9.7A42.49,42.49,0,0,1,1033.5,674Z" fill="#6633c6"/><path d="M1102.35,672.18V595.83h-26.92V581.6h69.62v14.23h-26.91v76.35Z" fill="#6633c6"/><path d="M1157.22,672.18V581.6h15.66v90.58Z" fill="#6633c6"/><path d="M1212,672.18V595.83H1185V581.6h69.62v14.23h-26.92v76.35Z" fill="#6633c6"/><path d="M1301.25,674q-10.87,0-18.7-3.94a27.78,27.78,0,0,1-12-11.46,36,36,0,0,1-4.2-17.85V581.6H1282v59.53q0,8.93,5,13.91t14.3,5q9.43,0,14.43-5t5-13.91V581.6h15.66v59.14a36,36,0,0,1-4.21,17.85,27.81,27.81,0,0,1-12,11.46Q1312.24,674,1301.25,674Z" fill="#6633c6"/><path d="M1374.88,672.18V595.83H1348V581.6h69.62v14.23h-26.91v76.35Z" fill="#6633c6"/><path d="M1460.68,674q-16.83,0-26.85-9.38t-10-27V616.15q0-17.6,10-27t26.85-9.38q17,0,26.91,9.38t10,27v21.48q0,17.61-10,27T1460.68,674Zm0-14q10.1,0,15.66-5.89t5.56-16V615.63q0-10.1-5.56-16t-15.66-5.89q-10,0-15.6,5.89t-5.63,16v22.52q0,10.1,5.63,16T1460.68,660Z" fill="#6633c6"/><path d="M437.56,219.15A218.41,218.41,0,0,0,219.14,437.57h34.63A183.77,183.77,0,0,1,437.56,253.79c101.34,0,183.78,82.44,183.78,183.78A183.77,183.77,0,0,1,437.56,621.35a17.32,17.32,0,1,0,0,34.64A218.42,218.42,0,0,0,656,437.57C656,317.13,558,219.15,437.56,219.15Z" fill="#6633c6"/><path d="M437.56,521.92a84.35,84.35,0,0,0,0-168.7h0a84.44,84.44,0,0,0-84.34,84,218.24,218.24,0,0,0-31.33,16.28,119.88,119.88,0,0,1-1.08-15.91H286.17a151.55,151.55,0,0,0,5.12,39A220.17,220.17,0,0,0,266,503.7a184.55,184.55,0,0,1-12.18-66.13H219.14a217.93,217.93,0,0,0,24.54,100.6,217,217,0,0,0-24.54,100.5h34.63c0-101.34,82.45-183.78,183.79-183.78a17.32,17.32,0,0,0,0-34.64,218.1,218.1,0,0,0-48.26,5.39,49.8,49.8,0,0,1,48.26-37.79h0a49.72,49.72,0,0,1,0,99.44A151.39,151.39,0,0,0,286.17,638.67h34.64A116.75,116.75,0,0,1,437.56,521.92Z" fill="#6633c6"/><path d="M588.94,437.57c0-83.47-67.91-151.38-151.38-151.38h0c-83.47,0-151.39,67.92-151.39,151.39h34.64A116.88,116.88,0,0,1,437.56,320.82h0a116.75,116.75,0,0,1,0,233.5,84.45,84.45,0,0,0-84.35,84.35h34.63A49.77,49.77,0,0,1,437.56,589C521,589,588.94,521,588.94,437.57Z" fill="#6633c6"/><path d="M437.56,723a84.43,84.43,0,0,1-84.34-84.34h34.61a49.79,49.79,0,0,0,49.73,49.73Zm0,32.42A116.89,116.89,0,0,1,320.8,638.67H286.19c0,83.47,67.9,151.38,151.37,151.38Zm0,67c-101.35,0-183.8-82.45-183.8-183.8H219.15c0,120.43,98,218.41,218.41,218.41Z" fill="#4695fe"/><path d="M437.56,723a84.43,84.43,0,0,1-84.34-84.34h34.61a49.79,49.79,0,0,0,49.73,49.73Zm0,32.42A116.89,116.89,0,0,1,320.8,638.67H286.19c0,83.47,67.9,151.38,151.37,151.38Zm0,67c-101.35,0-183.8-82.45-183.8-183.8H219.15c0,120.43,98,218.41,218.41,218.41Z" fill="#4695fe"/><path d="M437.56,723a84.43,84.43,0,0,1-84.34-84.34h34.61a49.79,49.79,0,0,0,49.73,49.73Zm0,32.42A116.89,116.89,0,0,1,320.8,638.67H286.19c0,83.47,67.9,151.38,151.37,151.38Zm0,67c-101.35,0-183.8-82.45-183.8-183.8H219.15c0,120.43,98,218.41,218.41,218.41Z" fill="#4695fe"/></svg>