<?xml version="1.0" encoding="utf-8"?>
<!-- Generator: Adobe Illustrator 24.3.0, SVG Export Plug-In . SVG Version: 6.00 Build 0)  -->
<svg version="1.1" id="img" xmlns="http://www.w3.org/2000/svg" xmlns:xlink="http://www.w3.org/1999/xlink" x="0px" y="0px"
	 viewBox="0 0 261.1 36.8" style="enable-background:new 0 0 261.1 36.8;" xml:space="preserve">
<style type="text/css">
	.st0{fill:#F5845F;stroke:#FFFFFF;stroke-miterlimit:10;}
	.st1{fill:#FCBC82;stroke:#FFFFFF;stroke-miterlimit:10;}
	.st2{fill:#EAE5C5;stroke:#FFFFFF;stroke-miterlimit:10;}
	.st3{fill:#B8B75E;stroke:#FFFFFF;stroke-miterlimit:10;}
	.st4{fill:#4B5F45;stroke:#FFFFFF;stroke-miterlimit:10;}
	.st5{fill:#303845;}
</style>
<rect x="0.5" y="0.5" class="st0" width="52" height="9"/>
<rect x="52.5" y="0.5" class="st1" width="52" height="9"/>
<rect x="104.5" y="0.5" class="st2" width="52" height="9"/>
<rect x="156.6" y="0.5" class="st3" width="52" height="9"/>
<rect x="208.6" y="0.5" class="st4" width="52" height="9"/>
<g>
	<g>
		<path class="st5" d="M7.4,14.8H4.5v7.6H3.4v-7.6H0.5v-1h7L7.4,14.8L7.4,14.8z"/>
		<path class="st5" d="M11.2,22.5c-0.5,0-0.9-0.1-1.3-0.3c-0.4-0.2-0.7-0.4-1-0.7s-0.5-0.6-0.6-1c-0.2-0.4-0.2-0.8-0.2-1.2
			s0.1-0.8,0.2-1.2c0.2-0.4,0.4-0.7,0.6-1c0.3-0.3,0.6-0.5,1-0.7s0.8-0.3,1.3-0.3s0.9,0.1,1.3,0.3c0.4,0.2,0.7,0.4,1,0.7
			s0.5,0.6,0.7,1s0.2,0.8,0.2,1.2s-0.1,0.8-0.2,1.2c-0.2,0.4-0.4,0.7-0.6,1s-0.6,0.5-1,0.7C12.1,22.4,11.7,22.5,11.2,22.5z
			 M9.2,19.3c0,0.4,0.1,0.8,0.3,1.2c0.2,0.3,0.4,0.6,0.8,0.8c0.3,0.2,0.7,0.3,1,0.3s0.7-0.1,1-0.3s0.6-0.5,0.8-0.8
			c0.2-0.4,0.3-0.7,0.3-1.2c0-0.4-0.1-0.8-0.3-1.2c-0.2-0.3-0.4-0.6-0.8-0.8c-0.3-0.2-0.7-0.3-1-0.3s-0.7,0.1-1,0.3
			s-0.6,0.5-0.8,0.8C9.3,18.5,9.2,18.9,9.2,19.3z"/>
		<path class="st5" d="M15.3,19.3c0-0.6,0.1-1.1,0.4-1.6c0.3-0.5,0.6-0.9,1-1.2s0.9-0.4,1.5-0.4c0.5,0,1,0.1,1.4,0.4
			c0.4,0.3,0.7,0.6,0.9,1v-3.8h1.1v7.6c0,0.1,0,0.2,0.1,0.3s0.1,0.1,0.3,0.1v0.8c-0.2,0-0.4,0-0.5,0c-0.2,0-0.4-0.1-0.5-0.2
			s-0.2-0.3-0.2-0.5v-0.5c-0.2,0.4-0.6,0.7-1,0.9s-0.8,0.3-1.3,0.3c-0.4,0-0.8-0.1-1.2-0.3s-0.7-0.4-0.9-0.7c-0.3-0.3-0.5-0.6-0.6-1
			C15.4,20.1,15.3,19.7,15.3,19.3z M20.4,20.2v-1.8c-0.1-0.3-0.3-0.5-0.5-0.7s-0.5-0.4-0.7-0.5c-0.3-0.1-0.5-0.2-0.8-0.2
			s-0.6,0.1-0.8,0.2s-0.5,0.3-0.6,0.5c-0.2,0.2-0.3,0.5-0.4,0.7c-0.1,0.3-0.1,0.6-0.1,0.9c0,0.3,0.1,0.6,0.2,0.9
			c0.1,0.3,0.3,0.5,0.5,0.7s0.4,0.4,0.7,0.5s0.5,0.2,0.8,0.2c0.2,0,0.4,0,0.6-0.1s0.4-0.2,0.6-0.3c0.2-0.1,0.3-0.3,0.5-0.4
			C20.3,20.6,20.4,20.4,20.4,20.2z"/>
		<path class="st5" d="M26,22.5c-0.5,0-0.9-0.1-1.3-0.3c-0.4-0.2-0.7-0.4-1-0.7s-0.5-0.6-0.6-1c-0.2-0.4-0.2-0.8-0.2-1.2
			s0.1-0.8,0.2-1.2c0.2-0.4,0.4-0.7,0.6-1c0.3-0.3,0.6-0.5,1-0.7s0.8-0.3,1.3-0.3s0.9,0.1,1.3,0.3c0.4,0.2,0.7,0.4,1,0.7
			s0.5,0.6,0.7,1s0.2,0.8,0.2,1.2s-0.1,0.8-0.2,1.2c-0.2,0.4-0.4,0.7-0.6,1s-0.6,0.5-1,0.7C26.9,22.4,26.4,22.5,26,22.5z M23.9,19.3
			c0,0.4,0.1,0.8,0.3,1.2c0.2,0.3,0.4,0.6,0.8,0.8c0.3,0.2,0.7,0.3,1,0.3s0.7-0.1,1-0.3s0.6-0.5,0.8-0.8c0.2-0.4,0.3-0.7,0.3-1.2
			c0-0.4-0.1-0.8-0.3-1.2c-0.2-0.3-0.4-0.6-0.8-0.8c-0.3-0.2-0.7-0.3-1-0.3s-0.7,0.1-1,0.3s-0.6,0.5-0.8,0.8
			C24,18.5,23.9,18.9,23.9,19.3z"/>
		<path class="st5" d="M32.6,22.5c-0.5,0-1-0.1-1.5-0.3s-0.8-0.4-1.2-0.8l0.4-0.7c0.4,0.3,0.7,0.6,1.1,0.7c0.4,0.1,0.7,0.2,1.1,0.2
			c0.4,0,0.8-0.1,1.1-0.2c0.3-0.2,0.4-0.4,0.4-0.7c0-0.2-0.1-0.4-0.2-0.5s-0.3-0.2-0.6-0.3s-0.6-0.2-0.9-0.3
			c-0.4-0.1-0.8-0.3-1.1-0.4c-0.3-0.1-0.5-0.3-0.7-0.5s-0.2-0.5-0.2-0.8c0-0.4,0.1-0.7,0.3-1s0.5-0.5,0.9-0.6s0.8-0.2,1.2-0.2
			s0.9,0.1,1.3,0.2c0.4,0.1,0.7,0.4,1,0.6l-0.5,0.7c-0.2-0.3-0.5-0.4-0.8-0.6s-0.6-0.2-1-0.2c-0.2,0-0.4,0-0.6,0.1
			c-0.2,0.1-0.4,0.1-0.5,0.3c-0.1,0.1-0.2,0.3-0.2,0.6c0,0.2,0.1,0.4,0.2,0.5c0.1,0.1,0.3,0.2,0.5,0.3c0.2,0.1,0.5,0.2,0.8,0.3
			c0.5,0.1,0.9,0.3,1.2,0.4c0.3,0.1,0.6,0.3,0.8,0.5s0.3,0.5,0.3,0.9c0,0.6-0.2,1-0.7,1.4C33.9,22.4,33.3,22.5,32.6,22.5z"/>
		<path class="st5" d="M42.1,22.5c-0.5,0-0.9-0.1-1.3-0.3c-0.4-0.2-0.7-0.4-1-0.7s-0.5-0.6-0.6-1C39,20.1,39,19.7,39,19.3
			s0.1-0.8,0.2-1.2c0.2-0.4,0.4-0.7,0.6-1c0.3-0.3,0.6-0.5,1-0.7s0.8-0.3,1.3-0.3s0.9,0.1,1.3,0.3c0.4,0.2,0.7,0.4,1,0.7
			s0.5,0.6,0.7,1s0.2,0.8,0.2,1.2s-0.1,0.8-0.2,1.2c-0.2,0.4-0.4,0.7-0.6,1s-0.6,0.5-1,0.7C43,22.4,42.5,22.5,42.1,22.5z M40,19.3
			c0,0.4,0.1,0.8,0.3,1.2c0.2,0.3,0.4,0.6,0.8,0.8c0.3,0.2,0.7,0.3,1,0.3s0.7-0.1,1-0.3s0.6-0.5,0.8-0.8c0.2-0.4,0.3-0.7,0.3-1.2
			c0-0.4-0.1-0.8-0.3-1.2c-0.2-0.3-0.4-0.6-0.8-0.8c-0.3-0.2-0.7-0.3-1-0.3s-0.7,0.1-1,0.3s-0.6,0.5-0.8,0.8
			C40.1,18.5,40,18.9,40,19.3z"/>
		<path class="st5" d="M48.7,22.5c-0.5,0-1-0.1-1.5-0.3s-0.8-0.4-1.2-0.8l0.4-0.7c0.4,0.3,0.7,0.6,1.1,0.7c0.4,0.1,0.7,0.2,1.1,0.2
			c0.4,0,0.8-0.1,1.1-0.2c0.3-0.2,0.4-0.4,0.4-0.7c0-0.2-0.1-0.4-0.2-0.5s-0.3-0.2-0.6-0.3s-0.6-0.2-0.9-0.3
			c-0.4-0.1-0.8-0.3-1.1-0.4c-0.3-0.1-0.5-0.3-0.7-0.5s-0.2-0.5-0.2-0.8c0-0.4,0.1-0.7,0.3-1s0.5-0.5,0.9-0.6s0.8-0.2,1.2-0.2
			s0.9,0.1,1.3,0.2c0.4,0.1,0.7,0.4,1,0.6l-0.5,0.7c-0.2-0.3-0.5-0.4-0.8-0.6s-0.6-0.2-1-0.2c-0.2,0-0.4,0-0.6,0.1
			C48,17,47.8,17,47.7,17.2c-0.1,0.1-0.2,0.3-0.2,0.6c0,0.2,0.1,0.4,0.2,0.5c0.1,0.1,0.3,0.2,0.5,0.3s0.5,0.2,0.8,0.3
			c0.5,0.1,0.9,0.3,1.2,0.4c0.3,0.1,0.6,0.3,0.8,0.5s0.3,0.5,0.3,0.9c0,0.6-0.2,1-0.7,1.4C50,22.4,49.4,22.5,48.7,22.5z"/>
		<path class="st5" d="M57.5,22.5c-0.5,0-1-0.1-1.5-0.3s-0.8-0.4-1.2-0.8l0.4-0.7c0.4,0.3,0.7,0.6,1.1,0.7c0.4,0.1,0.7,0.2,1.1,0.2
			c0.4,0,0.8-0.1,1.1-0.2c0.3-0.2,0.4-0.4,0.4-0.7c0-0.2-0.1-0.4-0.2-0.5s-0.3-0.2-0.6-0.3s-0.6-0.2-0.9-0.3
			c-0.4-0.1-0.8-0.3-1.1-0.4c-0.3-0.1-0.5-0.3-0.7-0.5s-0.2-0.5-0.2-0.8c0-0.4,0.1-0.7,0.3-1s0.5-0.5,0.9-0.6s0.8-0.2,1.2-0.2
			s0.9,0.1,1.3,0.2c0.4,0.1,0.7,0.4,1,0.6l-0.5,0.7c-0.2-0.3-0.5-0.4-0.8-0.6s-0.6-0.2-1-0.2c-0.2,0-0.4,0-0.6,0.1
			c-0.2,0.1-0.4,0.1-0.5,0.3c-0.1,0.1-0.2,0.3-0.2,0.6c0,0.2,0.1,0.4,0.2,0.5c0.1,0.1,0.3,0.2,0.5,0.3s0.5,0.2,0.8,0.3
			c0.5,0.1,0.9,0.3,1.2,0.4c0.3,0.1,0.6,0.3,0.8,0.5s0.3,0.5,0.3,0.9c0,0.6-0.2,1-0.7,1.4C58.9,22.4,58.3,22.5,57.5,22.5z"/>
		<path class="st5" d="M64,22.5c-0.5,0-0.9-0.1-1.3-0.3c-0.4-0.2-0.7-0.4-1-0.7s-0.5-0.6-0.7-1s-0.2-0.8-0.2-1.2
			c0-0.6,0.1-1.1,0.4-1.6c0.3-0.5,0.7-0.9,1.1-1.2c0.5-0.3,1-0.4,1.7-0.4c0.6,0,1.2,0.1,1.7,0.4s0.8,0.7,1.1,1.2s0.4,1,0.4,1.6
			c0,0.1,0,0.2,0,0.2s0,0.1,0,0.2H62c0,0.4,0.1,0.8,0.3,1.1s0.5,0.6,0.8,0.7c0.3,0.2,0.6,0.3,1,0.3s0.7-0.1,1.1-0.3s0.6-0.4,0.7-0.8
			l0.9,0.3c-0.1,0.3-0.3,0.6-0.6,0.8s-0.6,0.4-0.9,0.6S64.5,22.5,64,22.5z M61.9,18.9h4.3c0-0.4-0.1-0.8-0.3-1.1s-0.5-0.5-0.8-0.7
			s-0.7-0.3-1-0.3c-0.4,0-0.7,0.1-1,0.3s-0.6,0.4-0.8,0.7C62.1,18.2,61.9,18.5,61.9,18.9z"/>
		<path class="st5" d="M71.7,17.1c-0.5,0-1,0.1-1.4,0.4c-0.4,0.3-0.7,0.6-0.9,1.1v3.9h-1.1v-6.2h1v1.4c0.2-0.4,0.5-0.8,0.9-1.1
			s0.7-0.4,1.1-0.4c0.1,0,0.1,0,0.2,0c0.1,0,0.1,0,0.1,0v0.9H71.7z"/>
		<path class="st5" d="M74.5,22.4L72,16.2h1.1l2,5.2l2-5.2h1l-2.5,6.2H74.5z"/>
		<path class="st5" d="M79.2,15v-1.3h1.1V15H79.2z M79.2,22.4v-6.3h1.1v6.3H79.2z"/>
		<path class="st5" d="M84.7,22.5c-0.5,0-0.9-0.1-1.3-0.3c-0.4-0.2-0.7-0.4-1-0.7s-0.5-0.6-0.7-1s-0.2-0.8-0.2-1.2
			c0-0.6,0.1-1.1,0.4-1.6s0.6-0.9,1.1-1.2s1-0.4,1.7-0.4c0.6,0,1.2,0.1,1.6,0.4c0.5,0.3,0.8,0.6,1,1.1l-1,0.3
			c-0.2-0.3-0.4-0.5-0.7-0.7S85,17,84.6,17s-0.7,0.1-1,0.3s-0.6,0.5-0.8,0.8s-0.3,0.7-0.3,1.2c0,0.4,0.1,0.8,0.3,1.2
			s0.4,0.6,0.8,0.8s0.7,0.3,1,0.3c0.2,0,0.5,0,0.7-0.1s0.4-0.2,0.6-0.4c0.2-0.1,0.3-0.3,0.4-0.5l1,0.3c-0.1,0.3-0.3,0.6-0.6,0.8
			s-0.6,0.4-0.9,0.6C85.5,22.5,85.1,22.5,84.7,22.5z M84.6,24.6c-0.2,0-0.4,0-0.7-0.1c-0.2-0.1-0.5-0.1-0.7-0.3l0.3-0.6
			c0.2,0.1,0.3,0.1,0.5,0.2c0.1,0,0.3,0.1,0.5,0.1s0.4-0.1,0.6-0.2s0.2-0.2,0.2-0.4s-0.1-0.4-0.2-0.5c-0.1-0.2-0.3-0.3-0.6-0.5
			l0.4-0.3c0.3,0.2,0.6,0.4,0.8,0.6c0.2,0.2,0.3,0.5,0.3,0.8s-0.1,0.6-0.3,0.8C85.3,24.5,85,24.6,84.6,24.6z"/>
		<path class="st5" d="M91.3,22.5c-0.5,0-0.9-0.1-1.3-0.3c-0.4-0.2-0.7-0.4-1-0.7s-0.5-0.6-0.6-1c-0.2-0.4-0.2-0.8-0.2-1.2
			s0.1-0.8,0.2-1.2c0.2-0.4,0.4-0.7,0.6-1c0.3-0.3,0.6-0.5,1-0.7s0.8-0.3,1.3-0.3s0.9,0.1,1.3,0.3c0.4,0.2,0.7,0.4,1,0.7
			s0.5,0.6,0.7,1s0.2,0.8,0.2,1.2s-0.1,0.8-0.2,1.2c-0.2,0.4-0.4,0.7-0.6,1s-0.6,0.5-1,0.7C92.2,22.4,91.8,22.5,91.3,22.5z
			 M89.2,19.3c0,0.4,0.1,0.8,0.3,1.2c0.2,0.3,0.4,0.6,0.8,0.8c0.3,0.2,0.7,0.3,1,0.3s0.7-0.1,1-0.3s0.6-0.5,0.8-0.8
			c0.2-0.4,0.3-0.7,0.3-1.2c0-0.4-0.1-0.8-0.3-1.2c-0.2-0.3-0.4-0.6-0.8-0.8c-0.3-0.2-0.7-0.3-1-0.3s-0.7,0.1-1,0.3
			s-0.6,0.5-0.8,0.8C89.3,18.5,89.2,18.9,89.2,19.3z"/>
		<path class="st5" d="M97.9,22.5c-0.5,0-1-0.1-1.5-0.3s-0.8-0.4-1.2-0.8l0.4-0.7c0.4,0.3,0.7,0.6,1.1,0.7c0.4,0.1,0.7,0.2,1.1,0.2
			c0.4,0,0.8-0.1,1.1-0.2c0.3-0.2,0.4-0.4,0.4-0.7c0-0.2-0.1-0.4-0.2-0.5s-0.3-0.2-0.6-0.3s-0.6-0.2-0.9-0.3
			c-0.4-0.1-0.8-0.3-1.1-0.4c-0.3-0.1-0.5-0.3-0.7-0.5s-0.2-0.5-0.2-0.8c0-0.4,0.1-0.7,0.3-1s0.5-0.5,0.9-0.6s0.8-0.2,1.2-0.2
			s0.9,0.1,1.3,0.2c0.4,0.1,0.7,0.4,1,0.6l-0.5,0.7c-0.2-0.3-0.5-0.4-0.8-0.6s-0.6-0.2-1-0.2c-0.2,0-0.4,0-0.6,0.1
			C97.2,17,97,17,96.9,17.2c-0.1,0.1-0.2,0.3-0.2,0.6c0,0.2,0.1,0.4,0.2,0.5c0.1,0.1,0.3,0.2,0.5,0.3s0.5,0.2,0.8,0.3
			c0.5,0.1,0.9,0.3,1.2,0.4c0.3,0.1,0.6,0.3,0.8,0.5s0.3,0.5,0.3,0.9c0,0.6-0.2,1-0.7,1.4C99.2,22.4,98.6,22.5,97.9,22.5z"/>
		<path class="st5" d="M0.7,33.7c0-0.6,0.1-1.1,0.4-1.6s0.6-0.9,1-1.2s0.9-0.4,1.5-0.4c0.5,0,1,0.1,1.4,0.4c0.4,0.3,0.7,0.6,0.9,1
			v-3.8H7v7.6c0,0.1,0,0.2,0.1,0.3s0.1,0.1,0.3,0.1v0.8c-0.2,0-0.4,0-0.5,0c-0.2,0-0.4-0.1-0.5-0.2s-0.2-0.3-0.2-0.5v-0.5
			c-0.2,0.4-0.6,0.7-1,0.9s-0.8,0.3-1.3,0.3c-0.4,0-0.8-0.1-1.2-0.3S2,36.2,1.8,35.9c-0.3-0.3-0.5-0.6-0.6-1
			C0.8,34.5,0.7,34.1,0.7,33.7z M5.9,34.6v-1.8c-0.1-0.3-0.3-0.5-0.5-0.7s-0.5-0.4-0.7-0.5c-0.3-0.1-0.5-0.2-0.8-0.2
			s-0.6,0.1-0.8,0.2s-0.5,0.3-0.6,0.5c-0.2,0.2-0.3,0.5-0.4,0.7C2,33.1,2,33.4,2,33.7c0,0.3,0.1,0.6,0.2,0.9
			c0.1,0.3,0.3,0.5,0.5,0.7s0.4,0.4,0.7,0.5S3.9,36,4.2,36c0.2,0,0.4,0,0.6-0.1s0.4-0.2,0.6-0.3c0.2-0.1,0.3-0.3,0.5-0.4
			C5.7,35,5.8,34.8,5.9,34.6z"/>
		<path class="st5" d="M11.5,36.9c-0.5,0-0.9-0.1-1.3-0.3c-0.4-0.2-0.7-0.4-1-0.7s-0.5-0.6-0.7-1s-0.2-0.8-0.2-1.2
			c0-0.6,0.1-1.1,0.4-1.6c0.3-0.5,0.7-0.9,1.1-1.2c0.5-0.3,1-0.4,1.7-0.4c0.6,0,1.2,0.1,1.7,0.4s0.8,0.7,1.1,1.2s0.4,1,0.4,1.6
			c0,0.1,0,0.2,0,0.2s0,0.1,0,0.2H9.5c0,0.4,0.1,0.8,0.3,1.1s0.5,0.6,0.8,0.7c0.3,0.2,0.6,0.3,1,0.3s0.7-0.1,1.1-0.3
			s0.6-0.4,0.7-0.8l0.9,0.3c-0.1,0.3-0.3,0.6-0.6,0.8s-0.6,0.4-0.9,0.6S11.9,36.9,11.5,36.9z M9.3,33.3h4.3c0-0.4-0.1-0.8-0.3-1.1
			s-0.5-0.5-0.8-0.7s-0.7-0.3-1-0.3c-0.4,0-0.7,0.1-1,0.3s-0.6,0.4-0.8,0.7C9.5,32.6,9.4,32.9,9.3,33.3z"/>
		<path class="st5" d="M18.5,36.9c-0.5,0-0.9-0.1-1.3-0.3c-0.4-0.2-0.7-0.4-1-0.7c-0.3-0.3-0.5-0.6-0.7-1s-0.2-0.8-0.2-1.2
			c0-0.6,0.1-1.1,0.4-1.6c0.3-0.5,0.6-0.9,1.1-1.2s1-0.4,1.7-0.4c0.6,0,1.2,0.1,1.6,0.4c0.5,0.3,0.8,0.6,1,1.1l-1,0.3
			c-0.2-0.3-0.4-0.5-0.7-0.7s-0.6-0.2-1-0.2s-0.7,0.1-1,0.3s-0.6,0.5-0.8,0.8s-0.3,0.7-0.3,1.2c0,0.4,0.1,0.8,0.3,1.2
			s0.4,0.6,0.8,0.8s0.7,0.3,1,0.3c0.2,0,0.5,0,0.7-0.1s0.4-0.2,0.6-0.4c0.2-0.1,0.3-0.3,0.4-0.5l1,0.3c-0.1,0.3-0.3,0.6-0.6,0.8
			s-0.6,0.4-0.9,0.6C19.4,36.9,19,36.9,18.5,36.9z"/>
		<path class="st5" d="M22.4,28h1.1v7.2c0,0.3,0,0.6,0.1,0.6c0.1,0.1,0.2,0.1,0.3,0.1c0.2,0,0.3,0,0.5-0.1c0.2,0,0.3-0.1,0.4-0.1
			l0.2,0.9c-0.2,0.1-0.4,0.1-0.6,0.2s-0.5,0.1-0.6,0.1c-0.4,0-0.7-0.1-1-0.3c-0.2-0.2-0.4-0.6-0.4-1V28z"/>
		<path class="st5" d="M25.9,29.4v-1.3H27v1.3H25.9z M25.9,36.8v-6.3H27v6.3H25.9z"/>
		<path class="st5" d="M34,36.8h-1.1v-3.5c0-0.7-0.1-1.1-0.3-1.4c-0.2-0.3-0.5-0.5-0.9-0.5c-0.3,0-0.6,0.1-0.9,0.2
			c-0.3,0.1-0.5,0.3-0.8,0.6c-0.2,0.2-0.4,0.5-0.5,0.8v3.8h-1.1v-6.2h1v1.3c0.2-0.3,0.4-0.5,0.6-0.8c0.3-0.2,0.6-0.4,0.9-0.5
			s0.7-0.2,1.1-0.2c0.4,0,0.7,0.1,0.9,0.2c0.2,0.1,0.4,0.3,0.6,0.5c0.1,0.2,0.2,0.5,0.3,0.8s0.1,0.7,0.1,1v3.9H34z"/>
		<path class="st5" d="M35.2,35c0-0.4,0.1-0.7,0.3-1s0.5-0.5,0.9-0.7s0.9-0.2,1.4-0.2c0.3,0,0.6,0,0.9,0.1c0.3,0,0.6,0.1,0.8,0.2
			v-0.5c0-0.5-0.1-0.8-0.4-1.1s-0.7-0.4-1.2-0.4c-0.3,0-0.7,0.1-1,0.2c-0.3,0.1-0.7,0.3-1,0.5l-0.4-0.7c0.4-0.3,0.8-0.5,1.2-0.6
			s0.8-0.2,1.3-0.2c0.8,0,1.4,0.2,1.9,0.7c0.5,0.4,0.7,1.1,0.7,1.8v2.6c0,0.1,0,0.2,0.1,0.3s0.1,0.1,0.3,0.1v0.8c-0.1,0-0.2,0-0.3,0
			s-0.1,0-0.2,0c-0.2,0-0.4-0.1-0.6-0.2c-0.1-0.1-0.2-0.3-0.2-0.4v-0.4c-0.3,0.4-0.6,0.6-1.1,0.8c-0.4,0.2-0.9,0.3-1.3,0.3
			c-0.4,0-0.8-0.1-1.1-0.3s-0.6-0.4-0.8-0.7C35.3,35.7,35.2,35.4,35.2,35z M39.3,35.4c0.1-0.1,0.2-0.2,0.2-0.3
			c0.1-0.1,0.1-0.2,0.1-0.3V34c-0.2-0.1-0.5-0.2-0.8-0.2c-0.3-0.1-0.5-0.1-0.8-0.1c-0.5,0-1,0.1-1.3,0.3s-0.5,0.5-0.5,0.9
			c0,0.2,0.1,0.4,0.2,0.6c0.1,0.2,0.3,0.3,0.5,0.5c0.2,0.1,0.5,0.2,0.8,0.2s0.6-0.1,0.9-0.2C38.9,35.8,39.1,35.6,39.3,35.4z"/>
		<path class="st5" d="M45.7,31.5c-0.5,0-1,0.1-1.4,0.4c-0.4,0.3-0.7,0.6-0.9,1.1v3.9h-1.1v-6.2h1v1.4c0.2-0.4,0.5-0.8,0.9-1.1
			s0.7-0.4,1.1-0.4c0.1,0,0.1,0,0.2,0c0.1,0,0.1,0,0.1,0v0.9H45.7z"/>
		<path class="st5" d="M46.2,35c0-0.4,0.1-0.7,0.3-1s0.5-0.5,0.9-0.7s0.9-0.2,1.4-0.2c0.3,0,0.6,0,0.9,0.1c0.3,0,0.6,0.1,0.8,0.2
			v-0.5c0-0.5-0.1-0.8-0.4-1.1s-0.7-0.4-1.2-0.4c-0.3,0-0.7,0.1-1,0.2c-0.3,0.1-0.7,0.3-1,0.5l-0.4-0.7c0.4-0.3,0.8-0.5,1.2-0.6
			s0.8-0.2,1.3-0.2c0.8,0,1.4,0.2,1.9,0.7c0.5,0.4,0.7,1.1,0.7,1.8v2.6c0,0.1,0,0.2,0.1,0.3s0.1,0.1,0.3,0.1v0.8c-0.1,0-0.2,0-0.3,0
			s-0.1,0-0.2,0c-0.2,0-0.4-0.1-0.6-0.2c-0.1-0.1-0.2-0.3-0.2-0.4v-0.4c-0.3,0.4-0.6,0.6-1.1,0.8c-0.4,0.2-0.9,0.3-1.3,0.3
			c-0.4,0-0.8-0.1-1.1-0.3s-0.6-0.4-0.8-0.7C46.3,35.7,46.2,35.4,46.2,35z M50.3,35.4c0.1-0.1,0.2-0.2,0.2-0.3
			c0.1-0.1,0.1-0.2,0.1-0.3V34c-0.2-0.1-0.5-0.2-0.8-0.2c-0.3-0.1-0.5-0.1-0.8-0.1c-0.5,0-1,0.1-1.3,0.3s-0.5,0.5-0.5,0.9
			c0,0.2,0.1,0.4,0.2,0.6c0.1,0.2,0.3,0.3,0.5,0.5c0.2,0.1,0.5,0.2,0.8,0.2s0.6-0.1,0.9-0.2C49.9,35.8,50.1,35.6,50.3,35.4z"/>
		<path class="st5" d="M62.8,36.8h-1.1v-3.5c0-0.7-0.1-1.1-0.3-1.4s-0.5-0.5-0.9-0.5s-0.8,0.2-1.2,0.5c-0.3,0.3-0.6,0.7-0.7,1.2v3.7
			h-1.1v-3.5c0-0.7-0.1-1.1-0.3-1.4c-0.2-0.3-0.5-0.5-0.9-0.5s-0.8,0.1-1.1,0.4c-0.3,0.3-0.6,0.7-0.7,1.2v3.8h-1.1v-6.2h1v1.3
			c0.3-0.5,0.6-0.8,1-1.1c0.4-0.2,0.9-0.4,1.4-0.4s0.9,0.1,1.2,0.4c0.3,0.3,0.5,0.6,0.6,1.1c0.3-0.5,0.6-0.9,1-1.1
			c0.4-0.3,0.9-0.4,1.4-0.4c0.4,0,0.7,0.1,0.9,0.2c0.2,0.1,0.4,0.3,0.6,0.5c0.1,0.2,0.2,0.5,0.3,0.8s0.1,0.7,0.1,1v3.9H62.8z"/>
	</g>
</g>
<g>
	<g>
		<path class="st5" d="M166.7,14.8h-2.9v7.6h-1.1v-7.6h-2.9v-1h7L166.7,14.8L166.7,14.8z"/>
		<path class="st5" d="M170.4,22.5c-0.5,0-0.9-0.1-1.3-0.3c-0.4-0.2-0.7-0.4-1-0.7s-0.5-0.6-0.6-1c-0.2-0.4-0.2-0.8-0.2-1.2
			s0.1-0.8,0.2-1.2c0.2-0.4,0.4-0.7,0.6-1c0.3-0.3,0.6-0.5,1-0.7s0.8-0.3,1.3-0.3s0.9,0.1,1.3,0.3c0.4,0.2,0.7,0.4,1,0.7
			s0.5,0.6,0.7,1s0.2,0.8,0.2,1.2s-0.1,0.8-0.2,1.2c-0.2,0.4-0.4,0.7-0.6,1s-0.6,0.5-1,0.7C171.4,22.4,170.9,22.5,170.4,22.5z
			 M168.4,19.3c0,0.4,0.1,0.8,0.3,1.2c0.2,0.3,0.4,0.6,0.8,0.8c0.3,0.2,0.7,0.3,1,0.3s0.7-0.1,1-0.3s0.6-0.5,0.8-0.8
			c0.2-0.4,0.3-0.7,0.3-1.2c0-0.4-0.1-0.8-0.3-1.2c-0.2-0.3-0.4-0.6-0.8-0.8c-0.3-0.2-0.7-0.3-1-0.3s-0.7,0.1-1,0.3
			s-0.6,0.5-0.8,0.8C168.5,18.5,168.4,18.9,168.4,19.3z"/>
		<path class="st5" d="M174.5,19.3c0-0.6,0.1-1.1,0.4-1.6s0.6-0.9,1-1.2s0.9-0.4,1.5-0.4c0.5,0,1,0.1,1.4,0.4c0.4,0.3,0.7,0.6,0.9,1
			v-3.8h1.1v7.6c0,0.1,0,0.2,0.1,0.3s0.1,0.1,0.3,0.1v0.8c-0.2,0-0.4,0-0.5,0c-0.2,0-0.4-0.1-0.5-0.2S180,22,180,21.8v-0.5
			c-0.2,0.4-0.6,0.7-1,0.9s-0.8,0.3-1.3,0.3c-0.4,0-0.8-0.1-1.2-0.3s-0.7-0.4-0.9-0.7c-0.3-0.3-0.5-0.6-0.6-1
			C174.6,20.1,174.5,19.7,174.5,19.3z M179.6,20.2v-1.8c-0.1-0.3-0.3-0.5-0.5-0.7s-0.5-0.4-0.7-0.5c-0.3-0.1-0.5-0.2-0.8-0.2
			s-0.6,0.1-0.8,0.2s-0.5,0.3-0.6,0.5c-0.2,0.2-0.3,0.5-0.4,0.7c-0.1,0.3-0.1,0.6-0.1,0.9c0,0.3,0.1,0.6,0.2,0.9
			c0.1,0.3,0.3,0.5,0.5,0.7s0.4,0.4,0.7,0.5s0.5,0.2,0.8,0.2c0.2,0,0.4,0,0.6-0.1s0.4-0.2,0.6-0.3c0.2-0.1,0.3-0.3,0.5-0.4
			C179.5,20.6,179.6,20.4,179.6,20.2z"/>
		<path class="st5" d="M185.2,22.5c-0.5,0-0.9-0.1-1.3-0.3c-0.4-0.2-0.7-0.4-1-0.7s-0.5-0.6-0.6-1c-0.2-0.4-0.2-0.8-0.2-1.2
			s0.1-0.8,0.2-1.2c0.2-0.4,0.4-0.7,0.6-1c0.3-0.3,0.6-0.5,1-0.7s0.8-0.3,1.3-0.3s0.9,0.1,1.3,0.3c0.4,0.2,0.7,0.4,1,0.7
			s0.5,0.6,0.7,1s0.2,0.8,0.2,1.2s-0.1,0.8-0.2,1.2c-0.2,0.4-0.4,0.7-0.6,1s-0.6,0.5-1,0.7C186.1,22.4,185.7,22.5,185.2,22.5z
			 M183.1,19.3c0,0.4,0.1,0.8,0.3,1.2c0.2,0.3,0.4,0.6,0.8,0.8c0.3,0.2,0.7,0.3,1,0.3s0.7-0.1,1-0.3s0.6-0.5,0.8-0.8
			c0.2-0.4,0.3-0.7,0.3-1.2c0-0.4-0.1-0.8-0.3-1.2c-0.2-0.3-0.4-0.6-0.8-0.8c-0.3-0.2-0.7-0.3-1-0.3s-0.7,0.1-1,0.3
			s-0.6,0.5-0.8,0.8C183.2,18.5,183.1,18.9,183.1,19.3z"/>
		<path class="st5" d="M191.8,22.5c-0.5,0-1-0.1-1.5-0.3s-0.8-0.4-1.2-0.8l0.4-0.7c0.4,0.3,0.7,0.6,1.1,0.7c0.4,0.1,0.7,0.2,1.1,0.2
			c0.4,0,0.8-0.1,1.1-0.2c0.3-0.2,0.4-0.4,0.4-0.7c0-0.2-0.1-0.4-0.2-0.5s-0.3-0.2-0.6-0.3s-0.6-0.2-0.9-0.3
			c-0.4-0.1-0.8-0.3-1.1-0.4c-0.3-0.1-0.5-0.3-0.7-0.5s-0.2-0.5-0.2-0.8c0-0.4,0.1-0.7,0.3-1s0.5-0.5,0.9-0.6s0.8-0.2,1.2-0.2
			s0.9,0.1,1.3,0.2c0.4,0.1,0.7,0.4,1,0.6l-0.5,0.7c-0.2-0.3-0.5-0.4-0.8-0.6s-0.6-0.2-1-0.2c-0.2,0-0.4,0-0.6,0.1
			c-0.2,0.1-0.4,0.1-0.5,0.3c-0.1,0.1-0.2,0.3-0.2,0.6c0,0.2,0.1,0.4,0.2,0.5c0.1,0.1,0.3,0.2,0.5,0.3s0.5,0.2,0.8,0.3
			c0.5,0.1,0.9,0.3,1.2,0.4c0.3,0.1,0.6,0.3,0.8,0.5s0.3,0.5,0.3,0.9c0,0.6-0.2,1-0.7,1.4C193.1,22.4,192.5,22.5,191.8,22.5z"/>
		<path class="st5" d="M201.3,22.5c-0.5,0-0.9-0.1-1.3-0.3c-0.4-0.2-0.7-0.4-1-0.7s-0.5-0.6-0.6-1c-0.2-0.4-0.2-0.8-0.2-1.2
			s0.1-0.8,0.2-1.2c0.2-0.4,0.4-0.7,0.6-1c0.3-0.3,0.6-0.5,1-0.7s0.8-0.3,1.3-0.3s0.9,0.1,1.3,0.3c0.4,0.2,0.7,0.4,1,0.7
			s0.5,0.6,0.7,1s0.2,0.8,0.2,1.2s-0.1,0.8-0.2,1.2c-0.2,0.4-0.4,0.7-0.6,1s-0.6,0.5-1,0.7C202.2,22.4,201.7,22.5,201.3,22.5z
			 M199.2,19.3c0,0.4,0.1,0.8,0.3,1.2c0.2,0.3,0.4,0.6,0.8,0.8c0.3,0.2,0.7,0.3,1,0.3s0.7-0.1,1-0.3s0.6-0.5,0.8-0.8
			c0.2-0.4,0.3-0.7,0.3-1.2c0-0.4-0.1-0.8-0.3-1.2c-0.2-0.3-0.4-0.6-0.8-0.8c-0.3-0.2-0.7-0.3-1-0.3s-0.7,0.1-1,0.3
			s-0.6,0.5-0.8,0.8C199.3,18.5,199.2,18.9,199.2,19.3z"/>
		<path class="st5" d="M207.9,22.5c-0.5,0-1-0.1-1.5-0.3s-0.8-0.4-1.2-0.8l0.4-0.7c0.4,0.3,0.7,0.6,1.1,0.7c0.4,0.1,0.7,0.2,1.1,0.2
			c0.4,0,0.8-0.1,1.1-0.2c0.3-0.2,0.4-0.4,0.4-0.7c0-0.2-0.1-0.4-0.2-0.5s-0.3-0.2-0.6-0.3s-0.6-0.2-0.9-0.3
			c-0.4-0.1-0.8-0.3-1.1-0.4c-0.3-0.1-0.5-0.3-0.7-0.5s-0.2-0.5-0.2-0.8c0-0.4,0.1-0.7,0.3-1s0.5-0.5,0.9-0.6s0.8-0.2,1.2-0.2
			s0.9,0.1,1.3,0.2c0.4,0.1,0.7,0.4,1,0.6l-0.5,0.7c-0.2-0.3-0.5-0.4-0.8-0.6s-0.6-0.2-1-0.2c-0.2,0-0.4,0-0.6,0.1
			c-0.2,0.1-0.4,0.1-0.5,0.3c-0.1,0.1-0.2,0.3-0.2,0.6c0,0.2,0.1,0.4,0.2,0.5c0.1,0.1,0.3,0.2,0.5,0.3s0.5,0.2,0.8,0.3
			c0.5,0.1,0.9,0.3,1.2,0.4c0.3,0.1,0.6,0.3,0.8,0.5s0.3,0.5,0.3,0.9c0,0.6-0.2,1-0.7,1.4C209.2,22.4,208.6,22.5,207.9,22.5z"/>
		<path class="st5" d="M216.8,22.5c-0.5,0-1-0.1-1.5-0.3s-0.8-0.4-1.2-0.8l0.4-0.7c0.4,0.3,0.7,0.6,1.1,0.7c0.4,0.1,0.7,0.2,1.1,0.2
			c0.4,0,0.8-0.1,1.1-0.2c0.3-0.2,0.4-0.4,0.4-0.7c0-0.2-0.1-0.4-0.2-0.5s-0.3-0.2-0.6-0.3s-0.6-0.2-0.9-0.3
			c-0.4-0.1-0.8-0.3-1.1-0.4c-0.3-0.1-0.5-0.3-0.7-0.5s-0.2-0.5-0.2-0.8c0-0.4,0.1-0.7,0.3-1s0.5-0.5,0.9-0.6s0.8-0.2,1.2-0.2
			s0.9,0.1,1.3,0.2c0.4,0.1,0.7,0.4,1,0.6l-0.5,0.7c-0.2-0.3-0.5-0.4-0.8-0.6s-0.6-0.2-1-0.2c-0.2,0-0.4,0-0.6,0.1
			c-0.2,0.1-0.4,0.1-0.5,0.3c-0.1,0.1-0.2,0.3-0.2,0.6c0,0.2,0.1,0.4,0.2,0.5c0.1,0.1,0.3,0.2,0.5,0.3s0.5,0.2,0.8,0.3
			c0.5,0.1,0.9,0.3,1.2,0.4c0.3,0.1,0.6,0.3,0.8,0.5s0.3,0.5,0.3,0.9c0,0.6-0.2,1-0.7,1.4C218.1,22.4,217.5,22.5,216.8,22.5z"/>
		<path class="st5" d="M223.2,22.5c-0.5,0-0.9-0.1-1.3-0.3c-0.4-0.2-0.7-0.4-1-0.7s-0.5-0.6-0.7-1s-0.2-0.8-0.2-1.2
			c0-0.6,0.1-1.1,0.4-1.6c0.3-0.5,0.7-0.9,1.1-1.2c0.5-0.3,1-0.4,1.7-0.4c0.6,0,1.2,0.1,1.7,0.4s0.8,0.7,1.1,1.2s0.4,1,0.4,1.6
			c0,0.1,0,0.2,0,0.2s0,0.1,0,0.2h-5.2c0,0.4,0.1,0.8,0.3,1.1s0.5,0.6,0.8,0.7c0.3,0.2,0.6,0.3,1,0.3s0.7-0.1,1.1-0.3
			s0.6-0.4,0.7-0.8L226,21c-0.1,0.3-0.3,0.6-0.6,0.8s-0.6,0.4-0.9,0.6S223.7,22.5,223.2,22.5z M221.1,18.9h4.3
			c0-0.4-0.1-0.8-0.3-1.1s-0.5-0.5-0.8-0.7s-0.7-0.3-1-0.3c-0.4,0-0.7,0.1-1,0.3s-0.6,0.4-0.8,0.7C221.3,18.2,221.2,18.5,221.1,18.9
			z"/>
		<path class="st5" d="M230.9,17.1c-0.5,0-1,0.1-1.4,0.4c-0.4,0.3-0.7,0.6-0.9,1.1v3.9h-1.1v-6.2h1v1.4c0.2-0.4,0.5-0.8,0.9-1.1
			s0.7-0.4,1.1-0.4c0.1,0,0.1,0,0.2,0c0.1,0,0.1,0,0.1,0v0.9H230.9z"/>
		<path class="st5" d="M233.7,22.4l-2.5-6.2h1.1l2,5.2l2-5.2h1l-2.5,6.2H233.7z"/>
		<path class="st5" d="M238.4,15v-1.3h1.1V15H238.4z M238.4,22.4v-6.3h1.1v6.3H238.4z"/>
		<path class="st5" d="M243.9,22.5c-0.5,0-0.9-0.1-1.3-0.3c-0.4-0.2-0.7-0.4-1-0.7s-0.5-0.6-0.7-1s-0.2-0.8-0.2-1.2
			c0-0.6,0.1-1.1,0.4-1.6s0.6-0.9,1.1-1.2s1-0.4,1.7-0.4c0.6,0,1.2,0.1,1.6,0.4c0.5,0.3,0.8,0.6,1,1.1l-1,0.3
			c-0.2-0.3-0.4-0.5-0.7-0.7s-0.6-0.2-1-0.2s-0.7,0.1-1,0.3s-0.6,0.5-0.8,0.8s-0.3,0.7-0.3,1.2c0,0.4,0.1,0.8,0.3,1.2
			s0.4,0.6,0.8,0.8s0.7,0.3,1,0.3c0.2,0,0.5,0,0.7-0.1s0.4-0.2,0.6-0.4c0.2-0.1,0.3-0.3,0.4-0.5l1,0.3c-0.1,0.3-0.3,0.6-0.6,0.8
			s-0.6,0.4-0.9,0.6C244.7,22.5,244.3,22.5,243.9,22.5z M243.8,24.6c-0.2,0-0.4,0-0.7-0.1c-0.2-0.1-0.5-0.1-0.7-0.3l0.3-0.6
			c0.2,0.1,0.3,0.1,0.5,0.2c0.1,0,0.3,0.1,0.5,0.1s0.4-0.1,0.6-0.2s0.2-0.2,0.2-0.4s-0.1-0.4-0.2-0.5c-0.1-0.2-0.3-0.3-0.6-0.5
			l0.4-0.3c0.3,0.2,0.6,0.4,0.8,0.6c0.2,0.2,0.3,0.5,0.3,0.8s-0.1,0.6-0.3,0.8C244.5,24.5,244.2,24.6,243.8,24.6z"/>
		<path class="st5" d="M250.5,22.5c-0.5,0-0.9-0.1-1.3-0.3c-0.4-0.2-0.7-0.4-1-0.7s-0.5-0.6-0.6-1c-0.2-0.4-0.2-0.8-0.2-1.2
			s0.1-0.8,0.2-1.2c0.2-0.4,0.4-0.7,0.6-1c0.3-0.3,0.6-0.5,1-0.7s0.8-0.3,1.3-0.3s0.9,0.1,1.3,0.3c0.4,0.2,0.7,0.4,1,0.7
			s0.5,0.6,0.7,1s0.2,0.8,0.2,1.2s-0.1,0.8-0.2,1.2c-0.2,0.4-0.4,0.7-0.6,1s-0.6,0.5-1,0.7C251.4,22.4,251,22.5,250.5,22.5z
			 M248.4,19.3c0,0.4,0.1,0.8,0.3,1.2c0.2,0.3,0.4,0.6,0.8,0.8c0.3,0.2,0.7,0.3,1,0.3s0.7-0.1,1-0.3s0.6-0.5,0.8-0.8
			c0.2-0.4,0.3-0.7,0.3-1.2c0-0.4-0.1-0.8-0.3-1.2c-0.2-0.3-0.4-0.6-0.8-0.8c-0.3-0.2-0.7-0.3-1-0.3s-0.7,0.1-1,0.3
			s-0.6,0.5-0.8,0.8C248.5,18.5,248.4,18.9,248.4,19.3z"/>
		<path class="st5" d="M257.1,22.5c-0.5,0-1-0.1-1.5-0.3s-0.8-0.4-1.2-0.8l0.4-0.7c0.4,0.3,0.7,0.6,1.1,0.7c0.4,0.1,0.7,0.2,1.1,0.2
			c0.4,0,0.8-0.1,1.1-0.2c0.3-0.2,0.4-0.4,0.4-0.7c0-0.2-0.1-0.4-0.2-0.5s-0.3-0.2-0.6-0.3s-0.6-0.2-0.9-0.3
			c-0.4-0.1-0.8-0.3-1.1-0.4c-0.3-0.1-0.5-0.3-0.7-0.5s-0.2-0.5-0.2-0.8c0-0.4,0.1-0.7,0.3-1s0.5-0.5,0.9-0.6s0.8-0.2,1.2-0.2
			s0.9,0.1,1.3,0.2c0.4,0.1,0.7,0.4,1,0.6l-0.5,0.7c-0.2-0.3-0.5-0.4-0.8-0.6s-0.6-0.2-1-0.2c-0.2,0-0.4,0-0.6,0.1
			c-0.2,0.1-0.4,0.1-0.5,0.3c-0.1,0.1-0.2,0.3-0.2,0.6c0,0.2,0.1,0.4,0.2,0.5c0.1,0.1,0.3,0.2,0.5,0.3s0.5,0.2,0.8,0.3
			c0.5,0.1,0.9,0.3,1.2,0.4c0.3,0.1,0.6,0.3,0.8,0.5s0.3,0.5,0.3,0.9c0,0.6-0.2,1-0.7,1.4C258.5,22.4,257.9,22.5,257.1,22.5z"/>
		<path class="st5" d="M188.3,35c0-0.4,0.1-0.7,0.3-1s0.5-0.5,0.9-0.7s0.9-0.2,1.4-0.2c0.3,0,0.6,0,0.9,0.1c0.3,0,0.6,0.1,0.8,0.2
			v-0.5c0-0.5-0.1-0.8-0.4-1.1s-0.7-0.4-1.2-0.4c-0.3,0-0.7,0.1-1,0.2c-0.3,0.1-0.7,0.3-1,0.5l-0.4-0.7c0.4-0.3,0.8-0.5,1.2-0.6
			s0.8-0.2,1.3-0.2c0.8,0,1.4,0.2,1.9,0.7c0.5,0.4,0.7,1.1,0.7,1.8v2.6c0,0.1,0,0.2,0.1,0.3s0.1,0.1,0.3,0.1v0.8c-0.1,0-0.2,0-0.3,0
			s-0.1,0-0.2,0c-0.2,0-0.4-0.1-0.6-0.2c-0.1-0.1-0.2-0.3-0.2-0.4v-0.4c-0.3,0.4-0.6,0.6-1.1,0.8c-0.4,0.2-0.9,0.3-1.3,0.3
			c-0.4,0-0.8-0.1-1.1-0.3s-0.6-0.4-0.8-0.7C188.3,35.7,188.3,35.4,188.3,35z M192.3,35.4c0.1-0.1,0.2-0.2,0.2-0.3
			c0.1-0.1,0.1-0.2,0.1-0.3V34c-0.2-0.1-0.5-0.2-0.8-0.2c-0.3-0.1-0.5-0.1-0.8-0.1c-0.5,0-1,0.1-1.3,0.3s-0.5,0.5-0.5,0.9
			c0,0.2,0.1,0.4,0.2,0.6c0.1,0.2,0.3,0.3,0.5,0.5c0.2,0.1,0.5,0.2,0.8,0.2s0.6-0.1,0.9-0.2C191.9,35.8,192.2,35.6,192.3,35.4z"/>
		<path class="st5" d="M195.3,34.3v-3.7h1.1v3.5c0,0.6,0.1,1.1,0.3,1.4c0.2,0.3,0.6,0.5,1,0.5c0.3,0,0.6-0.1,0.8-0.2
			c0.3-0.1,0.5-0.3,0.7-0.5s0.4-0.5,0.5-0.8v-3.9h1.1v5c0,0.1,0,0.2,0.1,0.3s0.1,0.1,0.3,0.1v0.8c-0.1,0-0.2,0-0.3,0s-0.1,0-0.2,0
			c-0.2,0-0.4-0.1-0.5-0.2c-0.1-0.1-0.2-0.3-0.2-0.5v-0.7c-0.3,0.5-0.6,0.8-1.1,1.1s-1,0.4-1.5,0.4c-0.7,0-1.2-0.2-1.5-0.7
			S195.3,35.2,195.3,34.3z"/>
		<path class="st5" d="M212.1,36.8H211v-3.5c0-0.7-0.1-1.1-0.3-1.4s-0.5-0.5-0.9-0.5s-0.8,0.2-1.2,0.5c-0.3,0.3-0.6,0.7-0.7,1.2v3.7
			h-1.1v-3.5c0-0.7-0.1-1.1-0.3-1.4c-0.2-0.3-0.5-0.5-0.9-0.5s-0.8,0.1-1.1,0.4c-0.3,0.3-0.6,0.7-0.7,1.2v3.8h-1.1v-6.2h1v1.3
			c0.3-0.5,0.6-0.8,1-1.1c0.4-0.2,0.9-0.4,1.4-0.4s0.9,0.1,1.2,0.4c0.3,0.3,0.5,0.6,0.6,1.1c0.3-0.5,0.6-0.9,1-1.1
			c0.4-0.3,0.9-0.4,1.4-0.4c0.4,0,0.7,0.1,0.9,0.2c0.2,0.1,0.4,0.3,0.6,0.5c0.1,0.2,0.2,0.5,0.3,0.8s0.1,0.7,0.1,1v3.9H212.1z"/>
		<path class="st5" d="M216.5,36.9c-0.5,0-0.9-0.1-1.3-0.3c-0.4-0.2-0.7-0.4-1-0.7s-0.5-0.6-0.7-1s-0.2-0.8-0.2-1.2
			c0-0.6,0.1-1.1,0.4-1.6c0.3-0.5,0.7-0.9,1.1-1.2c0.5-0.3,1-0.4,1.7-0.4c0.6,0,1.2,0.1,1.7,0.4s0.8,0.7,1.1,1.2s0.4,1,0.4,1.6
			c0,0.1,0,0.2,0,0.2s0,0.1,0,0.2h-5.2c0,0.4,0.1,0.8,0.3,1.1s0.5,0.6,0.8,0.7c0.3,0.2,0.6,0.3,1,0.3s0.7-0.1,1.1-0.3
			s0.6-0.4,0.7-0.8l0.9,0.3c-0.1,0.3-0.3,0.6-0.6,0.8s-0.6,0.4-0.9,0.6S216.9,36.9,216.5,36.9z M214.4,33.3h4.3
			c0-0.4-0.1-0.8-0.3-1.1s-0.5-0.5-0.8-0.7s-0.7-0.3-1-0.3c-0.4,0-0.7,0.1-1,0.3s-0.6,0.4-0.8,0.7C214.5,32.6,214.4,32.9,214.4,33.3
			z"/>
		<path class="st5" d="M226.2,36.8h-1.1v-3.5c0-0.7-0.1-1.1-0.3-1.4c-0.2-0.3-0.5-0.5-0.9-0.5c-0.3,0-0.6,0.1-0.9,0.2
			c-0.3,0.1-0.5,0.3-0.8,0.6c-0.2,0.2-0.4,0.5-0.5,0.8v3.8h-1.1v-6.2h1v1.3c0.2-0.3,0.4-0.5,0.6-0.8c0.3-0.2,0.6-0.4,0.9-0.5
			s0.7-0.2,1.1-0.2c0.4,0,0.7,0.1,0.9,0.2c0.2,0.1,0.4,0.3,0.6,0.5c0.1,0.2,0.2,0.5,0.3,0.8s0.1,0.7,0.1,1v3.9H226.2z"/>
		<path class="st5" d="M231.1,36.5c-0.1,0-0.2,0.1-0.4,0.2c-0.2,0.1-0.3,0.1-0.5,0.2s-0.4,0.1-0.6,0.1c-0.3,0-0.5,0-0.7-0.1
			s-0.4-0.2-0.5-0.4s-0.2-0.4-0.2-0.7v-4.2h-0.9v-0.8h0.9v-2.1h1.1v2.1h1.4v0.8h-1.4v3.9c0,0.2,0.1,0.4,0.2,0.5
			c0.1,0.1,0.3,0.2,0.5,0.2s0.4,0,0.6-0.1s0.3-0.1,0.3-0.2L231.1,36.5z"/>
		<path class="st5" d="M231.6,35c0-0.4,0.1-0.7,0.3-1s0.5-0.5,0.9-0.7s0.9-0.2,1.4-0.2c0.3,0,0.6,0,0.9,0.1c0.3,0,0.6,0.1,0.8,0.2
			v-0.5c0-0.5-0.1-0.8-0.4-1.1s-0.7-0.4-1.2-0.4c-0.3,0-0.7,0.1-1,0.2c-0.3,0.1-0.7,0.3-1,0.5l-0.4-0.7c0.4-0.3,0.8-0.5,1.2-0.6
			s0.8-0.2,1.3-0.2c0.8,0,1.4,0.2,1.9,0.7c0.5,0.4,0.7,1.1,0.7,1.8v2.6c0,0.1,0,0.2,0.1,0.3s0.1,0.1,0.3,0.1v0.8c-0.1,0-0.2,0-0.3,0
			s-0.1,0-0.2,0c-0.2,0-0.4-0.1-0.6-0.2c-0.1-0.1-0.2-0.3-0.2-0.4v-0.4c-0.3,0.4-0.6,0.6-1.1,0.8c-0.4,0.2-0.9,0.3-1.3,0.3
			c-0.4,0-0.8-0.1-1.1-0.3s-0.6-0.4-0.8-0.7C231.7,35.7,231.6,35.4,231.6,35z M235.7,35.4c0.1-0.1,0.2-0.2,0.2-0.3
			c0.1-0.1,0.1-0.2,0.1-0.3V34c-0.2-0.1-0.5-0.2-0.8-0.2c-0.3-0.1-0.5-0.1-0.8-0.1c-0.5,0-1,0.1-1.3,0.3s-0.5,0.5-0.5,0.9
			c0,0.2,0.1,0.4,0.2,0.6c0.1,0.2,0.3,0.3,0.5,0.5c0.2,0.1,0.5,0.2,0.8,0.2s0.6-0.1,0.9-0.2C235.3,35.8,235.5,35.6,235.7,35.4z"/>
		<path class="st5" d="M242.1,31.5c-0.5,0-1,0.1-1.4,0.4c-0.4,0.3-0.7,0.6-0.9,1.1v3.9h-1.1v-6.2h1v1.4c0.2-0.4,0.5-0.8,0.9-1.1
			s0.7-0.4,1.1-0.4c0.1,0,0.1,0,0.2,0c0.1,0,0.1,0,0.1,0v0.9H242.1z"/>
		<path class="st5" d="M242.6,35c0-0.4,0.1-0.7,0.3-1s0.5-0.5,0.9-0.7s0.9-0.2,1.4-0.2c0.3,0,0.6,0,0.9,0.1c0.3,0,0.6,0.1,0.8,0.2
			v-0.5c0-0.5-0.1-0.8-0.4-1.1s-0.7-0.4-1.2-0.4c-0.3,0-0.7,0.1-1,0.2c-0.3,0.1-0.7,0.3-1,0.5l-0.4-0.7c0.4-0.3,0.8-0.5,1.2-0.6
			s0.8-0.2,1.3-0.2c0.8,0,1.4,0.2,1.9,0.7c0.5,0.4,0.7,1.1,0.7,1.8v2.6c0,0.1,0,0.2,0.1,0.3s0.1,0.1,0.3,0.1v0.8c-0.1,0-0.2,0-0.3,0
			s-0.1,0-0.2,0c-0.2,0-0.4-0.1-0.6-0.2c-0.1-0.1-0.2-0.3-0.2-0.4v-0.4c-0.3,0.4-0.6,0.6-1.1,0.8c-0.4,0.2-0.9,0.3-1.3,0.3
			c-0.4,0-0.8-0.1-1.1-0.3s-0.6-0.4-0.8-0.7C242.7,35.7,242.6,35.4,242.6,35z M246.7,35.4c0.1-0.1,0.2-0.2,0.2-0.3
			c0.1-0.1,0.1-0.2,0.1-0.3V34c-0.2-0.1-0.5-0.2-0.8-0.2c-0.3-0.1-0.5-0.1-0.8-0.1c-0.5,0-1,0.1-1.3,0.3s-0.5,0.5-0.5,0.9
			c0,0.2,0.1,0.4,0.2,0.6c0.1,0.2,0.3,0.3,0.5,0.5c0.2,0.1,0.5,0.2,0.8,0.2s0.6-0.1,0.9-0.2C246.3,35.8,246.5,35.6,246.7,35.4z"/>
		<path class="st5" d="M259.2,36.8h-1.1v-3.5c0-0.7-0.1-1.1-0.3-1.4s-0.5-0.5-0.9-0.5s-0.8,0.2-1.2,0.5c-0.3,0.3-0.6,0.7-0.7,1.2
			v3.7h-1.1v-3.5c0-0.7-0.1-1.1-0.3-1.4c-0.2-0.3-0.5-0.5-0.9-0.5s-0.8,0.1-1.1,0.4c-0.3,0.3-0.6,0.7-0.7,1.2v3.8h-1.1v-6.2h1v1.3
			c0.3-0.5,0.6-0.8,1-1.1c0.4-0.2,0.9-0.4,1.4-0.4s0.9,0.1,1.2,0.4c0.3,0.3,0.5,0.6,0.6,1.1c0.3-0.5,0.6-0.9,1-1.1
			c0.4-0.3,0.9-0.4,1.4-0.4c0.4,0,0.7,0.1,0.9,0.2c0.2,0.1,0.4,0.3,0.6,0.5c0.1,0.2,0.2,0.5,0.3,0.8s0.1,0.7,0.1,1v3.9H259.2z"/>
	</g>
</g>
</svg>
