<?xml version="1.0" encoding="utf-8"?>
<!-- Generator: Adobe Illustrator 24.3.0, SVG Export Plug-In . SVG Version: 6.00 Build 0)  -->
<svg version="1.1" id="img" xmlns="http://www.w3.org/2000/svg" xmlns:xlink="http://www.w3.org/1999/xlink" x="0px" y="0px"
	 viewBox="0 0 261.1 36.8" style="enable-background:new 0 0 261.1 36.8;" xml:space="preserve">
<style type="text/css">
	.st0{fill:#F5845F;stroke:#FFFFFF;stroke-miterlimit:10;}
	.st1{fill:#FCBC82;stroke:#FFFFFF;stroke-miterlimit:10;}
	.st2{fill:#EAE5C5;stroke:#FFFFFF;stroke-miterlimit:10;}
	.st3{fill:#B8B75E;stroke:#FFFFFF;stroke-miterlimit:10;}
	.st4{fill:#4B5F45;stroke:#FFFFFF;stroke-miterlimit:10;}
	.st5{fill:#303845;}
</style>
<rect x="0.5" y="0.5" class="st0" width="52" height="9"/>
<rect x="52.5" y="0.5" class="st1" width="52" height="9"/>
<rect x="104.5" y="0.5" class="st2" width="52" height="9"/>
<rect x="156.6" y="0.5" class="st3" width="52" height="9"/>
<rect x="208.6" y="0.5" class="st4" width="52" height="9"/>
<g>
	<g>
		<path class="st5" d="M200,13.6h0.9l3.5,8.5h-1.2l-1-2.5h-3.7l-1,2.5h-1.2L200,13.6z M201.9,18.8l-1.5-3.9l-1.5,3.9H201.9z"/>
		<path class="st5" d="M205.4,13.4h1.1v7.2c0,0.3,0,0.6,0.1,0.6c0.1,0.1,0.2,0.1,0.3,0.1c0.2,0,0.3,0,0.5-0.1c0.2,0,0.3-0.1,0.4-0.1
			L208,22c-0.2,0.1-0.4,0.1-0.6,0.2s-0.5,0.1-0.6,0.1c-0.4,0-0.7-0.1-1-0.3c-0.2-0.2-0.4-0.6-0.4-1V13.4z"/>
		<path class="st5" d="M208.8,13.4h1.1v7.2c0,0.3,0,0.6,0.1,0.6c0.1,0.1,0.2,0.1,0.3,0.1c0.2,0,0.3,0,0.5-0.1c0.2,0,0.3-0.1,0.4-0.1
			l0.2,0.9c-0.2,0.1-0.4,0.1-0.6,0.2s-0.5,0.1-0.6,0.1c-0.4,0-0.7-0.1-1-0.3c-0.2-0.2-0.4-0.6-0.4-1V13.4z"/>
		<path class="st5" d="M217,22.3c-0.5,0-1-0.1-1.5-0.3s-0.8-0.4-1.2-0.8l0.4-0.7c0.4,0.3,0.7,0.6,1.1,0.7c0.4,0.1,0.7,0.2,1.1,0.2
			c0.4,0,0.8-0.1,1.1-0.2c0.3-0.2,0.4-0.4,0.4-0.7c0-0.2-0.1-0.4-0.2-0.5s-0.3-0.2-0.6-0.3s-0.6-0.2-0.9-0.3
			c-0.4-0.1-0.8-0.3-1.1-0.4c-0.3-0.1-0.5-0.3-0.7-0.5s-0.2-0.5-0.2-0.8c0-0.4,0.1-0.7,0.3-1s0.5-0.5,0.9-0.6s0.8-0.2,1.2-0.2
			s0.9,0.1,1.3,0.2c0.4,0.1,0.7,0.4,1,0.6l-0.5,0.7c-0.2-0.3-0.5-0.4-0.8-0.6s-0.6-0.2-1-0.2c-0.2,0-0.4,0-0.6,0.1
			c-0.2,0.1-0.4,0.1-0.5,0.3c-0.1,0.1-0.2,0.3-0.2,0.6c0,0.2,0.1,0.4,0.2,0.5c0.1,0.1,0.3,0.2,0.5,0.3s0.5,0.2,0.8,0.3
			c0.5,0.1,0.9,0.3,1.2,0.4c0.3,0.1,0.6,0.3,0.8,0.5s0.3,0.5,0.3,0.9c0,0.6-0.2,1-0.7,1.4C218.4,22.1,217.8,22.3,217,22.3z"/>
		<path class="st5" d="M223.5,22.3c-0.5,0-0.9-0.1-1.3-0.3c-0.4-0.2-0.7-0.4-1-0.7s-0.5-0.6-0.7-1s-0.2-0.8-0.2-1.2
			c0-0.6,0.1-1.1,0.4-1.6c0.3-0.5,0.7-0.9,1.1-1.2c0.5-0.3,1-0.4,1.7-0.4c0.6,0,1.2,0.1,1.7,0.4s0.8,0.7,1.1,1.2s0.4,1,0.4,1.6
			c0,0.1,0,0.2,0,0.2s0,0.1,0,0.2h-5.2c0,0.4,0.1,0.8,0.3,1.1s0.5,0.6,0.8,0.7c0.3,0.2,0.6,0.3,1,0.3s0.7-0.1,1.1-0.3
			s0.6-0.4,0.7-0.8l0.9,0.3c-0.1,0.3-0.3,0.6-0.6,0.8s-0.6,0.4-0.9,0.6S223.9,22.3,223.5,22.3z M221.4,18.7h4.3
			c0-0.4-0.1-0.8-0.3-1.1s-0.5-0.5-0.8-0.7s-0.7-0.3-1-0.3c-0.4,0-0.7,0.1-1,0.3s-0.6,0.4-0.8,0.7C221.5,17.9,221.4,18.3,221.4,18.7
			z"/>
		<path class="st5" d="M231.1,16.8c-0.5,0-1,0.1-1.4,0.4c-0.4,0.3-0.7,0.6-0.9,1.1v3.9h-1.1V16h1v1.4c0.2-0.4,0.5-0.8,0.9-1.1
			s0.7-0.4,1.1-0.4c0.1,0,0.1,0,0.2,0c0.1,0,0.1,0,0.1,0v0.9H231.1z"/>
		<path class="st5" d="M234,22.2l-2.5-6.2h1.1l2,5.2l2-5.2h1l-2.5,6.2H234z"/>
		<path class="st5" d="M238.7,14.7v-1.3h1.1v1.3H238.7z M238.7,22.2v-6.3h1.1v6.3H238.7z"/>
		<path class="st5" d="M244.2,22.3c-0.5,0-0.9-0.1-1.3-0.3c-0.4-0.2-0.7-0.4-1-0.7s-0.5-0.6-0.7-1s-0.2-0.8-0.2-1.2
			c0-0.6,0.1-1.1,0.4-1.6s0.6-0.9,1.1-1.2s1-0.4,1.7-0.4c0.6,0,1.2,0.1,1.6,0.4c0.5,0.3,0.8,0.6,1,1.1l-1,0.3
			c-0.2-0.3-0.4-0.5-0.7-0.7s-0.6-0.2-1-0.2s-0.7,0.1-1,0.3s-0.6,0.5-0.8,0.8s-0.3,0.7-0.3,1.2c0,0.4,0.1,0.8,0.3,1.2
			s0.4,0.6,0.8,0.8s0.7,0.3,1,0.3c0.2,0,0.5,0,0.7-0.1s0.4-0.2,0.6-0.4c0.2-0.1,0.3-0.3,0.4-0.5l1,0.3c-0.1,0.3-0.3,0.6-0.6,0.8
			s-0.6,0.4-0.9,0.6C245,22.2,244.6,22.3,244.2,22.3z"/>
		<path class="st5" d="M250.8,22.3c-0.5,0-0.9-0.1-1.3-0.3c-0.4-0.2-0.7-0.4-1-0.7s-0.5-0.6-0.7-1s-0.2-0.8-0.2-1.2
			c0-0.6,0.1-1.1,0.4-1.6c0.3-0.5,0.7-0.9,1.1-1.2c0.5-0.3,1-0.4,1.7-0.4c0.6,0,1.2,0.1,1.7,0.4s0.8,0.7,1.1,1.2s0.4,1,0.4,1.6
			c0,0.1,0,0.2,0,0.2s0,0.1,0,0.2h-5.2c0,0.4,0.1,0.8,0.3,1.1s0.5,0.6,0.8,0.7c0.3,0.2,0.6,0.3,1,0.3s0.7-0.1,1.1-0.3
			s0.6-0.4,0.7-0.8l0.9,0.3c-0.1,0.3-0.3,0.6-0.6,0.8s-0.6,0.4-0.9,0.6S251.2,22.3,250.8,22.3z M248.7,18.7h4.3
			c0-0.4-0.1-0.8-0.3-1.1s-0.5-0.5-0.8-0.7s-0.7-0.3-1-0.3c-0.4,0-0.7,0.1-1,0.3s-0.6,0.4-0.8,0.7C248.8,17.9,248.7,18.3,248.7,18.7
			z"/>
		<path class="st5" d="M257.2,22.3c-0.5,0-1-0.1-1.5-0.3s-0.8-0.4-1.2-0.8l0.4-0.7c0.4,0.3,0.7,0.6,1.1,0.7c0.4,0.1,0.7,0.2,1.1,0.2
			c0.4,0,0.8-0.1,1.1-0.2c0.3-0.2,0.4-0.4,0.4-0.7c0-0.2-0.1-0.4-0.2-0.5s-0.3-0.2-0.6-0.3s-0.6-0.2-0.9-0.3
			c-0.4-0.1-0.8-0.3-1.1-0.4c-0.3-0.1-0.5-0.3-0.7-0.5s-0.2-0.5-0.2-0.8c0-0.4,0.1-0.7,0.3-1s0.5-0.5,0.9-0.6s0.8-0.2,1.2-0.2
			s0.9,0.1,1.3,0.2c0.4,0.1,0.7,0.4,1,0.6l-0.5,0.7c-0.2-0.3-0.5-0.4-0.8-0.6s-0.6-0.2-1-0.2c-0.2,0-0.4,0-0.6,0.1
			c-0.2,0.1-0.4,0.1-0.5,0.3c-0.1,0.1-0.2,0.3-0.2,0.6c0,0.2,0.1,0.4,0.2,0.5c0.1,0.1,0.3,0.2,0.5,0.3s0.5,0.2,0.8,0.3
			c0.5,0.1,0.9,0.3,1.2,0.4c0.3,0.1,0.6,0.3,0.8,0.5s0.3,0.5,0.3,0.9c0,0.6-0.2,1-0.7,1.4C258.6,22.1,258,22.3,257.2,22.3z"/>
		<path class="st5" d="M206,29.1v-1.3h1.1v1.3H206z M206,36.6v-6.3h1.1v6.3H206z"/>
		<path class="st5" d="M214.2,36.6h-1.1v-3.5c0-0.7-0.1-1.1-0.3-1.4c-0.2-0.3-0.5-0.5-0.9-0.5c-0.3,0-0.6,0.1-0.9,0.2
			c-0.3,0.1-0.5,0.3-0.8,0.6c-0.2,0.2-0.4,0.5-0.5,0.8v3.8h-1.1v-6.2h1v1.3c0.2-0.3,0.4-0.5,0.6-0.8c0.3-0.2,0.6-0.4,0.9-0.5
			s0.7-0.2,1.1-0.2c0.4,0,0.7,0.1,0.9,0.2c0.2,0.1,0.4,0.3,0.6,0.5c0.1,0.2,0.2,0.5,0.3,0.8s0.1,0.7,0.1,1v3.9H214.2z"/>
		<path class="st5" d="M218.6,36.7c-0.5,0-0.9-0.1-1.3-0.3c-0.4-0.2-0.7-0.4-1-0.7s-0.5-0.6-0.7-1s-0.2-0.8-0.2-1.2
			c0-0.6,0.1-1.1,0.4-1.6s0.6-0.9,1.1-1.2s1-0.4,1.7-0.4c0.6,0,1.2,0.1,1.6,0.4c0.5,0.3,0.8,0.6,1,1.1l-1,0.3
			c-0.2-0.3-0.4-0.5-0.7-0.7s-0.6-0.2-1-0.2s-0.7,0.1-1,0.3s-0.6,0.5-0.8,0.8s-0.3,0.7-0.3,1.2c0,0.4,0.1,0.8,0.3,1.2
			s0.4,0.6,0.8,0.8s0.7,0.3,1,0.3c0.2,0,0.5,0,0.7-0.1s0.4-0.2,0.6-0.4c0.2-0.1,0.3-0.3,0.4-0.5l1,0.3c-0.1,0.3-0.3,0.6-0.6,0.8
			s-0.6,0.4-0.9,0.6C219.4,36.6,219.1,36.7,218.6,36.7z"/>
		<path class="st5" d="M225.8,31.2c-0.5,0-1,0.1-1.4,0.4c-0.4,0.3-0.7,0.6-0.9,1.1v3.9h-1.1v-6.2h1v1.4c0.2-0.4,0.5-0.8,0.9-1.1
			s0.7-0.4,1.1-0.4c0.1,0,0.1,0,0.2,0c0.1,0,0.1,0,0.1,0v0.9H225.8z"/>
		<path class="st5" d="M229.5,36.7c-0.5,0-0.9-0.1-1.3-0.3c-0.4-0.2-0.7-0.4-1-0.7s-0.5-0.6-0.7-1s-0.2-0.8-0.2-1.2
			c0-0.6,0.1-1.1,0.4-1.6c0.3-0.5,0.7-0.9,1.1-1.2c0.5-0.3,1-0.4,1.7-0.4c0.6,0,1.2,0.1,1.7,0.4s0.8,0.7,1.1,1.2s0.4,1,0.4,1.6
			c0,0.1,0,0.2,0,0.2s0,0.1,0,0.2h-5.2c0,0.4,0.1,0.8,0.3,1.1s0.5,0.6,0.8,0.7c0.3,0.2,0.6,0.3,1,0.3s0.7-0.1,1.1-0.3
			s0.6-0.4,0.7-0.8l0.9,0.3c-0.1,0.3-0.3,0.6-0.6,0.8s-0.6,0.4-0.9,0.6S229.9,36.7,229.5,36.7z M227.4,33.1h4.3
			c0-0.4-0.1-0.8-0.3-1.1s-0.5-0.5-0.8-0.7s-0.7-0.3-1-0.3c-0.4,0-0.7,0.1-1,0.3s-0.6,0.4-0.8,0.7C227.5,32.3,227.4,32.7,227.4,33.1
			z"/>
		<path class="st5" d="M233.3,34.8c0-0.4,0.1-0.7,0.3-1s0.5-0.5,0.9-0.7s0.9-0.2,1.4-0.2c0.3,0,0.6,0,0.9,0.1c0.3,0,0.6,0.1,0.8,0.2
			v-0.5c0-0.5-0.1-0.8-0.4-1.1s-0.7-0.4-1.2-0.4c-0.3,0-0.7,0.1-1,0.2c-0.3,0.1-0.7,0.3-1,0.5l-0.4-0.7c0.4-0.3,0.8-0.5,1.2-0.6
			s0.8-0.2,1.3-0.2c0.8,0,1.4,0.2,1.9,0.7c0.5,0.4,0.7,1.1,0.7,1.8v2.6c0,0.1,0,0.2,0.1,0.3s0.1,0.1,0.3,0.1v0.8c-0.1,0-0.2,0-0.3,0
			s-0.1,0-0.2,0c-0.2,0-0.4-0.1-0.6-0.2c-0.1-0.1-0.2-0.3-0.2-0.4v-0.4c-0.3,0.4-0.6,0.6-1.1,0.8c-0.4,0.2-0.9,0.3-1.3,0.3
			c-0.4,0-0.8-0.1-1.1-0.3s-0.6-0.4-0.8-0.7C233.4,35.4,233.3,35.1,233.3,34.8z M237.4,35.2c0.1-0.1,0.2-0.2,0.2-0.3
			c0.1-0.1,0.1-0.2,0.1-0.3v-0.8c-0.2-0.1-0.5-0.2-0.8-0.2c-0.3-0.1-0.5-0.1-0.8-0.1c-0.5,0-1,0.1-1.3,0.3s-0.5,0.5-0.5,0.9
			c0,0.2,0.1,0.4,0.2,0.6c0.1,0.2,0.3,0.3,0.5,0.5c0.2,0.1,0.5,0.2,0.8,0.2s0.6-0.1,0.9-0.2C237,35.6,237.2,35.4,237.4,35.2z"/>
		<path class="st5" d="M242.6,36.7c-0.5,0-1-0.1-1.5-0.3s-0.8-0.4-1.2-0.8l0.4-0.7c0.4,0.3,0.7,0.6,1.1,0.7c0.4,0.1,0.7,0.2,1.1,0.2
			c0.4,0,0.8-0.1,1.1-0.2c0.3-0.2,0.4-0.4,0.4-0.7c0-0.2-0.1-0.4-0.2-0.5s-0.3-0.2-0.6-0.3s-0.6-0.2-0.9-0.3
			c-0.4-0.1-0.8-0.3-1.1-0.4c-0.3-0.1-0.5-0.3-0.7-0.5s-0.2-0.5-0.2-0.8c0-0.4,0.1-0.7,0.3-1s0.5-0.5,0.9-0.6s0.8-0.2,1.2-0.2
			s0.9,0.1,1.3,0.2c0.4,0.1,0.7,0.4,1,0.6l-0.5,0.7c-0.2-0.3-0.5-0.4-0.8-0.6s-0.6-0.2-1-0.2c-0.2,0-0.4,0-0.6,0.1
			c-0.2,0.1-0.4,0.1-0.5,0.3c-0.1,0.1-0.2,0.3-0.2,0.6c0,0.2,0.1,0.4,0.2,0.5c0.1,0.1,0.3,0.2,0.5,0.3s0.5,0.2,0.8,0.3
			c0.5,0.1,0.9,0.3,1.2,0.4c0.3,0.1,0.6,0.3,0.8,0.5s0.3,0.5,0.3,0.9c0,0.6-0.2,1-0.7,1.4C243.9,36.5,243.3,36.7,242.6,36.7z"/>
		<path class="st5" d="M249.1,36.7c-0.5,0-0.9-0.1-1.3-0.3c-0.4-0.2-0.7-0.4-1-0.7s-0.5-0.6-0.7-1s-0.2-0.8-0.2-1.2
			c0-0.6,0.1-1.1,0.4-1.6c0.3-0.5,0.7-0.9,1.1-1.2c0.5-0.3,1-0.4,1.7-0.4c0.6,0,1.2,0.1,1.7,0.4s0.8,0.7,1.1,1.2s0.4,1,0.4,1.6
			c0,0.1,0,0.2,0,0.2s0,0.1,0,0.2h-5.2c0,0.4,0.1,0.8,0.3,1.1s0.5,0.6,0.8,0.7c0.3,0.2,0.6,0.3,1,0.3s0.7-0.1,1.1-0.3
			s0.6-0.4,0.7-0.8l0.9,0.3c-0.1,0.3-0.3,0.6-0.6,0.8s-0.6,0.4-0.9,0.6S249.5,36.7,249.1,36.7z M247,33.1h4.3c0-0.4-0.1-0.8-0.3-1.1
			s-0.5-0.5-0.8-0.7s-0.7-0.3-1-0.3c-0.4,0-0.7,0.1-1,0.3s-0.6,0.4-0.8,0.7C247.1,32.3,247,32.7,247,33.1z"/>
		<path class="st5" d="M253,33.5c0-0.6,0.1-1.1,0.4-1.6s0.6-0.9,1-1.2s0.9-0.4,1.5-0.4c0.5,0,1,0.1,1.4,0.4c0.4,0.3,0.7,0.6,0.9,1
			v-3.8h1.1v7.6c0,0.1,0,0.2,0.1,0.3s0.1,0.1,0.3,0.1v0.8c-0.2,0-0.4,0-0.5,0c-0.2,0-0.4-0.1-0.5-0.2s-0.2-0.3-0.2-0.5v-0.5
			c-0.2,0.4-0.6,0.7-1,0.9s-0.8,0.3-1.3,0.3c-0.4,0-0.8-0.1-1.2-0.3s-0.7-0.4-0.9-0.7c-0.3-0.3-0.5-0.6-0.6-1
			C253.1,34.3,253,33.9,253,33.5z M258.1,34.4v-1.8c-0.1-0.3-0.3-0.5-0.5-0.7s-0.5-0.4-0.7-0.5c-0.3-0.1-0.5-0.2-0.8-0.2
			s-0.6,0.1-0.8,0.2s-0.5,0.3-0.6,0.5c-0.2,0.2-0.3,0.5-0.4,0.7c-0.1,0.3-0.1,0.6-0.1,0.9c0,0.3,0.1,0.6,0.2,0.9
			c0.1,0.3,0.3,0.5,0.5,0.7s0.4,0.4,0.7,0.5s0.5,0.2,0.8,0.2c0.2,0,0.4,0,0.6-0.1s0.4-0.2,0.6-0.3c0.2-0.1,0.3-0.3,0.5-0.4
			C258,34.7,258.1,34.6,258.1,34.4z"/>
	</g>
</g>
<g>
	<g>
		<path class="st5" d="M4.6,13.6h0.9L9,22.1H7.8l-1-2.5H3.1l-1,2.5H0.9L4.6,13.6z M6.6,18.8l-1.5-3.9l-1.5,3.9H6.6z"/>
		<path class="st5" d="M10,13.4h1.1v7.2c0,0.3,0,0.6,0.1,0.6c0.1,0.1,0.2,0.1,0.3,0.1c0.2,0,0.3,0,0.5-0.1c0.2,0,0.3-0.1,0.4-0.1
			l0.2,0.9c-0.2,0.1-0.4,0.1-0.6,0.2s-0.5,0.1-0.6,0.1c-0.4,0-0.7-0.1-1-0.3c-0.2-0.2-0.4-0.6-0.4-1V13.4z"/>
		<path class="st5" d="M13.4,13.4h1.1v7.2c0,0.3,0,0.6,0.1,0.6c0.1,0.1,0.2,0.1,0.3,0.1c0.2,0,0.3,0,0.5-0.1c0.2,0,0.3-0.1,0.4-0.1
			L16,22c-0.2,0.1-0.4,0.1-0.6,0.2s-0.5,0.1-0.6,0.1c-0.4,0-0.7-0.1-1-0.3c-0.2-0.2-0.4-0.6-0.4-1V13.4z"/>
		<path class="st5" d="M21.7,22.3c-0.5,0-1-0.1-1.5-0.3s-0.8-0.4-1.2-0.8l0.4-0.7c0.4,0.3,0.7,0.6,1.1,0.7c0.4,0.1,0.7,0.2,1.1,0.2
			c0.4,0,0.8-0.1,1.1-0.2c0.3-0.2,0.4-0.4,0.4-0.7c0-0.2-0.1-0.4-0.2-0.5s-0.3-0.2-0.6-0.3s-0.6-0.2-0.9-0.3
			c-0.4-0.1-0.8-0.3-1.1-0.4c-0.3-0.1-0.5-0.3-0.7-0.5s-0.2-0.5-0.2-0.8c0-0.4,0.1-0.7,0.3-1s0.5-0.5,0.9-0.6s0.8-0.2,1.2-0.2
			s0.9,0.1,1.3,0.2c0.4,0.1,0.7,0.4,1,0.6l-0.5,0.7c-0.2-0.3-0.5-0.4-0.8-0.6s-0.6-0.2-1-0.2c-0.2,0-0.4,0-0.6,0.1
			c-0.2,0.1-0.4,0.1-0.5,0.3c-0.1,0.1-0.2,0.3-0.2,0.6c0,0.2,0.1,0.4,0.2,0.5c0.1,0.1,0.3,0.2,0.5,0.3s0.5,0.2,0.8,0.3
			c0.5,0.1,0.9,0.3,1.2,0.4c0.3,0.1,0.6,0.3,0.8,0.5s0.3,0.5,0.3,0.9c0,0.6-0.2,1-0.7,1.4C23,22.1,22.4,22.3,21.7,22.3z"/>
		<path class="st5" d="M28.1,22.3c-0.5,0-0.9-0.1-1.3-0.3c-0.4-0.2-0.7-0.4-1-0.7s-0.5-0.6-0.7-1s-0.2-0.8-0.2-1.2
			c0-0.6,0.1-1.1,0.4-1.6c0.3-0.5,0.7-0.9,1.1-1.2c0.5-0.3,1-0.4,1.7-0.4c0.6,0,1.2,0.1,1.7,0.4s0.8,0.7,1.1,1.2s0.4,1,0.4,1.6
			c0,0.1,0,0.2,0,0.2s0,0.1,0,0.2h-5.2c0,0.4,0.1,0.8,0.3,1.1s0.5,0.6,0.8,0.7c0.3,0.2,0.6,0.3,1,0.3s0.7-0.1,1.1-0.3
			s0.6-0.4,0.7-0.8l0.9,0.3c-0.1,0.3-0.3,0.6-0.6,0.8s-0.6,0.4-0.9,0.6S28.6,22.3,28.1,22.3z M26,18.7h4.3c0-0.4-0.1-0.8-0.3-1.1
			s-0.5-0.5-0.8-0.7s-0.7-0.3-1-0.3c-0.4,0-0.7,0.1-1,0.3s-0.6,0.4-0.8,0.7S26.1,18.3,26,18.7z"/>
		<path class="st5" d="M35.8,16.8c-0.5,0-1,0.1-1.4,0.4c-0.4,0.3-0.7,0.6-0.9,1.1v3.9h-1.1V16h1v1.4c0.2-0.4,0.5-0.8,0.9-1.1
			s0.7-0.4,1.1-0.4c0.1,0,0.1,0,0.2,0c0.1,0,0.1,0,0.1,0v0.9H35.8z"/>
		<path class="st5" d="M38.6,22.2L36.1,16h1.1l2,5.2l2-5.2h1l-2.5,6.2H38.6z"/>
		<path class="st5" d="M43.3,14.7v-1.3h1.1v1.3H43.3z M43.3,22.2v-6.3h1.1v6.3H43.3z"/>
		<path class="st5" d="M48.8,22.3c-0.5,0-0.9-0.1-1.3-0.3c-0.4-0.2-0.7-0.4-1-0.7s-0.5-0.6-0.7-1s-0.2-0.8-0.2-1.2
			c0-0.6,0.1-1.1,0.4-1.6s0.6-0.9,1.1-1.2s1-0.4,1.7-0.4c0.6,0,1.2,0.1,1.6,0.4c0.5,0.3,0.8,0.6,1,1.1l-1,0.3
			c-0.2-0.3-0.4-0.5-0.7-0.7s-0.6-0.2-1-0.2s-0.7,0.1-1,0.3s-0.6,0.5-0.8,0.8s-0.3,0.7-0.3,1.2c0,0.4,0.1,0.8,0.3,1.2
			s0.4,0.6,0.8,0.8s0.7,0.3,1,0.3c0.2,0,0.5,0,0.7-0.1s0.4-0.2,0.6-0.4c0.2-0.1,0.3-0.3,0.4-0.5l1,0.3c-0.1,0.3-0.3,0.6-0.6,0.8
			s-0.6,0.4-0.9,0.6C49.6,22.2,49.2,22.3,48.8,22.3z"/>
		<path class="st5" d="M55.4,22.3c-0.5,0-0.9-0.1-1.3-0.3c-0.4-0.2-0.7-0.4-1-0.7s-0.5-0.6-0.7-1s-0.2-0.8-0.2-1.2
			c0-0.6,0.1-1.1,0.4-1.6c0.3-0.5,0.7-0.9,1.1-1.2c0.5-0.3,1-0.4,1.7-0.4c0.6,0,1.2,0.1,1.7,0.4s0.8,0.7,1.1,1.2s0.4,1,0.4,1.6
			c0,0.1,0,0.2,0,0.2s0,0.1,0,0.2h-5.2c0,0.4,0.1,0.8,0.3,1.1s0.5,0.6,0.8,0.7c0.3,0.2,0.6,0.3,1,0.3s0.7-0.1,1.1-0.3
			s0.6-0.4,0.7-0.8l0.9,0.3c-0.1,0.3-0.3,0.6-0.6,0.8S57,22,56.7,22.2S55.8,22.3,55.4,22.3z M53.3,18.7h4.3c0-0.4-0.1-0.8-0.3-1.1
			s-0.5-0.5-0.8-0.7s-0.7-0.3-1-0.3c-0.4,0-0.7,0.1-1,0.3s-0.6,0.4-0.8,0.7C53.4,17.9,53.3,18.3,53.3,18.7z"/>
		<path class="st5" d="M61.9,22.3c-0.5,0-1-0.1-1.5-0.3s-0.8-0.4-1.2-0.8l0.4-0.7c0.4,0.3,0.7,0.6,1.1,0.7c0.4,0.1,0.7,0.2,1.1,0.2
			c0.4,0,0.8-0.1,1.1-0.2c0.3-0.2,0.4-0.4,0.4-0.7c0-0.2-0.1-0.4-0.2-0.5s-0.3-0.2-0.6-0.3s-0.6-0.2-0.9-0.3
			c-0.4-0.1-0.8-0.3-1.1-0.4c-0.3-0.1-0.5-0.3-0.7-0.5s-0.2-0.5-0.2-0.8c0-0.4,0.1-0.7,0.3-1s0.5-0.5,0.9-0.6s0.8-0.2,1.2-0.2
			s0.9,0.1,1.3,0.2c0.4,0.1,0.7,0.4,1,0.6l-0.5,0.7c-0.2-0.3-0.5-0.4-0.8-0.6s-0.6-0.2-1-0.2c-0.2,0-0.4,0-0.6,0.1
			c-0.2,0.1-0.4,0.1-0.5,0.3c-0.1,0.1-0.2,0.3-0.2,0.6c0,0.2,0.1,0.4,0.2,0.5c0.1,0.1,0.3,0.2,0.5,0.3s0.5,0.2,0.8,0.3
			c0.5,0.1,0.9,0.3,1.2,0.4c0.3,0.1,0.6,0.3,0.8,0.5s0.3,0.5,0.3,0.9c0,0.6-0.2,1-0.7,1.4C63.2,22.1,62.6,22.3,61.9,22.3z"/>
		<path class="st5" d="M1.4,33.5c0-0.6,0.1-1.1,0.4-1.6s0.6-0.9,1-1.2s0.9-0.4,1.5-0.4c0.5,0,1,0.1,1.4,0.4c0.4,0.3,0.7,0.6,0.9,1
			v-3.8h1.1v7.6c0,0.1,0,0.2,0.1,0.3s0.1,0.1,0.3,0.1v0.8c-0.2,0-0.4,0-0.5,0c-0.2,0-0.4-0.1-0.5-0.2S6.9,36.2,6.9,36v-0.5
			c-0.2,0.4-0.6,0.7-1,0.9s-0.8,0.3-1.3,0.3c-0.4,0-0.8-0.1-1.2-0.3S2.7,36,2.5,35.7c-0.3-0.3-0.5-0.6-0.6-1
			C1.5,34.3,1.4,33.9,1.4,33.5z M6.6,34.4v-1.8c-0.1-0.3-0.3-0.5-0.5-0.7s-0.5-0.4-0.7-0.5c-0.3-0.1-0.5-0.2-0.8-0.2
			S4,31.3,3.8,31.4s-0.5,0.3-0.6,0.5c-0.2,0.2-0.3,0.5-0.4,0.7c-0.1,0.3-0.1,0.6-0.1,0.9c0,0.3,0.1,0.6,0.2,0.9
			c0.1,0.3,0.3,0.5,0.5,0.7s0.4,0.4,0.7,0.5s0.5,0.2,0.8,0.2c0.2,0,0.4,0,0.6-0.1s0.4-0.2,0.6-0.3c0.2-0.1,0.3-0.3,0.5-0.4
			C6.5,34.7,6.5,34.6,6.6,34.4z"/>
		<path class="st5" d="M12.2,36.7c-0.5,0-0.9-0.1-1.3-0.3c-0.4-0.2-0.7-0.4-1-0.7s-0.5-0.6-0.7-1S9,33.9,9,33.5
			c0-0.6,0.1-1.1,0.4-1.6c0.3-0.5,0.7-0.9,1.1-1.2c0.5-0.3,1-0.4,1.7-0.4c0.6,0,1.2,0.1,1.7,0.4s0.8,0.7,1.1,1.2s0.4,1,0.4,1.6
			c0,0.1,0,0.2,0,0.2s0,0.1,0,0.2h-5.2c0,0.4,0.1,0.8,0.3,1.1s0.5,0.6,0.8,0.7c0.3,0.2,0.6,0.3,1,0.3s0.7-0.1,1.1-0.3
			s0.6-0.4,0.7-0.8l0.9,0.3c-0.1,0.3-0.3,0.6-0.6,0.8s-0.6,0.4-0.9,0.6S12.6,36.7,12.2,36.7z M10.1,33.1h4.3c0-0.4-0.1-0.8-0.3-1.1
			s-0.5-0.5-0.8-0.7s-0.7-0.3-1-0.3c-0.4,0-0.7,0.1-1,0.3s-0.6,0.4-0.8,0.7C10.2,32.3,10.1,32.7,10.1,33.1z"/>
		<path class="st5" d="M19.3,36.7c-0.5,0-0.9-0.1-1.3-0.3c-0.4-0.2-0.7-0.4-1-0.7s-0.5-0.6-0.7-1s-0.2-0.8-0.2-1.2
			c0-0.6,0.1-1.1,0.4-1.6s0.6-0.9,1.1-1.2s1-0.4,1.7-0.4c0.6,0,1.2,0.1,1.6,0.4c0.5,0.3,0.8,0.6,1,1.1l-1,0.3
			c-0.2-0.3-0.4-0.5-0.7-0.7s-0.6-0.2-1-0.2s-0.7,0.1-1,0.3s-0.6,0.5-0.8,0.8s-0.3,0.7-0.3,1.2c0,0.4,0.1,0.8,0.3,1.2
			s0.4,0.6,0.8,0.8s0.7,0.3,1,0.3c0.2,0,0.5,0,0.7-0.1s0.4-0.2,0.6-0.4c0.2-0.1,0.3-0.3,0.4-0.5l1,0.3c-0.1,0.3-0.3,0.6-0.6,0.8
			s-0.6,0.4-0.9,0.6C20.1,36.6,19.7,36.7,19.3,36.7z"/>
		<path class="st5" d="M23.2,27.8h1.1V35c0,0.3,0,0.6,0.1,0.6c0.1,0.1,0.2,0.1,0.3,0.1c0.2,0,0.3,0,0.5-0.1c0.2,0,0.3-0.1,0.4-0.1
			l0.2,0.9c-0.2,0.1-0.4,0.1-0.6,0.2s-0.5,0.1-0.6,0.1c-0.4,0-0.7-0.1-1-0.3c-0.2-0.2-0.4-0.6-0.4-1V27.8z"/>
		<path class="st5" d="M26.6,29.1v-1.3h1.1v1.3H26.6z M26.6,36.6v-6.3h1.1v6.3H26.6z"/>
		<path class="st5" d="M34.8,36.6h-1.1v-3.5c0-0.7-0.1-1.1-0.3-1.4c-0.2-0.3-0.5-0.5-0.9-0.5c-0.3,0-0.6,0.1-0.9,0.2
			c-0.3,0.1-0.5,0.3-0.8,0.6c-0.2,0.2-0.4,0.5-0.5,0.8v3.8h-1.1v-6.2h1v1.3c0.2-0.3,0.4-0.5,0.6-0.8c0.3-0.2,0.6-0.4,0.9-0.5
			s0.7-0.2,1.1-0.2c0.4,0,0.7,0.1,0.9,0.2c0.2,0.1,0.4,0.3,0.6,0.5c0.1,0.2,0.2,0.5,0.3,0.8s0.1,0.7,0.1,1v3.9H34.8z"/>
		<path class="st5" d="M39.2,36.7c-0.5,0-0.9-0.1-1.3-0.3c-0.4-0.2-0.7-0.4-1-0.7s-0.5-0.6-0.7-1S36,33.9,36,33.5
			c0-0.6,0.1-1.1,0.4-1.6c0.3-0.5,0.7-0.9,1.1-1.2c0.5-0.3,1-0.4,1.7-0.4c0.6,0,1.2,0.1,1.7,0.4s0.8,0.7,1.1,1.2s0.4,1,0.4,1.6
			c0,0.1,0,0.2,0,0.2s0,0.1,0,0.2h-5.2c0,0.4,0.1,0.8,0.3,1.1s0.5,0.6,0.8,0.7c0.3,0.2,0.6,0.3,1,0.3s0.7-0.1,1.1-0.3
			s0.6-0.4,0.7-0.8l0.9,0.3c-0.1,0.3-0.3,0.6-0.6,0.8s-0.6,0.4-0.9,0.6S39.6,36.7,39.2,36.7z M37.1,33.1h4.3c0-0.4-0.1-0.8-0.3-1.1
			s-0.5-0.5-0.8-0.7s-0.7-0.3-1-0.3c-0.4,0-0.7,0.1-1,0.3s-0.6,0.4-0.8,0.7C37.2,32.3,37.1,32.7,37.1,33.1z"/>
		<path class="st5" d="M43.1,33.5c0-0.6,0.1-1.1,0.4-1.6s0.6-0.9,1-1.2s0.9-0.4,1.5-0.4c0.5,0,1,0.1,1.4,0.4c0.4,0.3,0.7,0.6,0.9,1
			v-3.8h1.1v7.6c0,0.1,0,0.2,0.1,0.3s0.1,0.1,0.3,0.1v0.8c-0.2,0-0.4,0-0.5,0c-0.2,0-0.4-0.1-0.5-0.2s-0.2-0.3-0.2-0.5v-0.5
			c-0.2,0.4-0.6,0.7-1,0.9s-0.8,0.3-1.3,0.3c-0.4,0-0.8-0.1-1.2-0.3s-0.7-0.4-0.9-0.7c-0.3-0.3-0.5-0.6-0.6-1
			C43.2,34.3,43.1,33.9,43.1,33.5z M48.2,34.4v-1.8c-0.1-0.3-0.3-0.5-0.5-0.7s-0.5-0.4-0.7-0.5c-0.3-0.1-0.5-0.2-0.8-0.2
			s-0.6,0.1-0.8,0.2s-0.5,0.3-0.6,0.5c-0.2,0.2-0.3,0.5-0.4,0.7c-0.1,0.3-0.1,0.6-0.1,0.9c0,0.3,0.1,0.6,0.2,0.9
			c0.1,0.3,0.3,0.5,0.5,0.7s0.4,0.4,0.7,0.5s0.5,0.2,0.8,0.2c0.2,0,0.4,0,0.6-0.1s0.4-0.2,0.6-0.3c0.2-0.1,0.3-0.3,0.5-0.4
			C48.1,34.7,48.2,34.6,48.2,34.4z"/>
	</g>
</g>
</svg>
