<?xml version="1.0" encoding="utf-8"?>
<!-- Generator: Adobe Illustrator 24.3.0, SVG Export Plug-In . SVG Version: 6.00 Build 0)  -->
<svg version="1.1" id="Layer_1" xmlns="http://www.w3.org/2000/svg" xmlns:xlink="http://www.w3.org/1999/xlink" x="0px" y="0px"
	 viewBox="0 0 269.7 205.2" style="enable-background:new 0 0 269.7 205.2;" xml:space="preserve">
<style type="text/css">
	.st0{fill:#B8B75E;}
	.st1{fill:#4B5F46;}
	.st2{fill:#303845;}
</style>
<rect y="19.6" class="st0" width="5.7" height="5.7"/>
<rect x="58.8" y="19.6" class="st1" width="5.7" height="5.7"/>
<rect x="72.1" y="56.5" class="st0" width="70.4" height="12.3"/>
<rect x="72.1" y="110.1" class="st0" width="105.9" height="12.3"/>
<rect x="72.1" y="169.6" class="st0" width="101.4" height="12.3"/>
<rect x="142.5" y="56.5" class="st1" width="119.2" height="12.3"/>
<rect x="178.1" y="110.1" class="st1" width="83.6" height="12.3"/>
<rect x="173.5" y="169.6" class="st1" width="88.2" height="12.3"/>
<g>
	<g>
		<path class="st2" d="M8.4,9.4v-6L5.8,8H5.2L2.6,3.4v6h-1V1.6h1l2.8,5.1l2.8-5.1h1v7.8H8.4z"/>
		<path class="st2" d="M11,7.1V3.7h1v3.2c0,0.6,0.1,1,0.3,1.3c0.2,0.3,0.5,0.4,0.9,0.4c0.3,0,0.5-0.1,0.8-0.2
			c0.2-0.1,0.5-0.3,0.7-0.5c0.2-0.2,0.4-0.5,0.5-0.8V3.7h1v4.6c0,0.1,0,0.2,0.1,0.3c0,0.1,0.1,0.1,0.2,0.1v0.7c-0.1,0-0.2,0-0.3,0
			c-0.1,0-0.1,0-0.2,0c-0.2,0-0.3-0.1-0.5-0.2c-0.1-0.1-0.2-0.3-0.2-0.4l0-0.7c-0.2,0.4-0.6,0.8-1,1c-0.4,0.2-0.9,0.3-1.4,0.3
			c-0.6,0-1.1-0.2-1.4-0.6S11,7.9,11,7.1z"/>
		<path class="st2" d="M17.3,6.6c0-0.5,0.1-1,0.3-1.5c0.2-0.4,0.5-0.8,0.9-1.1c0.4-0.3,0.8-0.4,1.3-0.4c0.5,0,0.9,0.1,1.2,0.4
			c0.4,0.2,0.7,0.5,0.9,0.9V1.4h1v6.9c0,0.1,0,0.2,0.1,0.3c0,0.1,0.1,0.1,0.2,0.1v0.7c-0.2,0-0.3,0-0.4,0c-0.2,0-0.4-0.1-0.5-0.2
			c-0.1-0.1-0.2-0.3-0.2-0.4V8.3c-0.2,0.4-0.5,0.7-0.9,0.9s-0.8,0.3-1.2,0.3c-0.4,0-0.8-0.1-1.1-0.2c-0.3-0.2-0.6-0.4-0.9-0.6
			c-0.2-0.3-0.4-0.6-0.6-0.9S17.3,7,17.3,6.6z M22,7.4V5.8c-0.1-0.2-0.2-0.5-0.4-0.7c-0.2-0.2-0.4-0.4-0.7-0.5s-0.5-0.2-0.7-0.2
			c-0.3,0-0.5,0.1-0.8,0.2S19,4.9,18.8,5.1s-0.3,0.4-0.4,0.7c-0.1,0.3-0.1,0.5-0.1,0.8c0,0.3,0,0.6,0.1,0.8c0.1,0.3,0.2,0.5,0.4,0.7
			c0.2,0.2,0.4,0.3,0.6,0.5s0.5,0.2,0.8,0.2c0.2,0,0.4,0,0.5-0.1c0.2-0.1,0.4-0.2,0.5-0.3c0.2-0.1,0.3-0.3,0.4-0.4S22,7.6,22,7.4z"
			/>
		<path class="st2" d="M24.2,7.8c0-0.4,0.1-0.7,0.3-0.9s0.5-0.5,0.9-0.6C25.7,6,26.1,6,26.6,6c0.3,0,0.5,0,0.8,0.1
			c0.3,0,0.5,0.1,0.8,0.2V5.8c0-0.4-0.1-0.8-0.4-1c-0.3-0.2-0.6-0.4-1.1-0.4c-0.3,0-0.6,0.1-0.9,0.2c-0.3,0.1-0.6,0.3-0.9,0.5
			l-0.4-0.7c0.4-0.3,0.7-0.4,1.1-0.6c0.4-0.1,0.8-0.2,1.2-0.2c0.7,0,1.3,0.2,1.7,0.6c0.4,0.4,0.6,1,0.6,1.7v2.4c0,0.1,0,0.2,0.1,0.3
			c0,0.1,0.1,0.1,0.2,0.1v0.7c-0.1,0-0.2,0-0.2,0c-0.1,0-0.1,0-0.2,0c-0.2,0-0.4-0.1-0.5-0.2c-0.1-0.1-0.2-0.3-0.2-0.4l0-0.4
			c-0.2,0.3-0.6,0.6-1,0.7c-0.4,0.2-0.8,0.3-1.2,0.3c-0.4,0-0.7-0.1-1-0.2c-0.3-0.2-0.5-0.4-0.7-0.6C24.3,8.4,24.2,8.1,24.2,7.8z
			 M27.9,8.2C28,8.1,28.1,8,28.1,7.8c0.1-0.1,0.1-0.2,0.1-0.3V6.9c-0.2-0.1-0.5-0.2-0.7-0.2c-0.2,0-0.5-0.1-0.7-0.1
			c-0.5,0-0.9,0.1-1.2,0.3c-0.3,0.2-0.5,0.5-0.5,0.8c0,0.2,0,0.4,0.1,0.5c0.1,0.2,0.2,0.3,0.4,0.4s0.4,0.2,0.7,0.2
			c0.3,0,0.6-0.1,0.9-0.2C27.5,8.5,27.8,8.3,27.9,8.2z"/>
		<path class="st2" d="M35.7,9.4h-1V6.2c0-0.6-0.1-1-0.3-1.3S34,4.5,33.6,4.5c-0.3,0-0.5,0.1-0.8,0.2c-0.3,0.1-0.5,0.3-0.7,0.5
			S31.8,5.7,31.7,6v3.4h-1V3.7h0.9v1.2c0.2-0.3,0.4-0.5,0.6-0.7C32.4,4,32.7,3.9,33,3.8c0.3-0.1,0.6-0.2,1-0.2
			c0.3,0,0.6,0.1,0.8,0.2s0.4,0.3,0.5,0.5c0.1,0.2,0.2,0.5,0.3,0.8c0.1,0.3,0.1,0.6,0.1,0.9V9.4z"/>
		<path class="st2" d="M39.8,9.5c-0.4,0-0.8-0.1-1.2-0.2c-0.4-0.2-0.7-0.4-0.9-0.6C37.4,8.4,37.2,8,37,7.7c-0.1-0.4-0.2-0.7-0.2-1.1
			c0-0.5,0.1-1,0.4-1.5c0.2-0.4,0.6-0.8,1-1.1c0.4-0.3,0.9-0.4,1.5-0.4c0.6,0,1.1,0.1,1.5,0.4c0.4,0.3,0.7,0.6,0.9,1l-0.9,0.3
			c-0.1-0.3-0.4-0.5-0.6-0.6S40,4.4,39.7,4.4c-0.4,0-0.7,0.1-1,0.3c-0.3,0.2-0.5,0.4-0.7,0.7c-0.2,0.3-0.3,0.7-0.3,1.1
			c0,0.4,0.1,0.8,0.3,1.1c0.2,0.3,0.4,0.6,0.7,0.8c0.3,0.2,0.6,0.3,1,0.3c0.2,0,0.4,0,0.7-0.1c0.2-0.1,0.4-0.2,0.5-0.3
			s0.3-0.3,0.3-0.4l0.9,0.3c-0.1,0.3-0.3,0.5-0.5,0.7c-0.2,0.2-0.5,0.4-0.8,0.5C40.5,9.5,40.1,9.5,39.8,9.5z M39.6,11.5
			c-0.2,0-0.4,0-0.6-0.1c-0.2-0.1-0.4-0.1-0.7-0.2l0.3-0.5c0.1,0.1,0.3,0.1,0.4,0.2s0.3,0.1,0.4,0.1c0.2,0,0.4,0,0.5-0.1
			c0.1-0.1,0.2-0.2,0.2-0.4c0-0.2-0.1-0.3-0.2-0.5s-0.3-0.3-0.5-0.4l0.4-0.3c0.3,0.2,0.5,0.4,0.7,0.6c0.2,0.2,0.3,0.4,0.3,0.7
			s-0.1,0.5-0.3,0.7C40.3,11.4,40,11.5,39.6,11.5z"/>
		<path class="st2" d="M42.9,7.8c0-0.4,0.1-0.7,0.3-0.9s0.5-0.5,0.9-0.6C44.4,6,44.8,6,45.3,6c0.3,0,0.5,0,0.8,0.1
			c0.3,0,0.5,0.1,0.8,0.2V5.8c0-0.4-0.1-0.8-0.4-1c-0.3-0.2-0.6-0.4-1.1-0.4c-0.3,0-0.6,0.1-0.9,0.2c-0.3,0.1-0.6,0.3-0.9,0.5
			l-0.4-0.7c0.4-0.3,0.7-0.4,1.1-0.6c0.4-0.1,0.8-0.2,1.2-0.2c0.7,0,1.3,0.2,1.7,0.6c0.4,0.4,0.6,1,0.6,1.7v2.4c0,0.1,0,0.2,0.1,0.3
			c0,0.1,0.1,0.1,0.2,0.1v0.7c-0.1,0-0.2,0-0.2,0c-0.1,0-0.1,0-0.2,0c-0.2,0-0.4-0.1-0.5-0.2C47.1,9.1,47,9,47,8.9l0-0.4
			c-0.2,0.3-0.6,0.6-1,0.7c-0.4,0.2-0.8,0.3-1.2,0.3c-0.4,0-0.7-0.1-1-0.2c-0.3-0.2-0.5-0.4-0.7-0.6C42.9,8.4,42.9,8.1,42.9,7.8z
			 M46.6,8.2c0.1-0.1,0.2-0.2,0.2-0.3c0.1-0.1,0.1-0.2,0.1-0.3V6.9c-0.2-0.1-0.5-0.2-0.7-0.2c-0.2,0-0.5-0.1-0.7-0.1
			c-0.5,0-0.9,0.1-1.2,0.3c-0.3,0.2-0.5,0.5-0.5,0.8c0,0.2,0,0.4,0.1,0.5c0.1,0.2,0.2,0.3,0.4,0.4s0.4,0.2,0.7,0.2
			c0.3,0,0.6-0.1,0.9-0.2C46.2,8.5,46.4,8.3,46.6,8.2z"/>
		<path class="st2" d="M51.4,9.5c-0.5,0-0.9-0.1-1.3-0.2s-0.8-0.4-1.1-0.7l0.4-0.7c0.3,0.3,0.7,0.5,1,0.7c0.3,0.1,0.7,0.2,1,0.2
			c0.4,0,0.7-0.1,1-0.2c0.2-0.1,0.4-0.4,0.4-0.7c0-0.2-0.1-0.4-0.2-0.5s-0.3-0.2-0.5-0.3c-0.2-0.1-0.5-0.1-0.8-0.2
			c-0.4-0.1-0.7-0.2-1-0.4c-0.3-0.1-0.5-0.3-0.6-0.5c-0.1-0.2-0.2-0.4-0.2-0.7c0-0.4,0.1-0.7,0.3-0.9c0.2-0.3,0.5-0.4,0.8-0.6
			c0.3-0.1,0.7-0.2,1.1-0.2s0.8,0.1,1.2,0.2c0.3,0.1,0.6,0.3,0.9,0.6l-0.4,0.7c-0.2-0.2-0.5-0.4-0.7-0.5c-0.3-0.1-0.6-0.2-0.9-0.2
			c-0.2,0-0.4,0-0.6,0.1c-0.2,0-0.3,0.1-0.5,0.3c-0.1,0.1-0.2,0.3-0.2,0.5c0,0.2,0,0.3,0.1,0.4s0.2,0.2,0.4,0.3
			C51,6,51.2,6,51.5,6.1c0.4,0.1,0.8,0.2,1.1,0.4c0.3,0.1,0.6,0.3,0.7,0.5s0.3,0.5,0.3,0.8c0,0.5-0.2,1-0.6,1.3
			C52.6,9.4,52,9.5,51.4,9.5z"/>
		<path class="st2" d="M62.5,9.4h-1V6.2c0-0.6-0.1-1-0.3-1.3s-0.5-0.4-0.9-0.4c-0.3,0-0.5,0.1-0.8,0.2C59.4,4.8,59.2,5,59,5.2
			S58.6,5.7,58.5,6v3.4h-1V3.7h0.9v1.2c0.2-0.3,0.4-0.5,0.6-0.7c0.2-0.2,0.5-0.3,0.8-0.5c0.3-0.1,0.6-0.2,1-0.2
			c0.3,0,0.6,0.1,0.8,0.2s0.4,0.3,0.5,0.5c0.1,0.2,0.2,0.5,0.3,0.8c0.1,0.3,0.1,0.6,0.1,0.9V9.4z"/>
		<path class="st2" d="M66.5,9.5c-0.4,0-0.8-0.1-1.2-0.2c-0.4-0.2-0.7-0.4-0.9-0.6C64.2,8.4,64,8,63.9,7.7c-0.1-0.4-0.2-0.7-0.2-1.1
			c0-0.4,0.1-0.8,0.2-1.1c0.1-0.4,0.3-0.7,0.6-0.9C64.7,4.2,65,4,65.4,3.8c0.4-0.2,0.7-0.2,1.2-0.2c0.4,0,0.8,0.1,1.2,0.2
			c0.4,0.2,0.7,0.4,0.9,0.6s0.5,0.6,0.6,0.9c0.1,0.4,0.2,0.7,0.2,1.1c0,0.4-0.1,0.8-0.2,1.1c-0.1,0.4-0.3,0.7-0.6,0.9
			c-0.3,0.3-0.6,0.5-0.9,0.6C67.4,9.4,67,9.5,66.5,9.5z M64.6,6.6c0,0.4,0.1,0.7,0.3,1.1s0.4,0.6,0.7,0.8s0.6,0.3,1,0.3
			s0.7-0.1,1-0.3C67.8,8.2,68,8,68.2,7.6c0.2-0.3,0.3-0.7,0.3-1.1c0-0.4-0.1-0.7-0.3-1.1s-0.4-0.6-0.7-0.8c-0.3-0.2-0.6-0.3-1-0.3
			s-0.7,0.1-1,0.3s-0.5,0.4-0.7,0.8S64.6,6.2,64.6,6.6z"/>
		<path class="st2" d="M73.4,7.1V3.7h1v3.2c0,0.6,0.1,1,0.3,1.3c0.2,0.3,0.5,0.4,0.9,0.4c0.3,0,0.5-0.1,0.8-0.2
			C76.6,8.4,76.8,8.2,77,8c0.2-0.2,0.4-0.5,0.5-0.8V3.7h1v4.6c0,0.1,0,0.2,0.1,0.3c0,0.1,0.1,0.1,0.2,0.1v0.7c-0.1,0-0.2,0-0.3,0
			c-0.1,0-0.1,0-0.2,0c-0.2,0-0.3-0.1-0.5-0.2c-0.1-0.1-0.2-0.3-0.2-0.4l0-0.7c-0.2,0.4-0.6,0.8-1,1c-0.4,0.2-0.9,0.3-1.4,0.3
			c-0.6,0-1.1-0.2-1.4-0.6S73.4,7.9,73.4,7.1z"/>
		<path class="st2" d="M82,9.5c-0.5,0-0.9-0.1-1.3-0.2s-0.8-0.4-1.1-0.7l0.4-0.7c0.3,0.3,0.7,0.5,1,0.7c0.3,0.1,0.7,0.2,1,0.2
			c0.4,0,0.7-0.1,1-0.2c0.2-0.1,0.4-0.4,0.4-0.7c0-0.2-0.1-0.4-0.2-0.5s-0.3-0.2-0.5-0.3C82.3,7.1,82,7,81.7,6.9
			c-0.4-0.1-0.7-0.2-1-0.4c-0.3-0.1-0.5-0.3-0.6-0.5c-0.1-0.2-0.2-0.4-0.2-0.7c0-0.4,0.1-0.7,0.3-0.9c0.2-0.3,0.5-0.4,0.8-0.6
			c0.3-0.1,0.7-0.2,1.1-0.2s0.8,0.1,1.2,0.2c0.3,0.1,0.6,0.3,0.9,0.6l-0.4,0.7c-0.2-0.2-0.5-0.4-0.7-0.5c-0.3-0.1-0.6-0.2-0.9-0.2
			c-0.2,0-0.4,0-0.6,0.1c-0.2,0-0.3,0.1-0.5,0.3c-0.1,0.1-0.2,0.3-0.2,0.5c0,0.2,0,0.3,0.1,0.4s0.2,0.2,0.4,0.3
			C81.6,6,81.8,6,82.1,6.1c0.4,0.1,0.8,0.2,1.1,0.4C83.5,6.6,83.8,6.8,84,7s0.3,0.5,0.3,0.8c0,0.5-0.2,1-0.6,1.3
			C83.2,9.4,82.7,9.5,82,9.5z"/>
		<path class="st2" d="M87.9,9.5c-0.4,0-0.8-0.1-1.2-0.2c-0.4-0.2-0.7-0.4-0.9-0.6c-0.3-0.3-0.5-0.6-0.6-0.9C85.1,7.3,85,7,85,6.6
			c0-0.4,0.1-0.8,0.2-1.1c0.1-0.4,0.3-0.7,0.6-0.9c0.3-0.3,0.6-0.5,0.9-0.6c0.4-0.2,0.7-0.2,1.2-0.2c0.4,0,0.8,0.1,1.2,0.2
			C89.4,4,89.7,4.2,90,4.5s0.5,0.6,0.6,0.9c0.1,0.4,0.2,0.7,0.2,1.1c0,0.4-0.1,0.8-0.2,1.1C90.5,8,90.3,8.4,90,8.6
			c-0.3,0.3-0.6,0.5-0.9,0.6C88.7,9.4,88.3,9.5,87.9,9.5z M86,6.6c0,0.4,0.1,0.7,0.3,1.1s0.4,0.6,0.7,0.8s0.6,0.3,1,0.3
			s0.7-0.1,1-0.3c0.3-0.2,0.5-0.4,0.7-0.8c0.2-0.3,0.3-0.7,0.3-1.1c0-0.4-0.1-0.7-0.3-1.1s-0.4-0.6-0.7-0.8c-0.3-0.2-0.6-0.3-1-0.3
			s-0.7,0.1-1,0.3s-0.5,0.4-0.7,0.8S86,6.2,86,6.6z"/>
		<path class="st2" d="M94.4,6.6c0-0.5,0.1-1,0.3-1.5c0.2-0.4,0.5-0.8,0.9-1.1C96,3.7,96.5,3.6,97,3.6c0.5,0,0.9,0.1,1.2,0.4
			c0.4,0.2,0.7,0.5,0.9,0.9V1.4h1v6.9c0,0.1,0,0.2,0.1,0.3c0,0.1,0.1,0.1,0.2,0.1v0.7c-0.2,0-0.3,0-0.4,0c-0.2,0-0.4-0.1-0.5-0.2
			c-0.1-0.1-0.2-0.3-0.2-0.4V8.3C99,8.7,98.7,9,98.3,9.2s-0.8,0.3-1.2,0.3c-0.4,0-0.8-0.1-1.1-0.2c-0.3-0.2-0.6-0.4-0.9-0.6
			c-0.2-0.3-0.4-0.6-0.6-0.9S94.4,7,94.4,6.6z M99.1,7.4V5.8c-0.1-0.2-0.2-0.5-0.4-0.7c-0.2-0.2-0.4-0.4-0.7-0.5s-0.5-0.2-0.7-0.2
			c-0.3,0-0.5,0.1-0.8,0.2s-0.4,0.3-0.6,0.5s-0.3,0.4-0.4,0.7c-0.1,0.3-0.1,0.5-0.1,0.8c0,0.3,0,0.6,0.1,0.8
			c0.1,0.3,0.2,0.5,0.4,0.7c0.2,0.2,0.4,0.3,0.6,0.5s0.5,0.2,0.8,0.2c0.2,0,0.4,0,0.5-0.1c0.2-0.1,0.4-0.2,0.5-0.3
			c0.2-0.1,0.3-0.3,0.4-0.4S99.1,7.6,99.1,7.4z"/>
		<path class="st2" d="M104.2,9.5c-0.4,0-0.8-0.1-1.2-0.2c-0.4-0.2-0.7-0.4-0.9-0.6c-0.3-0.3-0.5-0.6-0.6-0.9
			c-0.1-0.4-0.2-0.7-0.2-1.1c0-0.4,0.1-0.8,0.2-1.1c0.1-0.4,0.3-0.7,0.6-0.9c0.3-0.3,0.6-0.5,0.9-0.6c0.4-0.2,0.7-0.2,1.2-0.2
			c0.4,0,0.8,0.1,1.2,0.2c0.4,0.2,0.7,0.4,0.9,0.6s0.5,0.6,0.6,0.9c0.1,0.4,0.2,0.7,0.2,1.1c0,0.4-0.1,0.8-0.2,1.1
			c-0.1,0.4-0.3,0.7-0.6,0.9c-0.3,0.3-0.6,0.5-0.9,0.6C105,9.4,104.6,9.5,104.2,9.5z M102.3,6.6c0,0.4,0.1,0.7,0.3,1.1
			s0.4,0.6,0.7,0.8s0.6,0.3,1,0.3s0.7-0.1,1-0.3c0.3-0.2,0.5-0.4,0.7-0.8c0.2-0.3,0.3-0.7,0.3-1.1c0-0.4-0.1-0.7-0.3-1.1
			s-0.4-0.6-0.7-0.8c-0.3-0.2-0.6-0.3-1-0.3s-0.7,0.1-1,0.3s-0.5,0.4-0.7,0.8S102.3,6.2,102.3,6.6z"/>
		<path class="st2" d="M113,9.5c-0.5,0-0.9-0.1-1.3-0.2s-0.8-0.4-1.1-0.7l0.4-0.7c0.3,0.3,0.7,0.5,1,0.7c0.3,0.1,0.7,0.2,1,0.2
			c0.4,0,0.7-0.1,1-0.2c0.2-0.1,0.4-0.4,0.4-0.7c0-0.2-0.1-0.4-0.2-0.5s-0.3-0.2-0.5-0.3c-0.2-0.1-0.5-0.1-0.8-0.2
			c-0.4-0.1-0.7-0.2-1-0.4c-0.3-0.1-0.5-0.3-0.6-0.5c-0.1-0.2-0.2-0.4-0.2-0.7c0-0.4,0.1-0.7,0.3-0.9c0.2-0.3,0.5-0.4,0.8-0.6
			c0.3-0.1,0.7-0.2,1.1-0.2s0.8,0.1,1.2,0.2c0.3,0.1,0.6,0.3,0.9,0.6l-0.4,0.7c-0.2-0.2-0.5-0.4-0.7-0.5c-0.3-0.1-0.6-0.2-0.9-0.2
			c-0.2,0-0.4,0-0.6,0.1c-0.2,0-0.3,0.1-0.5,0.3c-0.1,0.1-0.2,0.3-0.2,0.5c0,0.2,0,0.3,0.1,0.4s0.2,0.2,0.4,0.3
			c0.2,0.1,0.4,0.2,0.7,0.2c0.4,0.1,0.8,0.2,1.1,0.4c0.3,0.1,0.6,0.3,0.7,0.5s0.3,0.5,0.3,0.8c0,0.5-0.2,1-0.6,1.3
			C114.2,9.4,113.7,9.5,113,9.5z"/>
		<path class="st2" d="M118.9,9.5c-0.4,0-0.8-0.1-1.2-0.2c-0.4-0.2-0.7-0.4-0.9-0.6c-0.3-0.3-0.5-0.6-0.6-0.9
			C116.1,7.3,116,7,116,6.6c0-0.4,0.1-0.8,0.2-1.1c0.1-0.4,0.3-0.7,0.6-0.9c0.3-0.3,0.6-0.5,0.9-0.6c0.4-0.2,0.7-0.2,1.2-0.2
			c0.4,0,0.8,0.1,1.2,0.2c0.4,0.2,0.7,0.4,0.9,0.6s0.5,0.6,0.6,0.9c0.1,0.4,0.2,0.7,0.2,1.1c0,0.4-0.1,0.8-0.2,1.1
			c-0.1,0.4-0.3,0.7-0.6,0.9c-0.3,0.3-0.6,0.5-0.9,0.6C119.8,9.4,119.4,9.5,118.9,9.5z M117,6.6c0,0.4,0.1,0.7,0.3,1.1
			s0.4,0.6,0.7,0.8s0.6,0.3,1,0.3s0.7-0.1,1-0.3c0.3-0.2,0.5-0.4,0.7-0.8c0.2-0.3,0.3-0.7,0.3-1.1c0-0.4-0.1-0.7-0.3-1.1
			s-0.4-0.6-0.7-0.8c-0.3-0.2-0.6-0.3-1-0.3s-0.7,0.1-1,0.3s-0.5,0.4-0.7,0.8S117,6.2,117,6.6z"/>
		<path class="st2" d="M123,1.4h1v6.6c0,0.3,0,0.5,0.1,0.6c0.1,0.1,0.2,0.1,0.3,0.1c0.2,0,0.3,0,0.4,0c0.1,0,0.3-0.1,0.4-0.1
			l0.2,0.8c-0.2,0.1-0.4,0.1-0.6,0.2c-0.2,0-0.4,0.1-0.6,0.1c-0.4,0-0.7-0.1-0.9-0.3C123.1,9,123,8.7,123,8.3V1.4z"/>
		<path class="st2" d="M128.7,9.5c-0.4,0-0.8-0.1-1.2-0.2c-0.4-0.2-0.7-0.4-0.9-0.6c-0.3-0.3-0.5-0.6-0.6-0.9
			c-0.1-0.4-0.2-0.7-0.2-1.1c0-0.4,0.1-0.8,0.2-1.1c0.1-0.4,0.3-0.7,0.6-0.9c0.3-0.3,0.6-0.5,0.9-0.6c0.4-0.2,0.7-0.2,1.2-0.2
			c0.4,0,0.8,0.1,1.2,0.2c0.4,0.2,0.7,0.4,0.9,0.6s0.5,0.6,0.6,0.9c0.1,0.4,0.2,0.7,0.2,1.1c0,0.4-0.1,0.8-0.2,1.1
			c-0.1,0.4-0.3,0.7-0.6,0.9c-0.3,0.3-0.6,0.5-0.9,0.6C129.5,9.4,129.1,9.5,128.7,9.5z M126.8,6.6c0,0.4,0.1,0.7,0.3,1.1
			s0.4,0.6,0.7,0.8s0.6,0.3,1,0.3s0.7-0.1,1-0.3c0.3-0.2,0.5-0.4,0.7-0.8c0.2-0.3,0.3-0.7,0.3-1.1c0-0.4-0.1-0.7-0.3-1.1
			s-0.4-0.6-0.7-0.8c-0.3-0.2-0.6-0.3-1-0.3s-0.7,0.1-1,0.3s-0.5,0.4-0.7,0.8S126.8,6.2,126.8,6.6z"/>
		<path class="st2" d="M135.2,6.6c0-0.5,0.1-1,0.3-1.5s0.5-0.8,0.9-1.1c0.4-0.3,0.8-0.4,1.3-0.4c0.5,0,0.9,0.1,1.2,0.4
			c0.4,0.2,0.7,0.5,0.9,0.9V1.4h1v6.9c0,0.1,0,0.2,0.1,0.3c0,0.1,0.1,0.1,0.2,0.1v0.7c-0.2,0-0.3,0-0.4,0c-0.2,0-0.4-0.1-0.5-0.2
			C140.1,9.1,140,9,140,8.8V8.3c-0.2,0.4-0.5,0.7-0.9,0.9c-0.4,0.2-0.8,0.3-1.2,0.3c-0.4,0-0.8-0.1-1.1-0.2
			c-0.3-0.2-0.6-0.4-0.9-0.6c-0.2-0.3-0.4-0.6-0.6-0.9S135.2,7,135.2,6.6z M139.9,7.4V5.8c-0.1-0.2-0.2-0.5-0.4-0.7
			s-0.4-0.4-0.7-0.5c-0.2-0.1-0.5-0.2-0.7-0.2c-0.3,0-0.5,0.1-0.8,0.2c-0.2,0.1-0.4,0.3-0.6,0.5s-0.3,0.4-0.4,0.7
			c-0.1,0.3-0.1,0.5-0.1,0.8c0,0.3,0,0.6,0.1,0.8c0.1,0.3,0.2,0.5,0.4,0.7c0.2,0.2,0.4,0.3,0.6,0.5s0.5,0.2,0.8,0.2
			c0.2,0,0.4,0,0.5-0.1c0.2-0.1,0.4-0.2,0.5-0.3c0.2-0.1,0.3-0.3,0.4-0.4S139.8,7.6,139.9,7.4z"/>
		<path class="st2" d="M142,7.8c0-0.4,0.1-0.7,0.3-0.9s0.5-0.5,0.9-0.6C143.5,6,144,6,144.4,6c0.3,0,0.5,0,0.8,0.1
			c0.3,0,0.5,0.1,0.8,0.2V5.8c0-0.4-0.1-0.8-0.4-1c-0.3-0.2-0.6-0.4-1.1-0.4c-0.3,0-0.6,0.1-0.9,0.2c-0.3,0.1-0.6,0.3-0.9,0.5
			l-0.4-0.7c0.4-0.3,0.7-0.4,1.1-0.6c0.4-0.1,0.8-0.2,1.2-0.2c0.7,0,1.3,0.2,1.7,0.6c0.4,0.4,0.6,1,0.6,1.7v2.4c0,0.1,0,0.2,0.1,0.3
			c0,0.1,0.1,0.1,0.2,0.1v0.7c-0.1,0-0.2,0-0.2,0c-0.1,0-0.1,0-0.2,0c-0.2,0-0.4-0.1-0.5-0.2c-0.1-0.1-0.2-0.3-0.2-0.4l0-0.4
			c-0.2,0.3-0.6,0.6-1,0.7c-0.4,0.2-0.8,0.3-1.2,0.3c-0.4,0-0.7-0.1-1-0.2c-0.3-0.2-0.5-0.4-0.7-0.6C142.1,8.4,142,8.1,142,7.8z
			 M145.7,8.2c0.1-0.1,0.2-0.2,0.2-0.3c0.1-0.1,0.1-0.2,0.1-0.3V6.9c-0.2-0.1-0.5-0.2-0.7-0.2c-0.2,0-0.5-0.1-0.7-0.1
			c-0.5,0-0.9,0.1-1.2,0.3c-0.3,0.2-0.5,0.5-0.5,0.8c0,0.2,0,0.4,0.1,0.5c0.1,0.2,0.2,0.3,0.4,0.4s0.4,0.2,0.7,0.2
			c0.3,0,0.6-0.1,0.9-0.2C145.4,8.5,145.6,8.3,145.7,8.2z"/>
		<path class="st2" d="M151.5,9.4V1.6h3.3c0.3,0,0.7,0.1,0.9,0.2c0.3,0.1,0.5,0.3,0.7,0.6s0.4,0.5,0.5,0.8c0.1,0.3,0.2,0.6,0.2,0.9
			c0,0.4-0.1,0.7-0.2,1s-0.3,0.6-0.6,0.8c-0.2,0.2-0.5,0.4-0.9,0.5l1.9,3h-1.1l-1.8-2.8h-2.1v2.8H151.5z M152.5,5.7h2.4
			c0.3,0,0.5-0.1,0.7-0.2c0.2-0.1,0.4-0.4,0.5-0.6c0.1-0.2,0.2-0.5,0.2-0.8c0-0.3-0.1-0.6-0.2-0.8c-0.1-0.2-0.3-0.4-0.5-0.6
			c-0.2-0.1-0.4-0.2-0.7-0.2h-2.3V5.7z"/>
		<path class="st2" d="M165.5,9.4v-6L162.9,8h-0.6l-2.6-4.6v6h-1V1.6h1l2.8,5.1l2.8-5.1h1v7.8H165.5z"/>
		<path class="st2" d="M172.9,3.2c-0.1-0.1-0.2-0.2-0.4-0.3s-0.3-0.2-0.5-0.3s-0.4-0.1-0.6-0.2c-0.2,0-0.4-0.1-0.7-0.1
			c-0.6,0-1,0.1-1.3,0.3C169.2,3,169,3.3,169,3.7c0,0.3,0.1,0.5,0.2,0.7c0.1,0.2,0.4,0.3,0.7,0.4c0.3,0.1,0.7,0.2,1.2,0.3
			c0.5,0.1,1,0.3,1.4,0.4c0.4,0.2,0.7,0.4,0.9,0.7c0.2,0.3,0.3,0.7,0.3,1.1c0,0.4-0.1,0.7-0.2,1c-0.1,0.3-0.3,0.5-0.6,0.7
			c-0.3,0.2-0.6,0.3-0.9,0.4c-0.3,0.1-0.7,0.1-1.1,0.1c-0.4,0-0.8,0-1.2-0.1c-0.4-0.1-0.7-0.2-1.1-0.4c-0.3-0.2-0.7-0.4-0.9-0.6
			l0.5-0.8c0.1,0.1,0.3,0.2,0.5,0.4c0.2,0.1,0.4,0.2,0.6,0.3c0.2,0.1,0.5,0.2,0.8,0.2c0.3,0.1,0.6,0.1,0.9,0.1c0.6,0,1-0.1,1.3-0.3
			c0.3-0.2,0.5-0.5,0.5-0.9c0-0.3-0.1-0.5-0.3-0.7c-0.2-0.2-0.4-0.3-0.8-0.4c-0.3-0.1-0.7-0.2-1.2-0.4c-0.5-0.1-1-0.3-1.3-0.4
			c-0.4-0.2-0.6-0.4-0.8-0.6s-0.3-0.6-0.3-1c0-0.5,0.1-0.9,0.4-1.3c0.2-0.3,0.6-0.6,1-0.8c0.4-0.2,0.9-0.3,1.4-0.3
			c0.4,0,0.7,0,1,0.1c0.3,0.1,0.6,0.2,0.9,0.3c0.3,0.1,0.5,0.3,0.7,0.5L172.9,3.2z"/>
		<path class="st2" d="M175,9.4V1.6h3.3c0.3,0,0.7,0.1,0.9,0.2c0.3,0.1,0.5,0.3,0.7,0.6s0.4,0.5,0.5,0.8c0.1,0.3,0.2,0.6,0.2,0.9
			c0,0.4-0.1,0.8-0.3,1.2c-0.2,0.4-0.5,0.7-0.8,0.9s-0.7,0.4-1.2,0.4H176v2.8H175z M176,5.7h2.3c0.3,0,0.5-0.1,0.7-0.2
			c0.2-0.1,0.4-0.3,0.5-0.6c0.1-0.2,0.2-0.5,0.2-0.8c0-0.3-0.1-0.6-0.2-0.8c-0.1-0.2-0.3-0.4-0.5-0.6c-0.2-0.1-0.4-0.2-0.7-0.2H176
			V5.7z"/>
		<path class="st2" d="M187,9.5c-0.4,0-0.8-0.1-1.2-0.2c-0.4-0.2-0.7-0.4-0.9-0.6c-0.3-0.3-0.5-0.6-0.6-0.9
			c-0.1-0.4-0.2-0.7-0.2-1.1c0-0.5,0.1-1,0.4-1.5c0.2-0.4,0.6-0.8,1-1.1c0.4-0.3,1-0.4,1.5-0.4c0.6,0,1.1,0.1,1.5,0.4
			c0.4,0.3,0.8,0.6,1,1.1c0.2,0.4,0.4,0.9,0.4,1.4c0,0.1,0,0.1,0,0.2c0,0.1,0,0.1,0,0.2h-4.8c0,0.4,0.1,0.7,0.3,1
			c0.2,0.3,0.4,0.5,0.7,0.7c0.3,0.2,0.6,0.2,0.9,0.2c0.4,0,0.7-0.1,1-0.3c0.3-0.2,0.5-0.4,0.6-0.7l0.8,0.2c-0.1,0.3-0.3,0.5-0.6,0.7
			c-0.2,0.2-0.5,0.4-0.9,0.5C187.8,9.5,187.4,9.5,187,9.5z M185.1,6.2h3.9c0-0.4-0.1-0.7-0.3-1c-0.2-0.3-0.4-0.5-0.7-0.7
			c-0.3-0.2-0.6-0.2-0.9-0.2c-0.3,0-0.6,0.1-0.9,0.2c-0.3,0.2-0.5,0.4-0.7,0.7S185.1,5.8,185.1,6.2z"/>
		<path class="st2" d="M196,9.4h-1V6.2c0-0.6-0.1-1-0.3-1.3c-0.2-0.3-0.5-0.4-0.9-0.4c-0.3,0-0.5,0.1-0.8,0.2
			c-0.3,0.1-0.5,0.3-0.7,0.5c-0.2,0.2-0.3,0.5-0.4,0.8v3.4h-1V3.7h0.9v1.2c0.2-0.3,0.4-0.5,0.6-0.7c0.2-0.2,0.5-0.3,0.8-0.5
			c0.3-0.1,0.6-0.2,1-0.2c0.3,0,0.6,0.1,0.8,0.2c0.2,0.1,0.4,0.3,0.5,0.5c0.1,0.2,0.2,0.5,0.3,0.8C196,5.3,196,5.7,196,6V9.4z"/>
		<path class="st2" d="M200.5,9.2c-0.1,0-0.2,0.1-0.3,0.1s-0.3,0.1-0.5,0.2c-0.2,0-0.4,0.1-0.6,0.1c-0.2,0-0.5,0-0.6-0.1
			c-0.2-0.1-0.4-0.2-0.5-0.4c-0.1-0.2-0.2-0.4-0.2-0.7V4.5H197V3.7h0.8V1.8h1v1.9h1.3v0.8h-1.3V8c0,0.2,0.1,0.4,0.2,0.5
			c0.1,0.1,0.3,0.1,0.4,0.1c0.2,0,0.4,0,0.5-0.1s0.3-0.1,0.3-0.1L200.5,9.2z"/>
		<path class="st2" d="M204.4,4.5c-0.5,0-0.9,0.1-1.3,0.4s-0.6,0.6-0.8,1v3.5h-1V3.7h0.9V5c0.2-0.4,0.5-0.7,0.8-1s0.7-0.4,1-0.4
			c0.1,0,0.1,0,0.2,0c0.1,0,0.1,0,0.1,0V4.5z"/>
		<path class="st2" d="M207.9,9.5c-0.4,0-0.8-0.1-1.2-0.2c-0.4-0.2-0.7-0.4-0.9-0.6c-0.3-0.3-0.5-0.6-0.6-0.9C205,7.3,205,7,205,6.6
			c0-0.5,0.1-1,0.4-1.5c0.2-0.4,0.6-0.8,1-1.1c0.4-0.3,1-0.4,1.5-0.4c0.6,0,1.1,0.1,1.5,0.4c0.4,0.3,0.8,0.6,1,1.1
			c0.2,0.4,0.4,0.9,0.4,1.4c0,0.1,0,0.1,0,0.2c0,0.1,0,0.1,0,0.2H206c0,0.4,0.1,0.7,0.3,1c0.2,0.3,0.4,0.5,0.7,0.7
			c0.3,0.2,0.6,0.2,0.9,0.2c0.4,0,0.7-0.1,1-0.3c0.3-0.2,0.5-0.4,0.6-0.7l0.8,0.2c-0.1,0.3-0.3,0.5-0.6,0.7
			c-0.2,0.2-0.5,0.4-0.9,0.5C208.6,9.5,208.3,9.5,207.9,9.5z M206,6.2h3.9c0-0.4-0.1-0.7-0.3-1c-0.2-0.3-0.4-0.5-0.7-0.7
			c-0.3-0.2-0.6-0.2-0.9-0.2c-0.3,0-0.6,0.1-0.9,0.2c-0.3,0.2-0.5,0.4-0.7,0.7S206,5.8,206,6.2z"/>
		<path class="st2" d="M218.5,8.5v0.9h-3.9V8.5h1.6V4.2c-0.1,0.1-0.2,0.2-0.3,0.3c-0.1,0.1-0.3,0.2-0.5,0.3C215.2,4.9,215,5,214.8,5
			s-0.3,0.1-0.5,0.1V4.2c0.2,0,0.3,0,0.5-0.1s0.4-0.2,0.6-0.3c0.2-0.1,0.3-0.2,0.5-0.4c0.1-0.1,0.2-0.2,0.2-0.2h1v5.4H218.5z"/>
		<path class="st2" d="M219.6,4.3c0.2-0.4,0.6-0.7,1-1c0.4-0.2,0.9-0.4,1.4-0.4c0.6,0,1.1,0.1,1.5,0.4c0.4,0.3,0.8,0.7,1,1.2
			s0.4,1.1,0.4,1.9c0,1.1-0.1,1.9-0.4,2.6c-0.2,0.7-0.6,1.2-1,1.6c-0.4,0.3-1,0.5-1.5,0.5c-0.5,0-1-0.1-1.4-0.4
			c-0.4-0.2-0.7-0.6-1-1l0.6-0.6c0.2,0.3,0.4,0.6,0.7,0.8c0.3,0.2,0.7,0.3,1,0.3c0.4,0,0.8-0.1,1.1-0.4s0.5-0.6,0.7-1.1
			c0.2-0.5,0.3-1,0.3-1.7c-0.1,0.2-0.3,0.5-0.5,0.7c-0.2,0.2-0.4,0.3-0.7,0.4c-0.3,0.1-0.5,0.2-0.9,0.2c-0.5,0-1-0.1-1.4-0.4
			c-0.4-0.2-0.7-0.6-1-1c-0.2-0.4-0.4-0.9-0.4-1.4C219.2,5.2,219.3,4.7,219.6,4.3z M221.1,4c-0.3,0.2-0.5,0.4-0.7,0.7
			c-0.2,0.3-0.3,0.6-0.3,1c0,0.3,0.1,0.7,0.3,1c0.2,0.3,0.4,0.5,0.7,0.7c0.3,0.2,0.6,0.3,0.9,0.3c0.3,0,0.7-0.1,0.9-0.3
			c0.3-0.2,0.5-0.4,0.7-0.7c0.2-0.3,0.3-0.6,0.3-1c0-0.3-0.1-0.7-0.3-1c-0.2-0.3-0.4-0.5-0.7-0.7s-0.6-0.3-0.9-0.3
			C221.6,3.8,221.3,3.9,221.1,4z"/>
		<path class="st2" d="M231.3,7.2c0,0.5-0.1,0.9-0.4,1.2c-0.3,0.3-0.6,0.6-1,0.8s-0.9,0.3-1.4,0.3c-0.5,0-1-0.1-1.4-0.3
			c-0.4-0.2-0.7-0.5-1-0.8s-0.4-0.8-0.4-1.2c0-0.3,0.1-0.6,0.2-0.9c0.1-0.3,0.3-0.5,0.6-0.7s0.5-0.3,0.7-0.4
			c-0.2-0.1-0.4-0.2-0.6-0.4c-0.2-0.2-0.3-0.3-0.4-0.5c-0.1-0.2-0.2-0.4-0.2-0.7c0-0.3,0.1-0.6,0.2-0.9c0.1-0.3,0.3-0.5,0.6-0.6
			c0.2-0.2,0.5-0.3,0.8-0.4c0.3-0.1,0.6-0.1,0.9-0.1s0.6,0,0.9,0.1c0.3,0.1,0.6,0.2,0.8,0.4c0.2,0.2,0.4,0.4,0.6,0.6
			c0.1,0.3,0.2,0.5,0.2,0.9c0,0.2-0.1,0.5-0.2,0.7c-0.1,0.2-0.3,0.4-0.4,0.5c-0.2,0.2-0.4,0.3-0.6,0.4c0.3,0.1,0.5,0.2,0.7,0.4
			c0.2,0.2,0.4,0.4,0.5,0.7C231.3,6.6,231.3,6.9,231.3,7.2z M230.3,7.1c0-0.2-0.1-0.4-0.2-0.6c-0.1-0.2-0.2-0.3-0.4-0.5
			c-0.2-0.1-0.4-0.2-0.6-0.3s-0.4-0.1-0.6-0.1c-0.3,0-0.6,0.1-0.8,0.2s-0.5,0.3-0.7,0.5c-0.2,0.2-0.3,0.5-0.3,0.8
			c0,0.2,0.1,0.4,0.2,0.6c0.1,0.2,0.2,0.3,0.4,0.5c0.2,0.1,0.4,0.2,0.6,0.3c0.2,0.1,0.4,0.1,0.6,0.1c0.3,0,0.6-0.1,0.8-0.2
			s0.5-0.3,0.7-0.5C230.3,7.7,230.3,7.4,230.3,7.1z M227.1,3.7c0,0.3,0.1,0.5,0.2,0.7c0.2,0.2,0.3,0.3,0.6,0.4
			c0.2,0.1,0.5,0.1,0.7,0.1c0.2,0,0.5,0,0.7-0.1c0.2-0.1,0.4-0.2,0.6-0.4c0.2-0.2,0.2-0.4,0.2-0.7c0-0.3-0.1-0.5-0.2-0.6
			c-0.1-0.2-0.3-0.3-0.6-0.4c-0.2-0.1-0.5-0.1-0.7-0.1c-0.3,0-0.5,0-0.7,0.1c-0.2,0.1-0.4,0.2-0.6,0.4
			C227.1,3.2,227.1,3.4,227.1,3.7z"/>
		<path class="st2" d="M234.7,11c-0.6,0-1.1-0.1-1.5-0.4c-0.4-0.3-0.8-0.6-1-1.1l0.6-0.5c0.2,0.3,0.5,0.6,0.8,0.8
			c0.3,0.2,0.7,0.3,1.1,0.3c0.3,0,0.6-0.1,0.9-0.2c0.3-0.1,0.5-0.4,0.6-0.6s0.2-0.6,0.2-0.9c0-0.3-0.1-0.6-0.2-0.9s-0.4-0.4-0.6-0.6
			s-0.5-0.2-0.9-0.2s-0.6,0.1-0.9,0.2c-0.3,0.1-0.5,0.3-0.7,0.6h-0.9l0.9-4.5h3.8V4H234l-0.5,2.5c0.2-0.2,0.4-0.3,0.6-0.4
			C234.4,6,234.7,6,235,6c0.5,0,0.9,0.1,1.3,0.3c0.4,0.2,0.7,0.5,0.9,0.9s0.3,0.8,0.3,1.3c0,0.5-0.1,1-0.4,1.4
			c-0.2,0.4-0.6,0.7-1,0.9S235.3,11,234.7,11z"/>
		<path class="st2" d="M244.5,1.6l-5.3,7.8h-1.1l5.3-7.8H244.5z"/>
		<path class="st2" d="M245.3,9.4c0-0.3,0-0.6,0.1-0.8c0-0.3,0.1-0.5,0.3-0.7c0.1-0.2,0.3-0.5,0.5-0.7c0.2-0.2,0.5-0.4,0.9-0.6
			c0.2-0.1,0.4-0.2,0.7-0.4s0.4-0.2,0.6-0.4c0.2-0.1,0.3-0.3,0.5-0.4c0.1-0.2,0.2-0.3,0.2-0.5c0-0.2,0-0.3-0.1-0.5
			c-0.1-0.2-0.2-0.3-0.4-0.4s-0.4-0.2-0.7-0.2c-0.2,0-0.4,0-0.6,0.1c-0.2,0.1-0.3,0.1-0.5,0.2c-0.1,0.1-0.3,0.2-0.4,0.3
			c-0.1,0.1-0.2,0.2-0.3,0.3L245.4,4c0.1-0.1,0.2-0.2,0.3-0.3c0.1-0.1,0.3-0.2,0.5-0.3c0.2-0.1,0.5-0.2,0.7-0.3
			c0.3-0.1,0.6-0.1,0.9-0.1c0.5,0,0.8,0.1,1.2,0.2s0.6,0.4,0.8,0.6c0.2,0.3,0.3,0.6,0.3,0.9c0,0.3-0.1,0.5-0.2,0.8s-0.3,0.4-0.5,0.6
			c-0.2,0.2-0.4,0.3-0.6,0.4c-0.2,0.1-0.4,0.2-0.5,0.3c-0.3,0.2-0.6,0.3-0.8,0.4c-0.2,0.1-0.4,0.3-0.6,0.4c-0.2,0.1-0.3,0.3-0.4,0.4
			c-0.1,0.1-0.2,0.3-0.2,0.5h3.9v0.9H245.3z"/>
		<path class="st2" d="M256.9,6.2c0,0.6-0.1,1.2-0.4,1.7s-0.6,0.9-1,1.2s-0.9,0.4-1.4,0.4s-1-0.1-1.4-0.4s-0.7-0.7-1-1.2
			s-0.4-1.1-0.4-1.7s0.1-1.2,0.4-1.7c0.2-0.5,0.6-0.9,1-1.2c0.4-0.3,0.9-0.4,1.4-0.4s1,0.1,1.4,0.4c0.4,0.3,0.7,0.7,1,1.2
			C256.8,5,256.9,5.6,256.9,6.2z M255.9,6.2c0-0.5-0.1-0.9-0.2-1.2c-0.2-0.4-0.4-0.6-0.6-0.8c-0.3-0.2-0.6-0.3-0.9-0.3
			c-0.4,0-0.7,0.1-0.9,0.3s-0.5,0.5-0.6,0.8c-0.2,0.4-0.2,0.8-0.2,1.2c0,0.5,0.1,0.9,0.2,1.2s0.4,0.6,0.6,0.8s0.6,0.3,0.9,0.3
			c0.4,0,0.7-0.1,0.9-0.3c0.3-0.2,0.5-0.5,0.6-0.8C255.8,7.1,255.9,6.7,255.9,6.2z"/>
		<path class="st2" d="M262.2,8.5v0.9h-3.9V8.5h1.6V4.2c-0.1,0.1-0.2,0.2-0.3,0.3c-0.1,0.1-0.3,0.2-0.5,0.3
			c-0.2,0.1-0.4,0.2-0.5,0.2s-0.3,0.1-0.5,0.1V4.2c0.2,0,0.3,0,0.5-0.1s0.4-0.2,0.6-0.3c0.2-0.1,0.3-0.2,0.5-0.4
			c0.1-0.1,0.2-0.2,0.2-0.2h1v5.4H262.2z"/>
		<path class="st2" d="M263.2,4.3c0.2-0.4,0.6-0.7,1-1c0.4-0.2,0.9-0.4,1.4-0.4c0.6,0,1.1,0.1,1.5,0.4c0.4,0.3,0.8,0.7,1,1.2
			s0.4,1.1,0.4,1.9c0,1.1-0.1,1.9-0.4,2.6c-0.2,0.7-0.6,1.2-1,1.6c-0.4,0.3-1,0.5-1.5,0.5c-0.5,0-1-0.1-1.4-0.4
			c-0.4-0.2-0.7-0.6-1-1l0.6-0.6c0.2,0.3,0.4,0.6,0.7,0.8c0.3,0.2,0.7,0.3,1,0.3c0.4,0,0.8-0.1,1.1-0.4s0.5-0.6,0.7-1.1
			c0.2-0.5,0.3-1,0.3-1.7c-0.1,0.2-0.3,0.5-0.5,0.7c-0.2,0.2-0.4,0.3-0.7,0.4c-0.3,0.1-0.5,0.2-0.9,0.2c-0.5,0-1-0.1-1.4-0.4
			c-0.4-0.2-0.7-0.6-1-1c-0.2-0.4-0.4-0.9-0.4-1.4C262.8,5.2,263,4.7,263.2,4.3z M264.7,4c-0.3,0.2-0.5,0.4-0.7,0.7
			c-0.2,0.3-0.3,0.6-0.3,1c0,0.3,0.1,0.7,0.3,1c0.2,0.3,0.4,0.5,0.7,0.7c0.3,0.2,0.6,0.3,0.9,0.3c0.3,0,0.7-0.1,0.9-0.3
			c0.3-0.2,0.5-0.4,0.7-0.7c0.2-0.3,0.3-0.6,0.3-1c0-0.3-0.1-0.7-0.3-1c-0.2-0.3-0.4-0.5-0.7-0.7s-0.6-0.3-0.9-0.3
			C265.3,3.8,265,3.9,264.7,4z"/>
	</g>
</g>
<g>
	<g>
		<path class="st2" d="M4.8,50.8h0.8l3.2,7.8H7.8l-0.9-2.3H3.5l-0.9,2.3H1.6L4.8,50.8z M6.6,55.5l-1.4-3.6l-1.4,3.6H6.6z M5.6,49.8
			l-0.6-0.2l0.6-1.1h1L5.6,49.8z"/>
		<path class="st2" d="M12.8,53.7c-0.5,0-0.9,0.1-1.3,0.4c-0.4,0.2-0.6,0.6-0.8,1v3.5h-1v-5.7h0.9v1.3c0.2-0.4,0.5-0.7,0.8-1
			c0.3-0.2,0.7-0.4,1-0.4c0.1,0,0.1,0,0.2,0s0.1,0,0.1,0V53.7z"/>
		<path class="st2" d="M16.3,58.7c-0.4,0-0.8-0.1-1.2-0.2c-0.4-0.2-0.7-0.4-0.9-0.6s-0.5-0.6-0.6-0.9c-0.1-0.4-0.2-0.7-0.2-1.1
			c0-0.5,0.1-1,0.4-1.5c0.2-0.4,0.6-0.8,1-1.1c0.4-0.3,1-0.4,1.5-0.4c0.6,0,1.1,0.1,1.5,0.4c0.4,0.3,0.8,0.6,1,1.1
			c0.2,0.4,0.4,0.9,0.4,1.4c0,0.1,0,0.1,0,0.2c0,0.1,0,0.1,0,0.2h-4.8c0,0.4,0.1,0.7,0.3,1c0.2,0.3,0.4,0.5,0.7,0.7
			c0.3,0.2,0.6,0.2,0.9,0.2c0.4,0,0.7-0.1,1-0.3c0.3-0.2,0.5-0.4,0.6-0.7l0.8,0.2c-0.1,0.3-0.3,0.5-0.6,0.7
			c-0.2,0.2-0.5,0.4-0.9,0.5C17,58.6,16.6,58.7,16.3,58.7z M14.3,55.4h3.9c0-0.4-0.1-0.7-0.3-1s-0.4-0.5-0.7-0.7
			c-0.3-0.2-0.6-0.2-0.9-0.2c-0.3,0-0.6,0.1-0.9,0.2c-0.3,0.2-0.5,0.4-0.7,0.7C14.5,54.7,14.4,55,14.3,55.4z"/>
		<path class="st2" d="M19.8,56.9c0-0.4,0.1-0.7,0.3-0.9s0.5-0.5,0.9-0.6c0.4-0.1,0.8-0.2,1.3-0.2c0.3,0,0.5,0,0.8,0.1
			c0.3,0,0.5,0.1,0.8,0.2V55c0-0.4-0.1-0.8-0.4-1c-0.3-0.2-0.6-0.4-1.1-0.4c-0.3,0-0.6,0.1-0.9,0.2c-0.3,0.1-0.6,0.3-0.9,0.5
			l-0.4-0.7c0.4-0.3,0.7-0.4,1.1-0.6c0.4-0.1,0.8-0.2,1.2-0.2c0.7,0,1.3,0.2,1.7,0.6c0.4,0.4,0.6,1,0.6,1.7v2.4c0,0.1,0,0.2,0.1,0.3
			c0,0.1,0.1,0.1,0.2,0.1v0.7c-0.1,0-0.2,0-0.2,0c-0.1,0-0.1,0-0.2,0c-0.2,0-0.4-0.1-0.5-0.2C24,58.3,24,58.2,24,58l0-0.4
			c-0.2,0.3-0.6,0.6-1,0.7c-0.4,0.2-0.8,0.3-1.2,0.3c-0.4,0-0.7-0.1-1-0.2c-0.3-0.2-0.5-0.4-0.7-0.6C19.9,57.6,19.8,57.3,19.8,56.9z
			 M23.5,57.3c0.1-0.1,0.2-0.2,0.2-0.3c0.1-0.1,0.1-0.2,0.1-0.3v-0.7c-0.2-0.1-0.5-0.2-0.7-0.2c-0.2,0-0.5-0.1-0.7-0.1
			c-0.5,0-0.9,0.1-1.2,0.3c-0.3,0.2-0.5,0.5-0.5,0.8c0,0.2,0,0.4,0.1,0.5c0.1,0.2,0.2,0.3,0.4,0.4S21.7,58,22,58
			c0.3,0,0.6-0.1,0.9-0.2C23.1,57.7,23.3,57.5,23.5,57.3z"/>
		<path class="st2" d="M2.2,69.5v-3.4h1v3.2c0,0.6,0.1,1,0.3,1.3c0.2,0.3,0.5,0.4,0.9,0.4c0.3,0,0.5-0.1,0.8-0.2
			c0.2-0.1,0.5-0.3,0.7-0.5c0.2-0.2,0.4-0.5,0.5-0.8v-3.6h1v4.6c0,0.1,0,0.2,0.1,0.3C7.4,71,7.5,71,7.6,71v0.7c-0.1,0-0.2,0-0.3,0
			c-0.1,0-0.1,0-0.2,0c-0.2,0-0.3-0.1-0.5-0.2c-0.1-0.1-0.2-0.3-0.2-0.4l0-0.7c-0.2,0.4-0.6,0.8-1,1c-0.4,0.2-0.9,0.3-1.4,0.3
			c-0.6,0-1.1-0.2-1.4-0.6S2.2,70.3,2.2,69.5z"/>
		<path class="st2" d="M11.9,66.9c-0.5,0-0.9,0.1-1.3,0.4c-0.4,0.2-0.6,0.6-0.8,1v3.5h-1v-5.7h0.9v1.3c0.2-0.4,0.5-0.7,0.8-1
			c0.3-0.2,0.7-0.4,1-0.4c0.1,0,0.1,0,0.2,0s0.1,0,0.1,0V66.9z"/>
		<path class="st2" d="M15.8,71.9c-0.4,0-0.9-0.1-1.2-0.3c-0.4-0.2-0.7-0.5-0.9-0.9v1.1h-0.9v-8h1v3.5c0.2-0.4,0.5-0.7,0.9-0.9
			c0.4-0.2,0.8-0.3,1.2-0.3c0.4,0,0.8,0.1,1.1,0.2c0.3,0.2,0.6,0.4,0.8,0.7s0.4,0.6,0.5,0.9s0.2,0.7,0.2,1.1c0,0.4-0.1,0.8-0.2,1.1
			c-0.1,0.4-0.3,0.7-0.6,0.9c-0.2,0.3-0.5,0.5-0.9,0.6C16.6,71.8,16.2,71.9,15.8,71.9z M15.6,71.1c0.3,0,0.6-0.1,0.8-0.2
			c0.2-0.1,0.5-0.3,0.6-0.5c0.2-0.2,0.3-0.4,0.4-0.7c0.1-0.3,0.1-0.5,0.1-0.8c0-0.4-0.1-0.7-0.2-1c-0.2-0.3-0.4-0.6-0.7-0.8
			s-0.6-0.3-1-0.3c-0.3,0-0.5,0.1-0.8,0.2s-0.4,0.3-0.6,0.5c-0.2,0.2-0.3,0.4-0.4,0.7v1.6c0,0.2,0.1,0.3,0.2,0.5
			c0.1,0.2,0.3,0.3,0.4,0.4c0.2,0.1,0.3,0.2,0.5,0.3C15.2,71,15.4,71.1,15.6,71.1z"/>
		<path class="st2" d="M19.3,70.1c0-0.4,0.1-0.7,0.3-0.9s0.5-0.5,0.9-0.6c0.4-0.1,0.8-0.2,1.3-0.2c0.3,0,0.5,0,0.8,0.1
			c0.3,0,0.5,0.1,0.8,0.2v-0.4c0-0.4-0.1-0.8-0.4-1c-0.3-0.2-0.6-0.4-1.1-0.4c-0.3,0-0.6,0.1-0.9,0.2c-0.3,0.1-0.6,0.3-0.9,0.5
			l-0.4-0.7c0.4-0.3,0.7-0.4,1.1-0.6c0.4-0.1,0.8-0.2,1.2-0.2c0.7,0,1.3,0.2,1.7,0.6c0.4,0.4,0.6,1,0.6,1.7v2.4c0,0.1,0,0.2,0.1,0.3
			c0,0.1,0.1,0.1,0.2,0.1v0.7c-0.1,0-0.2,0-0.2,0c-0.1,0-0.1,0-0.2,0c-0.2,0-0.4-0.1-0.5-0.2c-0.1-0.1-0.2-0.3-0.2-0.4l0-0.4
			c-0.2,0.3-0.6,0.6-1,0.7c-0.4,0.2-0.8,0.3-1.2,0.3c-0.4,0-0.7-0.1-1-0.2c-0.3-0.2-0.5-0.4-0.7-0.6C19.4,70.8,19.3,70.5,19.3,70.1z
			 M23,70.5c0.1-0.1,0.2-0.2,0.2-0.3c0.1-0.1,0.1-0.2,0.1-0.3v-0.7c-0.2-0.1-0.5-0.2-0.7-0.2c-0.2,0-0.5-0.1-0.7-0.1
			c-0.5,0-0.9,0.1-1.2,0.3c-0.3,0.2-0.5,0.5-0.5,0.8c0,0.2,0,0.4,0.1,0.5c0.1,0.2,0.2,0.3,0.4,0.4s0.4,0.2,0.7,0.2
			c0.3,0,0.6-0.1,0.9-0.2C22.6,70.9,22.9,70.7,23,70.5z"/>
		<path class="st2" d="M30.8,71.8h-1v-3.2c0-0.6-0.1-1-0.3-1.3s-0.5-0.4-0.9-0.4c-0.3,0-0.5,0.1-0.8,0.2c-0.3,0.1-0.5,0.3-0.7,0.5
			s-0.3,0.5-0.4,0.8v3.4h-1v-5.7h0.9v1.2c0.2-0.3,0.4-0.5,0.6-0.7c0.2-0.2,0.5-0.3,0.8-0.5c0.3-0.1,0.6-0.2,1-0.2
			c0.3,0,0.6,0.1,0.8,0.2s0.4,0.3,0.5,0.5c0.1,0.2,0.2,0.5,0.3,0.8c0.1,0.3,0.1,0.6,0.1,0.9V71.8z"/>
		<path class="st2" d="M32.3,65v-1.2h1V65H32.3z M32.3,71.8V66h1v5.7H32.3z"/>
		<path class="st2" d="M34.4,71.2l3.6-4.4h-3.5v-0.7h4.6v0.6l-3.6,4.4h3.6v0.7h-4.7V71.2z"/>
		<path class="st2" d="M39.8,70.1c0-0.4,0.1-0.7,0.3-0.9s0.5-0.5,0.9-0.6c0.4-0.1,0.8-0.2,1.3-0.2c0.3,0,0.5,0,0.8,0.1
			c0.3,0,0.5,0.1,0.8,0.2v-0.4c0-0.4-0.1-0.8-0.4-1c-0.3-0.2-0.6-0.4-1.1-0.4c-0.3,0-0.6,0.1-0.9,0.2c-0.3,0.1-0.6,0.3-0.9,0.5
			l-0.4-0.7c0.4-0.3,0.7-0.4,1.1-0.6c0.4-0.1,0.8-0.2,1.2-0.2c0.7,0,1.3,0.2,1.7,0.6c0.4,0.4,0.6,1,0.6,1.7v2.4c0,0.1,0,0.2,0.1,0.3
			c0,0.1,0.1,0.1,0.2,0.1v0.7c-0.1,0-0.2,0-0.2,0c-0.1,0-0.1,0-0.2,0c-0.2,0-0.4-0.1-0.5-0.2c-0.1-0.1-0.2-0.3-0.2-0.4l0-0.4
			c-0.2,0.3-0.6,0.6-1,0.7c-0.4,0.2-0.8,0.3-1.2,0.3c-0.4,0-0.7-0.1-1-0.2c-0.3-0.2-0.5-0.4-0.7-0.6C39.9,70.8,39.8,70.5,39.8,70.1z
			 M43.6,70.5c0.1-0.1,0.2-0.2,0.2-0.3c0.1-0.1,0.1-0.2,0.1-0.3v-0.7c-0.2-0.1-0.5-0.2-0.7-0.2c-0.2,0-0.5-0.1-0.7-0.1
			c-0.5,0-0.9,0.1-1.2,0.3c-0.3,0.2-0.5,0.5-0.5,0.8c0,0.2,0,0.4,0.1,0.5c0.1,0.2,0.2,0.3,0.4,0.4s0.4,0.2,0.7,0.2
			c0.3,0,0.6-0.1,0.9-0.2C43.2,70.9,43.4,70.7,43.6,70.5z"/>
		<path class="st2" d="M46,68.9c0-0.5,0.1-1,0.3-1.5c0.2-0.4,0.5-0.8,0.9-1.1c0.4-0.3,0.8-0.4,1.3-0.4c0.5,0,0.9,0.1,1.2,0.4
			c0.4,0.2,0.7,0.5,0.9,0.9v-3.5h1v6.9c0,0.1,0,0.2,0.1,0.3c0,0.1,0.1,0.1,0.2,0.1v0.7c-0.2,0-0.3,0-0.4,0c-0.2,0-0.4-0.1-0.5-0.2
			c-0.1-0.1-0.2-0.3-0.2-0.4v-0.5c-0.2,0.4-0.5,0.7-0.9,0.9s-0.8,0.3-1.2,0.3c-0.4,0-0.8-0.1-1.1-0.2c-0.3-0.2-0.6-0.4-0.9-0.6
			c-0.2-0.3-0.4-0.6-0.6-0.9S46,69.3,46,68.9z M50.7,69.8v-1.6c-0.1-0.2-0.2-0.5-0.4-0.7c-0.2-0.2-0.4-0.4-0.7-0.5s-0.5-0.2-0.7-0.2
			c-0.3,0-0.5,0.1-0.8,0.2s-0.4,0.3-0.6,0.5s-0.3,0.4-0.4,0.7C47,68.4,47,68.7,47,69c0,0.3,0,0.6,0.1,0.8c0.1,0.3,0.2,0.5,0.4,0.7
			c0.2,0.2,0.4,0.3,0.6,0.5s0.5,0.2,0.8,0.2c0.2,0,0.4,0,0.5-0.1c0.2-0.1,0.4-0.2,0.5-0.3c0.2-0.1,0.3-0.3,0.4-0.4
			S50.7,70,50.7,69.8z"/>
		<path class="st2" d="M52.8,70.1c0-0.4,0.1-0.7,0.3-0.9s0.5-0.5,0.9-0.6c0.4-0.1,0.8-0.2,1.3-0.2c0.3,0,0.5,0,0.8,0.1
			c0.3,0,0.5,0.1,0.8,0.2v-0.4c0-0.4-0.1-0.8-0.4-1c-0.3-0.2-0.6-0.4-1.1-0.4c-0.3,0-0.6,0.1-0.9,0.2c-0.3,0.1-0.6,0.3-0.9,0.5
			l-0.4-0.7c0.4-0.3,0.7-0.4,1.1-0.6c0.4-0.1,0.8-0.2,1.2-0.2c0.7,0,1.3,0.2,1.7,0.6c0.4,0.4,0.6,1,0.6,1.7v2.4c0,0.1,0,0.2,0.1,0.3
			c0,0.1,0.1,0.1,0.2,0.1v0.7c-0.1,0-0.2,0-0.2,0c-0.1,0-0.1,0-0.2,0c-0.2,0-0.4-0.1-0.5-0.2c-0.1-0.1-0.2-0.3-0.2-0.4l0-0.4
			c-0.2,0.3-0.6,0.6-1,0.7c-0.4,0.2-0.8,0.3-1.2,0.3c-0.4,0-0.7-0.1-1-0.2c-0.3-0.2-0.5-0.4-0.7-0.6C52.9,70.8,52.8,70.5,52.8,70.1z
			 M56.6,70.5c0.1-0.1,0.2-0.2,0.2-0.3c0.1-0.1,0.1-0.2,0.1-0.3v-0.7c-0.2-0.1-0.5-0.2-0.7-0.2c-0.2,0-0.5-0.1-0.7-0.1
			c-0.5,0-0.9,0.1-1.2,0.3c-0.3,0.2-0.5,0.5-0.5,0.8c0,0.2,0,0.4,0.1,0.5c0.1,0.2,0.2,0.3,0.4,0.4s0.4,0.2,0.7,0.2
			c0.3,0,0.6-0.1,0.9-0.2C56.2,70.9,56.4,70.7,56.6,70.5z"/>
	</g>
</g>
<g>
	<g>
		<path class="st2" d="M4.8,104.4h0.8l3.2,7.8H7.8l-0.9-2.3H3.5l-0.9,2.3H1.6L4.8,104.4z M6.6,109.1l-1.4-3.6l-1.4,3.6H6.6z
			 M5.6,103.4l-0.6-0.2l0.6-1.1h1L5.6,103.4z"/>
		<path class="st2" d="M12.8,107.3c-0.5,0-0.9,0.1-1.3,0.4c-0.4,0.2-0.6,0.6-0.8,1v3.5h-1v-5.7h0.9v1.3c0.2-0.4,0.5-0.7,0.8-1
			c0.3-0.2,0.7-0.4,1-0.4c0.1,0,0.1,0,0.2,0s0.1,0,0.1,0V107.3z"/>
		<path class="st2" d="M16.3,112.3c-0.4,0-0.8-0.1-1.2-0.2c-0.4-0.2-0.7-0.4-0.9-0.6c-0.3-0.3-0.5-0.6-0.6-0.9s-0.2-0.7-0.2-1.1
			c0-0.5,0.1-1,0.4-1.5c0.2-0.4,0.6-0.8,1-1.1c0.4-0.3,1-0.4,1.5-0.4c0.6,0,1.1,0.1,1.5,0.4c0.4,0.3,0.8,0.6,1,1.1
			c0.2,0.4,0.4,0.9,0.4,1.4c0,0.1,0,0.1,0,0.2c0,0.1,0,0.1,0,0.2h-4.8c0,0.4,0.1,0.7,0.3,1c0.2,0.3,0.4,0.5,0.7,0.7
			c0.3,0.2,0.6,0.2,0.9,0.2c0.4,0,0.7-0.1,1-0.3c0.3-0.2,0.5-0.4,0.6-0.7l0.8,0.2c-0.1,0.3-0.3,0.5-0.6,0.7s-0.5,0.4-0.9,0.5
			C17,112.2,16.6,112.3,16.3,112.3z M14.3,109h3.9c0-0.4-0.1-0.7-0.3-1c-0.2-0.3-0.4-0.5-0.7-0.7c-0.3-0.2-0.6-0.2-0.9-0.2
			c-0.3,0-0.6,0.1-0.9,0.2c-0.3,0.2-0.5,0.4-0.7,0.7C14.5,108.3,14.4,108.6,14.3,109z"/>
		<path class="st2" d="M19.8,110.5c0-0.4,0.1-0.7,0.3-0.9c0.2-0.3,0.5-0.5,0.9-0.6s0.8-0.2,1.3-0.2c0.3,0,0.5,0,0.8,0.1
			c0.3,0,0.5,0.1,0.8,0.2v-0.4c0-0.4-0.1-0.8-0.4-1c-0.3-0.2-0.6-0.4-1.1-0.4c-0.3,0-0.6,0.1-0.9,0.2c-0.3,0.1-0.6,0.3-0.9,0.5
			l-0.4-0.7c0.4-0.3,0.7-0.4,1.1-0.6c0.4-0.1,0.8-0.2,1.2-0.2c0.7,0,1.3,0.2,1.7,0.6s0.6,1,0.6,1.7v2.4c0,0.1,0,0.2,0.1,0.3
			c0,0.1,0.1,0.1,0.2,0.1v0.7c-0.1,0-0.2,0-0.2,0c-0.1,0-0.1,0-0.2,0c-0.2,0-0.4-0.1-0.5-0.2c-0.1-0.1-0.2-0.3-0.2-0.4l0-0.4
			c-0.2,0.3-0.6,0.6-1,0.7c-0.4,0.2-0.8,0.3-1.2,0.3c-0.4,0-0.7-0.1-1-0.2c-0.3-0.2-0.5-0.4-0.7-0.6
			C19.9,111.2,19.8,110.9,19.8,110.5z M23.5,110.9c0.1-0.1,0.2-0.2,0.2-0.3s0.1-0.2,0.1-0.3v-0.7c-0.2-0.1-0.5-0.2-0.7-0.2
			c-0.2,0-0.5-0.1-0.7-0.1c-0.5,0-0.9,0.1-1.2,0.3c-0.3,0.2-0.5,0.5-0.5,0.8c0,0.2,0,0.4,0.1,0.5c0.1,0.2,0.2,0.3,0.4,0.4
			c0.2,0.1,0.4,0.2,0.7,0.2c0.3,0,0.6-0.1,0.9-0.2C23.1,111.3,23.3,111.1,23.5,110.9z"/>
		<path class="st2" d="M28.3,112.3c-0.5,0-0.9-0.1-1.3-0.2c-0.4-0.2-0.8-0.4-1.1-0.7l0.4-0.7c0.3,0.3,0.7,0.5,1,0.7
			c0.3,0.1,0.7,0.2,1,0.2c0.4,0,0.7-0.1,1-0.2c0.2-0.1,0.4-0.4,0.4-0.7c0-0.2-0.1-0.4-0.2-0.5c-0.1-0.1-0.3-0.2-0.5-0.3
			c-0.2-0.1-0.5-0.1-0.8-0.2c-0.4-0.1-0.7-0.2-1-0.4c-0.3-0.1-0.5-0.3-0.6-0.5c-0.1-0.2-0.2-0.4-0.2-0.7c0-0.4,0.1-0.7,0.3-0.9
			c0.2-0.3,0.5-0.4,0.8-0.6c0.3-0.1,0.7-0.2,1.1-0.2s0.8,0.1,1.2,0.2c0.3,0.1,0.6,0.3,0.9,0.6l-0.4,0.7c-0.2-0.2-0.5-0.4-0.7-0.5
			c-0.3-0.1-0.6-0.2-0.9-0.2c-0.2,0-0.4,0-0.6,0.1c-0.2,0-0.3,0.1-0.5,0.3c-0.1,0.1-0.2,0.3-0.2,0.5c0,0.2,0,0.3,0.1,0.4
			s0.2,0.2,0.4,0.3s0.4,0.2,0.7,0.2c0.4,0.1,0.8,0.2,1.1,0.4c0.3,0.1,0.6,0.3,0.7,0.5s0.3,0.5,0.3,0.8c0,0.5-0.2,1-0.6,1.3
			C29.5,112.1,29,112.3,28.3,112.3z"/>
		<path class="st2" d="M1.8,123.7c0-0.4,0.1-0.7,0.3-0.9c0.2-0.3,0.5-0.5,0.9-0.6s0.8-0.2,1.3-0.2c0.3,0,0.5,0,0.8,0.1
			c0.3,0,0.5,0.1,0.8,0.2v-0.4c0-0.4-0.1-0.8-0.4-1c-0.3-0.2-0.6-0.4-1.1-0.4c-0.3,0-0.6,0.1-0.9,0.2c-0.3,0.1-0.6,0.3-0.9,0.5
			l-0.4-0.7c0.4-0.3,0.7-0.4,1.1-0.6c0.4-0.1,0.8-0.2,1.2-0.2c0.7,0,1.3,0.2,1.7,0.6s0.6,1,0.6,1.7v2.4c0,0.1,0,0.2,0.1,0.3
			c0,0.1,0.1,0.1,0.2,0.1v0.7c-0.1,0-0.2,0-0.2,0c-0.1,0-0.1,0-0.2,0c-0.2,0-0.4-0.1-0.5-0.2C6.1,125.1,6,125,6,124.8l0-0.4
			c-0.2,0.3-0.6,0.6-1,0.7c-0.4,0.2-0.8,0.3-1.2,0.3c-0.4,0-0.7-0.1-1-0.2c-0.3-0.2-0.5-0.4-0.7-0.6C1.9,124.4,1.8,124.1,1.8,123.7z
			 M5.6,124.1c0.1-0.1,0.2-0.2,0.2-0.3s0.1-0.2,0.1-0.3v-0.7c-0.2-0.1-0.5-0.2-0.7-0.2c-0.2,0-0.5-0.1-0.7-0.1
			c-0.5,0-0.9,0.1-1.2,0.3c-0.3,0.2-0.5,0.5-0.5,0.8c0,0.2,0,0.4,0.1,0.5c0.1,0.2,0.2,0.3,0.4,0.4c0.2,0.1,0.4,0.2,0.7,0.2
			c0.3,0,0.6-0.1,0.9-0.2C5.2,124.5,5.4,124.3,5.6,124.1z"/>
		<path class="st2" d="M10.7,125.5c-0.4,0-0.7-0.1-1.1-0.2c-0.3-0.2-0.6-0.4-0.8-0.6c-0.2-0.3-0.4-0.6-0.5-0.9
			C8.1,123.3,8,123,8,122.6c0-0.4,0.1-0.8,0.2-1.1s0.3-0.7,0.6-1c0.2-0.3,0.5-0.5,0.8-0.6c0.3-0.2,0.7-0.2,1.1-0.2
			c0.5,0,0.9,0.1,1.2,0.3c0.4,0.2,0.7,0.5,0.9,0.9v-1.1h0.9v5.7c0,0.5-0.1,1-0.4,1.4c-0.3,0.4-0.6,0.7-1.1,0.8
			c-0.4,0.2-0.9,0.3-1.5,0.3c-0.6,0-1.2-0.1-1.6-0.3c-0.4-0.2-0.8-0.5-1-0.9l0.6-0.5c0.2,0.3,0.5,0.6,0.9,0.8
			c0.4,0.2,0.7,0.3,1.2,0.3c0.4,0,0.7-0.1,1-0.2c0.3-0.1,0.5-0.3,0.7-0.6c0.2-0.3,0.3-0.6,0.3-1v-1c-0.2,0.4-0.5,0.6-0.9,0.8
			C11.5,125.4,11.1,125.5,10.7,125.5z M11,124.7c0.2,0,0.4,0,0.6-0.1c0.2-0.1,0.4-0.2,0.5-0.3c0.2-0.1,0.3-0.3,0.4-0.4
			c0.1-0.2,0.2-0.3,0.2-0.5v-1.7c-0.1-0.3-0.2-0.5-0.4-0.7c-0.2-0.2-0.4-0.4-0.6-0.5c-0.2-0.1-0.5-0.2-0.7-0.2
			c-0.3,0-0.6,0.1-0.8,0.2c-0.2,0.1-0.4,0.3-0.6,0.5c-0.2,0.2-0.3,0.4-0.4,0.7C9,122.1,9,122.3,9,122.6c0,0.3,0.1,0.6,0.2,0.8
			c0.1,0.3,0.2,0.5,0.4,0.7c0.2,0.2,0.4,0.4,0.6,0.5C10.4,124.6,10.7,124.7,11,124.7z"/>
		<path class="st2" d="M18.3,120.5c-0.5,0-0.9,0.1-1.3,0.4c-0.4,0.2-0.6,0.6-0.8,1v3.5h-1v-5.7h0.9v1.3c0.2-0.4,0.5-0.7,0.8-1
			c0.3-0.2,0.7-0.4,1-0.4c0.1,0,0.1,0,0.2,0s0.1,0,0.1,0V120.5z"/>
		<path class="st2" d="M19.2,118.6v-1.2h1v1.2H19.2z M19.2,125.4v-5.7h1v5.7H19.2z"/>
		<path class="st2" d="M24.3,125.5c-0.4,0-0.8-0.1-1.2-0.2c-0.4-0.2-0.7-0.4-0.9-0.6c-0.3-0.3-0.5-0.6-0.6-0.9
			c-0.1-0.4-0.2-0.7-0.2-1.1c0-0.5,0.1-1,0.4-1.5c0.2-0.4,0.6-0.8,1-1.1c0.4-0.3,0.9-0.4,1.5-0.4c0.6,0,1.1,0.1,1.5,0.4
			c0.4,0.3,0.7,0.6,0.9,1l-0.9,0.3c-0.1-0.3-0.4-0.5-0.6-0.6s-0.6-0.2-0.9-0.2c-0.4,0-0.7,0.1-1,0.3c-0.3,0.2-0.5,0.4-0.7,0.7
			c-0.2,0.3-0.3,0.7-0.3,1.1c0,0.4,0.1,0.8,0.3,1.1s0.4,0.6,0.7,0.8s0.6,0.3,1,0.3c0.2,0,0.4,0,0.7-0.1s0.4-0.2,0.5-0.3
			s0.3-0.3,0.3-0.4l0.9,0.3c-0.1,0.3-0.3,0.5-0.5,0.7c-0.2,0.2-0.5,0.4-0.8,0.5C25,125.4,24.7,125.5,24.3,125.5z"/>
		<path class="st2" d="M27.8,123.1v-3.4h1v3.2c0,0.6,0.1,1,0.3,1.3c0.2,0.3,0.5,0.4,0.9,0.4c0.3,0,0.5-0.1,0.8-0.2
			c0.2-0.1,0.5-0.3,0.7-0.5c0.2-0.2,0.4-0.5,0.5-0.8v-3.6h1v4.6c0,0.1,0,0.2,0.1,0.3c0,0.1,0.1,0.1,0.2,0.1v0.7c-0.1,0-0.2,0-0.3,0
			c-0.1,0-0.1,0-0.2,0c-0.2,0-0.3-0.1-0.5-0.2c-0.1-0.1-0.2-0.3-0.2-0.4l0-0.7c-0.2,0.4-0.6,0.8-1,1c-0.4,0.2-0.9,0.3-1.4,0.3
			c-0.6,0-1.1-0.2-1.4-0.6C28,124.5,27.8,123.9,27.8,123.1z"/>
		<path class="st2" d="M34.5,117.4h1v6.6c0,0.3,0,0.5,0.1,0.6c0.1,0.1,0.2,0.1,0.3,0.1c0.2,0,0.3,0,0.4,0c0.1,0,0.3-0.1,0.4-0.1
			l0.2,0.8c-0.2,0.1-0.4,0.1-0.6,0.2c-0.2,0-0.4,0.1-0.6,0.1c-0.4,0-0.7-0.1-0.9-0.3c-0.2-0.2-0.3-0.5-0.3-0.9V117.4z"/>
		<path class="st2" d="M40.6,125.1c-0.1,0-0.2,0.1-0.3,0.1s-0.3,0.1-0.5,0.2c-0.2,0-0.4,0.1-0.6,0.1c-0.2,0-0.5,0-0.6-0.1
			c-0.2-0.1-0.4-0.2-0.5-0.4s-0.2-0.4-0.2-0.7v-3.9h-0.8v-0.8h0.8v-1.9h1v1.9h1.3v0.8h-1.3v3.6c0,0.2,0.1,0.4,0.2,0.5
			c0.1,0.1,0.3,0.1,0.4,0.1c0.2,0,0.4,0,0.5-0.1c0.2-0.1,0.3-0.1,0.3-0.1L40.6,125.1z"/>
		<path class="st2" d="M41,123.7c0-0.4,0.1-0.7,0.3-0.9c0.2-0.3,0.5-0.5,0.9-0.6s0.8-0.2,1.3-0.2c0.3,0,0.5,0,0.8,0.1
			c0.3,0,0.5,0.1,0.8,0.2v-0.4c0-0.4-0.1-0.8-0.4-1c-0.3-0.2-0.6-0.4-1.1-0.4c-0.3,0-0.6,0.1-0.9,0.2c-0.3,0.1-0.6,0.3-0.9,0.5
			l-0.4-0.7c0.4-0.3,0.7-0.4,1.1-0.6c0.4-0.1,0.8-0.2,1.2-0.2c0.7,0,1.3,0.2,1.7,0.6s0.6,1,0.6,1.7v2.4c0,0.1,0,0.2,0.1,0.3
			c0,0.1,0.1,0.1,0.2,0.1v0.7c-0.1,0-0.2,0-0.2,0c-0.1,0-0.1,0-0.2,0c-0.2,0-0.4-0.1-0.5-0.2c-0.1-0.1-0.2-0.3-0.2-0.4l0-0.4
			c-0.2,0.3-0.6,0.6-1,0.7c-0.4,0.2-0.8,0.3-1.2,0.3c-0.4,0-0.7-0.1-1-0.2c-0.3-0.2-0.5-0.4-0.7-0.6C41.1,124.4,41,124.1,41,123.7z
			 M44.8,124.1c0.1-0.1,0.2-0.2,0.2-0.3s0.1-0.2,0.1-0.3v-0.7c-0.2-0.1-0.5-0.2-0.7-0.2c-0.2,0-0.5-0.1-0.7-0.1
			c-0.5,0-0.9,0.1-1.2,0.3c-0.3,0.2-0.5,0.5-0.5,0.8c0,0.2,0,0.4,0.1,0.5c0.1,0.2,0.2,0.3,0.4,0.4c0.2,0.1,0.4,0.2,0.7,0.2
			c0.3,0,0.6-0.1,0.9-0.2C44.4,124.5,44.6,124.3,44.8,124.1z M44,118.7l-0.6-0.2l0.6-1.1h1L44,118.7z"/>
		<path class="st2" d="M49.2,125.4l-2.3-5.7h1l1.8,4.8l1.8-4.8h0.9l-2.3,5.7H49.2z"/>
		<path class="st2" d="M56,125.5c-0.4,0-0.8-0.1-1.2-0.2c-0.4-0.2-0.7-0.4-0.9-0.6c-0.3-0.3-0.5-0.6-0.6-0.9s-0.2-0.7-0.2-1.1
			c0-0.5,0.1-1,0.4-1.5c0.2-0.4,0.6-0.8,1-1.1c0.4-0.3,1-0.4,1.5-0.4c0.6,0,1.1,0.1,1.5,0.4c0.4,0.3,0.8,0.6,1,1.1
			c0.2,0.4,0.4,0.9,0.4,1.4c0,0.1,0,0.1,0,0.2c0,0.1,0,0.1,0,0.2h-4.8c0,0.4,0.1,0.7,0.3,1c0.2,0.3,0.4,0.5,0.7,0.7
			c0.3,0.2,0.6,0.2,0.9,0.2c0.4,0,0.7-0.1,1-0.3c0.3-0.2,0.5-0.4,0.6-0.7l0.8,0.2c-0.1,0.3-0.3,0.5-0.6,0.7s-0.5,0.4-0.9,0.5
			C56.8,125.4,56.4,125.5,56,125.5z M54.1,122.2H58c0-0.4-0.1-0.7-0.3-1c-0.2-0.3-0.4-0.5-0.7-0.7c-0.3-0.2-0.6-0.2-0.9-0.2
			c-0.3,0-0.6,0.1-0.9,0.2c-0.3,0.2-0.5,0.4-0.7,0.7C54.2,121.5,54.1,121.8,54.1,122.2z"/>
		<path class="st2" d="M60,118.6v-1.2h1v1.2H60z M60,125.4v-5.7h1v5.7H60z"/>
		<path class="st2" d="M64.5,125.5c-0.5,0-0.9-0.1-1.3-0.2c-0.4-0.2-0.8-0.4-1.1-0.7l0.4-0.7c0.3,0.3,0.7,0.5,1,0.7
			c0.3,0.1,0.7,0.2,1,0.2c0.4,0,0.7-0.1,1-0.2c0.2-0.1,0.4-0.4,0.4-0.7c0-0.2-0.1-0.4-0.2-0.5c-0.1-0.1-0.3-0.2-0.5-0.3
			c-0.2-0.1-0.5-0.1-0.8-0.2c-0.4-0.1-0.7-0.2-1-0.4c-0.3-0.1-0.5-0.3-0.6-0.5c-0.1-0.2-0.2-0.4-0.2-0.7c0-0.4,0.1-0.7,0.3-0.9
			c0.2-0.3,0.5-0.4,0.8-0.6c0.3-0.1,0.7-0.2,1.1-0.2s0.8,0.1,1.2,0.2c0.3,0.1,0.6,0.3,0.9,0.6l-0.4,0.7c-0.2-0.2-0.5-0.4-0.7-0.5
			c-0.3-0.1-0.6-0.2-0.9-0.2c-0.2,0-0.4,0-0.6,0.1c-0.2,0-0.3,0.1-0.5,0.3c-0.1,0.1-0.2,0.3-0.2,0.5c0,0.2,0,0.3,0.1,0.4
			s0.2,0.2,0.4,0.3s0.4,0.2,0.7,0.2c0.4,0.1,0.8,0.2,1.1,0.4c0.3,0.1,0.6,0.3,0.7,0.5s0.3,0.5,0.3,0.8c0,0.5-0.2,1-0.6,1.3
			C65.7,125.3,65.2,125.5,64.5,125.5z"/>
	</g>
</g>
<g>
	<g>
		<path class="st2" d="M2.4,171.7v-7.8h5.2v0.9H3.4v2.6h3.5v0.8H3.4v3.5H2.4z"/>
		<path class="st2" d="M11.2,171.8c-0.4,0-0.8-0.1-1.2-0.2c-0.4-0.2-0.7-0.4-0.9-0.6c-0.3-0.3-0.5-0.6-0.6-0.9s-0.2-0.7-0.2-1.1
			c0-0.4,0.1-0.8,0.2-1.1c0.1-0.4,0.3-0.7,0.6-0.9c0.3-0.3,0.6-0.5,0.9-0.6c0.4-0.2,0.7-0.2,1.2-0.2c0.4,0,0.8,0.1,1.2,0.2
			c0.4,0.2,0.7,0.4,0.9,0.6c0.3,0.3,0.5,0.6,0.6,0.9c0.1,0.4,0.2,0.7,0.2,1.1c0,0.4-0.1,0.8-0.2,1.1s-0.3,0.7-0.6,0.9
			c-0.3,0.3-0.6,0.5-0.9,0.6C12,171.7,11.6,171.8,11.2,171.8z M9.3,168.9c0,0.4,0.1,0.7,0.3,1.1s0.4,0.6,0.7,0.8
			c0.3,0.2,0.6,0.3,1,0.3s0.7-0.1,1-0.3s0.5-0.4,0.7-0.8s0.3-0.7,0.3-1.1s-0.1-0.7-0.3-1.1s-0.4-0.6-0.7-0.8s-0.6-0.3-1-0.3
			s-0.7,0.1-1,0.3s-0.5,0.4-0.7,0.8S9.3,168.5,9.3,168.9z"/>
		<path class="st2" d="M18.3,166.8c-0.5,0-0.9,0.1-1.3,0.4c-0.4,0.2-0.6,0.6-0.8,1v3.5h-1V166h0.9v1.3c0.2-0.4,0.5-0.7,0.8-1
			c0.3-0.2,0.7-0.4,1-0.4c0.1,0,0.1,0,0.2,0s0.1,0,0.1,0V166.8z"/>
		<path class="st2" d="M27.9,171.7h-1v-3.2c0-0.6-0.1-1-0.3-1.3c-0.2-0.3-0.5-0.4-0.9-0.4c-0.4,0-0.7,0.1-1.1,0.4
			c-0.3,0.3-0.5,0.6-0.7,1.1v3.4h-1v-3.2c0-0.6-0.1-1-0.3-1.3c-0.2-0.3-0.5-0.4-0.9-0.4s-0.7,0.1-1.1,0.4c-0.3,0.3-0.5,0.6-0.7,1.1
			v3.4h-1V166h0.9v1.2c0.2-0.4,0.5-0.7,0.9-1c0.4-0.2,0.8-0.3,1.3-0.3c0.5,0,0.9,0.1,1.1,0.4s0.5,0.6,0.5,1c0.3-0.5,0.6-0.8,0.9-1
			c0.4-0.2,0.8-0.4,1.3-0.4c0.3,0,0.6,0.1,0.8,0.2s0.4,0.3,0.5,0.5s0.2,0.5,0.3,0.8c0.1,0.3,0.1,0.6,0.1,0.9V171.7z"/>
		<path class="st2" d="M29,170c0-0.4,0.1-0.7,0.3-0.9c0.2-0.3,0.5-0.5,0.9-0.6s0.8-0.2,1.3-0.2c0.3,0,0.5,0,0.8,0.1
			c0.3,0,0.5,0.1,0.8,0.2v-0.4c0-0.4-0.1-0.8-0.4-1c-0.3-0.2-0.6-0.4-1.1-0.4c-0.3,0-0.6,0.1-0.9,0.2c-0.3,0.1-0.6,0.3-0.9,0.5
			l-0.4-0.7c0.4-0.3,0.7-0.4,1.1-0.6c0.4-0.1,0.8-0.2,1.2-0.2c0.7,0,1.3,0.2,1.7,0.6s0.6,1,0.6,1.7v2.4c0,0.1,0,0.2,0.1,0.3
			c0,0.1,0.1,0.1,0.2,0.1v0.7c-0.1,0-0.2,0-0.2,0c-0.1,0-0.1,0-0.2,0c-0.2,0-0.4-0.1-0.5-0.2c-0.1-0.1-0.2-0.3-0.2-0.4l0-0.4
			c-0.2,0.3-0.6,0.6-1,0.7c-0.4,0.2-0.8,0.3-1.2,0.3c-0.4,0-0.7-0.1-1-0.2c-0.3-0.2-0.5-0.4-0.7-0.6C29.1,170.7,29,170.4,29,170z
			 M32.7,170.4c0.1-0.1,0.2-0.2,0.2-0.3s0.1-0.2,0.1-0.3v-0.7c-0.2-0.1-0.5-0.2-0.7-0.2c-0.2,0-0.5-0.1-0.7-0.1
			c-0.5,0-0.9,0.1-1.2,0.3c-0.3,0.2-0.5,0.5-0.5,0.8c0,0.2,0,0.4,0.1,0.5c0.1,0.2,0.2,0.3,0.4,0.4c0.2,0.1,0.4,0.2,0.7,0.2
			c0.3,0,0.6-0.1,0.9-0.2C32.4,170.8,32.6,170.6,32.7,170.4z"/>
		<path class="st2" d="M38.1,171.8c-0.4,0-0.8-0.1-1.2-0.2c-0.4-0.2-0.7-0.4-0.9-0.6c-0.3-0.3-0.5-0.6-0.6-0.9
			c-0.1-0.4-0.2-0.7-0.2-1.1c0-0.5,0.1-1,0.4-1.5c0.2-0.4,0.6-0.8,1-1.1c0.4-0.3,0.9-0.4,1.5-0.4c0.6,0,1.1,0.1,1.5,0.4
			c0.4,0.3,0.7,0.6,0.9,1l-0.9,0.3c-0.1-0.3-0.4-0.5-0.6-0.6s-0.6-0.2-0.9-0.2c-0.4,0-0.7,0.1-1,0.3c-0.3,0.2-0.5,0.4-0.7,0.7
			c-0.2,0.3-0.3,0.7-0.3,1.1c0,0.4,0.1,0.8,0.3,1.1s0.4,0.6,0.7,0.8s0.6,0.3,1,0.3c0.2,0,0.4,0,0.7-0.1s0.4-0.2,0.5-0.3
			s0.3-0.3,0.3-0.4l0.9,0.3c-0.1,0.3-0.3,0.5-0.5,0.7c-0.2,0.2-0.5,0.4-0.8,0.5C38.8,171.7,38.5,171.8,38.1,171.8z M37.9,173.7
			c-0.2,0-0.4,0-0.6-0.1c-0.2-0.1-0.4-0.1-0.7-0.2l0.3-0.5c0.1,0.1,0.3,0.1,0.4,0.2s0.3,0.1,0.4,0.1c0.2,0,0.4,0,0.5-0.1
			c0.1-0.1,0.2-0.2,0.2-0.4c0-0.2-0.1-0.3-0.2-0.5c-0.1-0.1-0.3-0.3-0.5-0.4l0.4-0.3c0.3,0.2,0.5,0.4,0.7,0.6
			c0.2,0.2,0.3,0.4,0.3,0.7s-0.1,0.5-0.3,0.7C38.6,173.6,38.3,173.7,37.9,173.7z"/>
		<path class="st2" d="M44.1,171.8c-0.4,0-0.8-0.1-1.2-0.2c-0.4-0.2-0.7-0.4-0.9-0.6c-0.3-0.3-0.5-0.6-0.6-0.9s-0.2-0.7-0.2-1.1
			c0-0.4,0.1-0.8,0.2-1.1c0.1-0.4,0.3-0.7,0.6-0.9c0.3-0.3,0.6-0.5,0.9-0.6c0.4-0.2,0.7-0.2,1.2-0.2c0.4,0,0.8,0.1,1.2,0.2
			c0.4,0.2,0.7,0.4,0.9,0.6c0.3,0.3,0.5,0.6,0.6,0.9c0.1,0.4,0.2,0.7,0.2,1.1c0,0.4-0.1,0.8-0.2,1.1s-0.3,0.7-0.6,0.9
			c-0.3,0.3-0.6,0.5-0.9,0.6C45,171.7,44.6,171.8,44.1,171.8z M42.2,168.9c0,0.4,0.1,0.7,0.3,1.1s0.4,0.6,0.7,0.8
			c0.3,0.2,0.6,0.3,1,0.3s0.7-0.1,1-0.3s0.5-0.4,0.7-0.8s0.3-0.7,0.3-1.1s-0.1-0.7-0.3-1.1s-0.4-0.6-0.7-0.8s-0.6-0.3-1-0.3
			s-0.7,0.1-1,0.3s-0.5,0.4-0.7,0.8S42.2,168.5,42.2,168.9z M44.8,164.8c-0.2,0-0.4,0-0.6-0.1c-0.2-0.1-0.3-0.2-0.4-0.2
			s-0.3-0.1-0.4-0.1c-0.2,0-0.3,0-0.4,0.1c-0.1,0.1-0.1,0.2-0.1,0.3c0,0.1,0,0.1,0,0.2h-0.6c0,0,0-0.1,0-0.2c0-0.1,0.1-0.2,0.2-0.4
			c0.1-0.1,0.2-0.3,0.3-0.4c0.1-0.1,0.3-0.1,0.5-0.1c0.2,0,0.4,0,0.5,0.1c0.1,0.1,0.3,0.2,0.4,0.2c0.1,0.1,0.3,0.1,0.5,0.1
			c0.2,0,0.3,0,0.4-0.1c0.1-0.1,0.1-0.2,0.2-0.3s0-0.1,0-0.2H46c0,0,0,0.1,0,0.2c0,0.1-0.1,0.2-0.2,0.4c-0.1,0.1-0.2,0.3-0.4,0.4
			C45.2,164.7,45.1,164.8,44.8,164.8z"/>
		<path class="st2" d="M50.8,171.8c-0.4,0-0.8-0.1-1.2-0.2c-0.4-0.2-0.7-0.4-0.9-0.6c-0.3-0.3-0.5-0.6-0.6-0.9s-0.2-0.7-0.2-1.1
			c0-0.5,0.1-1,0.4-1.5c0.2-0.4,0.6-0.8,1-1.1c0.4-0.3,1-0.4,1.5-0.4c0.6,0,1.1,0.1,1.5,0.4c0.4,0.3,0.8,0.6,1,1.1
			c0.2,0.4,0.4,0.9,0.4,1.4c0,0.1,0,0.1,0,0.2c0,0.1,0,0.1,0,0.2h-4.8c0,0.4,0.1,0.7,0.3,1c0.2,0.3,0.4,0.5,0.7,0.7
			c0.3,0.2,0.6,0.2,0.9,0.2c0.4,0,0.7-0.1,1-0.3c0.3-0.2,0.5-0.4,0.6-0.7l0.8,0.2c-0.1,0.3-0.3,0.5-0.6,0.7s-0.5,0.4-0.9,0.5
			C51.5,171.7,51.1,171.8,50.8,171.8z M48.8,168.5h3.9c0-0.4-0.1-0.7-0.3-1c-0.2-0.3-0.4-0.5-0.7-0.7c-0.3-0.2-0.6-0.2-0.9-0.2
			c-0.3,0-0.6,0.1-0.9,0.2c-0.3,0.2-0.5,0.4-0.7,0.7C49,167.8,48.9,168.1,48.8,168.5z"/>
		<path class="st2" d="M56.7,171.8c-0.5,0-0.9-0.1-1.3-0.2c-0.4-0.2-0.8-0.4-1.1-0.7l0.4-0.7c0.3,0.3,0.7,0.5,1,0.7
			c0.3,0.1,0.7,0.2,1,0.2c0.4,0,0.7-0.1,1-0.2c0.2-0.1,0.4-0.4,0.4-0.7c0-0.2-0.1-0.4-0.2-0.5c-0.1-0.1-0.3-0.2-0.5-0.3
			c-0.2-0.1-0.5-0.1-0.8-0.2c-0.4-0.1-0.7-0.2-1-0.4c-0.3-0.1-0.5-0.3-0.6-0.5c-0.1-0.2-0.2-0.4-0.2-0.7c0-0.4,0.1-0.7,0.3-0.9
			c0.2-0.3,0.5-0.4,0.8-0.6c0.3-0.1,0.7-0.2,1.1-0.2s0.8,0.1,1.2,0.2c0.3,0.1,0.6,0.3,0.9,0.6l-0.4,0.7c-0.2-0.2-0.5-0.4-0.7-0.5
			c-0.3-0.1-0.6-0.2-0.9-0.2c-0.2,0-0.4,0-0.6,0.1c-0.2,0-0.3,0.1-0.5,0.3c-0.1,0.1-0.2,0.3-0.2,0.5c0,0.2,0,0.3,0.1,0.4
			s0.2,0.2,0.4,0.3s0.4,0.2,0.7,0.2c0.4,0.1,0.8,0.2,1.1,0.4c0.3,0.1,0.6,0.3,0.7,0.5s0.3,0.5,0.3,0.8c0,0.5-0.2,1-0.6,1.3
			C57.9,171.6,57.4,171.8,56.7,171.8z"/>
		<path class="st2" d="M7,185c-0.4,0-0.7-0.1-0.9-0.3c-0.2-0.2-0.3-0.5-0.3-0.9v-5c0-0.2,0-0.4-0.1-0.6c-0.1-0.2-0.2-0.3-0.3-0.5
			c-0.2-0.1-0.4-0.2-0.7-0.2c-0.3,0-0.5,0.1-0.6,0.2c-0.2,0.1-0.3,0.3-0.4,0.5s-0.1,0.5-0.1,0.8v0.1h1.1v0.8H3.6v5h-1v-5H1.8v-0.8
			h0.8v-0.2c0-0.4,0.1-0.8,0.2-1.2c0.2-0.3,0.4-0.6,0.7-0.8c0.3-0.2,0.7-0.3,1.2-0.3c0.7,0,1.2,0.2,1.6,0.5c0.3,0.3,0.5,0.8,0.5,1.3
			v4.8c0,0.3,0,0.5,0.1,0.6s0.2,0.1,0.3,0.1c0.2,0,0.3,0,0.4,0c0.1,0,0.3-0.1,0.4-0.1l0.2,0.8c-0.1,0-0.2,0.1-0.4,0.1
			s-0.3,0.1-0.4,0.1C7.3,185,7.2,185,7,185z"/>
		<path class="st2" d="M11.5,185c-0.4,0-0.8-0.1-1.2-0.2c-0.4-0.2-0.7-0.4-0.9-0.6c-0.3-0.3-0.5-0.6-0.6-0.9s-0.2-0.7-0.2-1.1
			c0-0.4,0.1-0.8,0.2-1.1c0.1-0.4,0.3-0.7,0.6-0.9c0.3-0.3,0.6-0.5,0.9-0.6c0.4-0.2,0.7-0.2,1.2-0.2c0.4,0,0.8,0.1,1.2,0.2
			c0.4,0.2,0.7,0.4,0.9,0.6c0.3,0.3,0.5,0.6,0.6,0.9c0.1,0.4,0.2,0.7,0.2,1.1c0,0.4-0.1,0.8-0.2,1.1s-0.3,0.7-0.6,0.9
			c-0.3,0.3-0.6,0.5-0.9,0.6C12.3,184.9,11.9,185,11.5,185z M9.6,182.1c0,0.4,0.1,0.7,0.3,1.1s0.4,0.6,0.7,0.8
			c0.3,0.2,0.6,0.3,1,0.3s0.7-0.1,1-0.3s0.5-0.4,0.7-0.8s0.3-0.7,0.3-1.1s-0.1-0.7-0.3-1.1s-0.4-0.6-0.7-0.8s-0.6-0.3-1-0.3
			s-0.7,0.1-1,0.3s-0.5,0.4-0.7,0.8S9.6,181.7,9.6,182.1z"/>
		<path class="st2" d="M18.6,180c-0.5,0-0.9,0.1-1.3,0.4c-0.4,0.2-0.6,0.6-0.8,1v3.5h-1v-5.7h0.9v1.3c0.2-0.4,0.5-0.7,0.8-1
			c0.3-0.2,0.7-0.4,1-0.4c0.1,0,0.1,0,0.2,0s0.1,0,0.1,0V180z"/>
		<path class="st2" d="M22.1,185c-0.4,0-0.8-0.1-1.2-0.2c-0.4-0.2-0.7-0.4-0.9-0.6c-0.3-0.3-0.5-0.6-0.6-0.9s-0.2-0.7-0.2-1.1
			c0-0.5,0.1-1,0.4-1.5c0.2-0.4,0.6-0.8,1-1.1c0.4-0.3,1-0.4,1.5-0.4c0.6,0,1.1,0.1,1.5,0.4c0.4,0.3,0.8,0.6,1,1.1
			c0.2,0.4,0.4,0.9,0.4,1.4c0,0.1,0,0.1,0,0.2c0,0.1,0,0.1,0,0.2h-4.8c0,0.4,0.1,0.7,0.3,1c0.2,0.3,0.4,0.5,0.7,0.7
			c0.3,0.2,0.6,0.2,0.9,0.2c0.4,0,0.7-0.1,1-0.3c0.3-0.2,0.5-0.4,0.6-0.7l0.8,0.2c-0.1,0.3-0.3,0.5-0.6,0.7s-0.5,0.4-0.9,0.5
			C22.8,184.9,22.5,185,22.1,185z M20.1,181.7H24c0-0.4-0.1-0.7-0.3-1c-0.2-0.3-0.4-0.5-0.7-0.7c-0.3-0.2-0.6-0.2-0.9-0.2
			c-0.3,0-0.6,0.1-0.9,0.2c-0.3,0.2-0.5,0.4-0.7,0.7C20.3,181,20.2,181.3,20.1,181.7z"/>
		<path class="st2" d="M28,185c-0.5,0-0.9-0.1-1.3-0.2c-0.4-0.2-0.8-0.4-1.1-0.7l0.4-0.7c0.3,0.3,0.7,0.5,1,0.7
			c0.3,0.1,0.7,0.2,1,0.2c0.4,0,0.7-0.1,1-0.2c0.2-0.1,0.4-0.4,0.4-0.7c0-0.2-0.1-0.4-0.2-0.5c-0.1-0.1-0.3-0.2-0.5-0.3
			c-0.2-0.1-0.5-0.1-0.8-0.2c-0.4-0.1-0.7-0.2-1-0.4c-0.3-0.1-0.5-0.3-0.6-0.5c-0.1-0.2-0.2-0.4-0.2-0.7c0-0.4,0.1-0.7,0.3-0.9
			c0.2-0.3,0.5-0.4,0.8-0.6c0.3-0.1,0.7-0.2,1.1-0.2s0.8,0.1,1.2,0.2c0.3,0.1,0.6,0.3,0.9,0.6l-0.4,0.7c-0.2-0.2-0.5-0.4-0.7-0.5
			c-0.3-0.1-0.6-0.2-0.9-0.2c-0.2,0-0.4,0-0.6,0.1c-0.2,0-0.3,0.1-0.5,0.3c-0.1,0.1-0.2,0.3-0.2,0.5c0,0.2,0,0.3,0.1,0.4
			s0.2,0.2,0.4,0.3s0.4,0.2,0.7,0.2c0.4,0.1,0.8,0.2,1.1,0.4c0.3,0.1,0.6,0.3,0.7,0.5s0.3,0.5,0.3,0.8c0,0.5-0.2,1-0.6,1.3
			C29.2,184.8,28.7,185,28,185z"/>
		<path class="st2" d="M34.4,184.6c-0.1,0-0.2,0.1-0.3,0.1s-0.3,0.1-0.5,0.2c-0.2,0-0.4,0.1-0.6,0.1c-0.2,0-0.5,0-0.6-0.1
			c-0.2-0.1-0.4-0.2-0.5-0.4s-0.2-0.4-0.2-0.7v-3.9h-0.8v-0.8h0.8v-1.9h1v1.9h1.3v0.8h-1.3v3.6c0,0.2,0.1,0.4,0.2,0.5
			c0.1,0.1,0.3,0.1,0.4,0.1c0.2,0,0.4,0,0.5-0.1c0.2-0.1,0.3-0.1,0.3-0.1L34.4,184.6z"/>
		<path class="st2" d="M34.8,183.2c0-0.4,0.1-0.7,0.3-0.9c0.2-0.3,0.5-0.5,0.9-0.6s0.8-0.2,1.3-0.2c0.3,0,0.5,0,0.8,0.1
			c0.3,0,0.5,0.1,0.8,0.2v-0.4c0-0.4-0.1-0.8-0.4-1c-0.3-0.2-0.6-0.4-1.1-0.4c-0.3,0-0.6,0.1-0.9,0.2c-0.3,0.1-0.6,0.3-0.9,0.5
			l-0.4-0.7c0.4-0.3,0.7-0.4,1.1-0.6c0.4-0.1,0.8-0.2,1.2-0.2c0.7,0,1.3,0.2,1.7,0.6s0.6,1,0.6,1.7v2.4c0,0.1,0,0.2,0.1,0.3
			c0,0.1,0.1,0.1,0.2,0.1v0.7c-0.1,0-0.2,0-0.2,0c-0.1,0-0.1,0-0.2,0c-0.2,0-0.4-0.1-0.5-0.2c-0.1-0.1-0.2-0.3-0.2-0.4l0-0.4
			c-0.2,0.3-0.6,0.6-1,0.7c-0.4,0.2-0.8,0.3-1.2,0.3c-0.4,0-0.7-0.1-1-0.2c-0.3-0.2-0.5-0.4-0.7-0.6
			C34.9,183.9,34.8,183.6,34.8,183.2z M38.6,183.6c0.1-0.1,0.2-0.2,0.2-0.3s0.1-0.2,0.1-0.3v-0.7c-0.2-0.1-0.5-0.2-0.7-0.2
			c-0.2,0-0.5-0.1-0.7-0.1c-0.5,0-0.9,0.1-1.2,0.3c-0.3,0.2-0.5,0.5-0.5,0.8c0,0.2,0,0.4,0.1,0.5c0.1,0.2,0.2,0.3,0.4,0.4
			c0.2,0.1,0.4,0.2,0.7,0.2c0.3,0,0.6-0.1,0.9-0.2C38.2,184,38.4,183.8,38.6,183.6z"/>
		<path class="st2" d="M41.4,178.1v-1.2h1v1.2H41.4z M41.4,184.9v-5.7h1v5.7H41.4z"/>
		<path class="st2" d="M45.9,185c-0.5,0-0.9-0.1-1.3-0.2c-0.4-0.2-0.8-0.4-1.1-0.7l0.4-0.7c0.3,0.3,0.7,0.5,1,0.7
			c0.3,0.1,0.7,0.2,1,0.2c0.4,0,0.7-0.1,1-0.2c0.2-0.1,0.4-0.4,0.4-0.7c0-0.2-0.1-0.4-0.2-0.5c-0.1-0.1-0.3-0.2-0.5-0.3
			c-0.2-0.1-0.5-0.1-0.8-0.2c-0.4-0.1-0.7-0.2-1-0.4c-0.3-0.1-0.5-0.3-0.6-0.5c-0.1-0.2-0.2-0.4-0.2-0.7c0-0.4,0.1-0.7,0.3-0.9
			c0.2-0.3,0.5-0.4,0.8-0.6c0.3-0.1,0.7-0.2,1.1-0.2s0.8,0.1,1.2,0.2c0.3,0.1,0.6,0.3,0.9,0.6l-0.4,0.7c-0.2-0.2-0.5-0.4-0.7-0.5
			c-0.3-0.1-0.6-0.2-0.9-0.2c-0.2,0-0.4,0-0.6,0.1c-0.2,0-0.3,0.1-0.5,0.3c-0.1,0.1-0.2,0.3-0.2,0.5c0,0.2,0,0.3,0.1,0.4
			s0.2,0.2,0.4,0.3s0.4,0.2,0.7,0.2c0.4,0.1,0.8,0.2,1.1,0.4c0.3,0.1,0.6,0.3,0.7,0.5s0.3,0.5,0.3,0.8c0,0.5-0.2,1-0.6,1.3
			C47.1,184.8,46.5,185,45.9,185z"/>
	</g>
</g>
<g>
	<g>
		<path class="st2" d="M130.3,79.5v0.7h-3.2v-0.7h1.3V76c-0.1,0.1-0.1,0.1-0.3,0.2s-0.2,0.2-0.4,0.2s-0.3,0.1-0.4,0.2
			c-0.1,0-0.3,0.1-0.4,0.1v-0.8c0.1,0,0.3,0,0.4-0.1c0.2-0.1,0.3-0.2,0.5-0.3s0.3-0.2,0.4-0.3c0.1-0.1,0.2-0.2,0.2-0.2h0.8v4.4
			H130.3z"/>
		<path class="st2" d="M135.5,78.4c0,0.4-0.1,0.7-0.3,1c-0.2,0.3-0.5,0.5-0.8,0.7c-0.3,0.2-0.7,0.2-1.1,0.2c-0.4,0-0.8-0.1-1.1-0.3
			s-0.6-0.4-0.8-0.7c-0.2-0.3-0.3-0.6-0.3-1c0-0.3,0.1-0.5,0.2-0.7c0.1-0.2,0.3-0.4,0.5-0.5c0.2-0.1,0.4-0.3,0.6-0.3
			c-0.2-0.1-0.3-0.2-0.5-0.3c-0.1-0.1-0.3-0.3-0.4-0.4s-0.1-0.4-0.1-0.6c0-0.3,0.1-0.5,0.2-0.7s0.3-0.4,0.5-0.5
			c0.2-0.1,0.4-0.3,0.7-0.3c0.2-0.1,0.5-0.1,0.7-0.1s0.5,0,0.7,0.1c0.2,0.1,0.5,0.2,0.7,0.3c0.2,0.1,0.4,0.3,0.5,0.5
			c0.1,0.2,0.2,0.4,0.2,0.7c0,0.2,0,0.4-0.1,0.6c-0.1,0.2-0.2,0.3-0.4,0.4c-0.2,0.1-0.3,0.2-0.5,0.3c0.2,0.1,0.4,0.2,0.6,0.4
			c0.2,0.2,0.3,0.3,0.4,0.5C135.4,77.9,135.5,78.2,135.5,78.4z M134.7,78.4c0-0.2,0-0.4-0.1-0.5c-0.1-0.2-0.2-0.3-0.3-0.4
			s-0.3-0.2-0.5-0.2c-0.2-0.1-0.3-0.1-0.5-0.1c-0.2,0-0.5,0.1-0.7,0.2c-0.2,0.1-0.4,0.2-0.5,0.4c-0.1,0.2-0.2,0.4-0.2,0.7
			c0,0.2,0,0.4,0.1,0.5s0.2,0.3,0.3,0.4s0.3,0.2,0.5,0.2s0.3,0.1,0.5,0.1c0.2,0,0.5-0.1,0.7-0.2c0.2-0.1,0.4-0.2,0.5-0.4
			C134.6,78.8,134.7,78.6,134.7,78.4z M132,75.5c0,0.2,0.1,0.4,0.2,0.5c0.1,0.2,0.3,0.3,0.5,0.3c0.2,0.1,0.4,0.1,0.6,0.1
			c0.2,0,0.4,0,0.6-0.1c0.2-0.1,0.3-0.2,0.5-0.3c0.1-0.2,0.2-0.3,0.2-0.6c0-0.2-0.1-0.4-0.2-0.5c-0.1-0.1-0.3-0.3-0.5-0.3
			c-0.2-0.1-0.4-0.1-0.6-0.1c-0.2,0-0.4,0-0.6,0.1c-0.2,0.1-0.3,0.2-0.5,0.3S132,75.3,132,75.5z"/>
		<path class="st2" d="M137.6,76.4c-0.3,0-0.5-0.1-0.7-0.2c-0.2-0.1-0.4-0.3-0.5-0.5s-0.2-0.4-0.2-0.7c0-0.2,0.1-0.5,0.2-0.7
			c0.1-0.2,0.3-0.4,0.5-0.5c0.2-0.1,0.4-0.2,0.7-0.2c0.3,0,0.5,0.1,0.7,0.2c0.2,0.1,0.4,0.3,0.5,0.5c0.1,0.2,0.2,0.4,0.2,0.7
			c0,0.2-0.1,0.5-0.2,0.7s-0.3,0.4-0.5,0.5C138.1,76.4,137.9,76.4,137.6,76.4z M136.5,79.9l2.5-3l2.4-3.1l0.4,0.3l-2.5,3l-2.4,3.1
			L136.5,79.9z M137.6,76c0.1,0,0.3,0,0.4-0.1s0.2-0.2,0.3-0.3c0.1-0.1,0.1-0.3,0.1-0.4c0-0.2,0-0.3-0.1-0.4
			c-0.1-0.1-0.2-0.2-0.3-0.3c-0.1-0.1-0.3-0.1-0.4-0.1c-0.2,0-0.3,0-0.4,0.1s-0.2,0.2-0.3,0.3c-0.1,0.1-0.1,0.3-0.1,0.4
			c0,0.2,0,0.3,0.1,0.4c0.1,0.1,0.2,0.2,0.3,0.3S137.5,76,137.6,76z M140.8,80.3c-0.3,0-0.5-0.1-0.7-0.2c-0.2-0.1-0.4-0.3-0.5-0.5
			s-0.2-0.4-0.2-0.7c0-0.2,0.1-0.5,0.2-0.7c0.1-0.2,0.3-0.4,0.5-0.5c0.2-0.1,0.4-0.2,0.7-0.2s0.5,0.1,0.7,0.2
			c0.2,0.1,0.4,0.3,0.5,0.5c0.1,0.2,0.2,0.4,0.2,0.7c0,0.2-0.1,0.5-0.2,0.7s-0.3,0.4-0.5,0.5C141.3,80.2,141,80.3,140.8,80.3z
			 M140.8,79.8c0.2,0,0.3,0,0.4-0.1c0.1-0.1,0.2-0.2,0.3-0.3c0.1-0.1,0.1-0.3,0.1-0.4c0-0.2,0-0.3-0.1-0.4c-0.1-0.1-0.2-0.2-0.3-0.3
			c-0.1-0.1-0.3-0.1-0.4-0.1c-0.1,0-0.3,0-0.4,0.1c-0.1,0.1-0.2,0.2-0.3,0.3c-0.1,0.1-0.1,0.3-0.1,0.4c0,0.2,0,0.3,0.1,0.4
			c0.1,0.1,0.2,0.2,0.3,0.3C140.5,79.8,140.6,79.8,140.8,79.8z"/>
		<path class="st2" d="M104.2,90.3V91h-3.2v-0.7h1.3v-3.5c-0.1,0.1-0.1,0.1-0.3,0.2s-0.2,0.2-0.4,0.2s-0.3,0.1-0.4,0.2
			c-0.1,0-0.3,0.1-0.4,0.1v-0.8c0.1,0,0.3,0,0.4-0.1c0.2-0.1,0.3-0.2,0.5-0.3s0.3-0.2,0.4-0.3c0.1-0.1,0.2-0.2,0.2-0.2h0.8v4.4
			H104.2z"/>
		<path class="st2" d="M107.5,92.2v-1.5h-2.9v-0.7l3.1-4.1h0.5v4h0.8v0.7h-0.8v1.5H107.5z M105.4,89.9h2.2v-2.8L105.4,89.9z"/>
		<path class="st2" d="M110,86.9c0.2-0.3,0.5-0.6,0.8-0.8c0.3-0.2,0.7-0.3,1.2-0.3c0.5,0,0.9,0.1,1.2,0.3c0.3,0.2,0.6,0.5,0.8,1
			c0.2,0.4,0.3,0.9,0.3,1.5c0,0.9-0.1,1.6-0.3,2.1c-0.2,0.6-0.5,1-0.8,1.3s-0.8,0.4-1.3,0.4c-0.4,0-0.8-0.1-1.1-0.3
			s-0.6-0.5-0.8-0.8l0.5-0.5c0.1,0.3,0.3,0.5,0.6,0.7c0.3,0.2,0.5,0.3,0.9,0.3c0.3,0,0.6-0.1,0.9-0.3c0.2-0.2,0.4-0.5,0.6-0.9
			c0.1-0.4,0.2-0.8,0.2-1.4c-0.1,0.2-0.2,0.4-0.4,0.5c-0.2,0.2-0.4,0.3-0.6,0.4s-0.5,0.1-0.7,0.1c-0.4,0-0.8-0.1-1.1-0.3
			s-0.6-0.5-0.8-0.8c-0.2-0.3-0.3-0.7-0.3-1.1C109.7,87.6,109.8,87.2,110,86.9z M111.2,86.6c-0.2,0.1-0.4,0.3-0.6,0.6
			c-0.1,0.2-0.2,0.5-0.2,0.8c0,0.3,0.1,0.5,0.2,0.8c0.1,0.2,0.3,0.4,0.6,0.6c0.2,0.1,0.5,0.2,0.8,0.2c0.3,0,0.5-0.1,0.8-0.2
			c0.2-0.1,0.4-0.3,0.5-0.6c0.1-0.2,0.2-0.5,0.2-0.8c0-0.3-0.1-0.5-0.2-0.8c-0.1-0.2-0.3-0.4-0.6-0.6s-0.5-0.2-0.8-0.2
			S111.5,86.5,111.2,86.6z"/>
		<path class="st2" d="M124.7,91h-0.8v-2.6c0-0.5-0.1-0.8-0.2-1.1S123.3,87,123,87c-0.3,0-0.6,0.1-0.9,0.3c-0.3,0.2-0.4,0.5-0.5,0.9
			V91h-0.8v-2.6c0-0.5-0.1-0.9-0.2-1.1c-0.2-0.2-0.4-0.3-0.7-0.3c-0.3,0-0.6,0.1-0.9,0.3c-0.3,0.2-0.4,0.5-0.6,0.9V91h-0.8v-4.7h0.7
			v1c0.2-0.3,0.4-0.6,0.7-0.8c0.3-0.2,0.7-0.3,1-0.3c0.4,0,0.7,0.1,0.9,0.3c0.2,0.2,0.4,0.5,0.4,0.8c0.2-0.4,0.5-0.7,0.8-0.8
			s0.6-0.3,1-0.3c0.3,0,0.5,0,0.7,0.1s0.3,0.2,0.4,0.4s0.2,0.4,0.2,0.6s0.1,0.5,0.1,0.8V91z"/>
		<path class="st2" d="M125.9,85.4v-1h0.8v1H125.9z M125.9,91v-4.7h0.8V91H125.9z"/>
		<path class="st2" d="M128,84.5h0.8v5.4c0,0.3,0,0.4,0.1,0.5c0.1,0.1,0.2,0.1,0.3,0.1c0.1,0,0.2,0,0.4,0c0.1,0,0.2-0.1,0.3-0.1
			l0.1,0.6c-0.1,0.1-0.3,0.1-0.5,0.1c-0.2,0-0.3,0.1-0.5,0.1c-0.3,0-0.5-0.1-0.7-0.3c-0.2-0.2-0.3-0.4-0.3-0.7V84.5z"/>
		<path class="st2" d="M136.9,91h-0.8v-2.6c0-0.5-0.1-0.8-0.3-1.1c-0.2-0.2-0.4-0.4-0.7-0.4c-0.2,0-0.4,0.1-0.6,0.2
			c-0.2,0.1-0.4,0.3-0.5,0.4c-0.2,0.2-0.3,0.4-0.3,0.6V91h-0.8v-6.6h0.8v2.9c0.2-0.3,0.4-0.6,0.8-0.8s0.7-0.3,1-0.3
			c0.3,0,0.5,0,0.7,0.1c0.2,0.1,0.3,0.2,0.5,0.4s0.2,0.4,0.2,0.6c0.1,0.2,0.1,0.5,0.1,0.8V91z"/>
		<path class="st2" d="M137.8,89.7c0-0.3,0.1-0.6,0.3-0.8c0.2-0.2,0.4-0.4,0.7-0.5c0.3-0.1,0.6-0.2,1-0.2c0.2,0,0.4,0,0.7,0
			c0.2,0,0.4,0.1,0.6,0.1v-0.3c0-0.4-0.1-0.6-0.3-0.8s-0.5-0.3-0.9-0.3c-0.3,0-0.5,0-0.7,0.1c-0.2,0.1-0.5,0.2-0.8,0.4l-0.3-0.6
			c0.3-0.2,0.6-0.4,0.9-0.5c0.3-0.1,0.6-0.2,1-0.2c0.6,0,1.1,0.2,1.4,0.5c0.3,0.3,0.5,0.8,0.5,1.4v2c0,0.1,0,0.2,0.1,0.2
			c0,0,0.1,0.1,0.2,0.1V91c-0.1,0-0.1,0-0.2,0c-0.1,0-0.1,0-0.1,0c-0.2,0-0.3-0.1-0.4-0.2c-0.1-0.1-0.1-0.2-0.2-0.3l0-0.3
			c-0.2,0.3-0.5,0.5-0.8,0.6s-0.7,0.2-1,0.2c-0.3,0-0.6-0.1-0.8-0.2c-0.2-0.1-0.4-0.3-0.6-0.5C137.9,90.2,137.8,89.9,137.8,89.7z
			 M140.8,90c0.1-0.1,0.1-0.2,0.2-0.3c0-0.1,0.1-0.2,0.1-0.2V89c-0.2-0.1-0.4-0.1-0.6-0.2c-0.2,0-0.4-0.1-0.6-0.1
			c-0.4,0-0.7,0.1-1,0.2c-0.2,0.2-0.4,0.4-0.4,0.6c0,0.1,0,0.3,0.1,0.4c0.1,0.1,0.2,0.3,0.4,0.3c0.2,0.1,0.4,0.1,0.6,0.1
			c0.2,0,0.5,0,0.7-0.1C140.5,90.3,140.7,90.2,140.8,90z"/>
	</g>
</g>
<g>
	<g>
		<path class="st2" d="M244.4,80.2c0-0.2,0-0.5,0.1-0.7s0.1-0.4,0.2-0.6c0.1-0.2,0.3-0.4,0.4-0.6c0.2-0.2,0.4-0.4,0.7-0.5
			c0.2-0.1,0.4-0.2,0.5-0.3c0.2-0.1,0.4-0.2,0.5-0.3c0.2-0.1,0.3-0.2,0.4-0.3c0.1-0.1,0.1-0.3,0.1-0.4c0-0.1,0-0.3-0.1-0.4
			c-0.1-0.1-0.2-0.2-0.4-0.3c-0.2-0.1-0.4-0.1-0.6-0.1c-0.2,0-0.3,0-0.5,0.1c-0.1,0-0.3,0.1-0.4,0.2s-0.2,0.2-0.3,0.2
			s-0.2,0.2-0.2,0.2l-0.5-0.6c0-0.1,0.1-0.1,0.2-0.2c0.1-0.1,0.3-0.2,0.4-0.3s0.4-0.2,0.6-0.2c0.2-0.1,0.5-0.1,0.8-0.1
			c0.4,0,0.7,0.1,1,0.2c0.3,0.1,0.5,0.3,0.6,0.5c0.1,0.2,0.2,0.5,0.2,0.7c0,0.2,0,0.4-0.1,0.6c-0.1,0.2-0.2,0.3-0.4,0.5
			c-0.2,0.1-0.3,0.2-0.5,0.3s-0.3,0.2-0.4,0.2c-0.3,0.1-0.5,0.3-0.7,0.4c-0.2,0.1-0.3,0.2-0.5,0.3c-0.1,0.1-0.2,0.2-0.3,0.3
			c-0.1,0.1-0.1,0.3-0.2,0.4h3.2v0.7H244.4z"/>
		<path class="st2" d="M253.6,79.2c-0.2,0.3-0.5,0.6-0.8,0.8c-0.3,0.2-0.7,0.3-1.2,0.3c-0.5,0-0.9-0.1-1.2-0.3
			c-0.3-0.2-0.6-0.5-0.8-0.9c-0.2-0.4-0.3-0.9-0.3-1.5c0-0.8,0.1-1.5,0.3-2.1c0.2-0.6,0.5-1,0.8-1.3c0.4-0.3,0.8-0.4,1.3-0.4
			c0.4,0,0.8,0.1,1.1,0.3c0.3,0.2,0.6,0.5,0.8,0.8l-0.5,0.5c-0.1-0.3-0.3-0.5-0.6-0.7s-0.5-0.2-0.9-0.2c-0.3,0-0.6,0.1-0.9,0.3
			c-0.2,0.2-0.4,0.5-0.6,0.9s-0.2,0.8-0.2,1.3c0.1-0.2,0.2-0.4,0.4-0.5c0.2-0.2,0.4-0.3,0.6-0.4c0.2-0.1,0.5-0.1,0.7-0.1
			c0.4,0,0.8,0.1,1.1,0.3s0.6,0.5,0.8,0.8c0.2,0.3,0.3,0.7,0.3,1.1C253.9,78.5,253.8,78.9,253.6,79.2z M252.4,79.4
			c0.2-0.1,0.4-0.3,0.6-0.6c0.1-0.2,0.2-0.5,0.2-0.8c0-0.3-0.1-0.5-0.2-0.8c-0.1-0.2-0.3-0.4-0.6-0.5c-0.2-0.1-0.5-0.2-0.8-0.2
			s-0.5,0.1-0.8,0.2c-0.2,0.1-0.4,0.3-0.6,0.5c-0.1,0.2-0.2,0.5-0.2,0.8c0,0.3,0.1,0.5,0.2,0.8c0.1,0.2,0.3,0.4,0.6,0.6
			c0.2,0.1,0.5,0.2,0.8,0.2S252.1,79.6,252.4,79.4z"/>
		<path class="st2" d="M256,76.4c-0.3,0-0.5-0.1-0.7-0.2c-0.2-0.1-0.4-0.3-0.5-0.5s-0.2-0.4-0.2-0.7c0-0.2,0.1-0.5,0.2-0.7
			c0.1-0.2,0.3-0.4,0.5-0.5c0.2-0.1,0.4-0.2,0.7-0.2c0.3,0,0.5,0.1,0.7,0.2c0.2,0.1,0.4,0.3,0.5,0.5c0.1,0.2,0.2,0.4,0.2,0.7
			c0,0.2-0.1,0.5-0.2,0.7s-0.3,0.4-0.5,0.5C256.5,76.4,256.3,76.4,256,76.4z M254.9,79.9l2.5-3l2.4-3.1l0.4,0.3l-2.5,3l-2.4,3.1
			L254.9,79.9z M256,76c0.1,0,0.3,0,0.4-0.1s0.2-0.2,0.3-0.3c0.1-0.1,0.1-0.3,0.1-0.4c0-0.2,0-0.3-0.1-0.4c-0.1-0.1-0.2-0.2-0.3-0.3
			c-0.1-0.1-0.3-0.1-0.4-0.1c-0.2,0-0.3,0-0.4,0.1s-0.2,0.2-0.3,0.3c-0.1,0.1-0.1,0.3-0.1,0.4c0,0.2,0,0.3,0.1,0.4
			c0.1,0.1,0.2,0.2,0.3,0.3S255.9,76,256,76z M259.2,80.3c-0.3,0-0.5-0.1-0.7-0.2c-0.2-0.1-0.4-0.3-0.5-0.5s-0.2-0.4-0.2-0.7
			c0-0.2,0.1-0.5,0.2-0.7c0.1-0.2,0.3-0.4,0.5-0.5c0.2-0.1,0.4-0.2,0.7-0.2s0.5,0.1,0.7,0.2c0.2,0.1,0.4,0.3,0.5,0.5
			c0.1,0.2,0.2,0.4,0.2,0.7c0,0.2-0.1,0.5-0.2,0.7s-0.3,0.4-0.5,0.5C259.7,80.2,259.4,80.3,259.2,80.3z M259.2,79.8
			c0.2,0,0.3,0,0.4-0.1c0.1-0.1,0.2-0.2,0.3-0.3c0.1-0.1,0.1-0.3,0.1-0.4c0-0.2,0-0.3-0.1-0.4c-0.1-0.1-0.2-0.2-0.3-0.3
			c-0.1-0.1-0.3-0.1-0.4-0.1c-0.1,0-0.3,0-0.4,0.1c-0.1,0.1-0.2,0.2-0.3,0.3c-0.1,0.1-0.1,0.3-0.1,0.4c0,0.2,0,0.3,0.1,0.4
			c0.1,0.1,0.2,0.2,0.3,0.3C258.9,79.8,259,79.8,259.2,79.8z"/>
		<path class="st2" d="M217.7,91c0-0.2,0-0.5,0.1-0.7s0.1-0.4,0.2-0.6c0.1-0.2,0.3-0.4,0.4-0.6c0.2-0.2,0.4-0.4,0.7-0.5
			c0.2-0.1,0.4-0.2,0.5-0.3c0.2-0.1,0.4-0.2,0.5-0.3c0.2-0.1,0.3-0.2,0.4-0.3c0.1-0.1,0.1-0.3,0.1-0.4c0-0.1,0-0.3-0.1-0.4
			c-0.1-0.1-0.2-0.2-0.4-0.3c-0.2-0.1-0.4-0.1-0.6-0.1c-0.2,0-0.3,0-0.5,0.1c-0.1,0-0.3,0.1-0.4,0.2s-0.2,0.2-0.3,0.2
			s-0.2,0.2-0.2,0.2l-0.5-0.6c0-0.1,0.1-0.1,0.2-0.2c0.1-0.1,0.3-0.2,0.4-0.3c0.2-0.1,0.4-0.2,0.6-0.2c0.2-0.1,0.5-0.1,0.8-0.1
			c0.4,0,0.7,0.1,1,0.2c0.3,0.1,0.5,0.3,0.6,0.5c0.1,0.2,0.2,0.5,0.2,0.7c0,0.2,0,0.4-0.1,0.6c-0.1,0.2-0.2,0.3-0.4,0.5
			c-0.2,0.1-0.3,0.2-0.5,0.3s-0.3,0.2-0.4,0.2c-0.3,0.1-0.5,0.3-0.7,0.4c-0.2,0.1-0.3,0.2-0.5,0.3s-0.2,0.2-0.3,0.3
			s-0.1,0.3-0.2,0.4h3.2V91H217.7z"/>
		<path class="st2" d="M227.1,88.4c0,0.5-0.1,1-0.3,1.4c-0.2,0.4-0.5,0.7-0.8,1s-0.7,0.3-1.2,0.3s-0.8-0.1-1.2-0.3s-0.6-0.5-0.8-1
			c-0.2-0.4-0.3-0.9-0.3-1.4c0-0.5,0.1-1,0.3-1.4c0.2-0.4,0.5-0.7,0.8-1s0.7-0.4,1.2-0.4s0.8,0.1,1.2,0.4s0.6,0.6,0.8,1
			C227,87.4,227.1,87.9,227.1,88.4z M226.3,88.4c0-0.4-0.1-0.7-0.2-1c-0.1-0.3-0.3-0.5-0.5-0.7c-0.2-0.2-0.5-0.2-0.8-0.2
			c-0.3,0-0.6,0.1-0.8,0.2c-0.2,0.2-0.4,0.4-0.5,0.7c-0.1,0.3-0.2,0.6-0.2,1c0,0.4,0.1,0.7,0.2,1s0.3,0.5,0.5,0.7
			c0.2,0.2,0.5,0.2,0.8,0.2c0.3,0,0.5-0.1,0.8-0.2c0.2-0.2,0.4-0.4,0.5-0.7S226.3,88.8,226.3,88.4z"/>
		<path class="st2" d="M232.4,90c-0.2,0.3-0.5,0.6-0.8,0.8c-0.3,0.2-0.7,0.3-1.2,0.3c-0.5,0-0.9-0.1-1.2-0.3
			c-0.3-0.2-0.6-0.5-0.8-0.9c-0.2-0.4-0.3-0.9-0.3-1.5c0-0.8,0.1-1.5,0.3-2.1c0.2-0.6,0.5-1,0.8-1.3c0.4-0.3,0.8-0.4,1.3-0.4
			c0.4,0,0.8,0.1,1.1,0.3c0.3,0.2,0.6,0.5,0.8,0.8l-0.5,0.5c-0.1-0.3-0.3-0.5-0.6-0.7s-0.5-0.2-0.9-0.2c-0.3,0-0.6,0.1-0.9,0.3
			c-0.2,0.2-0.4,0.5-0.6,0.9s-0.2,0.8-0.2,1.3c0.1-0.2,0.2-0.4,0.4-0.5c0.2-0.2,0.4-0.3,0.6-0.4c0.2-0.1,0.5-0.1,0.7-0.1
			c0.4,0,0.8,0.1,1.1,0.3s0.6,0.5,0.8,0.8c0.2,0.3,0.3,0.7,0.3,1.1C232.7,89.3,232.6,89.7,232.4,90z M231.2,90.2
			c0.2-0.1,0.4-0.3,0.6-0.6c0.1-0.2,0.2-0.5,0.2-0.8c0-0.3-0.1-0.5-0.2-0.8c-0.1-0.2-0.3-0.4-0.6-0.5c-0.2-0.1-0.5-0.2-0.8-0.2
			s-0.5,0.1-0.8,0.2c-0.2,0.1-0.4,0.3-0.6,0.5c-0.1,0.2-0.2,0.5-0.2,0.8c0,0.3,0.1,0.5,0.2,0.8c0.1,0.2,0.3,0.4,0.6,0.6
			c0.2,0.1,0.5,0.2,0.8,0.2S230.9,90.4,231.2,90.2z"/>
		<path class="st2" d="M243.1,91h-0.8v-2.6c0-0.5-0.1-0.8-0.2-1.1s-0.4-0.3-0.7-0.3c-0.3,0-0.6,0.1-0.9,0.3
			c-0.3,0.2-0.4,0.5-0.5,0.9V91h-0.8v-2.6c0-0.5-0.1-0.9-0.2-1.1s-0.4-0.3-0.7-0.3c-0.3,0-0.6,0.1-0.9,0.3c-0.3,0.2-0.4,0.5-0.6,0.9
			V91H236v-4.7h0.7v1c0.2-0.3,0.4-0.6,0.7-0.8c0.3-0.2,0.7-0.3,1-0.3c0.4,0,0.7,0.1,0.9,0.3c0.2,0.2,0.4,0.5,0.4,0.8
			c0.2-0.4,0.5-0.7,0.8-0.8s0.6-0.3,1-0.3c0.3,0,0.5,0,0.7,0.1c0.2,0.1,0.3,0.2,0.4,0.4c0.1,0.2,0.2,0.4,0.2,0.6s0.1,0.5,0.1,0.8V91
			z"/>
		<path class="st2" d="M244.3,85.4v-1h0.8v1H244.3z M244.3,91v-4.7h0.8V91H244.3z"/>
		<path class="st2" d="M246.4,84.5h0.8v5.4c0,0.3,0,0.4,0.1,0.5c0.1,0.1,0.2,0.1,0.3,0.1c0.1,0,0.2,0,0.4,0c0.1,0,0.2-0.1,0.3-0.1
			l0.1,0.6c-0.1,0.1-0.3,0.1-0.5,0.1c-0.2,0-0.3,0.1-0.5,0.1c-0.3,0-0.5-0.1-0.7-0.3c-0.2-0.2-0.3-0.4-0.3-0.7V84.5z"/>
		<path class="st2" d="M255.3,91h-0.8v-2.6c0-0.5-0.1-0.8-0.3-1.1c-0.2-0.2-0.4-0.4-0.7-0.4c-0.2,0-0.4,0.1-0.6,0.2
			c-0.2,0.1-0.4,0.3-0.5,0.4c-0.2,0.2-0.3,0.4-0.3,0.6V91h-0.8v-6.6h0.8v2.9c0.2-0.3,0.4-0.6,0.8-0.8c0.3-0.2,0.7-0.3,1-0.3
			c0.3,0,0.5,0,0.7,0.1c0.2,0.1,0.3,0.2,0.5,0.4s0.2,0.4,0.2,0.6c0.1,0.2,0.1,0.5,0.1,0.8V91z"/>
		<path class="st2" d="M256.2,89.7c0-0.3,0.1-0.6,0.3-0.8c0.2-0.2,0.4-0.4,0.7-0.5c0.3-0.1,0.6-0.2,1-0.2c0.2,0,0.4,0,0.7,0
			c0.2,0,0.4,0.1,0.6,0.1v-0.3c0-0.4-0.1-0.6-0.3-0.8s-0.5-0.3-0.9-0.3c-0.3,0-0.5,0-0.7,0.1c-0.2,0.1-0.5,0.2-0.8,0.4l-0.3-0.6
			c0.3-0.2,0.6-0.4,0.9-0.5c0.3-0.1,0.6-0.2,1-0.2c0.6,0,1.1,0.2,1.4,0.5c0.3,0.3,0.5,0.8,0.5,1.4v2c0,0.1,0,0.2,0.1,0.2
			c0,0,0.1,0.1,0.2,0.1V91c-0.1,0-0.1,0-0.2,0c-0.1,0-0.1,0-0.1,0c-0.2,0-0.3-0.1-0.4-0.2c-0.1-0.1-0.1-0.2-0.2-0.3l0-0.3
			c-0.2,0.3-0.5,0.5-0.8,0.6s-0.7,0.2-1,0.2c-0.3,0-0.6-0.1-0.8-0.2c-0.2-0.1-0.4-0.3-0.6-0.5C256.2,90.2,256.2,89.9,256.2,89.7z
			 M259.2,90c0.1-0.1,0.1-0.2,0.2-0.3c0-0.1,0.1-0.2,0.1-0.2V89c-0.2-0.1-0.4-0.1-0.6-0.2c-0.2,0-0.4-0.1-0.6-0.1
			c-0.4,0-0.7,0.1-1,0.2c-0.2,0.2-0.4,0.4-0.4,0.6c0,0.1,0,0.3,0.1,0.4c0.1,0.1,0.2,0.3,0.4,0.3c0.2,0.1,0.4,0.1,0.6,0.1
			c0.2,0,0.5,0,0.7-0.1C258.9,90.3,259.1,90.2,259.2,90z"/>
	</g>
</g>
<g>
	<g>
		<path class="st2" d="M161.7,133.1c0-0.2,0-0.5,0.1-0.7c0-0.2,0.1-0.4,0.2-0.6c0.1-0.2,0.3-0.4,0.4-0.6c0.2-0.2,0.4-0.4,0.7-0.5
			c0.2-0.1,0.4-0.2,0.5-0.3c0.2-0.1,0.4-0.2,0.5-0.3c0.2-0.1,0.3-0.2,0.4-0.3c0.1-0.1,0.1-0.3,0.1-0.4c0-0.1,0-0.3-0.1-0.4
			c-0.1-0.1-0.2-0.2-0.4-0.3c-0.2-0.1-0.4-0.1-0.6-0.1c-0.2,0-0.3,0-0.5,0.1c-0.1,0-0.3,0.1-0.4,0.2s-0.2,0.2-0.3,0.2
			s-0.2,0.2-0.2,0.2l-0.5-0.6c0-0.1,0.1-0.1,0.2-0.2c0.1-0.1,0.3-0.2,0.4-0.3c0.2-0.1,0.4-0.2,0.6-0.2c0.2-0.1,0.5-0.1,0.8-0.1
			c0.4,0,0.7,0.1,1,0.2c0.3,0.1,0.5,0.3,0.6,0.5c0.1,0.2,0.2,0.5,0.2,0.7c0,0.2,0,0.4-0.1,0.6c-0.1,0.2-0.2,0.3-0.4,0.5
			c-0.2,0.1-0.3,0.2-0.5,0.3c-0.2,0.1-0.3,0.2-0.4,0.2c-0.3,0.1-0.5,0.3-0.7,0.4c-0.2,0.1-0.3,0.2-0.5,0.3s-0.2,0.2-0.3,0.3
			c-0.1,0.1-0.1,0.3-0.2,0.4h3.2v0.7H161.7z"/>
		<path class="st2" d="M171.1,131.3c0,0.4-0.1,0.7-0.3,1c-0.2,0.3-0.5,0.5-0.8,0.7c-0.3,0.2-0.7,0.2-1.1,0.2c-0.4,0-0.8-0.1-1.1-0.3
			c-0.3-0.2-0.6-0.4-0.8-0.7c-0.2-0.3-0.3-0.6-0.3-1c0-0.3,0.1-0.5,0.2-0.7c0.1-0.2,0.3-0.4,0.5-0.5s0.4-0.3,0.6-0.3
			c-0.2-0.1-0.3-0.2-0.5-0.3c-0.1-0.1-0.3-0.3-0.4-0.4c-0.1-0.2-0.1-0.4-0.1-0.6c0-0.3,0.1-0.5,0.2-0.7c0.1-0.2,0.3-0.4,0.5-0.5
			c0.2-0.1,0.4-0.3,0.7-0.3s0.5-0.1,0.7-0.1c0.2,0,0.5,0,0.7,0.1c0.2,0.1,0.5,0.2,0.7,0.3c0.2,0.1,0.4,0.3,0.5,0.5
			c0.1,0.2,0.2,0.4,0.2,0.7c0,0.2,0,0.4-0.1,0.6s-0.2,0.3-0.4,0.4c-0.2,0.1-0.3,0.2-0.5,0.3c0.2,0.1,0.4,0.2,0.6,0.4
			c0.2,0.2,0.3,0.3,0.4,0.5C171,130.8,171.1,131,171.1,131.3z M170.3,131.2c0-0.2,0-0.4-0.1-0.5s-0.2-0.3-0.3-0.4
			c-0.1-0.1-0.3-0.2-0.5-0.2c-0.2-0.1-0.3-0.1-0.5-0.1c-0.2,0-0.5,0.1-0.7,0.2s-0.4,0.2-0.5,0.4c-0.1,0.2-0.2,0.4-0.2,0.7
			c0,0.2,0,0.4,0.1,0.5s0.2,0.3,0.3,0.4c0.1,0.1,0.3,0.2,0.5,0.2c0.2,0.1,0.3,0.1,0.5,0.1c0.2,0,0.5-0.1,0.7-0.2
			c0.2-0.1,0.4-0.2,0.5-0.4C170.2,131.7,170.3,131.5,170.3,131.2z M167.6,128.4c0,0.2,0.1,0.4,0.2,0.5c0.1,0.2,0.3,0.3,0.5,0.3
			c0.2,0.1,0.4,0.1,0.6,0.1c0.2,0,0.4,0,0.6-0.1c0.2-0.1,0.3-0.2,0.5-0.3s0.2-0.3,0.2-0.6c0-0.2-0.1-0.4-0.2-0.5
			c-0.1-0.1-0.3-0.3-0.5-0.3c-0.2-0.1-0.4-0.1-0.6-0.1c-0.2,0-0.4,0-0.6,0.1c-0.2,0.1-0.3,0.2-0.5,0.3
			C167.7,128,167.6,128.2,167.6,128.4z"/>
		<path class="st2" d="M173.3,129.3c-0.3,0-0.5-0.1-0.7-0.2c-0.2-0.1-0.4-0.3-0.5-0.5s-0.2-0.4-0.2-0.7c0-0.2,0.1-0.5,0.2-0.7
			s0.3-0.4,0.5-0.5s0.4-0.2,0.7-0.2c0.3,0,0.5,0.1,0.7,0.2s0.4,0.3,0.5,0.5s0.2,0.4,0.2,0.7c0,0.2-0.1,0.5-0.2,0.7s-0.3,0.4-0.5,0.5
			C173.8,129.2,173.5,129.3,173.3,129.3z M172.2,132.7l2.5-3l2.4-3.1l0.4,0.3l-2.5,3l-2.4,3.1L172.2,132.7z M173.3,128.8
			c0.2,0,0.3,0,0.4-0.1s0.2-0.2,0.3-0.3s0.1-0.3,0.1-0.4c0-0.2,0-0.3-0.1-0.4c-0.1-0.1-0.2-0.2-0.3-0.3c-0.1-0.1-0.3-0.1-0.4-0.1
			c-0.2,0-0.3,0-0.4,0.1s-0.2,0.2-0.3,0.3s-0.1,0.3-0.1,0.4c0,0.2,0,0.3,0.1,0.4c0.1,0.1,0.2,0.2,0.3,0.3S173.1,128.8,173.3,128.8z
			 M176.4,133.1c-0.3,0-0.5-0.1-0.7-0.2s-0.4-0.3-0.5-0.5s-0.2-0.4-0.2-0.7c0-0.2,0.1-0.5,0.2-0.7c0.1-0.2,0.3-0.4,0.5-0.5
			c0.2-0.1,0.4-0.2,0.7-0.2s0.5,0.1,0.7,0.2c0.2,0.1,0.4,0.3,0.5,0.5c0.1,0.2,0.2,0.4,0.2,0.7c0,0.2-0.1,0.5-0.2,0.7
			s-0.3,0.4-0.5,0.5S176.7,133.1,176.4,133.1z M176.4,132.7c0.1,0,0.3,0,0.4-0.1s0.2-0.2,0.3-0.3c0.1-0.1,0.1-0.3,0.1-0.4
			c0-0.2,0-0.3-0.1-0.4s-0.2-0.2-0.3-0.3s-0.3-0.1-0.4-0.1c-0.2,0-0.3,0-0.4,0.1c-0.1,0.1-0.2,0.2-0.3,0.3c-0.1,0.1-0.1,0.3-0.1,0.4
			c0,0.2,0,0.3,0.1,0.4c0.1,0.1,0.2,0.2,0.3,0.3S176.3,132.7,176.4,132.7z"/>
		<path class="st2" d="M135.8,143.9c0-0.2,0-0.5,0.1-0.7c0-0.2,0.1-0.4,0.2-0.6c0.1-0.2,0.3-0.4,0.4-0.6c0.2-0.2,0.4-0.4,0.7-0.5
			c0.2-0.1,0.4-0.2,0.5-0.3c0.2-0.1,0.4-0.2,0.5-0.3c0.2-0.1,0.3-0.2,0.4-0.3c0.1-0.1,0.1-0.3,0.1-0.4c0-0.1,0-0.3-0.1-0.4
			s-0.2-0.2-0.4-0.3c-0.2-0.1-0.4-0.1-0.6-0.1c-0.2,0-0.3,0-0.5,0.1c-0.1,0-0.3,0.1-0.4,0.2s-0.2,0.2-0.3,0.2s-0.2,0.2-0.2,0.2
			l-0.5-0.6c0-0.1,0.1-0.1,0.2-0.2s0.3-0.2,0.4-0.3c0.2-0.1,0.4-0.2,0.6-0.2c0.2-0.1,0.5-0.1,0.8-0.1c0.4,0,0.7,0.1,1,0.2
			c0.3,0.1,0.5,0.3,0.6,0.5c0.1,0.2,0.2,0.5,0.2,0.7c0,0.2,0,0.4-0.1,0.6c-0.1,0.2-0.2,0.3-0.4,0.5s-0.3,0.2-0.5,0.3
			c-0.2,0.1-0.3,0.2-0.4,0.2c-0.3,0.1-0.5,0.3-0.7,0.4c-0.2,0.1-0.3,0.2-0.5,0.3s-0.2,0.2-0.3,0.3c-0.1,0.1-0.1,0.3-0.2,0.4h3.2v0.7
			H135.8z"/>
		<path class="st2" d="M140.6,143.9c0-0.2,0-0.5,0.1-0.7c0-0.2,0.1-0.4,0.2-0.6c0.1-0.2,0.3-0.4,0.4-0.6c0.2-0.2,0.4-0.4,0.7-0.5
			c0.2-0.1,0.4-0.2,0.5-0.3c0.2-0.1,0.4-0.2,0.5-0.3s0.3-0.2,0.4-0.3c0.1-0.1,0.1-0.3,0.1-0.4c0-0.1,0-0.3-0.1-0.4s-0.2-0.2-0.4-0.3
			c-0.2-0.1-0.4-0.1-0.6-0.1c-0.2,0-0.3,0-0.5,0.1c-0.1,0-0.3,0.1-0.4,0.2s-0.2,0.2-0.3,0.2s-0.2,0.2-0.2,0.2l-0.5-0.6
			c0-0.1,0.1-0.1,0.2-0.2c0.1-0.1,0.3-0.2,0.4-0.3c0.2-0.1,0.4-0.2,0.6-0.2c0.2-0.1,0.5-0.1,0.8-0.1c0.4,0,0.7,0.1,1,0.2
			c0.3,0.1,0.5,0.3,0.6,0.5c0.1,0.2,0.2,0.5,0.2,0.7c0,0.2,0,0.4-0.1,0.6c-0.1,0.2-0.2,0.3-0.4,0.5c-0.2,0.1-0.3,0.2-0.5,0.3
			c-0.2,0.1-0.3,0.2-0.4,0.2c-0.3,0.1-0.5,0.3-0.7,0.4c-0.2,0.1-0.3,0.2-0.5,0.3c-0.1,0.1-0.2,0.2-0.3,0.3c-0.1,0.1-0.1,0.3-0.2,0.4
			h3.2v0.7H140.6z"/>
		<path class="st2" d="M145.7,139.7c0.2-0.3,0.5-0.6,0.8-0.8c0.3-0.2,0.7-0.3,1.2-0.3c0.5,0,0.9,0.1,1.2,0.3c0.3,0.2,0.6,0.5,0.8,1
			c0.2,0.4,0.3,0.9,0.3,1.5c0,0.9-0.1,1.6-0.3,2.1c-0.2,0.6-0.5,1-0.8,1.3c-0.4,0.3-0.8,0.4-1.3,0.4c-0.4,0-0.8-0.1-1.1-0.3
			s-0.6-0.5-0.8-0.8l0.5-0.5c0.1,0.3,0.3,0.5,0.6,0.7s0.5,0.3,0.9,0.3c0.3,0,0.6-0.1,0.9-0.3c0.2-0.2,0.4-0.5,0.6-0.9
			c0.1-0.4,0.2-0.8,0.2-1.4c-0.1,0.2-0.2,0.4-0.4,0.5c-0.2,0.2-0.4,0.3-0.6,0.4s-0.5,0.1-0.7,0.1c-0.4,0-0.8-0.1-1.1-0.3
			s-0.6-0.5-0.8-0.8c-0.2-0.3-0.3-0.7-0.3-1.1C145.4,140.4,145.5,140,145.7,139.7z M146.9,139.5c-0.2,0.1-0.4,0.3-0.6,0.6
			s-0.2,0.5-0.2,0.8c0,0.3,0.1,0.5,0.2,0.8c0.1,0.2,0.3,0.4,0.6,0.6c0.2,0.1,0.5,0.2,0.8,0.2c0.3,0,0.5-0.1,0.8-0.2
			c0.2-0.1,0.4-0.3,0.5-0.6c0.1-0.2,0.2-0.5,0.2-0.8s-0.1-0.5-0.2-0.8s-0.3-0.4-0.6-0.6c-0.2-0.1-0.5-0.2-0.8-0.2
			C147.4,139.3,147.1,139.3,146.9,139.5z"/>
		<path class="st2" d="M160.3,143.9h-0.8v-2.6c0-0.5-0.1-0.8-0.2-1.1c-0.2-0.2-0.4-0.3-0.7-0.3c-0.3,0-0.6,0.1-0.9,0.3
			c-0.3,0.2-0.4,0.5-0.5,0.9v2.8h-0.8v-2.6c0-0.5-0.1-0.9-0.2-1.1c-0.2-0.2-0.4-0.3-0.7-0.3c-0.3,0-0.6,0.1-0.9,0.3
			s-0.4,0.5-0.6,0.9v2.8h-0.8v-4.7h0.7v1c0.2-0.3,0.4-0.6,0.7-0.8c0.3-0.2,0.7-0.3,1-0.3c0.4,0,0.7,0.1,0.9,0.3
			c0.2,0.2,0.4,0.5,0.4,0.8c0.2-0.4,0.5-0.7,0.8-0.8s0.6-0.3,1-0.3c0.3,0,0.5,0,0.7,0.1c0.2,0.1,0.3,0.2,0.4,0.4
			c0.1,0.2,0.2,0.4,0.2,0.6s0.1,0.5,0.1,0.8V143.9z"/>
		<path class="st2" d="M161.6,138.3v-1h0.8v1H161.6z M161.6,143.9v-4.7h0.8v4.7H161.6z"/>
		<path class="st2" d="M163.7,137.3h0.8v5.4c0,0.3,0,0.4,0.1,0.5s0.2,0.1,0.3,0.1c0.1,0,0.2,0,0.4,0s0.2-0.1,0.3-0.1l0.1,0.6
			c-0.1,0.1-0.3,0.1-0.5,0.1c-0.2,0-0.3,0.1-0.5,0.1c-0.3,0-0.5-0.1-0.7-0.3c-0.2-0.2-0.3-0.4-0.3-0.7V137.3z"/>
		<path class="st2" d="M172.6,143.9h-0.8v-2.6c0-0.5-0.1-0.8-0.3-1.1s-0.4-0.4-0.7-0.4c-0.2,0-0.4,0.1-0.6,0.2
			c-0.2,0.1-0.4,0.3-0.5,0.4s-0.3,0.4-0.3,0.6v2.8h-0.8v-6.6h0.8v2.9c0.2-0.3,0.4-0.6,0.8-0.8c0.3-0.2,0.7-0.3,1-0.3
			c0.3,0,0.5,0,0.7,0.1c0.2,0.1,0.3,0.2,0.5,0.4s0.2,0.4,0.2,0.6c0.1,0.2,0.1,0.5,0.1,0.8V143.9z"/>
		<path class="st2" d="M173.4,142.5c0-0.3,0.1-0.6,0.3-0.8c0.2-0.2,0.4-0.4,0.7-0.5s0.6-0.2,1-0.2c0.2,0,0.4,0,0.7,0
			c0.2,0,0.4,0.1,0.6,0.1v-0.3c0-0.4-0.1-0.6-0.3-0.8s-0.5-0.3-0.9-0.3c-0.3,0-0.5,0-0.7,0.1c-0.2,0.1-0.5,0.2-0.8,0.4l-0.3-0.6
			c0.3-0.2,0.6-0.4,0.9-0.5c0.3-0.1,0.6-0.2,1-0.2c0.6,0,1.1,0.2,1.4,0.5c0.3,0.3,0.5,0.8,0.5,1.4v2c0,0.1,0,0.2,0.1,0.2
			s0.1,0.1,0.2,0.1v0.6c-0.1,0-0.1,0-0.2,0c-0.1,0-0.1,0-0.1,0c-0.2,0-0.3-0.1-0.4-0.2c-0.1-0.1-0.1-0.2-0.2-0.3l0-0.3
			c-0.2,0.3-0.5,0.5-0.8,0.6c-0.3,0.1-0.7,0.2-1,0.2c-0.3,0-0.6-0.1-0.8-0.2c-0.2-0.1-0.4-0.3-0.6-0.5
			C173.5,143,173.4,142.8,173.4,142.5z M176.5,142.9c0.1-0.1,0.1-0.2,0.2-0.3s0.1-0.2,0.1-0.2v-0.6c-0.2-0.1-0.4-0.1-0.6-0.2
			c-0.2,0-0.4-0.1-0.6-0.1c-0.4,0-0.7,0.1-1,0.2s-0.4,0.4-0.4,0.6c0,0.1,0,0.3,0.1,0.4s0.2,0.3,0.4,0.3c0.2,0.1,0.4,0.1,0.6,0.1
			c0.2,0,0.5,0,0.7-0.1C176.2,143.1,176.4,143,176.5,142.9z"/>
	</g>
</g>
<g>
	<g>
		<path class="st2" d="M245.1,133.1c0-0.2,0-0.5,0.1-0.7c0-0.2,0.1-0.4,0.2-0.6c0.1-0.2,0.3-0.4,0.4-0.6c0.2-0.2,0.4-0.4,0.7-0.5
			c0.2-0.1,0.4-0.2,0.5-0.3c0.2-0.1,0.4-0.2,0.5-0.3c0.2-0.1,0.3-0.2,0.4-0.3c0.1-0.1,0.1-0.3,0.1-0.4c0-0.1,0-0.3-0.1-0.4
			c-0.1-0.1-0.2-0.2-0.4-0.3c-0.2-0.1-0.4-0.1-0.6-0.1c-0.2,0-0.3,0-0.5,0.1c-0.1,0-0.3,0.1-0.4,0.2s-0.2,0.2-0.3,0.2
			s-0.2,0.2-0.2,0.2l-0.5-0.6c0-0.1,0.1-0.1,0.2-0.2c0.1-0.1,0.3-0.2,0.4-0.3c0.2-0.1,0.4-0.2,0.6-0.2c0.2-0.1,0.5-0.1,0.8-0.1
			c0.4,0,0.7,0.1,1,0.2c0.3,0.1,0.5,0.3,0.6,0.5c0.1,0.2,0.2,0.5,0.2,0.7c0,0.2,0,0.4-0.1,0.6c-0.1,0.2-0.2,0.3-0.4,0.5
			c-0.2,0.1-0.3,0.2-0.5,0.3c-0.2,0.1-0.3,0.2-0.4,0.2c-0.3,0.1-0.5,0.3-0.7,0.4c-0.2,0.1-0.3,0.2-0.5,0.3s-0.2,0.2-0.3,0.3
			c-0.1,0.1-0.1,0.3-0.2,0.4h3.2v0.7H245.1z"/>
		<path class="st2" d="M249.9,133.1c0-0.2,0-0.5,0.1-0.7c0-0.2,0.1-0.4,0.2-0.6c0.1-0.2,0.3-0.4,0.4-0.6c0.2-0.2,0.4-0.4,0.7-0.5
			c0.2-0.1,0.4-0.2,0.5-0.3c0.2-0.1,0.4-0.2,0.5-0.3c0.2-0.1,0.3-0.2,0.4-0.3c0.1-0.1,0.1-0.3,0.1-0.4c0-0.1,0-0.3-0.1-0.4
			c-0.1-0.1-0.2-0.2-0.4-0.3s-0.4-0.1-0.6-0.1c-0.2,0-0.3,0-0.5,0.1c-0.1,0-0.3,0.1-0.4,0.2s-0.2,0.2-0.3,0.2s-0.2,0.2-0.2,0.2
			l-0.5-0.6c0-0.1,0.1-0.1,0.2-0.2c0.1-0.1,0.3-0.2,0.4-0.3c0.2-0.1,0.4-0.2,0.6-0.2c0.2-0.1,0.5-0.1,0.8-0.1c0.4,0,0.7,0.1,1,0.2
			c0.3,0.1,0.5,0.3,0.6,0.5c0.1,0.2,0.2,0.5,0.2,0.7c0,0.2,0,0.4-0.1,0.6c-0.1,0.2-0.2,0.3-0.4,0.5c-0.2,0.1-0.3,0.2-0.5,0.3
			c-0.2,0.1-0.3,0.2-0.4,0.2c-0.3,0.1-0.5,0.3-0.7,0.4c-0.2,0.1-0.3,0.2-0.5,0.3c-0.1,0.1-0.2,0.2-0.3,0.3c-0.1,0.1-0.1,0.3-0.2,0.4
			h3.2v0.7H249.9z"/>
		<path class="st2" d="M256,129.3c-0.3,0-0.5-0.1-0.7-0.2c-0.2-0.1-0.4-0.3-0.5-0.5s-0.2-0.4-0.2-0.7c0-0.2,0.1-0.5,0.2-0.7
			s0.3-0.4,0.5-0.5s0.4-0.2,0.7-0.2c0.3,0,0.5,0.1,0.7,0.2s0.4,0.3,0.5,0.5s0.2,0.4,0.2,0.7c0,0.2-0.1,0.5-0.2,0.7s-0.3,0.4-0.5,0.5
			C256.5,129.2,256.3,129.3,256,129.3z M254.9,132.7l2.5-3l2.4-3.1l0.4,0.3l-2.5,3l-2.4,3.1L254.9,132.7z M256,128.8
			c0.1,0,0.3,0,0.4-0.1s0.2-0.2,0.3-0.3c0.1-0.1,0.1-0.3,0.1-0.4c0-0.2,0-0.3-0.1-0.4c-0.1-0.1-0.2-0.2-0.3-0.3
			c-0.1-0.1-0.3-0.1-0.4-0.1c-0.2,0-0.3,0-0.4,0.1s-0.2,0.2-0.3,0.3c-0.1,0.1-0.1,0.3-0.1,0.4c0,0.2,0,0.3,0.1,0.4
			c0.1,0.1,0.2,0.2,0.3,0.3S255.9,128.8,256,128.8z M259.2,133.1c-0.3,0-0.5-0.1-0.7-0.2s-0.4-0.3-0.5-0.5s-0.2-0.4-0.2-0.7
			c0-0.2,0.1-0.5,0.2-0.7c0.1-0.2,0.3-0.4,0.5-0.5c0.2-0.1,0.4-0.2,0.7-0.2s0.5,0.1,0.7,0.2c0.2,0.1,0.4,0.3,0.5,0.5
			c0.1,0.2,0.2,0.4,0.2,0.7c0,0.2-0.1,0.5-0.2,0.7s-0.3,0.4-0.5,0.5S259.4,133.1,259.2,133.1z M259.2,132.7c0.2,0,0.3,0,0.4-0.1
			s0.2-0.2,0.3-0.3c0.1-0.1,0.1-0.3,0.1-0.4c0-0.2,0-0.3-0.1-0.4c-0.1-0.1-0.2-0.2-0.3-0.3s-0.3-0.1-0.4-0.1c-0.1,0-0.3,0-0.4,0.1
			c-0.1,0.1-0.2,0.2-0.3,0.3c-0.1,0.1-0.1,0.3-0.1,0.4c0,0.2,0,0.3,0.1,0.4s0.2,0.2,0.3,0.3S259,132.7,259.2,132.7z"/>
		<path class="st2" d="M223.2,143.2v0.7H220v-0.7h1.3v-3.5c-0.1,0.1-0.1,0.1-0.3,0.2c-0.1,0.1-0.2,0.2-0.4,0.2
			c-0.1,0.1-0.3,0.1-0.4,0.2c-0.1,0-0.3,0.1-0.4,0.1v-0.8c0.1,0,0.3,0,0.4-0.1s0.3-0.2,0.5-0.3c0.1-0.1,0.3-0.2,0.4-0.3
			c0.1-0.1,0.2-0.2,0.2-0.2h0.8v4.4H223.2z"/>
		<path class="st2" d="M227,139.5h-3.3v-0.7h4.5L225,145h-0.9L227,139.5z"/>
		<path class="st2" d="M231.8,139.5h-3.3v-0.7h4.5l-3.2,6.3h-0.9L231.8,139.5z"/>
		<path class="st2" d="M243.1,143.9h-0.8v-2.6c0-0.5-0.1-0.8-0.2-1.1c-0.2-0.2-0.4-0.3-0.7-0.3c-0.3,0-0.6,0.1-0.9,0.3
			c-0.3,0.2-0.4,0.5-0.5,0.9v2.8h-0.8v-2.6c0-0.5-0.1-0.9-0.2-1.1c-0.2-0.2-0.4-0.3-0.7-0.3c-0.3,0-0.6,0.1-0.9,0.3
			s-0.4,0.5-0.6,0.9v2.8H236v-4.7h0.7v1c0.2-0.3,0.4-0.6,0.7-0.8c0.3-0.2,0.7-0.3,1-0.3c0.4,0,0.7,0.1,0.9,0.3
			c0.2,0.2,0.4,0.5,0.4,0.8c0.2-0.4,0.5-0.7,0.8-0.8s0.6-0.3,1-0.3c0.3,0,0.5,0,0.7,0.1c0.2,0.1,0.3,0.2,0.4,0.4
			c0.1,0.2,0.2,0.4,0.2,0.6s0.1,0.5,0.1,0.8V143.9z"/>
		<path class="st2" d="M244.3,138.3v-1h0.8v1H244.3z M244.3,143.9v-4.7h0.8v4.7H244.3z"/>
		<path class="st2" d="M246.4,137.3h0.8v5.4c0,0.3,0,0.4,0.1,0.5s0.2,0.1,0.3,0.1c0.1,0,0.2,0,0.4,0s0.2-0.1,0.3-0.1l0.1,0.6
			c-0.1,0.1-0.3,0.1-0.5,0.1c-0.2,0-0.3,0.1-0.5,0.1c-0.3,0-0.5-0.1-0.7-0.3c-0.2-0.2-0.3-0.4-0.3-0.7V137.3z"/>
		<path class="st2" d="M255.3,143.9h-0.8v-2.6c0-0.5-0.1-0.8-0.3-1.1s-0.4-0.4-0.7-0.4c-0.2,0-0.4,0.1-0.6,0.2
			c-0.2,0.1-0.4,0.3-0.5,0.4s-0.3,0.4-0.3,0.6v2.8h-0.8v-6.6h0.8v2.9c0.2-0.3,0.4-0.6,0.8-0.8c0.3-0.2,0.7-0.3,1-0.3
			c0.3,0,0.5,0,0.7,0.1c0.2,0.1,0.3,0.2,0.5,0.4s0.2,0.4,0.2,0.6c0.1,0.2,0.1,0.5,0.1,0.8V143.9z"/>
		<path class="st2" d="M256.2,142.5c0-0.3,0.1-0.6,0.3-0.8c0.2-0.2,0.4-0.4,0.7-0.5s0.6-0.2,1-0.2c0.2,0,0.4,0,0.7,0
			c0.2,0,0.4,0.1,0.6,0.1v-0.3c0-0.4-0.1-0.6-0.3-0.8s-0.5-0.3-0.9-0.3c-0.3,0-0.5,0-0.7,0.1c-0.2,0.1-0.5,0.2-0.8,0.4l-0.3-0.6
			c0.3-0.2,0.6-0.4,0.9-0.5c0.3-0.1,0.6-0.2,1-0.2c0.6,0,1.1,0.2,1.4,0.5c0.3,0.3,0.5,0.8,0.5,1.4v2c0,0.1,0,0.2,0.1,0.2
			s0.1,0.1,0.2,0.1v0.6c-0.1,0-0.1,0-0.2,0c-0.1,0-0.1,0-0.1,0c-0.2,0-0.3-0.1-0.4-0.2c-0.1-0.1-0.1-0.2-0.2-0.3l0-0.3
			c-0.2,0.3-0.5,0.5-0.8,0.6c-0.3,0.1-0.7,0.2-1,0.2c-0.3,0-0.6-0.1-0.8-0.2c-0.2-0.1-0.4-0.3-0.6-0.5
			C256.2,143,256.2,142.8,256.2,142.5z M259.2,142.9c0.1-0.1,0.1-0.2,0.2-0.3s0.1-0.2,0.1-0.2v-0.6c-0.2-0.1-0.4-0.1-0.6-0.2
			c-0.2,0-0.4-0.1-0.6-0.1c-0.4,0-0.7,0.1-1,0.2s-0.4,0.4-0.4,0.6c0,0.1,0,0.3,0.1,0.4s0.2,0.3,0.4,0.3c0.2,0.1,0.4,0.1,0.6,0.1
			c0.2,0,0.5,0,0.7-0.1C258.9,143.1,259.1,143,259.2,142.9z"/>
	</g>
</g>
<g>
	<g>
		<path class="st2" d="M159.6,193.6v-1.5h-2.9v-0.7l3.1-4.1h0.5v4h0.8v0.7h-0.8v1.5H159.6z M157.5,191.3h2.2v-2.8L157.5,191.3z"/>
		<path class="st2" d="M166.5,190.6c0,0.4-0.1,0.7-0.3,1c-0.2,0.3-0.5,0.5-0.8,0.7s-0.7,0.2-1.1,0.2c-0.4,0-0.8-0.1-1.1-0.3
			c-0.3-0.2-0.6-0.4-0.8-0.7c-0.2-0.3-0.3-0.6-0.3-1c0-0.3,0.1-0.5,0.2-0.7c0.1-0.2,0.3-0.4,0.5-0.5c0.2-0.1,0.4-0.3,0.6-0.3
			c-0.2-0.1-0.3-0.2-0.5-0.3c-0.2-0.1-0.3-0.3-0.4-0.4c-0.1-0.2-0.1-0.4-0.1-0.6c0-0.3,0.1-0.5,0.2-0.7c0.1-0.2,0.3-0.4,0.5-0.5
			s0.4-0.3,0.7-0.3c0.2-0.1,0.5-0.1,0.7-0.1c0.2,0,0.5,0,0.7,0.1s0.5,0.2,0.7,0.3c0.2,0.1,0.4,0.3,0.5,0.5c0.1,0.2,0.2,0.4,0.2,0.7
			c0,0.2,0,0.4-0.1,0.6c-0.1,0.2-0.2,0.3-0.4,0.4c-0.2,0.1-0.3,0.2-0.5,0.3c0.2,0.1,0.4,0.2,0.6,0.4c0.2,0.2,0.3,0.3,0.4,0.5
			C166.4,190.1,166.5,190.4,166.5,190.6z M165.7,190.6c0-0.2,0-0.4-0.1-0.5c-0.1-0.2-0.2-0.3-0.3-0.4c-0.1-0.1-0.3-0.2-0.5-0.2
			c-0.2-0.1-0.3-0.1-0.5-0.1c-0.2,0-0.5,0.1-0.7,0.2c-0.2,0.1-0.4,0.2-0.5,0.4c-0.1,0.2-0.2,0.4-0.2,0.7c0,0.2,0,0.4,0.1,0.5
			s0.2,0.3,0.3,0.4c0.1,0.1,0.3,0.2,0.5,0.2c0.2,0.1,0.3,0.1,0.5,0.1c0.2,0,0.5-0.1,0.7-0.2s0.4-0.2,0.5-0.4
			S165.7,190.8,165.7,190.6z M163,187.8c0,0.2,0.1,0.4,0.2,0.5s0.3,0.3,0.5,0.3c0.2,0.1,0.4,0.1,0.6,0.1c0.2,0,0.4,0,0.6-0.1
			c0.2-0.1,0.3-0.2,0.5-0.3c0.1-0.2,0.2-0.3,0.2-0.6c0-0.2-0.1-0.4-0.2-0.5s-0.3-0.3-0.5-0.3c-0.2-0.1-0.4-0.1-0.6-0.1
			c-0.2,0-0.4,0-0.6,0.1c-0.2,0.1-0.3,0.2-0.5,0.3C163,187.4,163,187.6,163,187.8z"/>
		<path class="st2" d="M168.6,188.6c-0.3,0-0.5-0.1-0.7-0.2s-0.4-0.3-0.5-0.5s-0.2-0.4-0.2-0.7c0-0.2,0.1-0.5,0.2-0.7
			c0.1-0.2,0.3-0.4,0.5-0.5c0.2-0.1,0.4-0.2,0.7-0.2c0.3,0,0.5,0.1,0.7,0.2c0.2,0.1,0.4,0.3,0.5,0.5c0.1,0.2,0.2,0.4,0.2,0.7
			c0,0.2-0.1,0.5-0.2,0.7s-0.3,0.4-0.5,0.5S168.9,188.6,168.6,188.6z M167.5,192.1l2.5-3l2.4-3.1l0.4,0.3l-2.5,3l-2.4,3.1
			L167.5,192.1z M168.6,188.2c0.1,0,0.3,0,0.4-0.1s0.2-0.2,0.3-0.3c0.1-0.1,0.1-0.3,0.1-0.4c0-0.2,0-0.3-0.1-0.4
			c-0.1-0.1-0.2-0.2-0.3-0.3c-0.1-0.1-0.3-0.1-0.4-0.1c-0.2,0-0.3,0-0.4,0.1s-0.2,0.2-0.3,0.3c-0.1,0.1-0.1,0.3-0.1,0.4
			c0,0.2,0,0.3,0.1,0.4s0.2,0.2,0.3,0.3S168.5,188.2,168.6,188.2z M171.8,192.5c-0.3,0-0.5-0.1-0.7-0.2c-0.2-0.1-0.4-0.3-0.5-0.5
			s-0.2-0.4-0.2-0.7c0-0.2,0.1-0.5,0.2-0.7s0.3-0.4,0.5-0.5s0.4-0.2,0.7-0.2s0.5,0.1,0.7,0.2s0.4,0.3,0.5,0.5s0.2,0.4,0.2,0.7
			c0,0.2-0.1,0.5-0.2,0.7s-0.3,0.4-0.5,0.5C172.3,192.4,172,192.5,171.8,192.5z M171.8,192.1c0.2,0,0.3,0,0.4-0.1
			c0.1-0.1,0.2-0.2,0.3-0.3s0.1-0.3,0.1-0.4c0-0.2,0-0.3-0.1-0.4c-0.1-0.1-0.2-0.2-0.3-0.3c-0.1-0.1-0.3-0.1-0.4-0.1
			c-0.1,0-0.3,0-0.4,0.1s-0.2,0.2-0.3,0.3c-0.1,0.1-0.1,0.3-0.1,0.4c0,0.2,0,0.3,0.1,0.4c0.1,0.1,0.2,0.2,0.3,0.3
			C171.5,192,171.6,192.1,171.8,192.1z"/>
		<path class="st2" d="M133.4,201.1c0.3,0,0.5,0.1,0.7,0.3c0.2,0.1,0.3,0.3,0.4,0.6c0.1,0.2,0.2,0.5,0.2,0.8c0,0.4-0.1,0.7-0.3,1
			c-0.2,0.3-0.4,0.5-0.8,0.7c-0.3,0.2-0.7,0.2-1.1,0.2c-0.5,0-0.9-0.1-1.2-0.3c-0.3-0.2-0.6-0.4-0.8-0.7l0.5-0.5
			c0.1,0.2,0.3,0.4,0.6,0.6c0.2,0.1,0.5,0.2,0.9,0.2c0.4,0,0.7-0.1,1-0.3c0.2-0.2,0.4-0.5,0.4-0.9c0-0.4-0.1-0.7-0.4-0.9
			c-0.3-0.2-0.6-0.3-1.1-0.3h-0.2v-0.7h0.3c0.4,0,0.8-0.1,1-0.3c0.2-0.2,0.3-0.5,0.3-0.8c0-0.2-0.1-0.4-0.2-0.5
			c-0.1-0.1-0.2-0.2-0.4-0.3c-0.2-0.1-0.4-0.1-0.6-0.1c-0.3,0-0.6,0.1-0.9,0.2c-0.2,0.1-0.4,0.3-0.6,0.6l-0.5-0.5
			c0.1-0.2,0.3-0.4,0.5-0.5c0.2-0.1,0.4-0.3,0.7-0.4c0.3-0.1,0.6-0.1,0.9-0.1c0.4,0,0.7,0.1,1,0.2c0.3,0.1,0.5,0.3,0.7,0.6
			c0.2,0.2,0.2,0.5,0.2,0.9c0,0.2,0,0.5-0.1,0.7c-0.1,0.2-0.2,0.4-0.4,0.5C133.8,200.9,133.6,201,133.4,201.1z"/>
		<path class="st2" d="M139.9,201.4c0,0.4-0.1,0.7-0.3,1c-0.2,0.3-0.5,0.5-0.8,0.7s-0.7,0.2-1.1,0.2c-0.4,0-0.8-0.1-1.1-0.3
			c-0.3-0.2-0.6-0.4-0.8-0.7c-0.2-0.3-0.3-0.6-0.3-1c0-0.3,0.1-0.5,0.2-0.7s0.3-0.4,0.5-0.5c0.2-0.1,0.4-0.3,0.6-0.3
			c-0.2-0.1-0.3-0.2-0.5-0.3c-0.2-0.1-0.3-0.3-0.4-0.4c-0.1-0.2-0.1-0.4-0.1-0.6c0-0.3,0.1-0.5,0.2-0.7c0.1-0.2,0.3-0.4,0.5-0.5
			s0.4-0.3,0.7-0.3c0.2-0.1,0.5-0.1,0.7-0.1c0.2,0,0.5,0,0.7,0.1s0.5,0.2,0.7,0.3c0.2,0.1,0.4,0.3,0.5,0.5c0.1,0.2,0.2,0.4,0.2,0.7
			c0,0.2,0,0.4-0.1,0.6c-0.1,0.2-0.2,0.3-0.4,0.4c-0.2,0.1-0.3,0.2-0.5,0.3c0.2,0.1,0.4,0.2,0.6,0.4c0.2,0.2,0.3,0.3,0.4,0.5
			C139.9,200.9,139.9,201.2,139.9,201.4z M139.1,201.4c0-0.2,0-0.4-0.1-0.5c-0.1-0.2-0.2-0.3-0.3-0.4c-0.1-0.1-0.3-0.2-0.5-0.2
			c-0.2-0.1-0.3-0.1-0.5-0.1c-0.2,0-0.5,0.1-0.7,0.2c-0.2,0.1-0.4,0.2-0.5,0.4c-0.1,0.2-0.2,0.4-0.2,0.7c0,0.2,0,0.4,0.1,0.5
			s0.2,0.3,0.3,0.4c0.1,0.1,0.3,0.2,0.5,0.2c0.2,0.1,0.3,0.1,0.5,0.1c0.2,0,0.5-0.1,0.7-0.2c0.2-0.1,0.4-0.2,0.5-0.4
			C139.1,201.8,139.1,201.6,139.1,201.4z M136.5,198.6c0,0.2,0.1,0.4,0.2,0.5c0.1,0.2,0.3,0.3,0.5,0.3c0.2,0.1,0.4,0.1,0.6,0.1
			c0.2,0,0.4,0,0.6-0.1c0.2-0.1,0.3-0.2,0.5-0.3s0.2-0.3,0.2-0.6c0-0.2-0.1-0.4-0.2-0.5c-0.1-0.1-0.3-0.3-0.5-0.3
			c-0.2-0.1-0.4-0.1-0.6-0.1c-0.2,0-0.4,0-0.6,0.1c-0.2,0.1-0.3,0.2-0.5,0.3C136.5,198.2,136.5,198.4,136.5,198.6z"/>
		<path class="st2" d="M141,199.1c0.2-0.3,0.5-0.6,0.8-0.8c0.3-0.2,0.7-0.3,1.2-0.3c0.5,0,0.9,0.1,1.2,0.3c0.3,0.2,0.6,0.5,0.8,1
			c0.2,0.4,0.3,0.9,0.3,1.5c0,0.9-0.1,1.6-0.3,2.1c-0.2,0.6-0.5,1-0.8,1.3c-0.4,0.3-0.8,0.4-1.3,0.4c-0.4,0-0.8-0.1-1.1-0.3
			s-0.6-0.5-0.8-0.8l0.5-0.5c0.1,0.3,0.3,0.5,0.6,0.7s0.5,0.3,0.9,0.3c0.3,0,0.6-0.1,0.9-0.3s0.4-0.5,0.6-0.9s0.2-0.8,0.2-1.4
			c-0.1,0.2-0.2,0.4-0.4,0.5s-0.4,0.3-0.6,0.4s-0.5,0.1-0.7,0.1c-0.4,0-0.8-0.1-1.1-0.3s-0.6-0.5-0.8-0.8c-0.2-0.3-0.3-0.7-0.3-1.1
			C140.7,199.8,140.8,199.4,141,199.1z M142.2,198.8c-0.2,0.1-0.4,0.3-0.6,0.6s-0.2,0.5-0.2,0.8c0,0.3,0.1,0.5,0.2,0.8
			s0.3,0.4,0.6,0.6c0.2,0.1,0.5,0.2,0.8,0.2c0.3,0,0.5-0.1,0.8-0.2c0.2-0.1,0.4-0.3,0.5-0.6s0.2-0.5,0.2-0.8c0-0.3-0.1-0.5-0.2-0.8
			c-0.1-0.2-0.3-0.4-0.6-0.6c-0.2-0.1-0.5-0.2-0.8-0.2C142.7,198.6,142.5,198.7,142.2,198.8z"/>
		<path class="st2" d="M155.7,203.2h-0.8v-2.6c0-0.5-0.1-0.8-0.2-1.1c-0.2-0.2-0.4-0.3-0.7-0.3c-0.3,0-0.6,0.1-0.9,0.3
			c-0.3,0.2-0.4,0.5-0.5,0.9v2.8h-0.8v-2.6c0-0.5-0.1-0.9-0.2-1.1c-0.2-0.2-0.4-0.3-0.7-0.3c-0.3,0-0.6,0.1-0.9,0.3
			c-0.3,0.2-0.4,0.5-0.6,0.9v2.8h-0.8v-4.7h0.7v1c0.2-0.3,0.4-0.6,0.7-0.8c0.3-0.2,0.7-0.3,1-0.3c0.4,0,0.7,0.1,0.9,0.3
			c0.2,0.2,0.4,0.5,0.4,0.8c0.2-0.4,0.5-0.7,0.8-0.8s0.6-0.3,1-0.3c0.3,0,0.5,0,0.7,0.1c0.2,0.1,0.3,0.2,0.4,0.4
			c0.1,0.2,0.2,0.4,0.2,0.6s0.1,0.5,0.1,0.8V203.2z"/>
		<path class="st2" d="M156.9,197.7v-1h0.8v1H156.9z M156.9,203.2v-4.7h0.8v4.7H156.9z"/>
		<path class="st2" d="M159,196.7h0.8v5.4c0,0.3,0,0.4,0.1,0.5c0.1,0.1,0.2,0.1,0.3,0.1c0.1,0,0.2,0,0.4,0c0.1,0,0.2-0.1,0.3-0.1
			l0.1,0.6c-0.1,0.1-0.3,0.1-0.5,0.1c-0.2,0-0.3,0.1-0.5,0.1c-0.3,0-0.5-0.1-0.7-0.3c-0.2-0.2-0.3-0.4-0.3-0.7V196.7z"/>
		<path class="st2" d="M167.9,203.2h-0.8v-2.6c0-0.5-0.1-0.8-0.3-1.1c-0.2-0.2-0.4-0.4-0.7-0.4c-0.2,0-0.4,0.1-0.6,0.2
			s-0.4,0.2-0.5,0.4c-0.2,0.2-0.3,0.4-0.3,0.6v2.8h-0.8v-6.6h0.8v2.9c0.2-0.3,0.4-0.6,0.8-0.8c0.3-0.2,0.7-0.3,1-0.3
			c0.3,0,0.5,0,0.7,0.1c0.2,0.1,0.3,0.2,0.5,0.4s0.2,0.4,0.2,0.6c0.1,0.2,0.1,0.5,0.1,0.8V203.2z"/>
		<path class="st2" d="M168.8,201.9c0-0.3,0.1-0.6,0.3-0.8s0.4-0.4,0.7-0.5c0.3-0.1,0.6-0.2,1-0.2c0.2,0,0.4,0,0.7,0
			c0.2,0,0.4,0.1,0.6,0.1v-0.3c0-0.4-0.1-0.6-0.3-0.8s-0.5-0.3-0.9-0.3c-0.3,0-0.5,0-0.7,0.1c-0.2,0.1-0.5,0.2-0.8,0.4l-0.3-0.6
			c0.3-0.2,0.6-0.4,0.9-0.5c0.3-0.1,0.6-0.2,1-0.2c0.6,0,1.1,0.2,1.4,0.5c0.3,0.3,0.5,0.8,0.5,1.4v2c0,0.1,0,0.2,0.1,0.2
			c0,0,0.1,0.1,0.2,0.1v0.6c-0.1,0-0.1,0-0.2,0c-0.1,0-0.1,0-0.1,0c-0.2,0-0.3-0.1-0.4-0.2s-0.1-0.2-0.2-0.3l0-0.3
			c-0.2,0.3-0.5,0.5-0.8,0.6c-0.3,0.1-0.7,0.2-1,0.2c-0.3,0-0.6-0.1-0.8-0.2c-0.2-0.1-0.4-0.3-0.6-0.5
			C168.9,202.4,168.8,202.2,168.8,201.9z M171.8,202.2c0.1-0.1,0.1-0.2,0.2-0.3c0-0.1,0.1-0.2,0.1-0.2v-0.6
			c-0.2-0.1-0.4-0.1-0.6-0.2c-0.2,0-0.4-0.1-0.6-0.1c-0.4,0-0.7,0.1-1,0.2c-0.2,0.2-0.4,0.4-0.4,0.6c0,0.1,0,0.3,0.1,0.4
			c0.1,0.1,0.2,0.3,0.4,0.3s0.4,0.1,0.6,0.1c0.2,0,0.5,0,0.7-0.1C171.5,202.5,171.7,202.4,171.8,202.2z"/>
	</g>
</g>
<g>
	<g>
		<path class="st2" d="M247.4,193.6v-1.5h-2.9v-0.7l3.1-4.1h0.5v4h0.8v0.7h-0.8v1.5H247.4z M245.4,191.3h2.2v-2.8L245.4,191.3z"/>
		<path class="st2" d="M251.7,193.8c-0.5,0-0.9-0.1-1.2-0.3c-0.4-0.2-0.6-0.5-0.8-0.9l0.5-0.4c0.2,0.3,0.4,0.5,0.7,0.7
			c0.3,0.2,0.6,0.3,0.9,0.3c0.3,0,0.5-0.1,0.7-0.2s0.4-0.3,0.5-0.5s0.2-0.5,0.2-0.7c0-0.3-0.1-0.5-0.2-0.7s-0.3-0.4-0.5-0.5
			c-0.2-0.1-0.4-0.2-0.7-0.2s-0.5,0.1-0.7,0.2c-0.2,0.1-0.4,0.3-0.6,0.5h-0.7l0.7-3.7h3.1v0.7h-2.5l-0.4,2c0.1-0.1,0.3-0.2,0.5-0.3
			s0.4-0.1,0.7-0.1c0.4,0,0.8,0.1,1.1,0.3c0.3,0.2,0.6,0.4,0.7,0.7c0.2,0.3,0.3,0.7,0.3,1.1c0,0.4-0.1,0.8-0.3,1.1
			c-0.2,0.3-0.5,0.6-0.8,0.7C252.5,193.7,252.1,193.8,251.7,193.8z"/>
		<path class="st2" d="M256,188.6c-0.3,0-0.5-0.1-0.7-0.2s-0.4-0.3-0.5-0.5s-0.2-0.4-0.2-0.7c0-0.2,0.1-0.5,0.2-0.7
			c0.1-0.2,0.3-0.4,0.5-0.5c0.2-0.1,0.4-0.2,0.7-0.2c0.3,0,0.5,0.1,0.7,0.2c0.2,0.1,0.4,0.3,0.5,0.5c0.1,0.2,0.2,0.4,0.2,0.7
			c0,0.2-0.1,0.5-0.2,0.7s-0.3,0.4-0.5,0.5S256.3,188.6,256,188.6z M254.9,192.1l2.5-3l2.4-3.1l0.4,0.3l-2.5,3l-2.4,3.1L254.9,192.1
			z M256,188.2c0.1,0,0.3,0,0.4-0.1s0.2-0.2,0.3-0.3c0.1-0.1,0.1-0.3,0.1-0.4c0-0.2,0-0.3-0.1-0.4c-0.1-0.1-0.2-0.2-0.3-0.3
			c-0.1-0.1-0.3-0.1-0.4-0.1c-0.2,0-0.3,0-0.4,0.1s-0.2,0.2-0.3,0.3c-0.1,0.1-0.1,0.3-0.1,0.4c0,0.2,0,0.3,0.1,0.4s0.2,0.2,0.3,0.3
			S255.9,188.2,256,188.2z M259.2,192.5c-0.3,0-0.5-0.1-0.7-0.2c-0.2-0.1-0.4-0.3-0.5-0.5s-0.2-0.4-0.2-0.7c0-0.2,0.1-0.5,0.2-0.7
			s0.3-0.4,0.5-0.5s0.4-0.2,0.7-0.2s0.5,0.1,0.7,0.2s0.4,0.3,0.5,0.5s0.2,0.4,0.2,0.7c0,0.2-0.1,0.5-0.2,0.7s-0.3,0.4-0.5,0.5
			C259.7,192.4,259.4,192.5,259.2,192.5z M259.2,192.1c0.2,0,0.3,0,0.4-0.1c0.1-0.1,0.2-0.2,0.3-0.3s0.1-0.3,0.1-0.4
			c0-0.2,0-0.3-0.1-0.4c-0.1-0.1-0.2-0.2-0.3-0.3c-0.1-0.1-0.3-0.1-0.4-0.1c-0.1,0-0.3,0-0.4,0.1s-0.2,0.2-0.3,0.3
			c-0.1,0.1-0.1,0.3-0.1,0.4c0,0.2,0,0.3,0.1,0.4c0.1,0.1,0.2,0.2,0.3,0.3C258.9,192,259,192.1,259.2,192.1z"/>
		<path class="st2" d="M221.2,201.1c0.3,0,0.5,0.1,0.7,0.3c0.2,0.1,0.3,0.3,0.4,0.6c0.1,0.2,0.2,0.5,0.2,0.8c0,0.4-0.1,0.7-0.3,1
			c-0.2,0.3-0.4,0.5-0.8,0.7c-0.3,0.2-0.7,0.2-1.1,0.2c-0.5,0-0.9-0.1-1.2-0.3c-0.3-0.2-0.6-0.4-0.8-0.7l0.5-0.5
			c0.1,0.2,0.3,0.4,0.6,0.6c0.2,0.1,0.5,0.2,0.9,0.2c0.4,0,0.7-0.1,1-0.3s0.4-0.5,0.4-0.9c0-0.4-0.1-0.7-0.4-0.9
			c-0.3-0.2-0.6-0.3-1.1-0.3h-0.2v-0.7h0.3c0.4,0,0.8-0.1,1-0.3c0.2-0.2,0.3-0.5,0.3-0.8c0-0.2-0.1-0.4-0.2-0.5
			c-0.1-0.1-0.2-0.2-0.4-0.3s-0.4-0.1-0.6-0.1c-0.3,0-0.6,0.1-0.9,0.2c-0.2,0.1-0.4,0.3-0.6,0.6l-0.5-0.5c0.1-0.2,0.3-0.4,0.5-0.5
			c0.2-0.1,0.4-0.3,0.7-0.4c0.3-0.1,0.5-0.1,0.9-0.1c0.4,0,0.7,0.1,1,0.2c0.3,0.1,0.5,0.3,0.7,0.6c0.2,0.2,0.2,0.5,0.2,0.9
			c0,0.2,0,0.5-0.1,0.7c-0.1,0.2-0.2,0.4-0.4,0.5C221.6,200.9,221.4,201,221.2,201.1z"/>
		<path class="st2" d="M227.6,202.2c-0.2,0.3-0.5,0.6-0.8,0.8c-0.3,0.2-0.7,0.3-1.2,0.3c-0.5,0-0.9-0.1-1.2-0.3
			c-0.3-0.2-0.6-0.5-0.8-1c-0.2-0.4-0.3-0.9-0.3-1.5c0-0.8,0.1-1.5,0.3-2.1c0.2-0.6,0.5-1,0.8-1.3s0.8-0.4,1.3-0.4
			c0.4,0,0.8,0.1,1.1,0.3s0.6,0.5,0.8,0.8l-0.5,0.5c-0.1-0.3-0.3-0.5-0.6-0.7s-0.5-0.2-0.9-0.2c-0.3,0-0.6,0.1-0.9,0.3
			s-0.4,0.5-0.6,0.9c-0.1,0.4-0.2,0.8-0.2,1.3c0.1-0.2,0.2-0.4,0.4-0.5c0.2-0.2,0.4-0.3,0.6-0.4c0.2-0.1,0.5-0.1,0.7-0.1
			c0.4,0,0.8,0.1,1.1,0.3c0.3,0.2,0.6,0.5,0.8,0.8c0.2,0.3,0.3,0.7,0.3,1.1C227.9,201.5,227.8,201.9,227.6,202.2z M226.4,202.4
			c0.2-0.1,0.4-0.3,0.6-0.6c0.1-0.2,0.2-0.5,0.2-0.8s-0.1-0.5-0.2-0.8c-0.1-0.2-0.3-0.4-0.6-0.5c-0.2-0.1-0.5-0.2-0.8-0.2
			c-0.3,0-0.5,0.1-0.8,0.2c-0.2,0.1-0.4,0.3-0.6,0.5c-0.1,0.2-0.2,0.5-0.2,0.8s0.1,0.5,0.2,0.8c0.1,0.2,0.3,0.4,0.6,0.6
			c0.2,0.1,0.5,0.2,0.8,0.2C225.9,202.6,226.1,202.6,226.4,202.4z"/>
		<path class="st2" d="M228.7,203.2c0-0.2,0-0.5,0.1-0.7c0-0.2,0.1-0.4,0.2-0.6c0.1-0.2,0.3-0.4,0.4-0.6c0.2-0.2,0.4-0.4,0.7-0.5
			c0.2-0.1,0.4-0.2,0.5-0.3c0.2-0.1,0.4-0.2,0.5-0.3c0.2-0.1,0.3-0.2,0.4-0.3c0.1-0.1,0.1-0.3,0.1-0.4c0-0.1,0-0.3-0.1-0.4
			c-0.1-0.1-0.2-0.2-0.4-0.3s-0.4-0.1-0.6-0.1c-0.2,0-0.3,0-0.5,0.1c-0.1,0-0.3,0.1-0.4,0.2s-0.2,0.2-0.3,0.2s-0.2,0.2-0.2,0.2
			l-0.5-0.6c0-0.1,0.1-0.1,0.2-0.2c0.1-0.1,0.3-0.2,0.4-0.3c0.2-0.1,0.4-0.2,0.6-0.2c0.2-0.1,0.5-0.1,0.8-0.1c0.4,0,0.7,0.1,1,0.2
			c0.3,0.1,0.5,0.3,0.6,0.5c0.1,0.2,0.2,0.5,0.2,0.7c0,0.2,0,0.4-0.1,0.6c-0.1,0.2-0.2,0.3-0.4,0.5c-0.2,0.1-0.3,0.2-0.5,0.3
			c-0.2,0.1-0.3,0.2-0.4,0.2c-0.3,0.1-0.5,0.3-0.7,0.4c-0.2,0.1-0.3,0.2-0.5,0.3c-0.1,0.1-0.2,0.2-0.3,0.3c-0.1,0.1-0.1,0.3-0.2,0.4
			h3.2v0.7H228.7z"/>
		<path class="st2" d="M243.1,203.2h-0.8v-2.6c0-0.5-0.1-0.8-0.2-1.1c-0.2-0.2-0.4-0.3-0.7-0.3c-0.3,0-0.6,0.1-0.9,0.3
			c-0.3,0.2-0.4,0.5-0.5,0.9v2.8h-0.8v-2.6c0-0.5-0.1-0.9-0.2-1.1c-0.2-0.2-0.4-0.3-0.7-0.3c-0.3,0-0.6,0.1-0.9,0.3
			c-0.3,0.2-0.4,0.5-0.6,0.9v2.8H236v-4.7h0.7v1c0.2-0.3,0.4-0.6,0.7-0.8c0.3-0.2,0.7-0.3,1-0.3c0.4,0,0.7,0.1,0.9,0.3
			c0.2,0.2,0.4,0.5,0.4,0.8c0.2-0.4,0.5-0.7,0.8-0.8s0.6-0.3,1-0.3c0.3,0,0.5,0,0.7,0.1c0.2,0.1,0.3,0.2,0.4,0.4
			c0.1,0.2,0.2,0.4,0.2,0.6s0.1,0.5,0.1,0.8V203.2z"/>
		<path class="st2" d="M244.3,197.7v-1h0.8v1H244.3z M244.3,203.2v-4.7h0.8v4.7H244.3z"/>
		<path class="st2" d="M246.4,196.7h0.8v5.4c0,0.3,0,0.4,0.1,0.5c0.1,0.1,0.2,0.1,0.3,0.1c0.1,0,0.2,0,0.4,0c0.1,0,0.2-0.1,0.3-0.1
			l0.1,0.6c-0.1,0.1-0.3,0.1-0.5,0.1c-0.2,0-0.3,0.1-0.5,0.1c-0.3,0-0.5-0.1-0.7-0.3c-0.2-0.2-0.3-0.4-0.3-0.7V196.7z"/>
		<path class="st2" d="M255.3,203.2h-0.8v-2.6c0-0.5-0.1-0.8-0.3-1.1c-0.2-0.2-0.4-0.4-0.7-0.4c-0.2,0-0.4,0.1-0.6,0.2
			s-0.4,0.2-0.5,0.4c-0.2,0.2-0.3,0.4-0.3,0.6v2.8h-0.8v-6.6h0.8v2.9c0.2-0.3,0.4-0.6,0.8-0.8c0.3-0.2,0.7-0.3,1-0.3
			c0.3,0,0.5,0,0.7,0.1c0.2,0.1,0.3,0.2,0.5,0.4s0.2,0.4,0.2,0.6c0.1,0.2,0.1,0.5,0.1,0.8V203.2z"/>
		<path class="st2" d="M256.2,201.9c0-0.3,0.1-0.6,0.3-0.8s0.4-0.4,0.7-0.5c0.3-0.1,0.6-0.2,1-0.2c0.2,0,0.4,0,0.7,0
			c0.2,0,0.4,0.1,0.6,0.1v-0.3c0-0.4-0.1-0.6-0.3-0.8s-0.5-0.3-0.9-0.3c-0.3,0-0.5,0-0.7,0.1c-0.2,0.1-0.5,0.2-0.8,0.4l-0.3-0.6
			c0.3-0.2,0.6-0.4,0.9-0.5c0.3-0.1,0.6-0.2,1-0.2c0.6,0,1.1,0.2,1.4,0.5c0.3,0.3,0.5,0.8,0.5,1.4v2c0,0.1,0,0.2,0.1,0.2
			c0,0,0.1,0.1,0.2,0.1v0.6c-0.1,0-0.1,0-0.2,0c-0.1,0-0.1,0-0.1,0c-0.2,0-0.3-0.1-0.4-0.2s-0.1-0.2-0.2-0.3l0-0.3
			c-0.2,0.3-0.5,0.5-0.8,0.6c-0.3,0.1-0.7,0.2-1,0.2c-0.3,0-0.6-0.1-0.8-0.2c-0.2-0.1-0.4-0.3-0.6-0.5
			C256.2,202.4,256.2,202.2,256.2,201.9z M259.2,202.2c0.1-0.1,0.1-0.2,0.2-0.3c0-0.1,0.1-0.2,0.1-0.2v-0.6
			c-0.2-0.1-0.4-0.1-0.6-0.2c-0.2,0-0.4-0.1-0.6-0.1c-0.4,0-0.7,0.1-1,0.2c-0.2,0.2-0.4,0.4-0.4,0.6c0,0.1,0,0.3,0.1,0.4
			c0.1,0.1,0.2,0.3,0.4,0.3s0.4,0.1,0.6,0.1c0.2,0,0.5,0,0.7-0.1C258.9,202.5,259.1,202.4,259.2,202.2z"/>
	</g>
</g>
<g>
	<g>
		<path class="st2" d="M13.5,24v0.9H9.6V24h1.6v-4.3c-0.1,0.1-0.2,0.2-0.3,0.3c-0.1,0.1-0.3,0.2-0.5,0.3c-0.2,0.1-0.4,0.2-0.5,0.2
			c-0.2,0.1-0.3,0.1-0.5,0.1v-0.9c0.2,0,0.3,0,0.5-0.1s0.4-0.2,0.6-0.3c0.2-0.1,0.3-0.2,0.5-0.4c0.1-0.1,0.2-0.2,0.2-0.2h1V24H13.5z
			"/>
		<path class="st2" d="M14.6,19.8c0.2-0.4,0.6-0.7,1-1s0.9-0.4,1.4-0.4c0.6,0,1.1,0.1,1.5,0.4s0.8,0.7,1,1.2
			c0.2,0.5,0.4,1.1,0.4,1.9c0,1.1-0.1,1.9-0.4,2.6c-0.2,0.7-0.6,1.2-1,1.6s-1,0.5-1.5,0.5c-0.5,0-1-0.1-1.4-0.4
			c-0.4-0.2-0.7-0.6-1-1l0.6-0.6c0.2,0.3,0.4,0.6,0.7,0.8c0.3,0.2,0.7,0.3,1.1,0.3c0.4,0,0.8-0.1,1.1-0.4c0.3-0.3,0.5-0.6,0.7-1.1
			c0.2-0.5,0.3-1,0.3-1.7c-0.1,0.2-0.3,0.5-0.5,0.7c-0.2,0.2-0.4,0.3-0.7,0.4c-0.3,0.1-0.6,0.2-0.9,0.2c-0.5,0-1-0.1-1.4-0.4
			c-0.4-0.2-0.7-0.6-1-1c-0.2-0.4-0.4-0.9-0.4-1.4C14.2,20.7,14.3,20.2,14.6,19.8z M16.1,19.5c-0.3,0.2-0.5,0.4-0.7,0.7
			c-0.2,0.3-0.3,0.6-0.3,1c0,0.3,0.1,0.7,0.3,1c0.2,0.3,0.4,0.5,0.7,0.7c0.3,0.2,0.6,0.3,0.9,0.3c0.3,0,0.7-0.1,0.9-0.3
			c0.3-0.2,0.5-0.4,0.7-0.7c0.2-0.3,0.3-0.6,0.3-1c0-0.3-0.1-0.7-0.3-1c-0.2-0.3-0.4-0.5-0.7-0.7s-0.6-0.3-0.9-0.3
			C16.6,19.2,16.3,19.3,16.1,19.5z"/>
		<path class="st2" d="M26.3,22.7c0,0.5-0.1,0.9-0.4,1.2c-0.3,0.3-0.6,0.6-1,0.8S24,25,23.5,25c-0.5,0-1-0.1-1.4-0.3
			c-0.4-0.2-0.7-0.5-1-0.8s-0.4-0.8-0.4-1.2c0-0.3,0.1-0.6,0.2-0.9c0.1-0.3,0.3-0.5,0.6-0.7s0.5-0.3,0.7-0.4
			c-0.2-0.1-0.4-0.2-0.6-0.4c-0.2-0.2-0.3-0.3-0.4-0.5c-0.1-0.2-0.2-0.4-0.2-0.7c0-0.3,0.1-0.6,0.2-0.9c0.1-0.3,0.3-0.5,0.6-0.6
			c0.2-0.2,0.5-0.3,0.8-0.4c0.3-0.1,0.6-0.1,0.9-0.1c0.3,0,0.6,0,0.9,0.1c0.3,0.1,0.6,0.2,0.8,0.4s0.4,0.4,0.6,0.6
			c0.1,0.3,0.2,0.5,0.2,0.9c0,0.2-0.1,0.5-0.2,0.7c-0.1,0.2-0.3,0.4-0.4,0.5c-0.2,0.2-0.4,0.3-0.6,0.4c0.3,0.1,0.5,0.2,0.7,0.4
			s0.4,0.4,0.5,0.7S26.3,22.4,26.3,22.7z M25.3,22.6c0-0.2-0.1-0.4-0.2-0.6c-0.1-0.2-0.2-0.3-0.4-0.5c-0.2-0.1-0.4-0.2-0.6-0.3
			s-0.4-0.1-0.6-0.1c-0.3,0-0.6,0.1-0.8,0.2s-0.5,0.3-0.7,0.5c-0.2,0.2-0.3,0.5-0.3,0.8c0,0.2,0.1,0.4,0.2,0.6
			c0.1,0.2,0.2,0.3,0.4,0.5c0.2,0.1,0.4,0.2,0.6,0.3c0.2,0.1,0.4,0.1,0.6,0.1c0.3,0,0.6-0.1,0.8-0.2c0.3-0.1,0.5-0.3,0.7-0.5
			S25.3,22.9,25.3,22.6z M22.1,19.2c0,0.3,0.1,0.5,0.2,0.7c0.2,0.2,0.3,0.3,0.6,0.4c0.2,0.1,0.5,0.1,0.7,0.1c0.2,0,0.5,0,0.7-0.1
			c0.2-0.1,0.4-0.2,0.6-0.4c0.2-0.2,0.2-0.4,0.2-0.7c0-0.3-0.1-0.5-0.2-0.6s-0.3-0.3-0.6-0.4c-0.2-0.1-0.5-0.1-0.7-0.1
			c-0.3,0-0.5,0-0.7,0.1c-0.2,0.1-0.4,0.2-0.6,0.4C22.1,18.7,22.1,18.9,22.1,19.2z"/>
		<path class="st2" d="M29.7,26.5c-0.6,0-1.1-0.1-1.5-0.4c-0.4-0.3-0.8-0.6-1-1.1l0.6-0.5c0.2,0.3,0.5,0.6,0.8,0.8
			c0.3,0.2,0.7,0.3,1.1,0.3c0.3,0,0.6-0.1,0.9-0.2c0.3-0.1,0.5-0.4,0.6-0.6c0.2-0.3,0.2-0.6,0.2-0.9c0-0.3-0.1-0.6-0.2-0.9
			c-0.2-0.2-0.4-0.4-0.6-0.6c-0.3-0.1-0.5-0.2-0.9-0.2c-0.3,0-0.6,0.1-0.9,0.2s-0.5,0.3-0.7,0.6h-0.9l0.9-4.5h3.8v0.9H29L28.5,22
			c0.2-0.2,0.4-0.3,0.6-0.4c0.2-0.1,0.5-0.1,0.8-0.1c0.5,0,0.9,0.1,1.3,0.3c0.4,0.2,0.7,0.5,0.9,0.9c0.2,0.4,0.3,0.8,0.3,1.3
			c0,0.5-0.1,1-0.4,1.4c-0.2,0.4-0.6,0.7-1,0.9S30.3,26.5,29.7,26.5z"/>
	</g>
</g>
<g>
	<g>
		<path class="st2" d="M68.2,24.9c0-0.3,0-0.6,0.1-0.8s0.1-0.5,0.3-0.7c0.1-0.2,0.3-0.5,0.5-0.7c0.2-0.2,0.5-0.4,0.9-0.6
			c0.2-0.1,0.4-0.2,0.7-0.4c0.2-0.1,0.4-0.2,0.6-0.4c0.2-0.1,0.4-0.3,0.5-0.4c0.1-0.2,0.2-0.3,0.2-0.5c0-0.2,0-0.3-0.1-0.5
			c-0.1-0.2-0.2-0.3-0.4-0.4s-0.4-0.2-0.7-0.2c-0.2,0-0.4,0-0.6,0.1s-0.3,0.1-0.5,0.2s-0.3,0.2-0.4,0.3c-0.1,0.1-0.2,0.2-0.3,0.3
			l-0.6-0.7c0.1-0.1,0.2-0.2,0.3-0.3s0.3-0.2,0.5-0.3c0.2-0.1,0.5-0.2,0.7-0.3c0.3-0.1,0.6-0.1,0.9-0.1c0.5,0,0.8,0.1,1.2,0.2
			s0.6,0.4,0.8,0.6c0.2,0.3,0.3,0.6,0.3,0.9c0,0.3-0.1,0.5-0.2,0.8s-0.3,0.4-0.5,0.6s-0.4,0.3-0.6,0.4c-0.2,0.1-0.4,0.2-0.5,0.3
			c-0.3,0.2-0.6,0.3-0.8,0.4c-0.2,0.1-0.4,0.3-0.6,0.4c-0.2,0.1-0.3,0.3-0.4,0.4c-0.1,0.1-0.2,0.3-0.2,0.5h3.9v0.9H68.2z"/>
		<path class="st2" d="M79.8,21.7c0,0.6-0.1,1.2-0.4,1.7c-0.2,0.5-0.6,0.9-1,1.2S77.5,25,77,25s-1-0.1-1.4-0.4
			c-0.4-0.3-0.7-0.7-1-1.2s-0.4-1.1-0.4-1.7s0.1-1.2,0.4-1.7c0.2-0.5,0.6-0.9,1-1.2c0.4-0.3,0.9-0.4,1.4-0.4s1,0.1,1.4,0.4
			c0.4,0.3,0.7,0.7,1,1.2C79.6,20.5,79.8,21.1,79.8,21.7z M78.8,21.7c0-0.5-0.1-0.9-0.2-1.2c-0.2-0.4-0.4-0.6-0.6-0.8
			c-0.3-0.2-0.6-0.3-0.9-0.3c-0.4,0-0.7,0.1-0.9,0.3c-0.3,0.2-0.5,0.5-0.6,0.8c-0.2,0.4-0.2,0.8-0.2,1.2c0,0.5,0.1,0.9,0.2,1.2
			s0.4,0.6,0.6,0.8c0.3,0.2,0.6,0.3,0.9,0.3c0.4,0,0.7-0.1,0.9-0.3c0.3-0.2,0.5-0.5,0.6-0.8C78.7,22.6,78.8,22.2,78.8,21.7z"/>
		<path class="st2" d="M85,24v0.9h-3.9V24h1.6v-4.3c-0.1,0.1-0.2,0.2-0.3,0.3c-0.1,0.1-0.3,0.2-0.5,0.3c-0.2,0.1-0.4,0.2-0.5,0.2
			c-0.2,0.1-0.3,0.1-0.5,0.1v-0.9c0.2,0,0.3,0,0.5-0.1s0.4-0.2,0.6-0.3c0.2-0.1,0.3-0.2,0.5-0.4c0.1-0.1,0.2-0.2,0.2-0.2h1V24H85z"
			/>
		<path class="st2" d="M86.1,19.8c0.2-0.4,0.6-0.7,1-1s0.9-0.4,1.4-0.4c0.6,0,1.1,0.1,1.5,0.4s0.8,0.7,1,1.2
			c0.2,0.5,0.4,1.1,0.4,1.9c0,1.1-0.1,1.9-0.4,2.6c-0.2,0.7-0.6,1.2-1,1.6s-1,0.5-1.5,0.5c-0.5,0-1-0.1-1.4-0.4
			c-0.4-0.2-0.7-0.6-1-1l0.6-0.6c0.2,0.3,0.4,0.6,0.7,0.8c0.3,0.2,0.7,0.3,1.1,0.3c0.4,0,0.8-0.1,1.1-0.4c0.3-0.3,0.5-0.6,0.7-1.1
			c0.2-0.5,0.3-1,0.3-1.7c-0.1,0.2-0.3,0.5-0.5,0.7c-0.2,0.2-0.4,0.3-0.7,0.4c-0.3,0.1-0.6,0.2-0.9,0.2c-0.5,0-1-0.1-1.4-0.4
			c-0.4-0.2-0.7-0.6-1-1c-0.2-0.4-0.4-0.9-0.4-1.4C85.7,20.7,85.8,20.2,86.1,19.8z M87.5,19.5c-0.3,0.2-0.5,0.4-0.7,0.7
			c-0.2,0.3-0.3,0.6-0.3,1c0,0.3,0.1,0.7,0.3,1c0.2,0.3,0.4,0.5,0.7,0.7c0.3,0.2,0.6,0.3,0.9,0.3c0.3,0,0.7-0.1,0.9-0.3
			c0.3-0.2,0.5-0.4,0.7-0.7c0.2-0.3,0.3-0.6,0.3-1c0-0.3-0.1-0.7-0.3-1c-0.2-0.3-0.4-0.5-0.7-0.7s-0.6-0.3-0.9-0.3
			C88.1,19.2,87.8,19.3,87.5,19.5z"/>
	</g>
</g>
</svg>
